<?xml version="1.0" standalone="no"?>
<!DOCTYPE svg PUBLIC "-//W3C//DTD SVG 1.1//EN" "http://www.w3.org/Graphics/SVG/1.1/DTD/svg11.dtd" >
<svg xmlns="http://www.w3.org/2000/svg">
<metadata>
This is a custom SVG webfont generated by Font Squirrel.
Copyright   : Digitized data copyright  2006 Google Corporation
Foundry     : Ascender Corporation
Foundry URL : httpwwwascendercorpcom
</metadata>
<defs>
<font id="DroidSansBold" horiz-adv-x="1128" >
<font-face units-per-em="2048" ascent="1638" descent="-410" />
<missing-glyph horiz-adv-x="532" />
<glyph unicode=" "  horiz-adv-x="532" />
<glyph unicode="&#x09;" horiz-adv-x="532" />
<glyph unicode="&#xa0;" horiz-adv-x="532" />
<glyph unicode="!" horiz-adv-x="586" d="M117 143q0 47 13.5 79.5t37.5 52.5t56 29t69 9q35 0 66.5 -9t55.5 -29t38 -52.5t14 -79.5q0 -45 -14 -77t-38 -53t-55.5 -30.5t-66.5 -9.5q-37 0 -69 9.5t-56 30.5t-37.5 53t-13.5 77zM121 1462h346l-51 -977h-244z" />
<glyph unicode="&#x22;" horiz-adv-x="967" d="M133 1462h279l-41 -528h-197zM555 1462h279l-41 -528h-197z" />
<glyph unicode="#" horiz-adv-x="1323" d="M45 406v206h277l47 232h-252v209h289l77 407h219l-77 -407h198l78 407h215l-78 -407h240v-209h-279l-47 -232h258v-206h-297l-77 -406h-220l78 406h-194l-76 -406h-215l74 406h-238zM539 612h196l47 232h-196z" />
<glyph unicode="$" d="M98 1044q0 75 28.5 136.5t81.5 107t129 74t171 37.5v157h137v-151q87 -5 178 -25t191 -63l-101 -234q-65 26 -135.5 46.5t-132.5 25.5v-293l39 -14q95 -35 166 -72t118 -83t70 -103t23 -133q0 -75 -26.5 -139t-79 -112t-130.5 -79t-180 -41v-205h-137v201q-66 2 -122 8 t-105 17t-93.5 26.5t-87.5 34.5v264q42 -21 91.5 -40t102.5 -34.5t107.5 -26.5t106.5 -14v318q-8 3 -17 7l-16 6q-8 3 -14 5q-91 35 -159 73t-113.5 85t-68 104t-22.5 129zM399 1051q0 -47 26 -78.5t83 -52.5v233q-54 -6 -81.5 -30t-27.5 -72zM645 328q59 9 87 39t28 84 q0 24 -6.5 42t-20.5 33t-35.5 27.5t-52.5 26.5v-252z" />
<glyph unicode="%" horiz-adv-x="1804" d="M63 1026q0 108 20 193t62.5 143.5t107.5 89.5t155 31q86 0 151.5 -31t109.5 -89.5t66.5 -143.5t22.5 -193t-20.5 -194t-63.5 -145t-109 -90.5t-157 -31.5q-85 0 -149.5 31.5t-108 90.5t-65.5 145t-22 194zM315 1024q0 -127 22.5 -189.5t72.5 -62.5q49 0 72.5 62t23.5 190 q0 250 -96 250q-50 0 -72.5 -61.5t-22.5 -188.5zM375 0l811 1462h239l-811 -1462h-239zM1047 442q0 108 20 193t62 143.5t107 89.5t155 31q86 0 151.5 -31t109.5 -89.5t66.5 -143.5t22.5 -193t-20.5 -193.5t-63.5 -144.5t-109 -90.5t-157 -31.5q-85 0 -149 31.5t-107.5 90.5 t-65.5 144.5t-22 193.5zM1298 440q0 -127 22.5 -189.5t72.5 -62.5q49 0 72.5 62t23.5 190q0 250 -96 250q-50 0 -72.5 -61.5t-22.5 -188.5z" />
<glyph unicode="&#x26;" horiz-adv-x="1479" d="M82 395q0 77 18.5 137.5t52.5 109.5t82.5 89t108.5 76q-38 46 -64.5 88.5t-42.5 84t-23 83t-7 86.5q0 78 30.5 139.5t85 105t130 66.5t165.5 23q86 0 158.5 -21t125 -61.5t82.5 -100t30 -135.5q0 -69 -22.5 -126.5t-60.5 -106.5t-89.5 -90t-110.5 -76l260 -268 q35 66 61.5 139t45.5 147h317q-15 -57 -35.5 -120t-47.5 -126.5t-62 -126.5t-78 -120l283 -291h-377l-97 100q-80 -55 -176.5 -87.5t-212.5 -32.5q-120 0 -217.5 30t-167 84.5t-107.5 131t-38 169.5zM403 424q0 -44 16 -79t44.5 -59t67 -37t83.5 -13q60 0 111 15.5t94 43.5 l-309 330q-51 -42 -79 -90t-28 -111zM489 1122q0 -52 23 -98t63 -92q77 44 116.5 88t39.5 104q0 31 -10 52.5t-26.5 35.5t-37 20.5t-41.5 6.5q-22 0 -44.5 -6t-41 -19.5t-30 -36t-11.5 -55.5z" />
<glyph unicode="'" horiz-adv-x="545" d="M133 1462h279l-41 -528h-197z" />
<glyph unicode="(" horiz-adv-x="694" d="M82 561q0 125 18 246.5t55 236t93.5 220t134.5 198.5h250q-141 -193 -213 -424t-72 -475q0 -119 18 -237t54 -231t89 -219t122 -200h-248q-78 90 -134.5 193t-93.5 215.5t-55 232.5t-18 244z" />
<glyph unicode=")" horiz-adv-x="694" d="M61 1462h250q78 -93 134.5 -198.5t93.5 -220t55 -236t18 -246.5q0 -124 -18 -244t-55 -232.5t-93.5 -215.5t-134.5 -193h-248q69 94 122 200t89 219t54 231t18 237q0 244 -72 475t-213 424z" />
<glyph unicode="*" horiz-adv-x="1116" d="M63 1042l39 250l365 -104l-41 368h262l-41 -368l373 104l33 -252l-340 -24l223 -297l-227 -121l-156 313l-137 -311l-236 119l221 297z" />
<glyph unicode="+" d="M88 612v219h367v369h219v-369h366v-219h-366v-364h-219v364h-367z" />
<glyph unicode="," horiz-adv-x="594" d="M63 -264q15 61 29.5 127t28 131.5t24.5 128t19 115.5h280l15 -23q-14 -54 -33.5 -115t-43 -123t-49 -123.5t-50.5 -117.5h-220z" />
<glyph unicode="-" horiz-adv-x="659" d="M61 424v250h537v-250h-537z" />
<glyph unicode="." horiz-adv-x="584" d="M117 143q0 47 13.5 79.5t37.5 52.5t56 29t69 9q35 0 66.5 -9t55.5 -29t38 -52.5t14 -79.5q0 -45 -14 -77t-38 -53t-55.5 -30.5t-66.5 -9.5q-37 0 -69 9.5t-56 30.5t-37.5 53t-13.5 77z" />
<glyph unicode="/" horiz-adv-x="846" d="M14 0l545 1462h277l-545 -1462h-277z" />
<glyph unicode="0" d="M63 731q0 177 27.5 317t87.5 237t155 148.5t230 51.5q126 0 220 -51t157 -148t94 -237t31 -318q0 -177 -27.5 -316t-88 -236t-156 -148t-230.5 -51q-127 0 -221 51t-156 148t-92.5 236t-30.5 316zM371 731q0 -250 43 -376t149 -126q104 0 149.5 125t45.5 377 q0 251 -45.5 377.5t-149.5 126.5q-53 0 -89.5 -32t-59.5 -95t-33 -157.5t-10 -219.5z" />
<glyph unicode="1" d="M92 1087l471 375h254v-1462h-309v846q0 26 0.5 62.5t2 76t3 79.5t2.5 73q-5 -6 -17 -18t-27 -26.5t-31 -29.5t-31 -27l-168 -135z" />
<glyph unicode="2" d="M78 1274q45 41 94 78.5t108 66.5t130 46.5t159 17.5q105 0 188.5 -29t142.5 -82.5t90.5 -129.5t31.5 -171q0 -86 -30 -164.5t-82 -154t-120.5 -150t-146.5 -151.5l-176 -177v-14h596v-260h-981v215l344 371q65 70 118 129t91 115t59 114t21 125q0 74 -44.5 115t-119.5 41 q-79 0 -152 -39t-153 -111z" />
<glyph unicode="3" d="M57 59v263q45 -24 95 -42t100 -30.5t98.5 -18.5t91.5 -6q86 0 143 16t91 45t48.5 69.5t14.5 88.5q0 45 -18.5 81.5t-60 62t-108.5 39.5t-165 14h-104v217h102q92 0 153 16.5t97.5 45t51.5 66.5t15 81q0 78 -48.5 122t-153.5 44q-48 0 -89.5 -9.5t-77 -24t-65 -32 t-53.5 -34.5l-156 206q42 31 91.5 57t107.5 45.5t125 30.5t143 11q108 0 196.5 -23.5t151.5 -68t97.5 -109t34.5 -147.5q0 -76 -24.5 -136.5t-67 -106t-100 -76t-124.5 -46.5v-6q177 -22 268 -107.5t91 -230.5q0 -96 -34.5 -177.5t-106 -141.5t-180 -93.5t-255.5 -33.5 q-118 0 -222 19.5t-194 59.5z" />
<glyph unicode="4" d="M4 303v215l621 944h284v-919h176v-240h-176v-303h-301v303h-604zM276 543h332v248q0 13 0.5 37.5t1.5 55.5t2.5 64t3 63t3 52.5t2.5 32.5h-9q-18 -42 -40.5 -89t-51.5 -94z" />
<glyph unicode="5" d="M86 59v267q35 -20 81 -37.5t95.5 -30t99.5 -20t95 -7.5q134 0 204 55.5t70 176.5q0 108 -68.5 164.5t-211.5 56.5q-26 0 -55.5 -3t-58 -8t-54.5 -10.5t-45 -11.5l-123 66l55 745h772v-262h-504l-24 -287q32 7 74.5 14t109.5 7q94 0 175 -29t141 -85t94 -139.5t34 -191.5 q0 -119 -37 -213.5t-109 -160t-178.5 -100.5t-244.5 -35q-55 0 -109 5t-103.5 14.5t-94 24.5t-80.5 35z" />
<glyph unicode="6" d="M76 621q0 105 11.5 209t41 199.5t80 177.5t128 142.5t186 95t253.5 34.5q21 0 46 -1t50.5 -2.5t49.5 -4.5t43 -7v-247q-38 9 -80.5 14.5t-85.5 5.5q-135 0 -222 -33.5t-138 -93.5t-72.5 -144t-26.5 -186h12q20 36 48.5 67.5t66.5 54t85.5 35.5t106.5 13q95 0 171 -31 t128.5 -90t80.5 -145t28 -197q0 -119 -33.5 -213t-95.5 -159.5t-150 -100t-198 -34.5q-108 0 -202 38.5t-163.5 117.5t-109 199.5t-39.5 285.5zM383 510q0 -51 12.5 -101.5t38 -91t63 -65.5t87.5 -25q41 0 74.5 15.5t58 47t38 79.5t13.5 114q0 107 -44.5 168.5t-135.5 61.5 q-46 0 -84 -18t-65 -47t-41.5 -65t-14.5 -73z" />
<glyph unicode="7" d="M55 1200v260h1008v-194l-533 -1266h-323l520 1200h-672z" />
<glyph unicode="8" d="M72 371q0 75 22 135t60 108t89 85t109 65q-49 31 -92 67.5t-74.5 81t-50 98.5t-18.5 119q0 87 36.5 152.5t98.5 110t143 66.5t170 22q91 0 172 -22t142 -66t97 -110t36 -155q0 -66 -20 -119.5t-55 -97t-83 -77.5t-104 -62q58 -31 113.5 -69t98.5 -85.5t69 -106.5t26 -132 q0 -91 -36 -165t-101 -126t-155.5 -80t-199.5 -28q-118 0 -210 27t-155 77t-95.5 123t-32.5 164zM358 389q0 -40 13 -73.5t38.5 -57.5t63.5 -37.5t88 -13.5q105 0 157 49.5t52 130.5q0 42 -17.5 75.5t-45 62t-62.5 52.5t-70 46l-22 14q-44 -22 -80 -47.5t-61.5 -56 t-39.5 -66.5t-14 -78zM408 1106q0 -42 12.5 -72.5t34 -54t50 -42t60.5 -36.5q31 16 59 35t49.5 43.5t34.5 55.5t13 71q0 35 -12 63t-33 47t-50 29t-63 10q-33 0 -61.5 -10t-49 -29t-32.5 -47t-12 -63z" />
<glyph unicode="9" d="M63 971q0 119 33.5 213t95.5 159.5t150.5 100.5t198.5 35q108 0 202 -38.5t163 -117.5t109 -200t40 -285q0 -105 -11.5 -209.5t-41 -199.5t-80 -177.5t-128 -142.5t-186 -94.5t-254.5 -34.5q-21 0 -46 1t-50.5 2.5t-49.5 4t-42 6.5v248q37 -10 79.5 -15.5t86.5 -5.5 q135 0 222 33.5t138 94t72.5 144.5t26.5 185h-13q-20 -36 -48 -67t-66 -54t-86 -36t-107 -13q-95 0 -171 31t-128.5 90t-80.5 145t-28 197zM362 975q0 -106 45 -168t136 -62q46 0 84 18t65 47t41.5 65t14.5 73q0 51 -12.5 101.5t-38 91t-63 65.5t-87.5 25q-41 0 -75 -15 t-58.5 -46.5t-38 -80t-13.5 -114.5z" />
<glyph unicode=":" horiz-adv-x="584" d="M117 143q0 47 13.5 79.5t37.5 52.5t56 29t69 9q35 0 66.5 -9t55.5 -29t38 -52.5t14 -79.5q0 -45 -14 -77t-38 -53t-55.5 -30.5t-66.5 -9.5q-37 0 -69 9.5t-56 30.5t-37.5 53t-13.5 77zM117 969q0 47 13.5 79.5t37.5 52.5t56 29t69 9q35 0 66.5 -9t55.5 -29t38 -52.5 t14 -79.5q0 -45 -14 -77.5t-38 -53t-55.5 -30t-66.5 -9.5q-37 0 -69 9.5t-56 30t-37.5 53t-13.5 77.5z" />
<glyph unicode=";" horiz-adv-x="594" d="M63 -264q15 61 29.5 127t28 131.5t24.5 128t19 115.5h280l15 -23q-14 -54 -33.5 -115t-43 -123t-49 -123.5t-50.5 -117.5h-220zM117 969q0 47 13.5 79.5t37.5 52.5t56 29t69 9q35 0 66.5 -9t55.5 -29t38 -52.5t14 -79.5q0 -45 -14 -77.5t-38 -53t-55.5 -30t-66.5 -9.5 q-37 0 -69 9.5t-56 30t-37.5 53t-13.5 77.5z" />
<glyph unicode="&#x3c;" d="M88 641v143l952 496v-240l-643 -317l643 -281v-239z" />
<glyph unicode="=" d="M88 418v219h952v-219h-952zM88 807v217h952v-217h-952z" />
<glyph unicode="&#x3e;" d="M88 203v239l643 281l-643 317v240l952 -496v-143z" />
<glyph unicode="?" horiz-adv-x="940" d="M25 1358q43 25 93.5 47.5t105 40t110.5 27.5t110 10q102 0 184 -24.5t139 -71.5t87.5 -114t30.5 -153q0 -63 -14 -112.5t-41.5 -92t-69 -82t-96.5 -83.5q-42 -33 -68.5 -57.5t-41.5 -46.5t-20.5 -45.5t-5.5 -55.5v-60h-264v74q0 51 10.5 92.5t32 79t55.5 73t82 73.5 q42 33 71 59t47 51.5t26 53.5t8 65q0 57 -38.5 94t-117.5 37q-69 0 -148.5 -29t-164.5 -71zM231 143q0 47 13.5 79.5t37.5 52.5t56.5 29t69.5 9q35 0 66.5 -9t55.5 -29t38 -52.5t14 -79.5q0 -45 -14 -77t-38 -53t-55.5 -30.5t-66.5 -9.5q-37 0 -69.5 9.5t-56.5 30.5 t-37.5 53t-13.5 77z" />
<glyph unicode="@" horiz-adv-x="1774" d="M102 602q0 124 27 237.5t78 211t124.5 177t167.5 136t207 87t242 30.5q158 0 291 -50.5t229.5 -145t150.5 -229.5t54 -304q0 -95 -22.5 -188t-68.5 -166.5t-115.5 -119t-163.5 -45.5q-38 0 -71.5 9.5t-61.5 27t-48.5 41t-31.5 51.5h-15q-19 -25 -44 -48.5t-56 -41.5 t-68.5 -28.5t-81.5 -10.5q-83 0 -147.5 28.5t-108.5 81t-67 126t-23 162.5q0 103 31 189t89 148.5t141 97t186 34.5q45 0 93 -5t92.5 -13t83.5 -18t67 -20l-21 -419q-2 -22 -2 -43v-27q0 -42 6.5 -69t17 -42.5t24 -21.5t28.5 -6q35 0 61 27t43 73t26 107.5t9 130.5 q0 128 -38 228t-105.5 169t-160.5 105t-202 36q-153 0 -269.5 -51t-195 -142.5t-119 -216.5t-40.5 -274q0 -138 35 -244.5t104 -179t170 -110t233 -37.5q56 0 115 7t117.5 19t115 29t107.5 37v-192q-94 -42 -208.5 -66.5t-244.5 -24.5q-181 0 -323.5 51.5t-240.5 148.5 t-150 237.5t-52 318.5zM711 627q0 -112 38 -161.5t101 -49.5q42 0 72.5 19.5t50 55t30 85t13.5 110.5l12 221q-20 5 -47 8t-55 3q-59 0 -100 -25t-66.5 -66t-37 -93.5t-11.5 -106.5z" />
<glyph unicode="A" horiz-adv-x="1331" d="M0 0l475 1468h379l477 -1468h-313l-100 348h-504l-101 -348h-313zM489 608h357l-94 320q-6 18 -18 59t-25.5 90.5t-25.5 99.5t-17 85q-4 -22 -10.5 -52t-15 -63.5t-17.5 -67.5t-17 -64t-14.5 -53t-9.5 -34z" />
<glyph unicode="B" horiz-adv-x="1315" d="M184 0v1462h428q138 0 242 -19.5t174 -63t105.5 -114t35.5 -173.5q0 -62 -15 -116t-44 -95t-70.5 -68.5t-95.5 -36.5v-10q55 -12 102.5 -34.5t83 -62t56 -99.5t20.5 -146q0 -100 -35 -178.5t-100.5 -133t-159 -83.5t-211.5 -29h-516zM494 256h182q61 0 102.5 14t67 40 t36.5 63t11 82q0 41 -11 74.5t-37.5 57.5t-69.5 37t-107 13h-174v-381zM494 883h161q58 0 97 10.5t63 31.5t34.5 52.5t10.5 73.5q0 84 -52.5 120.5t-166.5 36.5h-147v-325z" />
<glyph unicode="C" horiz-adv-x="1305" d="M119 729q0 166 45 304.5t132 238.5t215 155.5t294 55.5q109 0 218.5 -27.5t209.5 -75.5l-100 -252q-82 39 -165 68t-163 29q-89 0 -157.5 -34.5t-115 -99t-70.5 -157t-24 -207.5q0 -117 21.5 -208t66 -153.5t114 -95t165.5 -32.5q89 0 178.5 20t194.5 57v-260 q-48 -20 -95 -34t-96 -23t-100.5 -13.5t-110.5 -4.5q-169 0 -293 54t-205 152t-120 236t-39 307z" />
<glyph unicode="D" horiz-adv-x="1434" d="M184 0v1462h428q161 0 290.5 -46t221.5 -136.5t141.5 -224.5t49.5 -310q0 -185 -50.5 -324.5t-146 -233t-234 -140.5t-315.5 -47h-385zM494 256h114q196 0 294.5 120t98.5 361q0 122 -24.5 210.5t-71 146.5t-114 86t-154.5 28h-143v-952z" />
<glyph unicode="E" horiz-adv-x="1147" d="M184 0v1462h842v-254h-532v-321h495v-254h-495v-377h532v-256h-842z" />
<glyph unicode="F" horiz-adv-x="1124" d="M184 0v1462h838v-254h-533v-377h496v-253h-496v-578h-305z" />
<glyph unicode="G" horiz-adv-x="1483" d="M119 733q0 172 50 311t147.5 236.5t240 150t326.5 52.5q117 0 229 -25t205 -65l-103 -248q-68 34 -153.5 57t-179.5 23q-102 0 -183.5 -35.5t-139.5 -100.5t-89 -157t-31 -205q0 -108 21.5 -197.5t67.5 -154.5t118.5 -101t173.5 -36q66 0 111.5 6t85.5 14v305h-277v258 h580v-758q-58 -19 -117 -34.5t-122.5 -26t-133 -16.5t-147.5 -6q-164 0 -290.5 48.5t-213 144t-131.5 236t-45 324.5z" />
<glyph unicode="H" horiz-adv-x="1485" d="M184 0v1462h310v-573h497v573h309v-1462h-309v631h-497v-631h-310z" />
<glyph unicode="I" horiz-adv-x="797" d="M66 0v176l178 82v946l-178 82v176h665v-176l-178 -82v-946l178 -82v-176h-665z" />
<glyph unicode="J" horiz-adv-x="678" d="M-199 -150q37 -8 77.5 -14t88.5 -6q46 0 85.5 10t69 34.5t46 65.5t16.5 103v1419h310v-1409q0 -126 -36.5 -217t-102 -150.5t-156.5 -87.5t-201 -28q-65 0 -114 6.5t-83 15.5v258z" />
<glyph unicode="K" horiz-adv-x="1298" d="M184 0v1462h310v-704l122 207l334 497h344l-467 -659l471 -803h-352l-336 608l-116 -86v-522h-310z" />
<glyph unicode="L" horiz-adv-x="1096" d="M184 0v1462h310v-1206h532v-256h-842z" />
<glyph unicode="M" horiz-adv-x="1870" d="M184 0v1462h422l316 -1118h6l336 1118h422v-1462h-289v692q0 26 0.5 59t1.5 70t2.5 75t2.5 74q4 84 7 175h-8l-346 -1145h-285l-321 1147h-9q6 -92 10 -178q2 -37 3.5 -76t3 -77t2 -73t0.5 -63v-680h-277z" />
<glyph unicode="N" horiz-adv-x="1604" d="M184 0v1462h391l574 -1095h6q-3 76 -7 150q-1 32 -2.5 65.5t-2.5 67t-1.5 64.5t-0.5 56v692h278v-1462h-393l-575 1106h-9q6 -77 10 -153q4 -65 6.5 -136.5t2.5 -128.5v-688h-277z" />
<glyph unicode="O" horiz-adv-x="1548" d="M119 735q0 170 39.5 308.5t120.5 236.5t204.5 151.5t292.5 53.5q168 0 291 -53.5t203.5 -152t120 -237t39.5 -309.5q0 -169 -39.5 -308t-120.5 -238t-204.5 -153t-291.5 -54t-291.5 54t-204 153t-120 238.5t-39.5 309.5zM438 733q0 -115 20 -206.5t61.5 -155t104.5 -97.5 t150 -34q89 0 152.5 34t104 97.5t60 155t19.5 206.5t-19.5 206.5t-60 155.5t-103.5 98t-151 34q-87 0 -151 -34t-105.5 -98t-61.5 -155.5t-20 -206.5z" />
<glyph unicode="P" horiz-adv-x="1225" d="M184 0v1462h406q141 0 243.5 -31.5t169 -90t98.5 -143t32 -191.5q0 -96 -29 -184t-95.5 -155t-175 -107t-268.5 -40h-71v-520h-310zM494 774h61q131 0 197.5 52t66.5 169q0 109 -59.5 161t-186.5 52h-79v-434z" />
<glyph unicode="Q" horiz-adv-x="1548" d="M119 735q0 170 39.5 308.5t120.5 236.5t204.5 151.5t292.5 53.5q168 0 291 -53.5t203.5 -152t120 -237t39.5 -309.5q0 -119 -19.5 -223.5t-59 -190.5t-99 -153t-140.5 -111l361 -403h-398l-268 330q-7 0 -13 -1q-5 -1 -10 -1h-10q-168 0 -291.5 54t-204 153t-120 238.5 t-39.5 309.5zM438 733q0 -115 20 -206.5t61.5 -155t104.5 -97.5t150 -34q89 0 152.5 34t104 97.5t60 155t19.5 206.5t-19.5 206.5t-60 155.5t-103.5 98t-151 34q-87 0 -151 -34t-105.5 -98t-61.5 -155.5t-20 -206.5z" />
<glyph unicode="R" horiz-adv-x="1290" d="M184 0v1462h400q281 0 415 -108.5t134 -329.5q0 -75 -20 -136t-53.5 -108.5t-77 -83t-91.5 -59.5q111 -178 199 -318q38 -60 73.5 -117t63.5 -102t46 -72l17 -28h-344l-317 561h-135v-561h-310zM494 813h84q129 0 185 51.5t56 151.5q0 104 -60 148t-186 44h-79v-395z" />
<glyph unicode="S" horiz-adv-x="1073" d="M94 68v288q48 -23 97 -44.5t99.5 -38.5t101 -27t100.5 -10q51 0 87.5 11.5t59 32t33 49t10.5 62.5q0 41 -17.5 72.5t-49 59t-76 53.5t-99.5 55q-46 24 -103 58t-107.5 84.5t-84.5 122t-34 171.5q0 98 32.5 175.5t92.5 131t145.5 81.5t191.5 28q53 0 103.5 -7t100 -20 t99.5 -32t103 -44l-100 -241q-45 21 -84 37t-76 27t-72.5 16.5t-71.5 5.5q-78 0 -119.5 -41.5t-41.5 -110.5q0 -37 12.5 -65.5t40 -53.5t71 -51t105.5 -59q75 -40 138 -81.5t108.5 -92t70.5 -114.5t25 -150q0 -98 -33.5 -176.5t-98 -134t-158 -85.5t-214.5 -30 q-106 0 -204.5 22t-182.5 66z" />
<glyph unicode="T" horiz-adv-x="1124" d="M41 1204v258h1042v-258h-366v-1204h-309v1204h-367z" />
<glyph unicode="U" horiz-adv-x="1466" d="M174 520v942h309v-919q0 -81 16 -138.5t47.5 -94t78.5 -53.5t110 -17q131 0 189.5 76t58.5 229v917h309v-946q0 -114 -34.5 -212t-105 -170t-176.5 -113t-249 -41q-135 0 -238.5 38.5t-173 109.5t-105.5 170.5t-36 221.5z" />
<glyph unicode="V" horiz-adv-x="1249" d="M0 1462h313l248 -880q5 -17 13.5 -57t18 -88t18.5 -96t14 -81q5 33 14 81t19 95.5t19.5 87.5t14.5 58l244 880h313l-456 -1462h-338z" />
<glyph unicode="W" horiz-adv-x="1898" d="M0 1462h305l166 -798q3 -16 8.5 -46.5t12.5 -68.5t14.5 -80t14.5 -82t13 -74.5t9 -56.5q3 22 8.5 56t11.5 72.5t13.5 79.5t13.5 76.5t11.5 63t8.5 39.5l203 819h272l203 -819q3 -12 8.5 -39.5t12 -63t13.5 -76.5t13.5 -79.5t12 -72.5t8.5 -56q3 22 8.5 56.5t12.5 74.5 t14.5 82t14.5 80t12.5 68.5t8.5 46.5l166 798h305l-352 -1462h-352l-180 721q-4 15 -9.5 42t-12.5 61t-14 71t-13 72t-10.5 64.5t-6.5 47.5q-2 -18 -6.5 -47.5t-10.5 -64t-12.5 -71.5t-13 -71t-12.5 -62t-10 -44l-178 -719h-353z" />
<glyph unicode="X" horiz-adv-x="1284" d="M0 0l444 754l-413 708h342l274 -526l268 526h334l-418 -725l453 -737h-354l-299 553l-299 -553h-332z" />
<glyph unicode="Y" horiz-adv-x="1196" d="M0 1462h336l262 -602l264 602h334l-444 -893v-569h-308v559z" />
<glyph unicode="Z" horiz-adv-x="1104" d="M49 0v201l619 1005h-600v256h968v-200l-618 -1006h637v-256h-1006z" />
<glyph unicode="[" horiz-adv-x="678" d="M143 -324v1786h484v-211h-224v-1364h224v-211h-484z" />
<glyph unicode="\" horiz-adv-x="846" d="M12 1462h277l545 -1462h-277z" />
<glyph unicode="]" horiz-adv-x="678" d="M51 -113h223v1364h-223v211h484v-1786h-484v211z" />
<glyph unicode="^" horiz-adv-x="1090" d="M8 520l438 950h144l495 -950h-239l-322 643q-69 -161 -140.5 -324t-139.5 -319h-236z" />
<glyph unicode="_" horiz-adv-x="842" d="M-4 -184h850v-140h-850v140z" />
<glyph unicode="`" horiz-adv-x="1182" d="M332 1548v21h342q16 -34 37.5 -74.5t44.5 -81t47 -78.5t45 -67v-27h-203q-34 28 -81.5 69.5t-93.5 85.5t-84 84.5t-54 67.5z" />
<glyph unicode="a" horiz-adv-x="1176" d="M86 334q0 178 114 262.5t341 93.5l178 6v84q0 69 -40 102t-112 33t-140.5 -21t-137.5 -56l-99 202q84 47 186 74t214 27q209 0 320.5 -98t111.5 -298v-745h-213l-59 152h-9q-33 -45 -66 -77.5t-72 -53.5t-87.5 -31t-112.5 -10q-68 0 -126 21.5t-100.5 65t-66.5 110 t-24 157.5zM399 332q0 -70 34 -99.5t89 -29.5q42 0 78 14.5t62.5 43t41.5 70t15 95.5v92l-101 -4q-61 -2 -103 -16t-67.5 -37.5t-37 -56t-11.5 -72.5z" />
<glyph unicode="b" horiz-adv-x="1245" d="M160 0v1556h305v-362q0 -33 -2 -71.5t-4 -71.5l-6 -78h12q21 35 48 65t62.5 52.5t80.5 35.5t100 13q86 0 157 -37t122 -110t79.5 -181t28.5 -250q0 -144 -28.5 -252.5t-80.5 -181.5t-125 -110t-161 -37q-56 0 -99.5 12t-77.5 32t-59.5 45.5t-46.5 53.5h-21l-51 -123h-233 zM465 563q0 -81 9.5 -144t31.5 -105.5t58.5 -64.5t90.5 -22q91 0 133.5 86.5t42.5 251.5t-42.5 247.5t-135.5 82.5q-51 0 -86.5 -18.5t-57.5 -55.5t-32 -93.5t-12 -131.5v-33z" />
<glyph unicode="c" horiz-adv-x="1022" d="M102 553q0 167 37.5 279.5t106 180.5t165 97t214.5 29q86 0 171 -21t160 -59l-88 -232q-66 29 -127 47.5t-116 18.5q-111 0 -161 -84.5t-50 -253.5q0 -168 50 -248t157 -80q87 0 158 22.5t145 57.5v-254q-37 -18 -72 -32t-70.5 -23t-74 -13.5t-82.5 -4.5 q-120 0 -216.5 33t-165 102.5t-105 178t-36.5 259.5z" />
<glyph unicode="d" horiz-adv-x="1245" d="M102 557q0 144 28.5 252.5t81 182t125.5 110.5t161 37q54 0 99 -12.5t81 -35t64.5 -52t50.5 -64.5h10q-6 39 -11 79q-5 34 -8.5 72.5t-3.5 71.5v358h305v-1556h-233l-59 145h-13q-21 -34 -48 -64.5t-62.5 -52.5t-80 -35t-100.5 -13q-86 0 -157 37t-122 109.5t-79.5 180.5 t-28.5 250zM412 553q0 -165 45.5 -247.5t142.5 -82.5q54 0 92 18.5t61.5 56t35 93.5t12.5 131v33q0 81 -10 144t-33 105.5t-62 64.5t-98 22q-96 0 -141 -86.5t-45 -251.5z" />
<glyph unicode="e" horiz-adv-x="1190" d="M102 551q0 147 37 257t103.5 183.5t160 110.5t207.5 37q111 0 200.5 -33.5t152 -98.5t96 -159.5t33.5 -216.5v-148h-682q2 -64 20.5 -115.5t52 -87t81 -54.5t108.5 -19q51 0 96.5 5.5t88.5 16.5t85 27.5t86 38.5v-236q-40 -21 -80.5 -35.5t-85.5 -24.5t-97 -14.5 t-114 -4.5q-120 0 -221 35t-174 105.5t-113.5 178t-40.5 252.5zM416 686h389q-1 51 -13 94t-36 74.5t-60 49.5t-84 18q-81 0 -134.5 -57t-61.5 -179z" />
<glyph unicode="f" horiz-adv-x="793" d="M41 889v147l168 82v82q0 107 26 177.5t74 112.5t116 59.5t153 17.5q92 0 155 -14.5t107 -32.5l-72 -224q-31 11 -65 20t-80 9q-60 0 -84.5 -38.5t-24.5 -98.5v-70h227v-229h-227v-889h-305v889h-168z" />
<glyph unicode="g" horiz-adv-x="1130" d="M20 -182q0 61 21 106t56 77t79.5 52t91.5 31q-21 9 -41.5 25t-37 37t-27 46.5t-10.5 53.5q0 32 9.5 58t27.5 48.5t45 42.5t61 41q-88 38 -139.5 122t-51.5 198q0 90 28 161t82 120.5t134 75.5t184 26q20 0 45 -2.5t49.5 -6t45.5 -7.5t33 -7h380v-166l-163 -51 q20 -34 28 -70.5t8 -78.5q0 -85 -27 -155.5t-80 -120.5t-133 -77.5t-186 -27.5q-23 0 -50 2.5t-40 5.5q-20 -17 -31.5 -35.5t-11.5 -44.5q0 -21 13 -33.5t34 -20t49 -10t58 -2.5h174q81 0 145 -18.5t108.5 -56.5t68.5 -96.5t24 -139.5q0 -95 -38 -171.5t-113.5 -130 t-187.5 -82t-259 -28.5q-114 0 -199 21.5t-142 62t-85.5 97.5t-28.5 129zM285 -158q0 -25 10.5 -48.5t34.5 -41.5t63 -28.5t96 -10.5q156 0 235 44t79 118q0 63 -49 84t-152 21h-141q-27 0 -58 -6.5t-57 -22.5t-43.5 -42.5t-17.5 -66.5zM395 752q0 -91 34 -141t103 -50 q72 0 104 50t32 141q0 90 -31.5 143t-104.5 53q-137 0 -137 -196z" />
<glyph unicode="h" horiz-adv-x="1284" d="M160 0v1556h305v-317q0 -42 -2 -88.5t-5 -85.5q-4 -46 -7 -90h16q49 87 125 125.5t172 38.5q83 0 150.5 -23.5t115.5 -73.5t74 -127.5t26 -185.5v-729h-305v653q0 121 -37.5 181.5t-115.5 60.5q-59 0 -99 -24t-64 -71t-34 -116t-10 -158v-526h-305z" />
<glyph unicode="i" horiz-adv-x="625" d="M147 1407q0 43 13 71.5t35.5 46t53 24.5t64.5 7t64 -7t52.5 -24.5t36 -46t13.5 -71.5q0 -42 -13.5 -71t-36 -46.5t-52.5 -25t-64 -7.5t-64.5 7.5t-53 25t-35.5 46.5t-13 71zM160 0v1118h305v-1118h-305z" />
<glyph unicode="j" horiz-adv-x="625" d="M-82 -227q31 -10 58 -14.5t61 -4.5q25 0 47.5 7.5t39 27t26.5 52t10 83.5v1194h305v-1239q0 -77 -19.5 -144.5t-63 -118t-112.5 -79.5t-168 -29q-48 0 -99 7t-85 18v240zM147 1407q0 43 13 71.5t35.5 46t53 24.5t64.5 7t64 -7t52.5 -24.5t36 -46t13.5 -71.5 q0 -42 -13.5 -71t-36 -46.5t-52.5 -25t-64 -7.5t-64.5 7.5t-53 25t-35.5 46.5t-13 71z" />
<glyph unicode="k" horiz-adv-x="1208" d="M160 0v1556h305v-694l-16 -254h4l112 170l273 340h344l-404 -485l430 -633h-352l-272 430l-119 -82v-348h-305z" />
<glyph unicode="l" horiz-adv-x="625" d="M160 0v1556h305v-1556h-305z" />
<glyph unicode="m" horiz-adv-x="1929" d="M160 0v1118h233l41 -143h17q24 43 57.5 74t73.5 51t85 29.5t91 9.5q115 0 195.5 -39.5t123.5 -124.5h25q24 43 58 74t75 51t86.5 29.5t91.5 9.5q180 0 271.5 -97.5t91.5 -312.5v-729h-306v653q0 121 -36 181.5t-113 60.5q-109 0 -155 -86.5t-46 -247.5v-561h-305v653 q0 121 -36 181.5t-113 60.5q-58 0 -96.5 -24t-61.5 -71t-33 -116t-10 -158v-526h-305z" />
<glyph unicode="n" horiz-adv-x="1284" d="M160 0v1118h233l41 -143h17q24 43 58.5 74t75.5 51t87 29.5t94 9.5q82 0 149 -23.5t115 -73.5t74 -127.5t26 -185.5v-729h-305v653q0 121 -36.5 181.5t-116.5 60.5q-60 0 -100 -24t-63.5 -71t-33.5 -116t-10 -158v-526h-305z" />
<glyph unicode="o" horiz-adv-x="1227" d="M102 561q0 139 35.5 247t102 181.5t161.5 111.5t215 38q111 0 204 -38t160.5 -111.5t105.5 -181.5t38 -247q0 -140 -35.5 -248t-102 -182t-162 -112.5t-214.5 -38.5q-111 0 -204 38.5t-160.5 112.5t-105.5 182t-38 248zM414 561q0 -167 47 -251.5t153 -84.5q105 0 152 85 t47 251q0 167 -47 249.5t-154 82.5q-105 0 -151.5 -82.5t-46.5 -249.5z" />
<glyph unicode="p" horiz-adv-x="1245" d="M160 -492v1610h248l43 -145h14q21 34 48 64t62.5 52.5t80.5 36t100 13.5q87 0 158 -37t122 -110t79 -181t28 -250q0 -143 -29 -251.5t-81.5 -182t-125 -110.5t-159.5 -37q-55 0 -98.5 12t-77.5 32t-60 45.5t-47 53.5h-16q4 -35 8 -66q3 -26 5.5 -53.5t2.5 -42.5v-453 h-305zM465 563q0 -81 9.5 -144t31.5 -105.5t58.5 -64.5t90.5 -22q91 0 133.5 86.5t42.5 251.5t-42.5 247.5t-135.5 82.5q-51 0 -86.5 -18.5t-57.5 -55.5t-32 -93.5t-12 -131.5v-33z" />
<glyph unicode="q" horiz-adv-x="1245" d="M102 557q0 143 28.5 251.5t81 182t125.5 111t161 37.5q56 0 101 -12.5t81.5 -35t64.5 -52t50 -64.5h8l24 143h258v-1610h-305v469q0 19 2.5 47.5t4.5 55.5q3 32 6 65h-13q-20 -34 -47 -64.5t-62.5 -52.5t-80.5 -35t-101 -13q-87 0 -158 37t-122 109.5t-79 180.5t-28 250z M414 553q0 -168 45.5 -251t142.5 -83q55 0 92.5 18.5t60.5 55.5t34 93.5t12 131.5v37q0 81 -9.5 144t-33 105.5t-62 64.5t-96.5 22q-96 0 -141 -86.5t-45 -251.5z" />
<glyph unicode="r" horiz-adv-x="889" d="M160 0v1118h231l45 -168h15q24 43 52 78t62.5 59.5t78 38t99.5 13.5q12 0 26.5 -0.5t28 -2t25 -3t17.5 -3.5v-286q-8 2 -22 4t-29.5 3.5t-30.5 2t-25 0.5q-59 0 -108.5 -15t-85 -48.5t-55 -88t-19.5 -133.5v-569h-305z" />
<glyph unicode="s" horiz-adv-x="985" d="M98 827q0 78 30 136.5t85 97.5t132.5 58.5t172.5 19.5q100 0 190 -23t185 -69l-92 -216q-76 36 -145 59t-138 23q-62 0 -89.5 -22t-27.5 -60q0 -20 7 -35.5t28 -32t59 -36t99 -47.5q71 -31 128 -61.5t98 -69.5t63 -91t22 -126q0 -88 -32 -154t-91 -110t-143 -66t-188 -22 q-55 0 -102 3.5t-89 11.5t-81 20t-79 30v252q42 -21 88.5 -38t92.5 -29.5t89.5 -19.5t80.5 -7q41 0 70 7.5t47.5 21t27 32t8.5 39.5t-6.5 37.5t-29.5 35t-67.5 42t-119.5 57.5q-73 33 -126.5 65.5t-88 72.5t-51.5 91.5t-17 122.5z" />
<glyph unicode="t" horiz-adv-x="848" d="M47 889v129l168 102l88 236h195v-238h272v-229h-272v-539q0 -65 32 -96t84 -31q45 0 85.5 10t82.5 25v-227q-43 -22 -106.5 -36.5t-138.5 -14.5q-73 0 -136 17t-109 59.5t-72.5 114t-26.5 179.5v539h-146z" />
<glyph unicode="u" horiz-adv-x="1284" d="M154 389v729h305v-653q0 -121 36.5 -181.5t116.5 -60.5q60 0 100 24t63.5 71t33.5 116t10 158v526h305v-1118h-233l-41 143h-16q-25 -43 -59.5 -73.5t-75.5 -50.5t-87 -29.5t-94 -9.5q-82 0 -149 23.5t-115 73.5t-74 127t-26 185z" />
<glyph unicode="v" horiz-adv-x="1104" d="M0 1118h319l185 -637q17 -57 29.5 -118.5t15.5 -110.5h6q3 53 15.5 112.5t29.5 116.5l184 637h320l-395 -1118h-314z" />
<glyph unicode="w" horiz-adv-x="1651" d="M0 1118h303l113 -495q9 -39 18.5 -93.5t18 -110t15.5 -105t11 -78.5h6q1 19 4.5 49.5t8.5 65.5t10.5 71.5t11 68.5t10 56.5t7.5 34.5l122 536h336l117 -536q5 -22 13 -68t16.5 -98.5t14.5 -102t7 -77.5h6q3 25 10.5 74t16.5 105.5t19.5 112.5t19.5 95l117 495h299 l-305 -1118h-332l-86 391q-4 17 -10.5 48.5t-14.5 71t-16.5 84t-17.5 88.5q-20 103 -44 222h-6q-23 -119 -42 -223q-8 -44 -16.5 -89t-16.5 -84.5t-14.5 -71.5t-10.5 -50l-90 -387h-328z" />
<glyph unicode="x" horiz-adv-x="1122" d="M10 0l379 571l-360 547h346l186 -336l189 336h346l-365 -547l381 -571h-346l-205 362l-205 -362h-346z" />
<glyph unicode="y" horiz-adv-x="1104" d="M0 1118h334l180 -629q16 -52 23.5 -111t9.5 -106h6q2 23 5.5 51t8.5 57t11.5 57.5t13.5 51.5l176 629h336l-442 -1261q-62 -177 -169 -263t-268 -86q-52 0 -90 5.5t-65 11.5v242q21 -5 53 -9t67 -4q48 0 82 13t58.5 36.5t42 56.5t30.5 74l19 56z" />
<glyph unicode="z" horiz-adv-x="936" d="M55 0v180l457 705h-426v233h772v-198l-442 -687h461v-233h-822z" />
<glyph unicode="{" horiz-adv-x="745" d="M31 449v239q62 0 110.5 9.5t81.5 31t49.5 55.5t14.5 82v318q0 74 19 126.5t68.5 86t134.5 49.5t216 16v-225q-40 -1 -72.5 -7t-55 -21.5t-34.5 -42.5t-12 -70v-299q-6 -187 -234 -222v-12q115 -17 176 -72t58 -149v-299q0 -43 12 -70t34.5 -42.5t55 -21.5t72.5 -7v-226 q-131 0 -216 16t-134.5 49.5t-68.5 86.5t-19 127v315q0 97 -65.5 138t-190.5 41z" />
<glyph unicode="|" d="M455 -465v2015h219v-2015h-219z" />
<glyph unicode="}" horiz-adv-x="745" d="M31 -98q40 1 72 7t54.5 21.5t35 42.5t12.5 70v299q-3 94 58 149t175 72v12q-227 35 -233 222v299q0 43 -12.5 70t-35 42.5t-54.5 21.5t-72 7v225q131 0 216 -16t134.5 -49.5t68.5 -86t19 -126.5v-318q-1 -48 15 -82t49 -55.5t81.5 -31t110.5 -9.5v-239q-125 0 -190.5 -41 t-65.5 -138v-315q0 -74 -19 -127t-68.5 -86.5t-134.5 -49.5t-216 -16v226z" />
<glyph unicode="~" d="M88 551v231q51 54 114.5 81.5t141.5 27.5q30 0 55.5 -2.5t54 -9.5t63.5 -19.5t83 -32.5q38 -16 66.5 -26.5t52.5 -17t45 -9t43 -2.5q29 0 60 9.5t61 25.5t58.5 38.5t53.5 47.5v-231q-101 -109 -256 -109q-30 0 -55.5 2.5t-54 9t-63.5 19t-83 32.5q-37 16 -65.5 27 t-52 17.5t-44.5 9t-44 2.5q-29 0 -60 -9.5t-61 -26t-58.5 -38.5t-54.5 -47z" />
<glyph unicode="&#xa1;" horiz-adv-x="586" d="M117 -369l51 975h244l51 -975h-346zM117 948q0 45 14 77.5t38 53t55.5 30t66.5 9.5q37 0 69 -9.5t56 -30t37.5 -53t13.5 -77.5q0 -47 -13.5 -79.5t-37.5 -52.5t-56 -29t-69 -9q-35 0 -66.5 9t-55.5 29t-38 52.5t-14 79.5z" />
<glyph unicode="&#xa2;" d="M143 743q0 141 28 242.5t80.5 169.5t126.5 105.5t165 50.5v172h178v-164q38 -1 76 -6.5t73.5 -13.5t67 -18t55.5 -21l-86 -226q-21 10 -47.5 19.5t-54.5 17t-55.5 12t-51.5 4.5q-66 0 -112 -20t-75.5 -61.5t-42.5 -105t-13 -150.5q0 -171 57 -250.5t186 -79.5 q76 0 146.5 18.5t120.5 42.5v-239q-51 -29 -113 -44.5t-131 -17.5v-200h-178v206q-92 13 -166 50.5t-126 104t-80 166t-28 236.5z" />
<glyph unicode="&#xa3;" d="M82 0v248q42 18 75.5 39t57 50t35.5 70t12 99v145h-178v219h178v195q0 113 31.5 192.5t87 129.5t132 73t167.5 23q110 0 199.5 -24t169.5 -58l-93 -230q-71 29 -129.5 46.5t-121.5 17.5q-67 0 -104.5 -38.5t-37.5 -133.5v-193h334v-219h-334v-143q0 -55 -13.5 -95.5 t-35.5 -69.5t-48.5 -49t-53.5 -34h678v-260h-1008z" />
<glyph unicode="&#xa4;" d="M92 1047l148 147l127 -127q43 25 94 39t102 14q54 0 102 -13.5t95 -41.5l127 129l149 -143l-129 -129q25 -42 39.5 -93.5t14.5 -105.5q0 -56 -14 -105t-40 -94l125 -125l-145 -145l-127 125q-44 -23 -93.5 -37t-103.5 -14q-56 0 -105.5 12.5t-92.5 38.5l-125 -123 l-146 145l127 125q-53 91 -53 197q0 54 14 103.5t39 93.5zM375 723q0 -39 15 -73.5t40.5 -60t59.5 -40t73 -14.5q40 0 75 14.5t61.5 40t41.5 60t15 73.5q0 40 -15 74.5t-41.5 60t-61.5 40.5t-75 15q-39 0 -73 -15t-59.5 -40.5t-40.5 -60t-15 -74.5z" />
<glyph unicode="&#xa5;" d="M8 1462h316l241 -602l244 602h313l-362 -747h194v-178h-245v-138h245v-178h-245v-221h-287v221h-248v178h248v138h-248v178h191z" />
<glyph unicode="&#xa6;" d="M455 350h219v-815h-219v815zM455 735v815h219v-815h-219z" />
<glyph unicode="&#xa7;" horiz-adv-x="995" d="M106 59v207q39 -20 84 -37.5t91 -31t90.5 -21.5t83.5 -8q56 0 93 9t59.5 25t32 37t9.5 46t-7.5 44.5t-30 38.5t-63 40t-106.5 49q-76 32 -136 64t-101 72.5t-62.5 91.5t-21.5 120q0 44 10.5 81.5t29 69t42.5 56.5t51 43q-63 40 -98 99t-35 134q0 65 29 118.5t82.5 91.5 t128 58.5t165.5 20.5q102 0 190 -23.5t173 -60.5l-82 -190q-68 32 -138.5 57.5t-148.5 25.5q-81 0 -118 -23t-37 -71q0 -25 12 -46t38 -40.5t66.5 -39t96.5 -42.5q71 -28 129.5 -62t100 -75.5t64.5 -92t23 -112.5q0 -100 -34.5 -161.5t-90.5 -98.5q62 -40 93.5 -92.5 t31.5 -126.5t-31 -133.5t-88 -101.5t-138.5 -65t-182.5 -23q-110 0 -194.5 20.5t-154.5 58.5zM344 827q0 -63 56.5 -111.5t174.5 -99.5l15 -6q15 11 29 25.5t25 32.5t17.5 40t6.5 48q0 32 -10.5 59t-36.5 52.5t-71.5 50t-115.5 49.5q-18 -7 -34 -20.5t-28.5 -31.5t-20 -40 t-7.5 -48z" />
<glyph unicode="&#xa8;" horiz-adv-x="1182" d="M248 1405q0 35 11 60.5t29.5 42t44 24.5t54.5 8t54.5 -8t44.5 -24.5t30.5 -42t11.5 -60.5q0 -34 -11.5 -59t-30.5 -41.5t-44.5 -24.5t-54.5 -8t-54.5 8t-44 24.5t-29.5 41.5t-11 59zM651 1405q0 35 11 60.5t30 42t45 24.5t56 8q28 0 53.5 -8t45 -24.5t31 -42t11.5 -60.5 q0 -34 -11.5 -59t-31 -41.5t-45 -24.5t-53.5 -8q-60 0 -101 33t-41 100z" />
<glyph unicode="&#xa9;" horiz-adv-x="1704" d="M100 731q0 104 27 200t75.5 179.5t117.5 152.5t152.5 117.5t179.5 75.5t200 27t200 -27t179.5 -75.5t152.5 -117.5t117.5 -152.5t75.5 -179.5t27 -200t-27 -200t-75.5 -179.5t-117.5 -152t-152.5 -117.5t-179.5 -75.5t-200 -26.5t-200 26.5t-179.5 75.5t-152.5 117.5 t-117.5 152t-75.5 179.5t-27 200zM242 731q0 -127 48 -238t130.5 -193.5t193.5 -130.5t238 -48t238 48t193.5 130.5t130.5 193.5t48 238t-48 238t-130.5 193.5t-193.5 130.5t-238 48t-238 -48t-193.5 -130.5t-130.5 -193.5t-48 -238zM461 733q0 103 26 188.5t78.5 147 t131.5 95.5t184 34q83 0 160 -22t145 -56l-74 -168q-113 58 -217 58q-97 0 -150 -74t-53 -205q0 -135 48 -207.5t155 -72.5q57 0 123 15t123 44v-191q-57 -27 -116 -42t-136 -15q-107 0 -187 34t-133.5 96t-80.5 148.5t-27 192.5z" />
<glyph unicode="&#xaa;" horiz-adv-x="743" d="M47 975q0 60 21.5 101.5t62 68t100 40t134.5 17.5l90 4q0 63 -29.5 90t-83.5 27q-40 0 -89 -17t-101 -44l-66 135q62 32 136 57t165 25q68 0 118.5 -19.5t83.5 -55t49.5 -86t16.5 -112.5v-442h-135l-31 110q-40 -58 -96.5 -90t-124.5 -32q-50 0 -90.5 13.5t-69.5 41 t-45 69.5t-16 99zM252 977q0 -38 19 -56t46 -18q32 0 57.5 11t43.5 30.5t27.5 47t9.5 59.5v36l-82 -6q-38 -3 -61.5 -13t-37 -24.5t-18 -31.5t-4.5 -35z" />
<glyph unicode="&#xab;" horiz-adv-x="1198" d="M82 547v26l309 455l219 -119l-217 -348l217 -348l-219 -119zM588 547v26l309 455l219 -119l-217 -348l217 -348l-219 -119z" />
<glyph unicode="&#xac;" d="M88 612v219h952v-583h-219v364h-733z" />
<glyph unicode="&#xad;" horiz-adv-x="659" d="M61 424v250h537v-250h-537z" />
<glyph unicode="&#xae;" horiz-adv-x="1704" d="M100 731q0 104 27 200t75.5 179.5t117.5 152.5t152.5 117.5t179.5 75.5t200 27t200 -27t179.5 -75.5t152.5 -117.5t117.5 -152.5t75.5 -179.5t27 -200t-27 -200t-75.5 -179.5t-117.5 -152t-152.5 -117.5t-179.5 -75.5t-200 -26.5t-200 26.5t-179.5 75.5t-152.5 117.5 t-117.5 152t-75.5 179.5t-27 200zM242 731q0 -127 48 -238t130.5 -193.5t193.5 -130.5t238 -48t238 48t193.5 130.5t130.5 193.5t48 238t-48 238t-130.5 193.5t-193.5 130.5t-238 48t-238 -48t-193.5 -130.5t-130.5 -193.5t-48 -238zM543 272v916h264q182 0 266 -70t84 -213 q0 -94 -38.5 -149t-104.5 -84l237 -400h-254l-178 338h-47v-338h-229zM772 778h31q66 0 94.5 28.5t28.5 94.5q0 35 -7.5 58t-23 36.5t-39 19t-55.5 5.5h-29v-242z" />
<glyph unicode="&#xaf;" horiz-adv-x="1024" d="M-6 1556v201h1036v-201h-1036z" />
<glyph unicode="&#xb0;" horiz-adv-x="877" d="M92 1137q0 71 27 134t74 110t110 74.5t135 27.5t135.5 -27.5t110 -74.5t73.5 -110t27 -134q0 -72 -27 -135t-73.5 -109.5t-110 -73t-135.5 -26.5t-135 26.5t-110 73t-74 109.5t-27 135zM283 1137q0 -31 12 -59t33 -49t49.5 -33.5t60.5 -12.5t60.5 12.5t49.5 33.5t33.5 49 t12.5 59q0 32 -12.5 60.5t-33.5 50t-49.5 34t-60.5 12.5t-60.5 -12.5t-49.5 -34t-33 -50t-12 -60.5z" />
<glyph unicode="&#xb1;" d="M88 0v219h952v-219h-952zM88 674v219h367v369h219v-369h366v-219h-366v-365h-219v365h-367z" />
<glyph unicode="&#xb2;" horiz-adv-x="776" d="M47 1354q65 57 146 93t190 36q66 0 120.5 -16.5t93 -48t60 -78t21.5 -107.5q0 -46 -12.5 -86.5t-39.5 -81.5t-69 -85.5t-102 -98.5l-105 -95h352v-200h-647v168l224 219q46 45 76.5 78t49 60t26 50.5t7.5 50.5q0 38 -24 58t-64 20t-83.5 -20.5t-96.5 -67.5z" />
<glyph unicode="&#xb3;" horiz-adv-x="776" d="M59 639v190q66 -40 132 -65t139 -25q74 0 108.5 27t34.5 80q0 21 -8 40t-27 33.5t-51 23.5t-80 9h-112v160h92q52 0 84 9t50 24.5t24 35t6 40.5q0 38 -25 63t-76 25q-47 0 -89 -19t-99 -59l-101 141q62 47 137.5 78t178.5 31q62 0 115 -16.5t91.5 -46.5t60.5 -73t22 -96 q0 -69 -40.5 -119t-129.5 -79v-13q51 -10 88 -31t61.5 -48.5t36.5 -60.5t12 -69q0 -121 -88 -190.5t-274 -69.5q-76 0 -142 17.5t-131 52.5z" />
<glyph unicode="&#xb4;" horiz-adv-x="1182" d="M332 1241v27q21 29 45 67t47.5 78.5t44.5 81t37 74.5h342v-21q-11 -18 -32 -42.5t-48 -52.5t-58 -57.5t-62.5 -57.5t-60.5 -53t-52 -44h-203z" />
<glyph unicode="&#xb5;" horiz-adv-x="1290" d="M160 -492v1610h305v-653q0 -121 37.5 -181.5t118.5 -60.5q58 0 97 24t63 71t34 116t10 158v526h305v-1118h-233l-43 150h-12q-35 -85 -87.5 -127.5t-127.5 -42.5q-54 0 -99 23t-73 67q2 -42 5 -85q2 -37 3.5 -79t1.5 -78v-320h-305z" />
<glyph unicode="&#xb6;" horiz-adv-x="1341" d="M113 1042q0 147 32.5 245.5t92 158.5t142.5 85t183 25h604v-1816h-161v1616h-166v-1616h-162v819q-61 -18 -146 -18q-95 0 -172.5 25.5t-132 84.5t-84.5 155t-30 236z" />
<glyph unicode="&#xb7;" horiz-adv-x="584" d="M117 723q0 47 13.5 79.5t37.5 52.5t56 29t69 9q35 0 66.5 -9t55.5 -29t38 -52.5t14 -79.5q0 -45 -14 -77.5t-38 -53t-55.5 -30t-66.5 -9.5q-37 0 -69 9.5t-56 30t-37.5 53t-13.5 77.5z" />
<glyph unicode="&#xb8;" horiz-adv-x="420" d="M-37 -303q15 -4 33.5 -7.5t38 -6.5t38 -5t33.5 -2q29 0 50.5 13.5t21.5 48.5q0 37 -37 65.5t-129 42.5l78 154h193l-27 -61q31 -10 60 -27t51.5 -40.5t36.5 -54t14 -67.5q0 -57 -15.5 -102t-51.5 -76t-95.5 -47.5t-146.5 -16.5q-45 0 -81 6t-65 15v168z" />
<glyph unicode="&#xb9;" horiz-adv-x="776" d="M92 1227l301 235h191v-876h-238v446q0 20 0.5 50.5t2 61.5t3 57t2.5 38q-6 -8 -15.5 -18.5t-20 -21.5t-21 -21t-18.5 -17l-78 -61z" />
<glyph unicode="&#xba;" horiz-adv-x="754" d="M57 1116q0 87 22.5 154.5t64 114t101 70.5t134.5 24q68 0 125.5 -24t100.5 -70.5t67 -114t24 -154.5t-22.5 -154.5t-64.5 -114t-101 -71t-133 -24.5q-69 0 -127.5 24.5t-101 71t-66 114t-23.5 154.5zM260 1116q0 -100 27.5 -150.5t89.5 -50.5q60 0 87.5 50.5t27.5 150.5 t-27.5 149.5t-87.5 49.5q-62 0 -89.5 -49.5t-27.5 -149.5z" />
<glyph unicode="&#xbb;" horiz-adv-x="1198" d="M84 213l217 348l-217 348l219 119l309 -455v-26l-309 -453zM590 213l217 348l-217 348l219 119l309 -455v-26l-309 -453z" />
<glyph unicode="&#xbc;" horiz-adv-x="1804" d="M320 0l811 1462h239l-811 -1462h-239zM46 1227l301 235h191v-876h-238v446q0 20 0.5 50.5t2 61.5t3 57t2.5 38q-6 -8 -15.5 -18.5t-20 -21.5t-21 -21t-18.5 -17l-78 -61zM936 152v154l385 577h236v-563h125v-168h-125v-151h-238v151h-383zM1121 320h198v164 q0 42 1.5 88.5t4.5 95.5q-5 -13 -14.5 -34.5t-20.5 -44t-22 -43.5t-20 -35z" />
<glyph unicode="&#xbd;" horiz-adv-x="1804" d="M320 0l811 1462h239l-811 -1462h-239zM46 1227l301 235h191v-876h-238v446q0 20 0.5 50.5t2 61.5t3 57t2.5 38q-6 -8 -15.5 -18.5t-20 -21.5t-21 -21t-18.5 -17l-78 -61zM1061 769q65 57 146 93t190 36q66 0 120.5 -16.5t93 -48t60 -78t21.5 -107.5q0 -46 -12.5 -86.5 t-39.5 -81.5t-69 -85.5t-102 -98.5l-105 -95h352v-200h-647v168l224 219q46 45 76.5 78t49 60t26 50.5t7.5 50.5q0 38 -24 58t-64 20t-83.5 -20.5t-96.5 -67.5z" />
<glyph unicode="&#xbe;" horiz-adv-x="1804" d="M391 0l811 1462h239l-811 -1462h-239zM966 152v154l385 577h236v-563h125v-168h-125v-151h-238v151h-383zM1151 320h198v164q0 42 1.5 88.5t4.5 95.5q-5 -13 -14.5 -34.5t-20.5 -44t-22 -43.5t-20 -35zM90 639v190q66 -40 132 -65t139 -25q74 0 108.5 27t34.5 80 q0 21 -8 40t-27 33.5t-51 23.5t-80 9h-112v160h92q52 0 84 9t50 24.5t24 35t6 40.5q0 38 -25 63t-76 25q-47 0 -89 -19t-99 -59l-101 141q62 47 137.5 78t178.5 31q62 0 115 -16.5t91.5 -46.5t60.5 -73t22 -96q0 -69 -40.5 -119t-129.5 -79v-13q51 -10 88 -31t61.5 -48.5 t36.5 -60.5t12 -69q0 -121 -88 -190.5t-274 -69.5q-76 0 -142 17.5t-131 52.5z" />
<glyph unicode="&#xbf;" horiz-adv-x="940" d="M66 -29q0 63 13.5 112.5t41.5 92t69.5 82.5t96.5 84q41 33 67.5 57.5t41.5 46.5t20.5 46t5.5 55v59h264v-74q0 -51 -10.5 -92.5t-32 -79t-55.5 -72.5t-82 -73q-42 -33 -71 -59t-47 -51.5t-26 -53.5t-8 -65q0 -57 39 -94t117 -37q69 0 149 29.5t164 70.5l103 -221 q-43 -26 -94 -48.5t-105.5 -39.5t-110.5 -27t-110 -10q-102 0 -183.5 24.5t-138.5 71t-87.5 114t-30.5 152.5zM369 948q0 45 14 77.5t38 53t55.5 30t66.5 9.5q37 0 69 -9.5t56 -30t37.5 -53t13.5 -77.5q0 -47 -13.5 -79.5t-37.5 -52.5t-56 -29t-69 -9q-35 0 -66.5 9 t-55.5 29t-38 52.5t-14 79.5z" />
<glyph unicode="&#xc0;" horiz-adv-x="1331" d="M0 0l475 1468h379l477 -1468h-313l-100 348h-504l-101 -348h-313zM489 608h357l-94 320q-6 18 -18 59t-25.5 90.5t-25.5 99.5t-17 85q-4 -22 -10.5 -52t-15 -63.5t-17.5 -67.5t-17 -64t-14.5 -53t-9.5 -34zM319 1886v21h342q16 -34 37.5 -74.5t44.5 -81t47 -78.5t45 -67 v-27h-203q-34 28 -81.5 69.5t-93.5 85.5t-84 84.5t-54 67.5z" />
<glyph unicode="&#xc1;" horiz-adv-x="1331" d="M0 0l475 1468h379l477 -1468h-313l-100 348h-504l-101 -348h-313zM489 608h357l-94 320q-6 18 -18 59t-25.5 90.5t-25.5 99.5t-17 85q-4 -22 -10.5 -52t-15 -63.5t-17.5 -67.5t-17 -64t-14.5 -53t-9.5 -34zM494 1579v27q21 29 45 67t47.5 78.5t44.5 81t37 74.5h342v-21 q-11 -18 -32 -42.5t-48 -52.5t-58 -57.5t-62.5 -57.5t-60.5 -53t-52 -44h-203z" />
<glyph unicode="&#xc2;" horiz-adv-x="1331" d="M0 0l475 1468h379l477 -1468h-313l-100 348h-504l-101 -348h-313zM489 608h357l-94 320q-6 18 -18 59t-25.5 90.5t-25.5 99.5t-17 85q-4 -22 -10.5 -52t-15 -63.5t-17.5 -67.5t-17 -64t-14.5 -53t-9.5 -34zM254 1579v27q26 29 57.5 67t64 78.5t62.5 81t52 74.5h356 q21 -34 51 -74.5t62.5 -81t65 -78.5t57.5 -67v-27h-203q-51 34 -106 77t-107 99q-54 -56 -106 -99t-103 -77h-203z" />
<glyph unicode="&#xc3;" horiz-adv-x="1331" d="M0 0l475 1468h379l477 -1468h-313l-100 348h-504l-101 -348h-313zM489 608h357l-94 320q-6 18 -18 59t-25.5 90.5t-25.5 99.5t-17 85q-4 -22 -10.5 -52t-15 -63.5t-17.5 -67.5t-17 -64t-14.5 -53t-9.5 -34zM275 1577q6 80 26 138t52.5 96t76.5 56.5t97 18.5q41 0 80 -16 t77.5 -35.5t76 -36t73.5 -16.5q31 0 49 26t31 80h149q-6 -79 -26.5 -137t-53.5 -96.5t-76.5 -57t-95.5 -18.5q-40 0 -80 16.5t-78 36t-75.5 36t-73.5 16.5q-31 0 -49.5 -26.5t-30.5 -80.5h-149z" />
<glyph unicode="&#xc4;" horiz-adv-x="1331" d="M0 0l475 1468h379l477 -1468h-313l-100 348h-504l-101 -348h-313zM489 608h357l-94 320q-6 18 -18 59t-25.5 90.5t-25.5 99.5t-17 85q-4 -22 -10.5 -52t-15 -63.5t-17.5 -67.5t-17 -64t-14.5 -53t-9.5 -34zM324 1743q0 35 11 60.5t29.5 42t44 24.5t54.5 8t54.5 -8 t44.5 -24.5t30.5 -42t11.5 -60.5q0 -34 -11.5 -59t-30.5 -41.5t-44.5 -24.5t-54.5 -8t-54.5 8t-44 24.5t-29.5 41.5t-11 59zM727 1743q0 35 11 60.5t30 42t45 24.5t56 8q28 0 53.5 -8t45 -24.5t31 -42t11.5 -60.5q0 -34 -11.5 -59t-31 -41.5t-45 -24.5t-53.5 -8 q-60 0 -101 33t-41 100z" />
<glyph unicode="&#xc5;" horiz-adv-x="1331" d="M0 0l475 1468h379l477 -1468h-313l-100 348h-504l-101 -348h-313zM489 608h357l-94 320q-6 18 -18 59t-25.5 90.5t-25.5 99.5t-17 85q-4 -22 -10.5 -52t-15 -63.5t-17.5 -67.5t-17 -64t-14.5 -53t-9.5 -34zM416 1565q0 55 18 99t50.5 74.5t78.5 47t101 16.5 q53 0 99 -16.5t80.5 -47t54.5 -74t20 -97.5q0 -56 -19.5 -100.5t-54 -75.5t-80.5 -47.5t-100 -16.5q-55 0 -101 16.5t-78.5 47t-50.5 75t-18 99.5zM568 1565q0 -45 24 -71t72 -26q42 0 69 26t27 71t-27 70.5t-69 25.5t-69 -25.5t-27 -70.5z" />
<glyph unicode="&#xc6;" horiz-adv-x="1888" d="M0 0l655 1462h1112v-254h-532v-321h496v-254h-496v-377h532v-256h-841v348h-461l-150 -348h-315zM578 608h348v590h-97z" />
<glyph unicode="&#xc7;" horiz-adv-x="1305" d="M119 729q0 166 45 304.5t132 238.5t215 155.5t294 55.5q109 0 218.5 -27.5t209.5 -75.5l-100 -252q-82 39 -165 68t-163 29q-89 0 -157.5 -34.5t-115 -99t-70.5 -157t-24 -207.5q0 -117 21.5 -208t66 -153.5t114 -95t165.5 -32.5q89 0 178.5 20t194.5 57v-260 q-48 -20 -95 -34t-96 -23t-100.5 -13.5t-110.5 -4.5q-169 0 -293 54t-205 152t-120 236t-39 307zM471 -303q15 -4 33.5 -7.5t38 -6.5t38 -5t33.5 -2q29 0 50.5 13.5t21.5 48.5q0 37 -37 65.5t-129 42.5l78 154h193l-27 -61q31 -10 60 -27t51.5 -40.5t36.5 -54t14 -67.5 q0 -57 -15.5 -102t-51.5 -76t-95.5 -47.5t-146.5 -16.5q-45 0 -81 6t-65 15v168z" />
<glyph unicode="&#xc8;" horiz-adv-x="1147" d="M184 0v1462h842v-254h-532v-321h495v-254h-495v-377h532v-256h-842zM259 1886v21h342q16 -34 37.5 -74.5t44.5 -81t47 -78.5t45 -67v-27h-203q-34 28 -81.5 69.5t-93.5 85.5t-84 84.5t-54 67.5z" />
<glyph unicode="&#xc9;" horiz-adv-x="1147" d="M184 0v1462h842v-254h-532v-321h495v-254h-495v-377h532v-256h-842zM424 1579v27q21 29 45 67t47.5 78.5t44.5 81t37 74.5h342v-21q-11 -18 -32 -42.5t-48 -52.5t-58 -57.5t-62.5 -57.5t-60.5 -53t-52 -44h-203z" />
<glyph unicode="&#xca;" horiz-adv-x="1147" d="M184 0v1462h842v-254h-532v-321h495v-254h-495v-377h532v-256h-842zM207 1579v27q26 29 57.5 67t64 78.5t62.5 81t52 74.5h356q21 -34 51 -74.5t62.5 -81t65 -78.5t57.5 -67v-27h-203q-51 34 -106 77t-107 99q-54 -56 -106 -99t-103 -77h-203z" />
<glyph unicode="&#xcb;" horiz-adv-x="1147" d="M184 0v1462h842v-254h-532v-321h495v-254h-495v-377h532v-256h-842zM273 1743q0 35 11 60.5t29.5 42t44 24.5t54.5 8t54.5 -8t44.5 -24.5t30.5 -42t11.5 -60.5q0 -34 -11.5 -59t-30.5 -41.5t-44.5 -24.5t-54.5 -8t-54.5 8t-44 24.5t-29.5 41.5t-11 59zM676 1743 q0 35 11 60.5t30 42t45 24.5t56 8q28 0 53.5 -8t45 -24.5t31 -42t11.5 -60.5q0 -34 -11.5 -59t-31 -41.5t-45 -24.5t-53.5 -8q-60 0 -101 33t-41 100z" />
<glyph unicode="&#xcc;" horiz-adv-x="797" d="M66 0v176l178 82v946l-178 82v176h665v-176l-178 -82v-946l178 -82v-176h-665zM42 1886v21h342q16 -34 37.5 -74.5t44.5 -81t47 -78.5t45 -67v-27h-203q-34 28 -81.5 69.5t-93.5 85.5t-84 84.5t-54 67.5z" />
<glyph unicode="&#xcd;" horiz-adv-x="797" d="M66 0v176l178 82v946l-178 82v176h665v-176l-178 -82v-946l178 -82v-176h-665zM237 1579v27q21 29 45 67t47.5 78.5t44.5 81t37 74.5h342v-21q-11 -18 -32 -42.5t-48 -52.5t-58 -57.5t-62.5 -57.5t-60.5 -53t-52 -44h-203z" />
<glyph unicode="&#xce;" horiz-adv-x="797" d="M66 0v176l178 82v946l-178 82v176h665v-176l-178 -82v-946l178 -82v-176h-665zM-16 1579v27q26 29 57.5 67t64 78.5t62.5 81t52 74.5h356q21 -34 51 -74.5t62.5 -81t65 -78.5t57.5 -67v-27h-203q-51 34 -106 77t-107 99q-54 -56 -106 -99t-103 -77h-203z" />
<glyph unicode="&#xcf;" horiz-adv-x="797" d="M66 0v176l178 82v946l-178 82v176h665v-176l-178 -82v-946l178 -82v-176h-665zM54 1743q0 35 11 60.5t29.5 42t44 24.5t54.5 8t54.5 -8t44.5 -24.5t30.5 -42t11.5 -60.5q0 -34 -11.5 -59t-30.5 -41.5t-44.5 -24.5t-54.5 -8t-54.5 8t-44 24.5t-29.5 41.5t-11 59zM457 1743 q0 35 11 60.5t30 42t45 24.5t56 8q28 0 53.5 -8t45 -24.5t31 -42t11.5 -60.5q0 -34 -11.5 -59t-31 -41.5t-45 -24.5t-53.5 -8q-60 0 -101 33t-41 100z" />
<glyph unicode="&#xd0;" horiz-adv-x="1434" d="M47 596v254h137v612h428q161 0 290.5 -46t221.5 -136.5t141.5 -224.5t49.5 -310q0 -185 -50.5 -324.5t-146 -233t-234 -140.5t-315.5 -47h-385v596h-137zM494 256h114q196 0 294.5 120t98.5 361q0 122 -24.5 210.5t-71 146.5t-114 86t-154.5 28h-143v-358h237v-254h-237 v-340z" />
<glyph unicode="&#xd1;" horiz-adv-x="1604" d="M184 0v1462h391l574 -1095h6q-3 76 -7 150q-1 32 -2.5 65.5t-2.5 67t-1.5 64.5t-0.5 56v692h278v-1462h-393l-575 1106h-9q6 -77 10 -153q4 -65 6.5 -136.5t2.5 -128.5v-688h-277zM394 1577q6 80 26 138t52.5 96t76.5 56.5t97 18.5q41 0 80 -16t77.5 -35.5t76 -36 t73.5 -16.5q31 0 49 26t31 80h149q-6 -79 -26.5 -137t-53.5 -96.5t-76.5 -57t-95.5 -18.5q-40 0 -80 16.5t-78 36t-75.5 36t-73.5 16.5q-31 0 -49.5 -26.5t-30.5 -80.5h-149z" />
<glyph unicode="&#xd2;" horiz-adv-x="1548" d="M119 735q0 170 39.5 308.5t120.5 236.5t204.5 151.5t292.5 53.5q168 0 291 -53.5t203.5 -152t120 -237t39.5 -309.5q0 -169 -39.5 -308t-120.5 -238t-204.5 -153t-291.5 -54t-291.5 54t-204 153t-120 238.5t-39.5 309.5zM438 733q0 -115 20 -206.5t61.5 -155t104.5 -97.5 t150 -34q89 0 152.5 34t104 97.5t60 155t19.5 206.5t-19.5 206.5t-60 155.5t-103.5 98t-151 34q-87 0 -151 -34t-105.5 -98t-61.5 -155.5t-20 -206.5zM416 1886v21h342q16 -34 37.5 -74.5t44.5 -81t47 -78.5t45 -67v-27h-203q-34 28 -81.5 69.5t-93.5 85.5t-84 84.5 t-54 67.5z" />
<glyph unicode="&#xd3;" horiz-adv-x="1548" d="M119 735q0 170 39.5 308.5t120.5 236.5t204.5 151.5t292.5 53.5q168 0 291 -53.5t203.5 -152t120 -237t39.5 -309.5q0 -169 -39.5 -308t-120.5 -238t-204.5 -153t-291.5 -54t-291.5 54t-204 153t-120 238.5t-39.5 309.5zM438 733q0 -115 20 -206.5t61.5 -155t104.5 -97.5 t150 -34q89 0 152.5 34t104 97.5t60 155t19.5 206.5t-19.5 206.5t-60 155.5t-103.5 98t-151 34q-87 0 -151 -34t-105.5 -98t-61.5 -155.5t-20 -206.5zM590 1579v27q21 29 45 67t47.5 78.5t44.5 81t37 74.5h342v-21q-11 -18 -32 -42.5t-48 -52.5t-58 -57.5t-62.5 -57.5 t-60.5 -53t-52 -44h-203z" />
<glyph unicode="&#xd4;" horiz-adv-x="1548" d="M119 735q0 170 39.5 308.5t120.5 236.5t204.5 151.5t292.5 53.5q168 0 291 -53.5t203.5 -152t120 -237t39.5 -309.5q0 -169 -39.5 -308t-120.5 -238t-204.5 -153t-291.5 -54t-291.5 54t-204 153t-120 238.5t-39.5 309.5zM438 733q0 -115 20 -206.5t61.5 -155t104.5 -97.5 t150 -34q89 0 152.5 34t104 97.5t60 155t19.5 206.5t-19.5 206.5t-60 155.5t-103.5 98t-151 34q-87 0 -151 -34t-105.5 -98t-61.5 -155.5t-20 -206.5zM350 1579v27q26 29 57.5 67t64 78.5t62.5 81t52 74.5h356q21 -34 51 -74.5t62.5 -81t65 -78.5t57.5 -67v-27h-203 q-51 34 -106 77t-107 99q-54 -56 -106 -99t-103 -77h-203z" />
<glyph unicode="&#xd5;" horiz-adv-x="1548" d="M119 735q0 170 39.5 308.5t120.5 236.5t204.5 151.5t292.5 53.5q168 0 291 -53.5t203.5 -152t120 -237t39.5 -309.5q0 -169 -39.5 -308t-120.5 -238t-204.5 -153t-291.5 -54t-291.5 54t-204 153t-120 238.5t-39.5 309.5zM438 733q0 -115 20 -206.5t61.5 -155t104.5 -97.5 t150 -34q89 0 152.5 34t104 97.5t60 155t19.5 206.5t-19.5 206.5t-60 155.5t-103.5 98t-151 34q-87 0 -151 -34t-105.5 -98t-61.5 -155.5t-20 -206.5zM383 1577q6 80 26 138t52.5 96t76.5 56.5t97 18.5q41 0 80 -16t77.5 -35.5t76 -36t73.5 -16.5q31 0 49 26t31 80h149 q-6 -79 -26.5 -137t-53.5 -96.5t-76.5 -57t-95.5 -18.5q-40 0 -80 16.5t-78 36t-75.5 36t-73.5 16.5q-31 0 -49.5 -26.5t-30.5 -80.5h-149z" />
<glyph unicode="&#xd6;" horiz-adv-x="1548" d="M119 735q0 170 39.5 308.5t120.5 236.5t204.5 151.5t292.5 53.5q168 0 291 -53.5t203.5 -152t120 -237t39.5 -309.5q0 -169 -39.5 -308t-120.5 -238t-204.5 -153t-291.5 -54t-291.5 54t-204 153t-120 238.5t-39.5 309.5zM438 733q0 -115 20 -206.5t61.5 -155t104.5 -97.5 t150 -34q89 0 152.5 34t104 97.5t60 155t19.5 206.5t-19.5 206.5t-60 155.5t-103.5 98t-151 34q-87 0 -151 -34t-105.5 -98t-61.5 -155.5t-20 -206.5zM428 1743q0 35 11 60.5t29.5 42t44 24.5t54.5 8t54.5 -8t44.5 -24.5t30.5 -42t11.5 -60.5q0 -34 -11.5 -59t-30.5 -41.5 t-44.5 -24.5t-54.5 -8t-54.5 8t-44 24.5t-29.5 41.5t-11 59zM831 1743q0 35 11 60.5t30 42t45 24.5t56 8q28 0 53.5 -8t45 -24.5t31 -42t11.5 -60.5q0 -34 -11.5 -59t-31 -41.5t-45 -24.5t-53.5 -8q-60 0 -101 33t-41 100z" />
<glyph unicode="&#xd7;" d="M109 1024l151 154l301 -299l305 299l154 -150l-305 -305l301 -303l-150 -152l-305 301l-301 -299l-149 152l297 301z" />
<glyph unicode="&#xd8;" horiz-adv-x="1548" d="M119 735q0 170 39.5 308.5t120.5 236.5t204.5 151.5t292.5 53.5q91 0 168.5 -16.5t142.5 -47.5l70 111l166 -96l-80 -129q94 -99 140.5 -244.5t46.5 -329.5q0 -169 -39.5 -308t-120.5 -238t-204.5 -153t-291.5 -54q-179 0 -307 61l-72 -117l-168 94l82 134 q-97 100 -143.5 248t-46.5 335zM438 733q0 -180 47 -295l457 746q-69 43 -166 43q-87 0 -151 -34t-105.5 -98t-61.5 -155.5t-20 -206.5zM612 279q34 -19 74 -29t88 -10q89 0 152.5 34t104 97.5t60 155t19.5 206.5q0 171 -43 287z" />
<glyph unicode="&#xd9;" horiz-adv-x="1466" d="M174 520v942h309v-919q0 -81 16 -138.5t47.5 -94t78.5 -53.5t110 -17q131 0 189.5 76t58.5 229v917h309v-946q0 -114 -34.5 -212t-105 -170t-176.5 -113t-249 -41q-135 0 -238.5 38.5t-173 109.5t-105.5 170.5t-36 221.5zM393 1886v21h342q16 -34 37.5 -74.5t44.5 -81 t47 -78.5t45 -67v-27h-203q-34 28 -81.5 69.5t-93.5 85.5t-84 84.5t-54 67.5z" />
<glyph unicode="&#xda;" horiz-adv-x="1466" d="M174 520v942h309v-919q0 -81 16 -138.5t47.5 -94t78.5 -53.5t110 -17q131 0 189.5 76t58.5 229v917h309v-946q0 -114 -34.5 -212t-105 -170t-176.5 -113t-249 -41q-135 0 -238.5 38.5t-173 109.5t-105.5 170.5t-36 221.5zM570 1579v27q21 29 45 67t47.5 78.5t44.5 81 t37 74.5h342v-21q-11 -18 -32 -42.5t-48 -52.5t-58 -57.5t-62.5 -57.5t-60.5 -53t-52 -44h-203z" />
<glyph unicode="&#xdb;" horiz-adv-x="1466" d="M174 520v942h309v-919q0 -81 16 -138.5t47.5 -94t78.5 -53.5t110 -17q131 0 189.5 76t58.5 229v917h309v-946q0 -114 -34.5 -212t-105 -170t-176.5 -113t-249 -41q-135 0 -238.5 38.5t-173 109.5t-105.5 170.5t-36 221.5zM317 1579v27q26 29 57.5 67t64 78.5t62.5 81 t52 74.5h356q21 -34 51 -74.5t62.5 -81t65 -78.5t57.5 -67v-27h-203q-51 34 -106 77t-107 99q-54 -56 -106 -99t-103 -77h-203z" />
<glyph unicode="&#xdc;" horiz-adv-x="1466" d="M174 520v942h309v-919q0 -81 16 -138.5t47.5 -94t78.5 -53.5t110 -17q131 0 189.5 76t58.5 229v917h309v-946q0 -114 -34.5 -212t-105 -170t-176.5 -113t-249 -41q-135 0 -238.5 38.5t-173 109.5t-105.5 170.5t-36 221.5zM393 1743q0 35 11 60.5t29.5 42t44 24.5t54.5 8 t54.5 -8t44.5 -24.5t30.5 -42t11.5 -60.5q0 -34 -11.5 -59t-30.5 -41.5t-44.5 -24.5t-54.5 -8t-54.5 8t-44 24.5t-29.5 41.5t-11 59zM796 1743q0 35 11 60.5t30 42t45 24.5t56 8q28 0 53.5 -8t45 -24.5t31 -42t11.5 -60.5q0 -34 -11.5 -59t-31 -41.5t-45 -24.5t-53.5 -8 q-60 0 -101 33t-41 100z" />
<glyph unicode="&#xdd;" horiz-adv-x="1196" d="M0 1462h336l262 -602l264 602h334l-444 -893v-569h-308v559zM422 1579v27q21 29 45 67t47.5 78.5t44.5 81t37 74.5h342v-21q-11 -18 -32 -42.5t-48 -52.5t-58 -57.5t-62.5 -57.5t-60.5 -53t-52 -44h-203z" />
<glyph unicode="&#xde;" horiz-adv-x="1225" d="M184 0v1462h310v-229h161q124 0 214 -33t148.5 -93.5t87 -146t28.5 -190.5q0 -94 -25.5 -180t-84 -152t-154 -105.5t-236.5 -39.5h-139v-293h-310zM494 543h84q121 0 181 52.5t60 174.5q0 108 -53 159.5t-168 51.5h-104v-438z" />
<glyph unicode="&#xdf;" horiz-adv-x="1395" d="M160 0v1139q0 109 37 189.5t105.5 133.5t164.5 79t213 26q115 0 209 -21.5t160.5 -63t102.5 -102.5t36 -139q0 -64 -21.5 -112.5t-53 -86.5t-69 -67t-69 -53t-53 -45t-21.5 -43q0 -20 12.5 -37t39 -37t67.5 -45.5t98 -63.5q49 -31 87 -63.5t64.5 -71t40 -84.5t13.5 -106 q0 -172 -117 -259t-344 -87q-98 0 -170.5 14.5t-132.5 48.5v242q24 -16 58.5 -31.5t72.5 -27.5t78 -19.5t74 -7.5q80 0 124 30.5t44 92.5q0 27 -7 48t-27.5 42t-57.5 45.5t-97 58.5q-63 36 -105.5 68t-69 63.5t-37.5 66t-11 74.5q0 53 20.5 92t51.5 70t67.5 57t67.5 52.5 t51.5 57.5t20.5 71q0 63 -50 102t-147 39q-108 0 -161.5 -48.5t-53.5 -152.5v-1128h-305z" />
<glyph unicode="&#xe0;" horiz-adv-x="1176" d="M86 334q0 178 114 262.5t341 93.5l178 6v84q0 69 -40 102t-112 33t-140.5 -21t-137.5 -56l-99 202q84 47 186 74t214 27q209 0 320.5 -98t111.5 -298v-745h-213l-59 152h-9q-33 -45 -66 -77.5t-72 -53.5t-87.5 -31t-112.5 -10q-68 0 -126 21.5t-100.5 65t-66.5 110 t-24 157.5zM399 332q0 -70 34 -99.5t89 -29.5q42 0 78 14.5t62.5 43t41.5 70t15 95.5v92l-101 -4q-61 -2 -103 -16t-67.5 -37.5t-37 -56t-11.5 -72.5zM239 1548v21h342q16 -34 37.5 -74.5t44.5 -81t47 -78.5t45 -67v-27h-203q-34 28 -81.5 69.5t-93.5 85.5t-84 84.5 t-54 67.5z" />
<glyph unicode="&#xe1;" horiz-adv-x="1176" d="M86 334q0 178 114 262.5t341 93.5l178 6v84q0 69 -40 102t-112 33t-140.5 -21t-137.5 -56l-99 202q84 47 186 74t214 27q209 0 320.5 -98t111.5 -298v-745h-213l-59 152h-9q-33 -45 -66 -77.5t-72 -53.5t-87.5 -31t-112.5 -10q-68 0 -126 21.5t-100.5 65t-66.5 110 t-24 157.5zM399 332q0 -70 34 -99.5t89 -29.5q42 0 78 14.5t62.5 43t41.5 70t15 95.5v92l-101 -4q-61 -2 -103 -16t-67.5 -37.5t-37 -56t-11.5 -72.5zM441 1241v27q21 29 45 67t47.5 78.5t44.5 81t37 74.5h342v-21q-11 -18 -32 -42.5t-48 -52.5t-58 -57.5t-62.5 -57.5 t-60.5 -53t-52 -44h-203z" />
<glyph unicode="&#xe2;" horiz-adv-x="1176" d="M86 334q0 178 114 262.5t341 93.5l178 6v84q0 69 -40 102t-112 33t-140.5 -21t-137.5 -56l-99 202q84 47 186 74t214 27q209 0 320.5 -98t111.5 -298v-745h-213l-59 152h-9q-33 -45 -66 -77.5t-72 -53.5t-87.5 -31t-112.5 -10q-68 0 -126 21.5t-100.5 65t-66.5 110 t-24 157.5zM399 332q0 -70 34 -99.5t89 -29.5q42 0 78 14.5t62.5 43t41.5 70t15 95.5v92l-101 -4q-61 -2 -103 -16t-67.5 -37.5t-37 -56t-11.5 -72.5zM176 1240v27q26 29 57.5 67t64 78.5t62.5 81t52 74.5h356q21 -34 51 -74.5t62.5 -81t65 -78.5t57.5 -67v-27h-203 q-51 34 -106 77t-107 99q-54 -56 -106 -99t-103 -77h-203z" />
<glyph unicode="&#xe3;" horiz-adv-x="1176" d="M86 334q0 178 114 262.5t341 93.5l178 6v84q0 69 -40 102t-112 33t-140.5 -21t-137.5 -56l-99 202q84 47 186 74t214 27q209 0 320.5 -98t111.5 -298v-745h-213l-59 152h-9q-33 -45 -66 -77.5t-72 -53.5t-87.5 -31t-112.5 -10q-68 0 -126 21.5t-100.5 65t-66.5 110 t-24 157.5zM399 332q0 -70 34 -99.5t89 -29.5q42 0 78 14.5t62.5 43t41.5 70t15 95.5v92l-101 -4q-61 -2 -103 -16t-67.5 -37.5t-37 -56t-11.5 -72.5zM196 1239q6 80 26 138t52.5 96t76.5 56.5t97 18.5q41 0 80 -16t77.5 -35.5t76 -36t73.5 -16.5q31 0 49 26t31 80h149 q-6 -79 -26.5 -137t-53.5 -96.5t-76.5 -57t-95.5 -18.5q-40 0 -80 16.5t-78 36t-75.5 36t-73.5 16.5q-31 0 -49.5 -26.5t-30.5 -80.5h-149z" />
<glyph unicode="&#xe4;" horiz-adv-x="1176" d="M86 334q0 178 114 262.5t341 93.5l178 6v84q0 69 -40 102t-112 33t-140.5 -21t-137.5 -56l-99 202q84 47 186 74t214 27q209 0 320.5 -98t111.5 -298v-745h-213l-59 152h-9q-33 -45 -66 -77.5t-72 -53.5t-87.5 -31t-112.5 -10q-68 0 -126 21.5t-100.5 65t-66.5 110 t-24 157.5zM399 332q0 -70 34 -99.5t89 -29.5q42 0 78 14.5t62.5 43t41.5 70t15 95.5v92l-101 -4q-61 -2 -103 -16t-67.5 -37.5t-37 -56t-11.5 -72.5zM254 1405q0 35 11 60.5t29.5 42t44 24.5t54.5 8t54.5 -8t44.5 -24.5t30.5 -42t11.5 -60.5q0 -34 -11.5 -59t-30.5 -41.5 t-44.5 -24.5t-54.5 -8t-54.5 8t-44 24.5t-29.5 41.5t-11 59zM657 1405q0 35 11 60.5t30 42t45 24.5t56 8q28 0 53.5 -8t45 -24.5t31 -42t11.5 -60.5q0 -34 -11.5 -59t-31 -41.5t-45 -24.5t-53.5 -8q-60 0 -101 33t-41 100z" />
<glyph unicode="&#xe5;" horiz-adv-x="1176" d="M86 334q0 178 114 262.5t341 93.5l178 6v84q0 69 -40 102t-112 33t-140.5 -21t-137.5 -56l-99 202q84 47 186 74t214 27q209 0 320.5 -98t111.5 -298v-745h-213l-59 152h-9q-33 -45 -66 -77.5t-72 -53.5t-87.5 -31t-112.5 -10q-68 0 -126 21.5t-100.5 65t-66.5 110 t-24 157.5zM399 332q0 -70 34 -99.5t89 -29.5q42 0 78 14.5t62.5 43t41.5 70t15 95.5v92l-101 -4q-61 -2 -103 -16t-67.5 -37.5t-37 -56t-11.5 -72.5zM340 1477q0 55 18 99t50.5 74.5t78.5 47t101 16.5q53 0 99 -16.5t80.5 -47t54.5 -74t20 -97.5q0 -56 -19.5 -100.5 t-54 -75.5t-80.5 -47.5t-100 -16.5q-55 0 -101 16.5t-78.5 47t-50.5 75t-18 99.5zM492 1477q0 -45 24 -71t72 -26q42 0 69 26t27 71t-27 70.5t-69 25.5t-69 -25.5t-27 -70.5z" />
<glyph unicode="&#xe6;" horiz-adv-x="1806" d="M86 334q0 178 114 262.5t341 93.5l178 6v84q0 69 -40 102t-112 33t-140.5 -21t-137.5 -56l-99 202q84 47 186 74t214 27q214 0 323 -131q126 129 314 129q111 0 200.5 -33.5t151.5 -98.5t95.5 -159.5t33.5 -216.5v-148h-682q2 -64 20.5 -115.5t52 -87t81 -54.5t108.5 -19 q94 0 181.5 21.5t175.5 66.5v-236q-40 -21 -80.5 -35.5t-85.5 -24.5t-97 -14.5t-114 -4.5q-131 0 -238 50.5t-176 155.5q-43 -54 -85 -92.5t-91 -64t-110.5 -37.5t-143.5 -12q-68 0 -129.5 21.5t-108 65t-73.5 110t-27 157.5zM399 332q0 -70 34 -99.5t89 -29.5q42 0 78 14.5 t62.5 43t41.5 70t15 95.5v92l-101 -4q-61 -2 -103 -16t-67.5 -37.5t-37 -56t-11.5 -72.5zM1032 686h389q-1 51 -13 94t-35.5 74.5t-59.5 49.5t-84 18q-82 0 -135.5 -57t-61.5 -179z" />
<glyph unicode="&#xe7;" horiz-adv-x="1022" d="M102 553q0 167 37.5 279.5t106 180.5t165 97t214.5 29q86 0 171 -21t160 -59l-88 -232q-66 29 -127 47.5t-116 18.5q-111 0 -161 -84.5t-50 -253.5q0 -168 50 -248t157 -80q87 0 158 22.5t145 57.5v-254q-37 -18 -72 -32t-70.5 -23t-74 -13.5t-82.5 -4.5 q-120 0 -216.5 33t-165 102.5t-105 178t-36.5 259.5zM323 -303q15 -4 33.5 -7.5t38 -6.5t38 -5t33.5 -2q29 0 50.5 13.5t21.5 48.5q0 37 -37 65.5t-129 42.5l78 154h193l-27 -61q31 -10 60 -27t51.5 -40.5t36.5 -54t14 -67.5q0 -57 -15.5 -102t-51.5 -76t-95.5 -47.5 t-146.5 -16.5q-45 0 -81 6t-65 15v168z" />
<glyph unicode="&#xe8;" horiz-adv-x="1190" d="M102 551q0 147 37 257t103.5 183.5t160 110.5t207.5 37q111 0 200.5 -33.5t152 -98.5t96 -159.5t33.5 -216.5v-148h-682q2 -64 20.5 -115.5t52 -87t81 -54.5t108.5 -19q51 0 96.5 5.5t88.5 16.5t85 27.5t86 38.5v-236q-40 -21 -80.5 -35.5t-85.5 -24.5t-97 -14.5 t-114 -4.5q-120 0 -221 35t-174 105.5t-113.5 178t-40.5 252.5zM416 686h389q-1 51 -13 94t-36 74.5t-60 49.5t-84 18q-81 0 -134.5 -57t-61.5 -179zM265 1548v21h342q16 -34 37.5 -74.5t44.5 -81t47 -78.5t45 -67v-27h-203q-34 28 -81.5 69.5t-93.5 85.5t-84 84.5t-54 67.5 z" />
<glyph unicode="&#xe9;" horiz-adv-x="1190" d="M102 551q0 147 37 257t103.5 183.5t160 110.5t207.5 37q111 0 200.5 -33.5t152 -98.5t96 -159.5t33.5 -216.5v-148h-682q2 -64 20.5 -115.5t52 -87t81 -54.5t108.5 -19q51 0 96.5 5.5t88.5 16.5t85 27.5t86 38.5v-236q-40 -21 -80.5 -35.5t-85.5 -24.5t-97 -14.5 t-114 -4.5q-120 0 -221 35t-174 105.5t-113.5 178t-40.5 252.5zM416 686h389q-1 51 -13 94t-36 74.5t-60 49.5t-84 18q-81 0 -134.5 -57t-61.5 -179zM447 1241v27q21 29 45 67t47.5 78.5t44.5 81t37 74.5h342v-21q-11 -18 -32 -42.5t-48 -52.5t-58 -57.5t-62.5 -57.5 t-60.5 -53t-52 -44h-203z" />
<glyph unicode="&#xea;" horiz-adv-x="1190" d="M102 551q0 147 37 257t103.5 183.5t160 110.5t207.5 37q111 0 200.5 -33.5t152 -98.5t96 -159.5t33.5 -216.5v-148h-682q2 -64 20.5 -115.5t52 -87t81 -54.5t108.5 -19q51 0 96.5 5.5t88.5 16.5t85 27.5t86 38.5v-236q-40 -21 -80.5 -35.5t-85.5 -24.5t-97 -14.5 t-114 -4.5q-120 0 -221 35t-174 105.5t-113.5 178t-40.5 252.5zM416 686h389q-1 51 -13 94t-36 74.5t-60 49.5t-84 18q-81 0 -134.5 -57t-61.5 -179zM194 1241v27q26 29 57.5 67t64 78.5t62.5 81t52 74.5h356q21 -34 51 -74.5t62.5 -81t65 -78.5t57.5 -67v-27h-203 q-51 34 -106 77t-107 99q-54 -56 -106 -99t-103 -77h-203z" />
<glyph unicode="&#xeb;" horiz-adv-x="1190" d="M102 551q0 147 37 257t103.5 183.5t160 110.5t207.5 37q111 0 200.5 -33.5t152 -98.5t96 -159.5t33.5 -216.5v-148h-682q2 -64 20.5 -115.5t52 -87t81 -54.5t108.5 -19q51 0 96.5 5.5t88.5 16.5t85 27.5t86 38.5v-236q-40 -21 -80.5 -35.5t-85.5 -24.5t-97 -14.5 t-114 -4.5q-120 0 -221 35t-174 105.5t-113.5 178t-40.5 252.5zM416 686h389q-1 51 -13 94t-36 74.5t-60 49.5t-84 18q-81 0 -134.5 -57t-61.5 -179zM266 1405q0 35 11 60.5t29.5 42t44 24.5t54.5 8t54.5 -8t44.5 -24.5t30.5 -42t11.5 -60.5q0 -34 -11.5 -59t-30.5 -41.5 t-44.5 -24.5t-54.5 -8t-54.5 8t-44 24.5t-29.5 41.5t-11 59zM669 1405q0 35 11 60.5t30 42t45 24.5t56 8q28 0 53.5 -8t45 -24.5t31 -42t11.5 -60.5q0 -34 -11.5 -59t-31 -41.5t-45 -24.5t-53.5 -8q-60 0 -101 33t-41 100z" />
<glyph unicode="&#xec;" horiz-adv-x="625" d="M160 0v1118h305v-1118h-305zM-44 1548v21h342q16 -34 37.5 -74.5t44.5 -81t47 -78.5t45 -67v-27h-203q-34 28 -81.5 69.5t-93.5 85.5t-84 84.5t-54 67.5z" />
<glyph unicode="&#xed;" horiz-adv-x="625" d="M160 0v1118h305v-1118h-305zM145 1241v27q21 29 45 67t47.5 78.5t44.5 81t37 74.5h342v-21q-11 -18 -32 -42.5t-48 -52.5t-58 -57.5t-62.5 -57.5t-60.5 -53t-52 -44h-203z" />
<glyph unicode="&#xee;" horiz-adv-x="625" d="M160 0v1118h305v-1118h-305zM-104 1241v27q26 29 57.5 67t64 78.5t62.5 81t52 74.5h356q21 -34 51 -74.5t62.5 -81t65 -78.5t57.5 -67v-27h-203q-51 34 -106 77t-107 99q-54 -56 -106 -99t-103 -77h-203z" />
<glyph unicode="&#xef;" horiz-adv-x="625" d="M160 0v1118h305v-1118h-305zM-32 1405q0 35 11 60.5t29.5 42t44 24.5t54.5 8t54.5 -8t44.5 -24.5t30.5 -42t11.5 -60.5q0 -34 -11.5 -59t-30.5 -41.5t-44.5 -24.5t-54.5 -8t-54.5 8t-44 24.5t-29.5 41.5t-11 59zM371 1405q0 35 11 60.5t30 42t45 24.5t56 8q28 0 53.5 -8 t45 -24.5t31 -42t11.5 -60.5q0 -34 -11.5 -59t-31 -41.5t-45 -24.5t-53.5 -8q-60 0 -101 33t-41 100z" />
<glyph unicode="&#xf0;" horiz-adv-x="1182" d="M74 489q0 122 32.5 216t91 158.5t140 98t178.5 33.5q96 0 164 -31.5t100 -80.5l21 2q-28 88 -78.5 165.5t-116.5 133.5l-231 -144l-101 156l183 113q-34 21 -73 45t-81 47l96 170q73 -34 137 -68.5t121 -72.5l226 139l100 -154l-174 -106q72 -69 126 -147t89.5 -169 t53.5 -195t18 -225q0 -142 -36 -252t-103 -186t-162 -115.5t-213 -39.5q-111 0 -204 34t-160.5 99t-105.5 159.5t-38 216.5zM385 487q0 -63 11.5 -115t36 -89t62.5 -57.5t91 -20.5q106 0 152 81.5t46 245.5q0 47 -11.5 90t-36 76t-62 52.5t-88.5 19.5q-108 0 -154.5 -70.5 t-46.5 -212.5z" />
<glyph unicode="&#xf1;" horiz-adv-x="1284" d="M160 0v1118h233l41 -143h17q24 43 58.5 74t75.5 51t87 29.5t94 9.5q82 0 149 -23.5t115 -73.5t74 -127.5t26 -185.5v-729h-305v653q0 121 -36.5 181.5t-116.5 60.5q-60 0 -100 -24t-63.5 -71t-33.5 -116t-10 -158v-526h-305zM248 1239q6 80 26 138t52.5 96t76.5 56.5 t97 18.5q41 0 80 -16t77.5 -35.5t76 -36t73.5 -16.5q31 0 49 26t31 80h149q-6 -79 -26.5 -137t-53.5 -96.5t-76.5 -57t-95.5 -18.5q-40 0 -80 16.5t-78 36t-75.5 36t-73.5 16.5q-31 0 -49.5 -26.5t-30.5 -80.5h-149z" />
<glyph unicode="&#xf2;" horiz-adv-x="1227" d="M102 561q0 139 35.5 247t102 181.5t161.5 111.5t215 38q111 0 204 -38t160.5 -111.5t105.5 -181.5t38 -247q0 -140 -35.5 -248t-102 -182t-162 -112.5t-214.5 -38.5q-111 0 -204 38.5t-160.5 112.5t-105.5 182t-38 248zM414 561q0 -167 47 -251.5t153 -84.5q105 0 152 85 t47 251q0 167 -47 249.5t-154 82.5q-105 0 -151.5 -82.5t-46.5 -249.5zM272 1548v21h342q16 -34 37.5 -74.5t44.5 -81t47 -78.5t45 -67v-27h-203q-34 28 -81.5 69.5t-93.5 85.5t-84 84.5t-54 67.5z" />
<glyph unicode="&#xf3;" horiz-adv-x="1227" d="M102 561q0 139 35.5 247t102 181.5t161.5 111.5t215 38q111 0 204 -38t160.5 -111.5t105.5 -181.5t38 -247q0 -140 -35.5 -248t-102 -182t-162 -112.5t-214.5 -38.5q-111 0 -204 38.5t-160.5 112.5t-105.5 182t-38 248zM414 561q0 -167 47 -251.5t153 -84.5q105 0 152 85 t47 251q0 167 -47 249.5t-154 82.5q-105 0 -151.5 -82.5t-46.5 -249.5zM434 1241v27q21 29 45 67t47.5 78.5t44.5 81t37 74.5h342v-21q-11 -18 -32 -42.5t-48 -52.5t-58 -57.5t-62.5 -57.5t-60.5 -53t-52 -44h-203z" />
<glyph unicode="&#xf4;" horiz-adv-x="1227" d="M102 561q0 139 35.5 247t102 181.5t161.5 111.5t215 38q111 0 204 -38t160.5 -111.5t105.5 -181.5t38 -247q0 -140 -35.5 -248t-102 -182t-162 -112.5t-214.5 -38.5q-111 0 -204 38.5t-160.5 112.5t-105.5 182t-38 248zM414 561q0 -167 47 -251.5t153 -84.5q105 0 152 85 t47 251q0 167 -47 249.5t-154 82.5q-105 0 -151.5 -82.5t-46.5 -249.5zM196 1241v27q26 29 57.5 67t64 78.5t62.5 81t52 74.5h356q21 -34 51 -74.5t62.5 -81t65 -78.5t57.5 -67v-27h-203q-51 34 -106 77t-107 99q-54 -56 -106 -99t-103 -77h-203z" />
<glyph unicode="&#xf5;" horiz-adv-x="1227" d="M102 561q0 139 35.5 247t102 181.5t161.5 111.5t215 38q111 0 204 -38t160.5 -111.5t105.5 -181.5t38 -247q0 -140 -35.5 -248t-102 -182t-162 -112.5t-214.5 -38.5q-111 0 -204 38.5t-160.5 112.5t-105.5 182t-38 248zM414 561q0 -167 47 -251.5t153 -84.5q105 0 152 85 t47 251q0 167 -47 249.5t-154 82.5q-105 0 -151.5 -82.5t-46.5 -249.5zM215 1239q6 80 26 138t52.5 96t76.5 56.5t97 18.5q41 0 80 -16t77.5 -35.5t76 -36t73.5 -16.5q31 0 49 26t31 80h149q-6 -79 -26.5 -137t-53.5 -96.5t-76.5 -57t-95.5 -18.5q-40 0 -80 16.5t-78 36 t-75.5 36t-73.5 16.5q-31 0 -49.5 -26.5t-30.5 -80.5h-149z" />
<glyph unicode="&#xf6;" horiz-adv-x="1227" d="M102 561q0 139 35.5 247t102 181.5t161.5 111.5t215 38q111 0 204 -38t160.5 -111.5t105.5 -181.5t38 -247q0 -140 -35.5 -248t-102 -182t-162 -112.5t-214.5 -38.5q-111 0 -204 38.5t-160.5 112.5t-105.5 182t-38 248zM414 561q0 -167 47 -251.5t153 -84.5q105 0 152 85 t47 251q0 167 -47 249.5t-154 82.5q-105 0 -151.5 -82.5t-46.5 -249.5zM266 1405q0 35 11 60.5t29.5 42t44 24.5t54.5 8t54.5 -8t44.5 -24.5t30.5 -42t11.5 -60.5q0 -34 -11.5 -59t-30.5 -41.5t-44.5 -24.5t-54.5 -8t-54.5 8t-44 24.5t-29.5 41.5t-11 59zM669 1405 q0 35 11 60.5t30 42t45 24.5t56 8q28 0 53.5 -8t45 -24.5t31 -42t11.5 -60.5q0 -34 -11.5 -59t-31 -41.5t-45 -24.5t-53.5 -8q-60 0 -101 33t-41 100z" />
<glyph unicode="&#xf7;" d="M88 612v219h952v-219h-952zM424 373q0 42 11 71t30 46.5t44.5 25.5t53.5 8t53 -8t44 -25.5t30.5 -46.5t11.5 -71q0 -40 -11.5 -69t-30.5 -47.5t-44 -27t-53 -8.5t-53.5 8.5t-44.5 27t-30 47.5t-11 69zM424 1071q0 42 11 71t30 47t44.5 26t53.5 8t53 -8t44 -26t30.5 -47 t11.5 -71q0 -40 -11.5 -68.5t-30.5 -47t-44 -27t-53 -8.5t-53.5 8.5t-44.5 27t-30 47t-11 68.5z" />
<glyph unicode="&#xf8;" horiz-adv-x="1227" d="M102 561q0 139 35.5 247t102 181.5t161.5 111.5t215 38q62 0 119.5 -13t108.5 -36l49 79l160 -96l-62 -98q63 -72 98 -176.5t35 -237.5q0 -140 -35.5 -248t-102 -182t-162 -112.5t-214.5 -38.5q-57 0 -109 10t-100 28l-57 -94l-162 90l68 111q-69 74 -108.5 183.5 t-39.5 252.5zM414 561q0 -86 12 -151l283 458q-40 25 -97 25q-105 0 -151.5 -82.5t-46.5 -249.5zM539 240q17 -8 35.5 -11.5t39.5 -3.5q105 0 152 85t47 251q0 64 -6 113z" />
<glyph unicode="&#xf9;" horiz-adv-x="1284" d="M154 389v729h305v-653q0 -121 36.5 -181.5t116.5 -60.5q60 0 100 24t63.5 71t33.5 116t10 158v526h305v-1118h-233l-41 143h-16q-25 -43 -59.5 -73.5t-75.5 -50.5t-87 -29.5t-94 -9.5q-82 0 -149 23.5t-115 73.5t-74 127t-26 185zM270 1548v21h342q16 -34 37.5 -74.5 t44.5 -81t47 -78.5t45 -67v-27h-203q-34 28 -81.5 69.5t-93.5 85.5t-84 84.5t-54 67.5z" />
<glyph unicode="&#xfa;" horiz-adv-x="1284" d="M154 389v729h305v-653q0 -121 36.5 -181.5t116.5 -60.5q60 0 100 24t63.5 71t33.5 116t10 158v526h305v-1118h-233l-41 143h-16q-25 -43 -59.5 -73.5t-75.5 -50.5t-87 -29.5t-94 -9.5q-82 0 -149 23.5t-115 73.5t-74 127t-26 185zM461 1241v27q21 29 45 67t47.5 78.5 t44.5 81t37 74.5h342v-21q-11 -18 -32 -42.5t-48 -52.5t-58 -57.5t-62.5 -57.5t-60.5 -53t-52 -44h-203z" />
<glyph unicode="&#xfb;" horiz-adv-x="1284" d="M154 389v729h305v-653q0 -121 36.5 -181.5t116.5 -60.5q60 0 100 24t63.5 71t33.5 116t10 158v526h305v-1118h-233l-41 143h-16q-25 -43 -59.5 -73.5t-75.5 -50.5t-87 -29.5t-94 -9.5q-82 0 -149 23.5t-115 73.5t-74 127t-26 185zM217 1241v27q26 29 57.5 67t64 78.5 t62.5 81t52 74.5h356q21 -34 51 -74.5t62.5 -81t65 -78.5t57.5 -67v-27h-203q-51 34 -106 77t-107 99q-54 -56 -106 -99t-103 -77h-203z" />
<glyph unicode="&#xfc;" horiz-adv-x="1284" d="M154 389v729h305v-653q0 -121 36.5 -181.5t116.5 -60.5q60 0 100 24t63.5 71t33.5 116t10 158v526h305v-1118h-233l-41 143h-16q-25 -43 -59.5 -73.5t-75.5 -50.5t-87 -29.5t-94 -9.5q-82 0 -149 23.5t-115 73.5t-74 127t-26 185zM295 1405q0 35 11 60.5t29.5 42t44 24.5 t54.5 8t54.5 -8t44.5 -24.5t30.5 -42t11.5 -60.5q0 -34 -11.5 -59t-30.5 -41.5t-44.5 -24.5t-54.5 -8t-54.5 8t-44 24.5t-29.5 41.5t-11 59zM698 1405q0 35 11 60.5t30 42t45 24.5t56 8q28 0 53.5 -8t45 -24.5t31 -42t11.5 -60.5q0 -34 -11.5 -59t-31 -41.5t-45 -24.5 t-53.5 -8q-60 0 -101 33t-41 100z" />
<glyph unicode="&#xfd;" horiz-adv-x="1104" d="M0 1118h334l180 -629q16 -52 23.5 -111t9.5 -106h6q2 23 5.5 51t8.5 57t11.5 57.5t13.5 51.5l176 629h336l-442 -1261q-62 -177 -169 -263t-268 -86q-52 0 -90 5.5t-65 11.5v242q21 -5 53 -9t67 -4q48 0 82 13t58.5 36.5t42 56.5t30.5 74l19 56zM393 1241v27q21 29 45 67 t47.5 78.5t44.5 81t37 74.5h342v-21q-11 -18 -32 -42.5t-48 -52.5t-58 -57.5t-62.5 -57.5t-60.5 -53t-52 -44h-203z" />
<glyph unicode="&#xfe;" horiz-adv-x="1245" d="M160 -492v2048h305v-391q0 -24 -2 -57t-5 -63q-4 -35 -7 -72h14q20 35 47.5 65t63.5 52.5t80.5 35.5t99.5 13q86 0 157 -37t122 -110t79.5 -181t28.5 -250q0 -143 -28 -251.5t-79 -182t-122 -110.5t-158 -37q-55 0 -100 10.5t-80.5 29.5t-62.5 44t-48 53h-14q3 -32 7 -62 q3 -26 5 -52t2 -42v-453h-305zM465 563q0 -81 9.5 -144t31.5 -105.5t58.5 -64.5t90.5 -22q91 0 133.5 86.5t42.5 251.5t-42.5 247.5t-135.5 82.5q-51 0 -86.5 -18.5t-57.5 -55.5t-32 -93.5t-12 -131.5v-33z" />
<glyph unicode="&#xff;" horiz-adv-x="1104" d="M0 1118h334l180 -629q16 -52 23.5 -111t9.5 -106h6q2 23 5.5 51t8.5 57t11.5 57.5t13.5 51.5l176 629h336l-442 -1261q-62 -177 -169 -263t-268 -86q-52 0 -90 5.5t-65 11.5v242q21 -5 53 -9t67 -4q48 0 82 13t58.5 36.5t42 56.5t30.5 74l19 56zM210 1405q0 35 11 60.5 t29.5 42t44 24.5t54.5 8t54.5 -8t44.5 -24.5t30.5 -42t11.5 -60.5q0 -34 -11.5 -59t-30.5 -41.5t-44.5 -24.5t-54.5 -8t-54.5 8t-44 24.5t-29.5 41.5t-11 59zM613 1405q0 35 11 60.5t30 42t45 24.5t56 8q28 0 53.5 -8t45 -24.5t31 -42t11.5 -60.5q0 -34 -11.5 -59t-31 -41.5 t-45 -24.5t-53.5 -8q-60 0 -101 33t-41 100z" />
<glyph unicode="&#x100;" horiz-adv-x="1331" d="M0 0l475 1468h379l477 -1468h-313l-100 348h-504l-101 -348h-313zM489 608h357l-94 320q-6 18 -18 59t-25.5 90.5t-25.5 99.5t-17 85q-4 -22 -10.5 -52t-15 -63.5t-17.5 -67.5t-17 -64t-14.5 -53t-9.5 -34zM358 1579v211h617v-211h-617z" />
<glyph unicode="&#x101;" horiz-adv-x="1176" d="M86 334q0 178 114 262.5t341 93.5l178 6v84q0 69 -40 102t-112 33t-140.5 -21t-137.5 -56l-99 202q84 47 186 74t214 27q209 0 320.5 -98t111.5 -298v-745h-213l-59 152h-9q-33 -45 -66 -77.5t-72 -53.5t-87.5 -31t-112.5 -10q-68 0 -126 21.5t-100.5 65t-66.5 110 t-24 157.5zM399 332q0 -70 34 -99.5t89 -29.5q42 0 78 14.5t62.5 43t41.5 70t15 95.5v92l-101 -4q-61 -2 -103 -16t-67.5 -37.5t-37 -56t-11.5 -72.5zM278 1241v211h617v-211h-617z" />
<glyph unicode="&#x102;" horiz-adv-x="1331" d="M0 0l475 1468h379l477 -1468h-313l-100 348h-504l-101 -348h-313zM489 608h357l-94 320q-6 18 -18 59t-25.5 90.5t-25.5 99.5t-17 85q-4 -22 -10.5 -52t-15 -63.5t-17.5 -67.5t-17 -64t-14.5 -53t-9.5 -34zM303 1917h170q4 -43 18 -68t38 -37.5t57.5 -16t77.5 -3.5 q36 0 68.5 4.5t58 18t42.5 38t21 64.5h174q-5 -75 -31 -137t-72 -106.5t-112 -69.5t-151 -25q-88 0 -154 24t-110 68t-67.5 106.5t-27.5 139.5z" />
<glyph unicode="&#x103;" horiz-adv-x="1176" d="M86 334q0 178 114 262.5t341 93.5l178 6v84q0 69 -40 102t-112 33t-140.5 -21t-137.5 -56l-99 202q84 47 186 74t214 27q209 0 320.5 -98t111.5 -298v-745h-213l-59 152h-9q-33 -45 -66 -77.5t-72 -53.5t-87.5 -31t-112.5 -10q-68 0 -126 21.5t-100.5 65t-66.5 110 t-24 157.5zM399 332q0 -70 34 -99.5t89 -29.5q42 0 78 14.5t62.5 43t41.5 70t15 95.5v92l-101 -4q-61 -2 -103 -16t-67.5 -37.5t-37 -56t-11.5 -72.5zM239 1579h170q4 -43 18 -68t38 -37.5t57.5 -16t77.5 -3.5q36 0 68.5 4.5t58 18t42.5 38t21 64.5h174q-5 -75 -31 -137 t-72 -106.5t-112 -69.5t-151 -25q-88 0 -154 24t-110 68t-67.5 106.5t-27.5 139.5z" />
<glyph unicode="&#x104;" horiz-adv-x="1331" d="M0 0l475 1468h379l477 -1468h-313l-100 348h-504l-101 -348h-313zM489 608h357l-94 320q-6 18 -18 59t-25.5 90.5t-25.5 99.5t-17 85q-4 -22 -10.5 -52t-15 -63.5t-17.5 -67.5t-17 -64t-14.5 -53t-9.5 -34zM839 -262q0 43 14 79t38.5 67.5t57.5 59.5t70 56h179 q-70 -66 -109 -120.5t-39 -106.5q0 -42 22.5 -62t57.5 -20q32 0 63.5 6t51.5 12v-178q-32 -9 -69 -16t-87 -7q-58 0 -104 17t-78.5 47.5t-50 72.5t-17.5 93z" />
<glyph unicode="&#x105;" horiz-adv-x="1176" d="M86 334q0 178 114 262.5t341 93.5l178 6v84q0 69 -40 102t-112 33t-140.5 -21t-137.5 -56l-99 202q84 47 186 74t214 27q209 0 320.5 -98t111.5 -298v-745h-213l-59 152h-9q-33 -45 -66 -77.5t-72 -53.5t-87.5 -31t-112.5 -10q-68 0 -126 21.5t-100.5 65t-66.5 110 t-24 157.5zM399 332q0 -70 34 -99.5t89 -29.5q42 0 78 14.5t62.5 43t41.5 70t15 95.5v92l-101 -4q-61 -2 -103 -16t-67.5 -37.5t-37 -56t-11.5 -72.5zM631 -262q0 43 14 79t38.5 67.5t57.5 59.5t70 56h179q-70 -66 -109 -120.5t-39 -106.5q0 -42 22.5 -62t57.5 -20 q32 0 63.5 6t51.5 12v-178q-32 -9 -69 -16t-87 -7q-58 0 -104 17t-78.5 47.5t-50 72.5t-17.5 93z" />
<glyph unicode="&#x106;" horiz-adv-x="1305" d="M119 729q0 166 45 304.5t132 238.5t215 155.5t294 55.5q109 0 218.5 -27.5t209.5 -75.5l-100 -252q-82 39 -165 68t-163 29q-89 0 -157.5 -34.5t-115 -99t-70.5 -157t-24 -207.5q0 -117 21.5 -208t66 -153.5t114 -95t165.5 -32.5q89 0 178.5 20t194.5 57v-260 q-48 -20 -95 -34t-96 -23t-100.5 -13.5t-110.5 -4.5q-169 0 -293 54t-205 152t-120 236t-39 307zM639 1579v27q21 29 45 67t47.5 78.5t44.5 81t37 74.5h342v-21q-11 -18 -32 -42.5t-48 -52.5t-58 -57.5t-62.5 -57.5t-60.5 -53t-52 -44h-203z" />
<glyph unicode="&#x107;" horiz-adv-x="1022" d="M102 553q0 167 37.5 279.5t106 180.5t165 97t214.5 29q86 0 171 -21t160 -59l-88 -232q-66 29 -127 47.5t-116 18.5q-111 0 -161 -84.5t-50 -253.5q0 -168 50 -248t157 -80q87 0 158 22.5t145 57.5v-254q-37 -18 -72 -32t-70.5 -23t-74 -13.5t-82.5 -4.5 q-120 0 -216.5 33t-165 102.5t-105 178t-36.5 259.5zM463 1241v27q21 29 45 67t47.5 78.5t44.5 81t37 74.5h342v-21q-11 -18 -32 -42.5t-48 -52.5t-58 -57.5t-62.5 -57.5t-60.5 -53t-52 -44h-203z" />
<glyph unicode="&#x108;" horiz-adv-x="1305" d="M119 729q0 166 45 304.5t132 238.5t215 155.5t294 55.5q109 0 218.5 -27.5t209.5 -75.5l-100 -252q-82 39 -165 68t-163 29q-89 0 -157.5 -34.5t-115 -99t-70.5 -157t-24 -207.5q0 -117 21.5 -208t66 -153.5t114 -95t165.5 -32.5q89 0 178.5 20t194.5 57v-260 q-48 -20 -95 -34t-96 -23t-100.5 -13.5t-110.5 -4.5q-169 0 -293 54t-205 152t-120 236t-39 307zM356 1579v27q26 29 57.5 67t64 78.5t62.5 81t52 74.5h356q21 -34 51 -74.5t62.5 -81t65 -78.5t57.5 -67v-27h-203q-51 34 -106 77t-107 99q-54 -56 -106 -99t-103 -77h-203z " />
<glyph unicode="&#x109;" horiz-adv-x="1022" d="M102 553q0 167 37.5 279.5t106 180.5t165 97t214.5 29q86 0 171 -21t160 -59l-88 -232q-66 29 -127 47.5t-116 18.5q-111 0 -161 -84.5t-50 -253.5q0 -168 50 -248t157 -80q87 0 158 22.5t145 57.5v-254q-37 -18 -72 -32t-70.5 -23t-74 -13.5t-82.5 -4.5 q-120 0 -216.5 33t-165 102.5t-105 178t-36.5 259.5zM169 1241v27q26 29 57.5 67t64 78.5t62.5 81t52 74.5h356q21 -34 51 -74.5t62.5 -81t65 -78.5t57.5 -67v-27h-203q-51 34 -106 77t-107 99q-54 -56 -106 -99t-103 -77h-203z" />
<glyph unicode="&#x10a;" horiz-adv-x="1305" d="M119 729q0 166 45 304.5t132 238.5t215 155.5t294 55.5q109 0 218.5 -27.5t209.5 -75.5l-100 -252q-82 39 -165 68t-163 29q-89 0 -157.5 -34.5t-115 -99t-70.5 -157t-24 -207.5q0 -117 21.5 -208t66 -153.5t114 -95t165.5 -32.5q89 0 178.5 20t194.5 57v-260 q-48 -20 -95 -34t-96 -23t-100.5 -13.5t-110.5 -4.5q-169 0 -293 54t-205 152t-120 236t-39 307zM624 1745q0 43 13 71.5t35.5 46t53 24.5t64.5 7t64 -7t52.5 -24.5t36 -46t13.5 -71.5q0 -42 -13.5 -71t-36 -46.5t-52.5 -25t-64 -7.5t-64.5 7.5t-53 25t-35.5 46.5t-13 71z " />
<glyph unicode="&#x10b;" horiz-adv-x="1022" d="M102 553q0 167 37.5 279.5t106 180.5t165 97t214.5 29q86 0 171 -21t160 -59l-88 -232q-66 29 -127 47.5t-116 18.5q-111 0 -161 -84.5t-50 -253.5q0 -168 50 -248t157 -80q87 0 158 22.5t145 57.5v-254q-37 -18 -72 -32t-70.5 -23t-74 -13.5t-82.5 -4.5 q-120 0 -216.5 33t-165 102.5t-105 178t-36.5 259.5zM444 1407q0 43 13 71.5t35.5 46t53 24.5t64.5 7t64 -7t52.5 -24.5t36 -46t13.5 -71.5q0 -42 -13.5 -71t-36 -46.5t-52.5 -25t-64 -7.5t-64.5 7.5t-53 25t-35.5 46.5t-13 71z" />
<glyph unicode="&#x10c;" horiz-adv-x="1305" d="M119 729q0 166 45 304.5t132 238.5t215 155.5t294 55.5q109 0 218.5 -27.5t209.5 -75.5l-100 -252q-82 39 -165 68t-163 29q-89 0 -157.5 -34.5t-115 -99t-70.5 -157t-24 -207.5q0 -117 21.5 -208t66 -153.5t114 -95t165.5 -32.5q89 0 178.5 20t194.5 57v-260 q-48 -20 -95 -34t-96 -23t-100.5 -13.5t-110.5 -4.5q-169 0 -293 54t-205 152t-120 236t-39 307zM362 1880v27h203q51 -34 103 -77.5t106 -98.5q52 55 107 98.5t106 77.5h203v-27q-25 -29 -57.5 -67t-65 -78.5t-62.5 -80.5t-51 -75h-356q-22 35 -52 75t-62.5 80.5t-64 78.5 t-57.5 67z" />
<glyph unicode="&#x10d;" horiz-adv-x="1022" d="M102 553q0 167 37.5 279.5t106 180.5t165 97t214.5 29q86 0 171 -21t160 -59l-88 -232q-66 29 -127 47.5t-116 18.5q-111 0 -161 -84.5t-50 -253.5q0 -168 50 -248t157 -80q87 0 158 22.5t145 57.5v-254q-37 -18 -72 -32t-70.5 -23t-74 -13.5t-82.5 -4.5 q-120 0 -216.5 33t-165 102.5t-105 178t-36.5 259.5zM184 1542v27h203q51 -34 103 -77.5t106 -98.5q52 55 107 98.5t106 77.5h203v-27q-25 -29 -57.5 -67t-65 -78.5t-62.5 -80.5t-51 -75h-356q-22 35 -52 75t-62.5 80.5t-64 78.5t-57.5 67z" />
<glyph unicode="&#x10e;" horiz-adv-x="1434" d="M184 0v1462h428q161 0 290.5 -46t221.5 -136.5t141.5 -224.5t49.5 -310q0 -185 -50.5 -324.5t-146 -233t-234 -140.5t-315.5 -47h-385zM494 256h114q196 0 294.5 120t98.5 361q0 122 -24.5 210.5t-71 146.5t-114 86t-154.5 28h-143v-952zM260 1880v27h203 q51 -34 103 -77.5t106 -98.5q52 55 107 98.5t106 77.5h203v-27q-25 -29 -57.5 -67t-65 -78.5t-62.5 -80.5t-51 -75h-356q-22 35 -52 75t-62.5 80.5t-64 78.5t-57.5 67z" />
<glyph unicode="&#x10f;" horiz-adv-x="1245" d="M102 557q0 144 28.5 252.5t81 182t125.5 110.5t161 37q54 0 99 -12.5t81 -35t64.5 -52t50.5 -64.5h10q-6 39 -11 79q-5 34 -8.5 72.5t-3.5 71.5v358h305v-1556h-233l-59 145h-13q-21 -34 -48 -64.5t-62.5 -52.5t-80 -35t-100.5 -13q-86 0 -157 37t-122 109.5t-79.5 180.5 t-28.5 250zM412 553q0 -165 45.5 -247.5t142.5 -82.5q54 0 92 18.5t61.5 56t35 93.5t12.5 131v33q0 81 -10 144t-33 105.5t-62 64.5t-98 22q-96 0 -141 -86.5t-45 -251.5zM1177 1229v26q9 30 18 68.5t17.5 79t15.5 80.5t11 73h282v-20q-31 -68 -72 -147t-94 -160h-178z" />
<glyph unicode="&#x110;" horiz-adv-x="1434" d="M47 596v254h137v612h428q161 0 290.5 -46t221.5 -136.5t141.5 -224.5t49.5 -310q0 -185 -50.5 -324.5t-146 -233t-234 -140.5t-315.5 -47h-385v596h-137zM494 256h114q196 0 294.5 120t98.5 361q0 122 -24.5 210.5t-71 146.5t-114 86t-154.5 28h-143v-358h237v-254h-237 v-340z" />
<glyph unicode="&#x111;" horiz-adv-x="1245" d="M102 526q0 136 28.5 239t81 172.5t125.5 104.5t161 35q54 0 99 -12.5t81 -34.5t64.5 -52t50.5 -65h10q-6 40 -11 80q-5 35 -8.5 75.5t-3.5 76.5v51h-315v199h315v161h305v-161h156v-199h-156v-1196h-233l-59 145h-13q-21 -34 -48 -64.5t-62.5 -52.5t-80 -35t-100.5 -13 q-86 0 -157 35t-122 104t-79.5 171t-28.5 236zM434 522q0 -149 42.5 -224t135.5 -75q52 0 87.5 17t57.5 51t32.5 85t11.5 120v28q0 74 -9.5 131t-31.5 95.5t-58.5 58.5t-91.5 20q-91 0 -133.5 -78.5t-42.5 -228.5z" />
<glyph unicode="&#x112;" horiz-adv-x="1147" d="M184 0v1462h842v-254h-532v-321h495v-254h-495v-377h532v-256h-842zM297 1579v211h617v-211h-617z" />
<glyph unicode="&#x113;" horiz-adv-x="1190" d="M102 551q0 147 37 257t103.5 183.5t160 110.5t207.5 37q111 0 200.5 -33.5t152 -98.5t96 -159.5t33.5 -216.5v-148h-682q2 -64 20.5 -115.5t52 -87t81 -54.5t108.5 -19q51 0 96.5 5.5t88.5 16.5t85 27.5t86 38.5v-236q-40 -21 -80.5 -35.5t-85.5 -24.5t-97 -14.5 t-114 -4.5q-120 0 -221 35t-174 105.5t-113.5 178t-40.5 252.5zM416 686h389q-1 51 -13 94t-36 74.5t-60 49.5t-84 18q-81 0 -134.5 -57t-61.5 -179zM301 1241v211h617v-211h-617z" />
<glyph unicode="&#x114;" horiz-adv-x="1147" d="M184 0v1462h842v-254h-532v-321h495v-254h-495v-377h532v-256h-842zM245 1917h170q4 -43 18 -68t38 -37.5t57.5 -16t77.5 -3.5q36 0 68.5 4.5t58 18t42.5 38t21 64.5h174q-5 -75 -31 -137t-72 -106.5t-112 -69.5t-151 -25q-88 0 -154 24t-110 68t-67.5 106.5t-27.5 139.5 z" />
<glyph unicode="&#x115;" horiz-adv-x="1190" d="M102 551q0 147 37 257t103.5 183.5t160 110.5t207.5 37q111 0 200.5 -33.5t152 -98.5t96 -159.5t33.5 -216.5v-148h-682q2 -64 20.5 -115.5t52 -87t81 -54.5t108.5 -19q51 0 96.5 5.5t88.5 16.5t85 27.5t86 38.5v-236q-40 -21 -80.5 -35.5t-85.5 -24.5t-97 -14.5 t-114 -4.5q-120 0 -221 35t-174 105.5t-113.5 178t-40.5 252.5zM416 686h389q-1 51 -13 94t-36 74.5t-60 49.5t-84 18q-81 0 -134.5 -57t-61.5 -179zM235 1579h170q4 -43 18 -68t38 -37.5t57.5 -16t77.5 -3.5q36 0 68.5 4.5t58 18t42.5 38t21 64.5h174q-5 -75 -31 -137 t-72 -106.5t-112 -69.5t-151 -25q-88 0 -154 24t-110 68t-67.5 106.5t-27.5 139.5z" />
<glyph unicode="&#x116;" horiz-adv-x="1147" d="M184 0v1462h842v-254h-532v-321h495v-254h-495v-377h532v-256h-842zM436 1716q0 43 13 71.5t35.5 46t53 24.5t64.5 7t64 -7t52.5 -24.5t36 -46t13.5 -71.5q0 -42 -13.5 -71t-36 -46.5t-52.5 -25t-64 -7.5t-64.5 7.5t-53 25t-35.5 46.5t-13 71z" />
<glyph unicode="&#x117;" horiz-adv-x="1190" d="M102 551q0 147 37 257t103.5 183.5t160 110.5t207.5 37q111 0 200.5 -33.5t152 -98.5t96 -159.5t33.5 -216.5v-148h-682q2 -64 20.5 -115.5t52 -87t81 -54.5t108.5 -19q51 0 96.5 5.5t88.5 16.5t85 27.5t86 38.5v-236q-40 -21 -80.5 -35.5t-85.5 -24.5t-97 -14.5 t-114 -4.5q-120 0 -221 35t-174 105.5t-113.5 178t-40.5 252.5zM416 686h389q-1 51 -13 94t-36 74.5t-60 49.5t-84 18q-81 0 -134.5 -57t-61.5 -179zM436 1407q0 43 13 71.5t35.5 46t53 24.5t64.5 7t64 -7t52.5 -24.5t36 -46t13.5 -71.5q0 -42 -13.5 -71t-36 -46.5 t-52.5 -25t-64 -7.5t-64.5 7.5t-53 25t-35.5 46.5t-13 71z" />
<glyph unicode="&#x118;" horiz-adv-x="1147" d="M184 0v1462h842v-254h-532v-321h495v-254h-495v-377h532v-256h-842zM555 -262q0 43 14 79t38.5 67.5t57.5 59.5t70 56h179q-70 -66 -109 -120.5t-39 -106.5q0 -42 22.5 -62t57.5 -20q32 0 63.5 6t51.5 12v-178q-32 -9 -69 -16t-87 -7q-58 0 -104 17t-78.5 47.5t-50 72.5 t-17.5 93z" />
<glyph unicode="&#x119;" horiz-adv-x="1190" d="M102 551q0 147 37 257t103.5 183.5t160 110.5t207.5 37q111 0 200.5 -33.5t152 -98.5t96 -159.5t33.5 -216.5v-148h-682q2 -64 20.5 -115.5t52 -87t81 -54.5t108.5 -19q51 0 96.5 5.5t88.5 16.5t85 27.5t86 38.5v-236q-40 -21 -80.5 -35.5t-85.5 -24.5t-97 -14.5 t-114 -4.5q-120 0 -221 35t-174 105.5t-113.5 178t-40.5 252.5zM416 686h389q-1 51 -13 94t-36 74.5t-60 49.5t-84 18q-81 0 -134.5 -57t-61.5 -179zM579 -242q0 43 14 79t38.5 67.5t57.5 59.5t70 56h179q-70 -66 -109 -120.5t-39 -106.5q0 -42 22.5 -62t57.5 -20 q32 0 63.5 6t51.5 12v-178q-32 -9 -69 -16t-87 -7q-58 0 -104 17t-78.5 47.5t-50 72.5t-17.5 93z" />
<glyph unicode="&#x11a;" horiz-adv-x="1147" d="M184 0v1462h842v-254h-532v-321h495v-254h-495v-377h532v-256h-842zM182 1880v27h203q51 -34 103 -77.5t106 -98.5q52 55 107 98.5t106 77.5h203v-27q-25 -29 -57.5 -67t-65 -78.5t-62.5 -80.5t-51 -75h-356q-22 35 -52 75t-62.5 80.5t-64 78.5t-57.5 67z" />
<glyph unicode="&#x11b;" horiz-adv-x="1190" d="M102 551q0 147 37 257t103.5 183.5t160 110.5t207.5 37q111 0 200.5 -33.5t152 -98.5t96 -159.5t33.5 -216.5v-148h-682q2 -64 20.5 -115.5t52 -87t81 -54.5t108.5 -19q51 0 96.5 5.5t88.5 16.5t85 27.5t86 38.5v-236q-40 -21 -80.5 -35.5t-85.5 -24.5t-97 -14.5 t-114 -4.5q-120 0 -221 35t-174 105.5t-113.5 178t-40.5 252.5zM416 686h389q-1 51 -13 94t-36 74.5t-60 49.5t-84 18q-81 0 -134.5 -57t-61.5 -179zM201 1542v27h203q51 -34 103 -77.5t106 -98.5q52 55 107 98.5t106 77.5h203v-27q-25 -29 -57.5 -67t-65 -78.5t-62.5 -80.5 t-51 -75h-356q-22 35 -52 75t-62.5 80.5t-64 78.5t-57.5 67z" />
<glyph unicode="&#x11c;" horiz-adv-x="1483" d="M119 733q0 172 50 311t147.5 236.5t240 150t326.5 52.5q117 0 229 -25t205 -65l-103 -248q-68 34 -153.5 57t-179.5 23q-102 0 -183.5 -35.5t-139.5 -100.5t-89 -157t-31 -205q0 -108 21.5 -197.5t67.5 -154.5t118.5 -101t173.5 -36q66 0 111.5 6t85.5 14v305h-277v258 h580v-758q-58 -19 -117 -34.5t-122.5 -26t-133 -16.5t-147.5 -6q-164 0 -290.5 48.5t-213 144t-131.5 236t-45 324.5zM391 1579v27q26 29 57.5 67t64 78.5t62.5 81t52 74.5h356q21 -34 51 -74.5t62.5 -81t65 -78.5t57.5 -67v-27h-203q-51 34 -106 77t-107 99 q-54 -56 -106 -99t-103 -77h-203z" />
<glyph unicode="&#x11d;" horiz-adv-x="1130" d="M20 -182q0 61 21 106t56 77t79.5 52t91.5 31q-21 9 -41.5 25t-37 37t-27 46.5t-10.5 53.5q0 32 9.5 58t27.5 48.5t45 42.5t61 41q-88 38 -139.5 122t-51.5 198q0 90 28 161t82 120.5t134 75.5t184 26q20 0 45 -2.5t49.5 -6t45.5 -7.5t33 -7h380v-166l-163 -51 q20 -34 28 -70.5t8 -78.5q0 -85 -27 -155.5t-80 -120.5t-133 -77.5t-186 -27.5q-23 0 -50 2.5t-40 5.5q-20 -17 -31.5 -35.5t-11.5 -44.5q0 -21 13 -33.5t34 -20t49 -10t58 -2.5h174q81 0 145 -18.5t108.5 -56.5t68.5 -96.5t24 -139.5q0 -95 -38 -171.5t-113.5 -130 t-187.5 -82t-259 -28.5q-114 0 -199 21.5t-142 62t-85.5 97.5t-28.5 129zM285 -158q0 -25 10.5 -48.5t34.5 -41.5t63 -28.5t96 -10.5q156 0 235 44t79 118q0 63 -49 84t-152 21h-141q-27 0 -58 -6.5t-57 -22.5t-43.5 -42.5t-17.5 -66.5zM395 752q0 -91 34 -141t103 -50 q72 0 104 50t32 141q0 90 -31.5 143t-104.5 53q-137 0 -137 -196zM118 1241v27q26 29 57.5 67t64 78.5t62.5 81t52 74.5h356q21 -34 51 -74.5t62.5 -81t65 -78.5t57.5 -67v-27h-203q-51 34 -106 77t-107 99q-54 -56 -106 -99t-103 -77h-203z" />
<glyph unicode="&#x11e;" horiz-adv-x="1483" d="M119 733q0 172 50 311t147.5 236.5t240 150t326.5 52.5q117 0 229 -25t205 -65l-103 -248q-68 34 -153.5 57t-179.5 23q-102 0 -183.5 -35.5t-139.5 -100.5t-89 -157t-31 -205q0 -108 21.5 -197.5t67.5 -154.5t118.5 -101t173.5 -36q66 0 111.5 6t85.5 14v305h-277v258 h580v-758q-58 -19 -117 -34.5t-122.5 -26t-133 -16.5t-147.5 -6q-164 0 -290.5 48.5t-213 144t-131.5 236t-45 324.5zM428 1917h170q4 -43 18 -68t38 -37.5t57.5 -16t77.5 -3.5q36 0 68.5 4.5t58 18t42.5 38t21 64.5h174q-5 -75 -31 -137t-72 -106.5t-112 -69.5t-151 -25 q-88 0 -154 24t-110 68t-67.5 106.5t-27.5 139.5z" />
<glyph unicode="&#x11f;" horiz-adv-x="1130" d="M20 -182q0 61 21 106t56 77t79.5 52t91.5 31q-21 9 -41.5 25t-37 37t-27 46.5t-10.5 53.5q0 32 9.5 58t27.5 48.5t45 42.5t61 41q-88 38 -139.5 122t-51.5 198q0 90 28 161t82 120.5t134 75.5t184 26q20 0 45 -2.5t49.5 -6t45.5 -7.5t33 -7h380v-166l-163 -51 q20 -34 28 -70.5t8 -78.5q0 -85 -27 -155.5t-80 -120.5t-133 -77.5t-186 -27.5q-23 0 -50 2.5t-40 5.5q-20 -17 -31.5 -35.5t-11.5 -44.5q0 -21 13 -33.5t34 -20t49 -10t58 -2.5h174q81 0 145 -18.5t108.5 -56.5t68.5 -96.5t24 -139.5q0 -95 -38 -171.5t-113.5 -130 t-187.5 -82t-259 -28.5q-114 0 -199 21.5t-142 62t-85.5 97.5t-28.5 129zM285 -158q0 -25 10.5 -48.5t34.5 -41.5t63 -28.5t96 -10.5q156 0 235 44t79 118q0 63 -49 84t-152 21h-141q-27 0 -58 -6.5t-57 -22.5t-43.5 -42.5t-17.5 -66.5zM395 752q0 -91 34 -141t103 -50 q72 0 104 50t32 141q0 90 -31.5 143t-104.5 53q-137 0 -137 -196zM148 1579h170q4 -43 18 -68t38 -37.5t57.5 -16t77.5 -3.5q36 0 68.5 4.5t58 18t42.5 38t21 64.5h174q-5 -75 -31 -137t-72 -106.5t-112 -69.5t-151 -25q-88 0 -154 24t-110 68t-67.5 106.5t-27.5 139.5z" />
<glyph unicode="&#x120;" horiz-adv-x="1483" d="M119 733q0 172 50 311t147.5 236.5t240 150t326.5 52.5q117 0 229 -25t205 -65l-103 -248q-68 34 -153.5 57t-179.5 23q-102 0 -183.5 -35.5t-139.5 -100.5t-89 -157t-31 -205q0 -108 21.5 -197.5t67.5 -154.5t118.5 -101t173.5 -36q66 0 111.5 6t85.5 14v305h-277v258 h580v-758q-58 -19 -117 -34.5t-122.5 -26t-133 -16.5t-147.5 -6q-164 0 -290.5 48.5t-213 144t-131.5 236t-45 324.5zM643 1745q0 43 13 71.5t35.5 46t53 24.5t64.5 7t64 -7t52.5 -24.5t36 -46t13.5 -71.5q0 -42 -13.5 -71t-36 -46.5t-52.5 -25t-64 -7.5t-64.5 7.5t-53 25 t-35.5 46.5t-13 71z" />
<glyph unicode="&#x121;" horiz-adv-x="1130" d="M20 -182q0 61 21 106t56 77t79.5 52t91.5 31q-21 9 -41.5 25t-37 37t-27 46.5t-10.5 53.5q0 32 9.5 58t27.5 48.5t45 42.5t61 41q-88 38 -139.5 122t-51.5 198q0 90 28 161t82 120.5t134 75.5t184 26q20 0 45 -2.5t49.5 -6t45.5 -7.5t33 -7h380v-166l-163 -51 q20 -34 28 -70.5t8 -78.5q0 -85 -27 -155.5t-80 -120.5t-133 -77.5t-186 -27.5q-23 0 -50 2.5t-40 5.5q-20 -17 -31.5 -35.5t-11.5 -44.5q0 -21 13 -33.5t34 -20t49 -10t58 -2.5h174q81 0 145 -18.5t108.5 -56.5t68.5 -96.5t24 -139.5q0 -95 -38 -171.5t-113.5 -130 t-187.5 -82t-259 -28.5q-114 0 -199 21.5t-142 62t-85.5 97.5t-28.5 129zM285 -158q0 -25 10.5 -48.5t34.5 -41.5t63 -28.5t96 -10.5q156 0 235 44t79 118q0 63 -49 84t-152 21h-141q-27 0 -58 -6.5t-57 -22.5t-43.5 -42.5t-17.5 -66.5zM395 752q0 -91 34 -141t103 -50 q72 0 104 50t32 141q0 90 -31.5 143t-104.5 53q-137 0 -137 -196zM370 1407q0 43 13 71.5t35.5 46t53 24.5t64.5 7t64 -7t52.5 -24.5t36 -46t13.5 -71.5q0 -42 -13.5 -71t-36 -46.5t-52.5 -25t-64 -7.5t-64.5 7.5t-53 25t-35.5 46.5t-13 71z" />
<glyph unicode="&#x122;" horiz-adv-x="1483" d="M119 733q0 172 50 311t147.5 236.5t240 150t326.5 52.5q117 0 229 -25t205 -65l-103 -248q-68 34 -153.5 57t-179.5 23q-102 0 -183.5 -35.5t-139.5 -100.5t-89 -157t-31 -205q0 -108 21.5 -197.5t67.5 -154.5t118.5 -101t173.5 -36q66 0 111.5 6t85.5 14v305h-277v258 h580v-758q-58 -19 -117 -34.5t-122.5 -26t-133 -16.5t-147.5 -6q-164 0 -290.5 48.5t-213 144t-131.5 236t-45 324.5zM629 -426q9 30 18 68.5t17.5 79t15.5 80.5t11 73h282v-20q-31 -69 -72 -147.5t-94 -160.5h-178v27z" />
<glyph unicode="&#x123;" horiz-adv-x="1130" d="M20 -182q0 61 21 106t56 77t79.5 52t91.5 31q-21 9 -41.5 25t-37 37t-27 46.5t-10.5 53.5q0 32 9.5 58t27.5 48.5t45 42.5t61 41q-88 38 -139.5 122t-51.5 198q0 90 28 161t82 120.5t134 75.5t184 26q20 0 45 -2.5t49.5 -6t45.5 -7.5t33 -7h380v-166l-163 -51 q20 -34 28 -70.5t8 -78.5q0 -85 -27 -155.5t-80 -120.5t-133 -77.5t-186 -27.5q-23 0 -50 2.5t-40 5.5q-20 -17 -31.5 -35.5t-11.5 -44.5q0 -21 13 -33.5t34 -20t49 -10t58 -2.5h174q81 0 145 -18.5t108.5 -56.5t68.5 -96.5t24 -139.5q0 -95 -38 -171.5t-113.5 -130 t-187.5 -82t-259 -28.5q-114 0 -199 21.5t-142 62t-85.5 97.5t-28.5 129zM285 -158q0 -25 10.5 -48.5t34.5 -41.5t63 -28.5t96 -10.5q156 0 235 44t79 118q0 63 -49 84t-152 21h-141q-27 0 -58 -6.5t-57 -22.5t-43.5 -42.5t-17.5 -66.5zM395 752q0 -91 34 -141t103 -50 q72 0 104 50t32 141q0 90 -31.5 143t-104.5 53q-137 0 -137 -196zM389 1241v21q31 68 72 146.5t94 160.5h178v-27q-9 -30 -18 -68.5t-17.5 -79t-15.5 -80.5t-11 -73h-282z" />
<glyph unicode="&#x124;" horiz-adv-x="1485" d="M184 0v1462h310v-573h497v573h309v-1462h-309v631h-497v-631h-310zM321 1579v27q26 29 57.5 67t64 78.5t62.5 81t52 74.5h356q21 -34 51 -74.5t62.5 -81t65 -78.5t57.5 -67v-27h-203q-51 34 -106 77t-107 99q-54 -56 -106 -99t-103 -77h-203z" />
<glyph unicode="&#x125;" horiz-adv-x="1284" d="M160 0v1556h305v-317q0 -42 -2 -88.5t-5 -85.5q-4 -46 -7 -90h16q49 87 125 125.5t172 38.5q83 0 150.5 -23.5t115.5 -73.5t74 -127.5t26 -185.5v-729h-305v653q0 121 -37.5 181.5t-115.5 60.5q-59 0 -99 -24t-64 -71t-34 -116t-10 -158v-526h-305zM250 1634v27 q26 29 57.5 67t64 78.5t62.5 81t52 74.5h356q21 -34 51 -74.5t62.5 -81t65 -78.5t57.5 -67v-27h-203q-51 34 -106 77t-107 99q-54 -56 -106 -99t-103 -77h-203z" />
<glyph unicode="&#x126;" horiz-adv-x="1485" d="M0 1069v199h184v194h310v-194h497v194h309v-194h185v-199h-185v-1069h-309v631h-497v-631h-310v1069h-184zM494 889h497v180h-497v-180z" />
<glyph unicode="&#x127;" horiz-adv-x="1284" d="M4 1196v199h156v161h305v-161h315v-199h-315v-18q0 -42 -2 -88.5t-5 -85.5l-7 -91h16q49 87 125 125.5t172 38.5q83 0 150.5 -23.5t115.5 -73.5t74 -127.5t26 -184.5v-668h-305v592q0 121 -37.5 181.5t-115.5 60.5q-59 0 -99 -24.5t-64 -71.5t-34 -115.5t-10 -157.5v-465 h-305v1196h-156z" />
<glyph unicode="&#x128;" horiz-adv-x="797" d="M66 0v176l178 82v946l-178 82v176h665v-176l-178 -82v-946l178 -82v-176h-665zM5 1577q6 80 26 138t52.5 96t76.5 56.5t97 18.5q41 0 80 -16t77.5 -35.5t76 -36t73.5 -16.5q31 0 49 26t31 80h149q-6 -79 -26.5 -137t-53.5 -96.5t-76.5 -57t-95.5 -18.5q-40 0 -80 16.5 t-78 36t-75.5 36t-73.5 16.5q-31 0 -49.5 -26.5t-30.5 -80.5h-149z" />
<glyph unicode="&#x129;" horiz-adv-x="625" d="M160 0v1118h305v-1118h-305zM-83 1239q6 80 26 138t52.5 96t76.5 56.5t97 18.5q41 0 80 -16t77.5 -35.5t76 -36t73.5 -16.5q31 0 49 26t31 80h149q-6 -79 -26.5 -137t-53.5 -96.5t-76.5 -57t-95.5 -18.5q-40 0 -80 16.5t-78 36t-75.5 36t-73.5 16.5q-31 0 -49.5 -26.5 t-30.5 -80.5h-149z" />
<glyph unicode="&#x12a;" horiz-adv-x="797" d="M66 0v176l178 82v946l-178 82v176h665v-176l-178 -82v-946l178 -82v-176h-665zM91 1579v211h617v-211h-617z" />
<glyph unicode="&#x12b;" horiz-adv-x="625" d="M160 0v1118h305v-1118h-305zM5 1241v211h617v-211h-617z" />
<glyph unicode="&#x12c;" horiz-adv-x="797" d="M66 0v176l178 82v946l-178 82v176h665v-176l-178 -82v-946l178 -82v-176h-665zM33 1917h170q4 -43 18 -68t38 -37.5t57.5 -16t77.5 -3.5q36 0 68.5 4.5t58 18t42.5 38t21 64.5h174q-5 -75 -31 -137t-72 -106.5t-112 -69.5t-151 -25q-88 0 -154 24t-110 68t-67.5 106.5 t-27.5 139.5z" />
<glyph unicode="&#x12d;" horiz-adv-x="625" d="M160 0v1118h305v-1118h-305zM-51 1579h170q4 -43 18 -68t38 -37.5t57.5 -16t77.5 -3.5q36 0 68.5 4.5t58 18t42.5 38t21 64.5h174q-5 -75 -31 -137t-72 -106.5t-112 -69.5t-151 -25q-88 0 -154 24t-110 68t-67.5 106.5t-27.5 139.5z" />
<glyph unicode="&#x12e;" horiz-adv-x="797" d="M66 0v176l178 82v946l-178 82v176h665v-176l-178 -82v-946l178 -82v-176h-665zM190 -262q0 43 14 79t38.5 67.5t57.5 59.5t70 56h179q-70 -66 -109 -120.5t-39 -106.5q0 -42 22.5 -62t57.5 -20q32 0 63.5 6t51.5 12v-178q-32 -9 -69 -16t-87 -7q-58 0 -104 17t-78.5 47.5 t-50 72.5t-17.5 93z" />
<glyph unicode="&#x12f;" horiz-adv-x="625" d="M147 1407q0 43 13 71.5t35.5 46t53 24.5t64.5 7t64 -7t52.5 -24.5t36 -46t13.5 -71.5q0 -42 -13.5 -71t-36 -46.5t-52.5 -25t-64 -7.5t-64.5 7.5t-53 25t-35.5 46.5t-13 71zM160 0v1118h305v-1118h-305zM106 -262q0 43 14 79t38.5 67.5t57.5 59.5t70 56h179 q-70 -66 -109 -120.5t-39 -106.5q0 -42 22.5 -62t57.5 -20q32 0 63.5 6t51.5 12v-178q-32 -9 -69 -16t-87 -7q-58 0 -104 17t-78.5 47.5t-50 72.5t-17.5 93z" />
<glyph unicode="&#x130;" horiz-adv-x="797" d="M66 0v176l178 82v946l-178 82v176h665v-176l-178 -82v-946l178 -82v-176h-665zM227 1745q0 43 13 71.5t35.5 46t53 24.5t64.5 7t64 -7t52.5 -24.5t36 -46t13.5 -71.5q0 -42 -13.5 -71t-36 -46.5t-52.5 -25t-64 -7.5t-64.5 7.5t-53 25t-35.5 46.5t-13 71z" />
<glyph unicode="&#x131;" horiz-adv-x="625" d="M160 0v1118h305v-1118h-305z" />
<glyph unicode="&#x132;" horiz-adv-x="1475" d="M66 0v176l178 82v946l-178 82v176h665v-176l-178 -82v-946l178 -82v-176h-665zM598 -150q37 -8 77.5 -14t88.5 -6q46 0 85.5 10t69 34.5t46 65.5t16.5 103v1419h310v-1409q0 -126 -36.5 -217t-102 -150.5t-156.5 -87.5t-201 -28q-65 0 -114 6.5t-83 15.5v258z" />
<glyph unicode="&#x133;" horiz-adv-x="1210" d="M147 1407q0 43 13 71.5t35.5 46t53 24.5t64.5 7t64 -7t52.5 -24.5t36 -46t13.5 -71.5q0 -42 -13.5 -71t-36 -46.5t-52.5 -25t-64 -7.5t-64.5 7.5t-53 25t-35.5 46.5t-13 71zM160 0v1118h305v-1118h-305zM504 -227q31 -10 58 -14.5t61 -4.5q25 0 47.5 7.5t39 27t26.5 52 t10 83.5v1194h305v-1239q0 -77 -19.5 -144.5t-63 -118t-112.5 -79.5t-168 -29q-48 0 -99 7t-85 18v240zM733 1407q0 43 13 71.5t35.5 46t53 24.5t64.5 7t64 -7t52.5 -24.5t36 -46t13.5 -71.5q0 -42 -13.5 -71t-36 -46.5t-52.5 -25t-64 -7.5t-64.5 7.5t-53 25t-35.5 46.5 t-13 71z" />
<glyph unicode="&#x134;" horiz-adv-x="678" d="M-199 -150q37 -8 77.5 -14t88.5 -6q46 0 85.5 10t69 34.5t46 65.5t16.5 103v1419h310v-1409q0 -126 -36.5 -217t-102 -150.5t-156.5 -87.5t-201 -28q-65 0 -114 6.5t-83 15.5v258zM-81 1579v27q26 29 57.5 67t64 78.5t62.5 81t52 74.5h356q21 -34 51 -74.5t62.5 -81 t65 -78.5t57.5 -67v-27h-203q-51 34 -106 77t-107 99q-54 -56 -106 -99t-103 -77h-203z" />
<glyph unicode="&#x135;" horiz-adv-x="625" d="M-82 -227q31 -10 58 -14.5t61 -4.5q25 0 47.5 7.5t39 27t26.5 52t10 83.5v1194h305v-1239q0 -77 -19.5 -144.5t-63 -118t-112.5 -79.5t-168 -29q-48 0 -99 7t-85 18v240zM-104 1241v27q26 29 57.5 67t64 78.5t62.5 81t52 74.5h356q21 -34 51 -74.5t62.5 -81t65 -78.5 t57.5 -67v-27h-203q-51 34 -106 77t-107 99q-54 -56 -106 -99t-103 -77h-203z" />
<glyph unicode="&#x136;" horiz-adv-x="1298" d="M184 0v1462h310v-704l122 207l334 497h344l-467 -659l471 -803h-352l-336 608l-116 -86v-522h-310zM442 -426q9 30 18 68.5t17.5 79t15.5 80.5t11 73h282v-20q-31 -69 -72 -147.5t-94 -160.5h-178v27z" />
<glyph unicode="&#x137;" horiz-adv-x="1208" d="M160 0v1556h305v-694l-16 -254h4l112 170l273 340h344l-404 -485l430 -633h-352l-272 430l-119 -82v-348h-305zM446 -426q9 30 18 68.5t17.5 79t15.5 80.5t11 73h282v-20q-31 -69 -72 -147.5t-94 -160.5h-178v27z" />
<glyph unicode="&#x138;" horiz-adv-x="1208" d="M160 0v1118h305v-293q0 -40 -2.5 -85.5t-5.5 -84.5q-4 -46 -8 -90h4l127 195l276 358h326l-404 -497l430 -621h-344l-280 418l-119 -82v-336h-305z" />
<glyph unicode="&#x139;" horiz-adv-x="1096" d="M184 0v1462h310v-1206h532v-256h-842zM267 1579v27q21 29 45 67t47.5 78.5t44.5 81t37 74.5h342v-21q-11 -18 -32 -42.5t-48 -52.5t-58 -57.5t-62.5 -57.5t-60.5 -53t-52 -44h-203z" />
<glyph unicode="&#x13a;" horiz-adv-x="625" d="M160 0v1556h305v-1556h-305zM179 1636v27q21 29 45 67t47.5 78.5t44.5 81t37 74.5h342v-21q-11 -18 -32 -42.5t-48 -52.5t-58 -57.5t-62.5 -57.5t-60.5 -53t-52 -44h-203z" />
<glyph unicode="&#x13b;" horiz-adv-x="1096" d="M184 0v1462h310v-1206h532v-256h-842zM395 -426q9 30 18 68.5t17.5 79t15.5 80.5t11 73h282v-20q-31 -69 -72 -147.5t-94 -160.5h-178v27z" />
<glyph unicode="&#x13c;" horiz-adv-x="625" d="M160 0v1556h305v-1556h-305zM120 -426q9 30 18 68.5t17.5 79t15.5 80.5t11 73h282v-20q-31 -69 -72 -147.5t-94 -160.5h-178v27z" />
<glyph unicode="&#x13d;" horiz-adv-x="1096" d="M184 0v1462h310v-1206h532v-256h-842zM653 1136v26q9 30 18 68.5t17.5 79t15.5 80.5t11 73h282v-20q-31 -68 -72 -147t-94 -160h-178z" />
<glyph unicode="&#x13e;" horiz-adv-x="625" d="M160 0v1556h305v-1556h-305zM557 1229v26q9 30 18 68.5t17.5 79t15.5 80.5t11 73h282v-20q-31 -68 -72 -147t-94 -160h-178z" />
<glyph unicode="&#x13f;" horiz-adv-x="1096" d="M184 0v1462h310v-1206h532v-256h-842zM665 751q0 43 13 71.5t35.5 46t53 24.5t64.5 7t64 -7t52.5 -24.5t36 -46t13.5 -71.5q0 -42 -13.5 -71t-36 -46.5t-52.5 -25t-64 -7.5t-64.5 7.5t-53 25t-35.5 46.5t-13 71z" />
<glyph unicode="&#x140;" horiz-adv-x="889" d="M160 0v1556h305v-1556h-305zM581 695q0 43 13 71.5t35.5 46t53 24.5t64.5 7t64 -7t52.5 -24.5t36 -46t13.5 -71.5q0 -42 -13.5 -71t-36 -46.5t-52.5 -25t-64 -7.5t-64.5 7.5t-53 25t-35.5 46.5t-13 71z" />
<glyph unicode="&#x141;" horiz-adv-x="1096" d="M2 647l182 111v704h310v-516l143 88l117 -196l-260 -158v-424h532v-256h-842v492l-69 -41z" />
<glyph unicode="&#x142;" horiz-adv-x="676" d="M0 631l184 112v813h305v-626l70 43l117 -197l-187 -112v-664h-305v477l-71 -43z" />
<glyph unicode="&#x143;" horiz-adv-x="1604" d="M184 0v1462h391l574 -1095h6q-3 76 -7 150q-1 32 -2.5 65.5t-2.5 67t-1.5 64.5t-0.5 56v692h278v-1462h-393l-575 1106h-9q6 -77 10 -153q4 -65 6.5 -136.5t2.5 -128.5v-688h-277zM615 1579v27q21 29 45 67t47.5 78.5t44.5 81t37 74.5h342v-21q-11 -18 -32 -42.5 t-48 -52.5t-58 -57.5t-62.5 -57.5t-60.5 -53t-52 -44h-203z" />
<glyph unicode="&#x144;" horiz-adv-x="1284" d="M160 0v1118h233l41 -143h17q24 43 58.5 74t75.5 51t87 29.5t94 9.5q82 0 149 -23.5t115 -73.5t74 -127.5t26 -185.5v-729h-305v653q0 121 -36.5 181.5t-116.5 60.5q-60 0 -100 -24t-63.5 -71t-33.5 -116t-10 -158v-526h-305zM471 1241v27q21 29 45 67t47.5 78.5t44.5 81 t37 74.5h342v-21q-11 -18 -32 -42.5t-48 -52.5t-58 -57.5t-62.5 -57.5t-60.5 -53t-52 -44h-203z" />
<glyph unicode="&#x145;" horiz-adv-x="1604" d="M184 0v1462h391l574 -1095h6q-3 76 -7 150q-1 32 -2.5 65.5t-2.5 67t-1.5 64.5t-0.5 56v692h278v-1462h-393l-575 1106h-9q6 -77 10 -153q4 -65 6.5 -136.5t2.5 -128.5v-688h-277zM567 -426q9 30 18 68.5t17.5 79t15.5 80.5t11 73h282v-20q-31 -69 -72 -147.5t-94 -160.5 h-178v27z" />
<glyph unicode="&#x146;" horiz-adv-x="1284" d="M160 0v1118h233l41 -143h17q24 43 58.5 74t75.5 51t87 29.5t94 9.5q82 0 149 -23.5t115 -73.5t74 -127.5t26 -185.5v-729h-305v653q0 121 -36.5 181.5t-116.5 60.5q-60 0 -100 -24t-63.5 -71t-33.5 -116t-10 -158v-526h-305zM467 -426q9 30 18 68.5t17.5 79t15.5 80.5 t11 73h282v-20q-31 -69 -72 -147.5t-94 -160.5h-178v27z" />
<glyph unicode="&#x147;" horiz-adv-x="1604" d="M184 0v1462h391l574 -1095h6q-3 76 -7 150q-1 32 -2.5 65.5t-2.5 67t-1.5 64.5t-0.5 56v692h278v-1462h-393l-575 1106h-9q6 -77 10 -153q4 -65 6.5 -136.5t2.5 -128.5v-688h-277zM373 1880v27h203q51 -34 103 -77.5t106 -98.5q52 55 107 98.5t106 77.5h203v-27 q-25 -29 -57.5 -67t-65 -78.5t-62.5 -80.5t-51 -75h-356q-22 35 -52 75t-62.5 80.5t-64 78.5t-57.5 67z" />
<glyph unicode="&#x148;" horiz-adv-x="1284" d="M160 0v1118h233l41 -143h17q24 43 58.5 74t75.5 51t87 29.5t94 9.5q82 0 149 -23.5t115 -73.5t74 -127.5t26 -185.5v-729h-305v653q0 121 -36.5 181.5t-116.5 60.5q-60 0 -100 -24t-63.5 -71t-33.5 -116t-10 -158v-526h-305zM227 1542v27h203q51 -34 103 -77.5t106 -98.5 q52 55 107 98.5t106 77.5h203v-27q-25 -29 -57.5 -67t-65 -78.5t-62.5 -80.5t-51 -75h-356q-22 35 -52 75t-62.5 80.5t-64 78.5t-57.5 67z" />
<glyph unicode="&#x149;" horiz-adv-x="1534" d="M410 0v1118h233l41 -143h17q24 43 58.5 74t75.5 51t87 29.5t94 9.5q82 0 149 -23.5t115 -73.5t74 -127.5t26 -185.5v-729h-305v653q0 121 -36.5 181.5t-116.5 60.5q-60 0 -100 -24t-63.5 -71t-33.5 -116t-10 -158v-526h-305zM23 961q14 60 28.5 126t28 132t24.5 128 t19 115h280l15 -22q-14 -55 -33.5 -115.5t-43 -123t-49 -123.5t-50.5 -117h-219z" />
<glyph unicode="&#x14a;" horiz-adv-x="1567" d="M166 0v1462h391l573 -891h7q-3 77 -7 151q-1 32 -2 66l-4 66q-1 34 -1.5 65t-0.5 56v487h279v-1462q0 -111 -34 -192.5t-95 -134t-146.5 -78t-189.5 -25.5q-65 0 -114 6.5t-83 15.5v258q37 -8 77.5 -14t88.5 -6q42 0 82 8t72 28t54 53.5t28 84.5l-709 1102h-8 q5 -77 9 -153q4 -65 6.5 -136.5t2.5 -128.5v-688h-276z" />
<glyph unicode="&#x14b;" horiz-adv-x="1284" d="M160 0v1118h233l41 -143h17q24 43 58.5 74t75.5 51t87 29.5t94 9.5q82 0 149 -23.5t115 -73.5t74 -127.5t26 -185.5v-850q0 -77 -19.5 -144.5t-63 -118t-112.5 -79.5t-167 -29q-48 0 -99 7t-85 18v240q31 -10 57.5 -14.5t60.5 -4.5q26 0 48 7.5t39 27t26.5 52t9.5 83.5 v752q0 109 -39 164t-114 55q-60 0 -100 -24t-63.5 -71t-33.5 -116t-10 -158v-526h-305z" />
<glyph unicode="&#x14c;" horiz-adv-x="1548" d="M119 735q0 170 39.5 308.5t120.5 236.5t204.5 151.5t292.5 53.5q168 0 291 -53.5t203.5 -152t120 -237t39.5 -309.5q0 -169 -39.5 -308t-120.5 -238t-204.5 -153t-291.5 -54t-291.5 54t-204 153t-120 238.5t-39.5 309.5zM438 733q0 -115 20 -206.5t61.5 -155t104.5 -97.5 t150 -34q89 0 152.5 34t104 97.5t60 155t19.5 206.5t-19.5 206.5t-60 155.5t-103.5 98t-151 34q-87 0 -151 -34t-105.5 -98t-61.5 -155.5t-20 -206.5zM465 1579v211h617v-211h-617z" />
<glyph unicode="&#x14d;" horiz-adv-x="1227" d="M102 561q0 139 35.5 247t102 181.5t161.5 111.5t215 38q111 0 204 -38t160.5 -111.5t105.5 -181.5t38 -247q0 -140 -35.5 -248t-102 -182t-162 -112.5t-214.5 -38.5q-111 0 -204 38.5t-160.5 112.5t-105.5 182t-38 248zM414 561q0 -167 47 -251.5t153 -84.5q105 0 152 85 t47 251q0 167 -47 249.5t-154 82.5q-105 0 -151.5 -82.5t-46.5 -249.5zM303 1241v211h617v-211h-617z" />
<glyph unicode="&#x14e;" horiz-adv-x="1548" d="M119 735q0 170 39.5 308.5t120.5 236.5t204.5 151.5t292.5 53.5q168 0 291 -53.5t203.5 -152t120 -237t39.5 -309.5q0 -169 -39.5 -308t-120.5 -238t-204.5 -153t-291.5 -54t-291.5 54t-204 153t-120 238.5t-39.5 309.5zM438 733q0 -115 20 -206.5t61.5 -155t104.5 -97.5 t150 -34q89 0 152.5 34t104 97.5t60 155t19.5 206.5t-19.5 206.5t-60 155.5t-103.5 98t-151 34q-87 0 -151 -34t-105.5 -98t-61.5 -155.5t-20 -206.5zM409 1917h170q4 -43 18 -68t38 -37.5t57.5 -16t77.5 -3.5q36 0 68.5 4.5t58 18t42.5 38t21 64.5h174q-5 -75 -31 -137 t-72 -106.5t-112 -69.5t-151 -25q-88 0 -154 24t-110 68t-67.5 106.5t-27.5 139.5z" />
<glyph unicode="&#x14f;" horiz-adv-x="1227" d="M102 561q0 139 35.5 247t102 181.5t161.5 111.5t215 38q111 0 204 -38t160.5 -111.5t105.5 -181.5t38 -247q0 -140 -35.5 -248t-102 -182t-162 -112.5t-214.5 -38.5q-111 0 -204 38.5t-160.5 112.5t-105.5 182t-38 248zM414 561q0 -167 47 -251.5t153 -84.5q105 0 152 85 t47 251q0 167 -47 249.5t-154 82.5q-105 0 -151.5 -82.5t-46.5 -249.5zM247 1579h170q4 -43 18 -68t38 -37.5t57.5 -16t77.5 -3.5q36 0 68.5 4.5t58 18t42.5 38t21 64.5h174q-5 -75 -31 -137t-72 -106.5t-112 -69.5t-151 -25q-88 0 -154 24t-110 68t-67.5 106.5t-27.5 139.5 z" />
<glyph unicode="&#x150;" horiz-adv-x="1548" d="M119 735q0 170 39.5 308.5t120.5 236.5t204.5 151.5t292.5 53.5q168 0 291 -53.5t203.5 -152t120 -237t39.5 -309.5q0 -169 -39.5 -308t-120.5 -238t-204.5 -153t-291.5 -54t-291.5 54t-204 153t-120 238.5t-39.5 309.5zM438 733q0 -115 20 -206.5t61.5 -155t104.5 -97.5 t150 -34q89 0 152.5 34t104 97.5t60 155t19.5 206.5t-19.5 206.5t-60 155.5t-103.5 98t-151 34q-87 0 -151 -34t-105.5 -98t-61.5 -155.5t-20 -206.5zM457 1579v27q21 29 45 67t47.5 78.5t44.5 81t37 74.5h301v-21q-11 -18 -32 -42.5t-48 -52.5t-58.5 -57.5t-62.5 -57.5 t-60.5 -53t-52.5 -44h-161zM854 1579v27q21 29 45 67t47.5 78.5t44.5 81t37 74.5h301v-21q-11 -18 -32 -42.5t-48 -52.5t-58 -57.5t-62.5 -57.5t-60.5 -53t-52 -44h-162z" />
<glyph unicode="&#x151;" horiz-adv-x="1227" d="M102 561q0 139 35.5 247t102 181.5t161.5 111.5t215 38q111 0 204 -38t160.5 -111.5t105.5 -181.5t38 -247q0 -140 -35.5 -248t-102 -182t-162 -112.5t-214.5 -38.5q-111 0 -204 38.5t-160.5 112.5t-105.5 182t-38 248zM414 561q0 -167 47 -251.5t153 -84.5q105 0 152 85 t47 251q0 167 -47 249.5t-154 82.5q-105 0 -151.5 -82.5t-46.5 -249.5zM269 1241v27q21 29 45 67t47.5 78.5t44.5 81t37 74.5h301v-21q-11 -18 -32 -42.5t-48 -52.5t-58.5 -57.5t-62.5 -57.5t-60.5 -53t-52.5 -44h-161zM666 1241v27q21 29 45 67t47.5 78.5t44.5 81t37 74.5 h301v-21q-11 -18 -32 -42.5t-48 -52.5t-58 -57.5t-62.5 -57.5t-60.5 -53t-52 -44h-162z" />
<glyph unicode="&#x152;" horiz-adv-x="1931" d="M119 735q0 170 39.5 308.5t120.5 236.5t204.5 151.5t292.5 53.5q54 0 103 -6t94 -17h837v-254h-532v-321h496v-254h-496v-377h532v-256h-841q-45 -9 -93.5 -14.5t-101.5 -5.5q-168 0 -291.5 54t-204 153t-120 238.5t-39.5 309.5zM438 733q0 -115 20 -206.5t61.5 -155 t104.5 -97.5t150 -34q60 0 108.5 10t86.5 29v907q-37 20 -85 30.5t-108 10.5q-87 0 -151 -34t-105.5 -98t-61.5 -155.5t-20 -206.5z" />
<glyph unicode="&#x153;" horiz-adv-x="1901" d="M102 561q0 139 35.5 247t102 181.5t161.5 111.5t215 38q106 0 194.5 -39.5t154.5 -116.5q66 78 156.5 117t199.5 39q111 0 200.5 -33.5t151.5 -98.5t95.5 -159.5t33.5 -216.5v-148h-682v-8q6 -127 74 -197.5t188 -70.5q51 0 96.5 5.5t89 16.5t85.5 27.5t86 38.5v-236 q-40 -21 -80.5 -35.5t-85.5 -24.5t-97 -14.5t-114 -4.5q-119 0 -219 37.5t-172 117.5q-66 -78 -157 -116.5t-204 -38.5q-111 0 -204 38.5t-160.5 112.5t-105.5 182t-38 248zM414 561q0 -167 47 -251.5t153 -84.5q105 0 152 85t47 251q0 167 -47 249.5t-154 82.5 q-105 0 -151.5 -82.5t-46.5 -249.5zM1126 686h390q-1 51 -13 94t-36 74.5t-60 49.5t-84 18q-41 0 -75.5 -14t-60 -43t-41.5 -73.5t-20 -105.5z" />
<glyph unicode="&#x154;" horiz-adv-x="1290" d="M184 0v1462h400q281 0 415 -108.5t134 -329.5q0 -75 -20 -136t-53.5 -108.5t-77 -83t-91.5 -59.5q111 -178 199 -318q38 -60 73.5 -117t63.5 -102t46 -72l17 -28h-344l-317 561h-135v-561h-310zM494 813h84q129 0 185 51.5t56 151.5q0 104 -60 148t-186 44h-79v-395z M457 1579v27q21 29 45 67t47.5 78.5t44.5 81t37 74.5h342v-21q-11 -18 -32 -42.5t-48 -52.5t-58 -57.5t-62.5 -57.5t-60.5 -53t-52 -44h-203z" />
<glyph unicode="&#x155;" horiz-adv-x="889" d="M160 0v1118h231l45 -168h15q24 43 52 78t62.5 59.5t78 38t99.5 13.5q12 0 26.5 -0.5t28 -2t25 -3t17.5 -3.5v-286q-8 2 -22 4t-29.5 3.5t-30.5 2t-25 0.5q-59 0 -108.5 -15t-85 -48.5t-55 -88t-19.5 -133.5v-569h-305zM338 1241v27q21 29 45 67t47.5 78.5t44.5 81 t37 74.5h342v-21q-11 -18 -32 -42.5t-48 -52.5t-58 -57.5t-62.5 -57.5t-60.5 -53t-52 -44h-203z" />
<glyph unicode="&#x156;" horiz-adv-x="1290" d="M184 0v1462h400q281 0 415 -108.5t134 -329.5q0 -75 -20 -136t-53.5 -108.5t-77 -83t-91.5 -59.5q111 -178 199 -318q38 -60 73.5 -117t63.5 -102t46 -72l17 -28h-344l-317 561h-135v-561h-310zM494 813h84q129 0 185 51.5t56 151.5q0 104 -60 148t-186 44h-79v-395z M489 -426q9 30 18 68.5t17.5 79t15.5 80.5t11 73h282v-20q-31 -69 -72 -147.5t-94 -160.5h-178v27z" />
<glyph unicode="&#x157;" horiz-adv-x="889" d="M160 0v1118h231l45 -168h15q24 43 52 78t62.5 59.5t78 38t99.5 13.5q12 0 26.5 -0.5t28 -2t25 -3t17.5 -3.5v-286q-8 2 -22 4t-29.5 3.5t-30.5 2t-25 0.5q-59 0 -108.5 -15t-85 -48.5t-55 -88t-19.5 -133.5v-569h-305zM113 -426q9 30 18 68.5t17.5 79t15.5 80.5t11 73 h282v-20q-31 -69 -72 -147.5t-94 -160.5h-178v27z" />
<glyph unicode="&#x158;" horiz-adv-x="1290" d="M184 0v1462h400q281 0 415 -108.5t134 -329.5q0 -75 -20 -136t-53.5 -108.5t-77 -83t-91.5 -59.5q111 -178 199 -318q38 -60 73.5 -117t63.5 -102t46 -72l17 -28h-344l-317 561h-135v-561h-310zM494 813h84q129 0 185 51.5t56 151.5q0 104 -60 148t-186 44h-79v-395z M209 1880v27h203q51 -34 103 -77.5t106 -98.5q52 55 107 98.5t106 77.5h203v-27q-25 -29 -57.5 -67t-65 -78.5t-62.5 -80.5t-51 -75h-356q-22 35 -52 75t-62.5 80.5t-64 78.5t-57.5 67z" />
<glyph unicode="&#x159;" horiz-adv-x="889" d="M160 0v1118h231l45 -168h15q24 43 52 78t62.5 59.5t78 38t99.5 13.5q12 0 26.5 -0.5t28 -2t25 -3t17.5 -3.5v-286q-8 2 -22 4t-29.5 3.5t-30.5 2t-25 0.5q-59 0 -108.5 -15t-85 -48.5t-55 -88t-19.5 -133.5v-569h-305zM83 1542v27h203q51 -34 103 -77.5t106 -98.5 q52 55 107 98.5t106 77.5h203v-27q-25 -29 -57.5 -67t-65 -78.5t-62.5 -80.5t-51 -75h-356q-22 35 -52 75t-62.5 80.5t-64 78.5t-57.5 67z" />
<glyph unicode="&#x15a;" horiz-adv-x="1073" d="M94 68v288q48 -23 97 -44.5t99.5 -38.5t101 -27t100.5 -10q51 0 87.5 11.5t59 32t33 49t10.5 62.5q0 41 -17.5 72.5t-49 59t-76 53.5t-99.5 55q-46 24 -103 58t-107.5 84.5t-84.5 122t-34 171.5q0 98 32.5 175.5t92.5 131t145.5 81.5t191.5 28q53 0 103.5 -7t100 -20 t99.5 -32t103 -44l-100 -241q-45 21 -84 37t-76 27t-72.5 16.5t-71.5 5.5q-78 0 -119.5 -41.5t-41.5 -110.5q0 -37 12.5 -65.5t40 -53.5t71 -51t105.5 -59q75 -40 138 -81.5t108.5 -92t70.5 -114.5t25 -150q0 -98 -33.5 -176.5t-98 -134t-158 -85.5t-214.5 -30 q-106 0 -204.5 22t-182.5 66zM410 1579v27q21 29 45 67t47.5 78.5t44.5 81t37 74.5h342v-21q-11 -18 -32 -42.5t-48 -52.5t-58 -57.5t-62.5 -57.5t-60.5 -53t-52 -44h-203z" />
<glyph unicode="&#x15b;" horiz-adv-x="985" d="M98 827q0 78 30 136.5t85 97.5t132.5 58.5t172.5 19.5q100 0 190 -23t185 -69l-92 -216q-76 36 -145 59t-138 23q-62 0 -89.5 -22t-27.5 -60q0 -20 7 -35.5t28 -32t59 -36t99 -47.5q71 -31 128 -61.5t98 -69.5t63 -91t22 -126q0 -88 -32 -154t-91 -110t-143 -66t-188 -22 q-55 0 -102 3.5t-89 11.5t-81 20t-79 30v252q42 -21 88.5 -38t92.5 -29.5t89.5 -19.5t80.5 -7q41 0 70 7.5t47.5 21t27 32t8.5 39.5t-6.5 37.5t-29.5 35t-67.5 42t-119.5 57.5q-73 33 -126.5 65.5t-88 72.5t-51.5 91.5t-17 122.5zM342 1241v27q21 29 45 67t47.5 78.5 t44.5 81t37 74.5h342v-21q-11 -18 -32 -42.5t-48 -52.5t-58 -57.5t-62.5 -57.5t-60.5 -53t-52 -44h-203z" />
<glyph unicode="&#x15c;" horiz-adv-x="1073" d="M94 68v288q48 -23 97 -44.5t99.5 -38.5t101 -27t100.5 -10q51 0 87.5 11.5t59 32t33 49t10.5 62.5q0 41 -17.5 72.5t-49 59t-76 53.5t-99.5 55q-46 24 -103 58t-107.5 84.5t-84.5 122t-34 171.5q0 98 32.5 175.5t92.5 131t145.5 81.5t191.5 28q53 0 103.5 -7t100 -20 t99.5 -32t103 -44l-100 -241q-45 21 -84 37t-76 27t-72.5 16.5t-71.5 5.5q-78 0 -119.5 -41.5t-41.5 -110.5q0 -37 12.5 -65.5t40 -53.5t71 -51t105.5 -59q75 -40 138 -81.5t108.5 -92t70.5 -114.5t25 -150q0 -98 -33.5 -176.5t-98 -134t-158 -85.5t-214.5 -30 q-106 0 -204.5 22t-182.5 66zM157 1579v27q26 29 57.5 67t64 78.5t62.5 81t52 74.5h356q21 -34 51 -74.5t62.5 -81t65 -78.5t57.5 -67v-27h-203q-51 34 -106 77t-107 99q-54 -56 -106 -99t-103 -77h-203z" />
<glyph unicode="&#x15d;" horiz-adv-x="985" d="M98 827q0 78 30 136.5t85 97.5t132.5 58.5t172.5 19.5q100 0 190 -23t185 -69l-92 -216q-76 36 -145 59t-138 23q-62 0 -89.5 -22t-27.5 -60q0 -20 7 -35.5t28 -32t59 -36t99 -47.5q71 -31 128 -61.5t98 -69.5t63 -91t22 -126q0 -88 -32 -154t-91 -110t-143 -66t-188 -22 q-55 0 -102 3.5t-89 11.5t-81 20t-79 30v252q42 -21 88.5 -38t92.5 -29.5t89.5 -19.5t80.5 -7q41 0 70 7.5t47.5 21t27 32t8.5 39.5t-6.5 37.5t-29.5 35t-67.5 42t-119.5 57.5q-73 33 -126.5 65.5t-88 72.5t-51.5 91.5t-17 122.5zM105 1241v27q26 29 57.5 67t64 78.5 t62.5 81t52 74.5h356q21 -34 51 -74.5t62.5 -81t65 -78.5t57.5 -67v-27h-203q-51 34 -106 77t-107 99q-54 -56 -106 -99t-103 -77h-203z" />
<glyph unicode="&#x15e;" horiz-adv-x="1073" d="M94 68v288q48 -23 97 -44.5t99.5 -38.5t101 -27t100.5 -10q51 0 87.5 11.5t59 32t33 49t10.5 62.5q0 41 -17.5 72.5t-49 59t-76 53.5t-99.5 55q-46 24 -103 58t-107.5 84.5t-84.5 122t-34 171.5q0 98 32.5 175.5t92.5 131t145.5 81.5t191.5 28q53 0 103.5 -7t100 -20 t99.5 -32t103 -44l-100 -241q-45 21 -84 37t-76 27t-72.5 16.5t-71.5 5.5q-78 0 -119.5 -41.5t-41.5 -110.5q0 -37 12.5 -65.5t40 -53.5t71 -51t105.5 -59q75 -40 138 -81.5t108.5 -92t70.5 -114.5t25 -150q0 -98 -33.5 -176.5t-98 -134t-158 -85.5t-214.5 -30 q-106 0 -204.5 22t-182.5 66zM297 -303q15 -4 33.5 -7.5t38 -6.5t38 -5t33.5 -2q29 0 50.5 13.5t21.5 48.5q0 37 -37 65.5t-129 42.5l78 154h193l-27 -61q31 -10 60 -27t51.5 -40.5t36.5 -54t14 -67.5q0 -57 -15.5 -102t-51.5 -76t-95.5 -47.5t-146.5 -16.5q-45 0 -81 6 t-65 15v168z" />
<glyph unicode="&#x15f;" horiz-adv-x="985" d="M98 827q0 78 30 136.5t85 97.5t132.5 58.5t172.5 19.5q100 0 190 -23t185 -69l-92 -216q-76 36 -145 59t-138 23q-62 0 -89.5 -22t-27.5 -60q0 -20 7 -35.5t28 -32t59 -36t99 -47.5q71 -31 128 -61.5t98 -69.5t63 -91t22 -126q0 -88 -32 -154t-91 -110t-143 -66t-188 -22 q-55 0 -102 3.5t-89 11.5t-81 20t-79 30v252q42 -21 88.5 -38t92.5 -29.5t89.5 -19.5t80.5 -7q41 0 70 7.5t47.5 21t27 32t8.5 39.5t-6.5 37.5t-29.5 35t-67.5 42t-119.5 57.5q-73 33 -126.5 65.5t-88 72.5t-51.5 91.5t-17 122.5zM242 -303q15 -4 33.5 -7.5t38 -6.5t38 -5 t33.5 -2q29 0 50.5 13.5t21.5 48.5q0 37 -37 65.5t-129 42.5l78 154h193l-27 -61q31 -10 60 -27t51.5 -40.5t36.5 -54t14 -67.5q0 -57 -15.5 -102t-51.5 -76t-95.5 -47.5t-146.5 -16.5q-45 0 -81 6t-65 15v168z" />
<glyph unicode="&#x160;" horiz-adv-x="1073" d="M94 68v288q48 -23 97 -44.5t99.5 -38.5t101 -27t100.5 -10q51 0 87.5 11.5t59 32t33 49t10.5 62.5q0 41 -17.5 72.5t-49 59t-76 53.5t-99.5 55q-46 24 -103 58t-107.5 84.5t-84.5 122t-34 171.5q0 98 32.5 175.5t92.5 131t145.5 81.5t191.5 28q53 0 103.5 -7t100 -20 t99.5 -32t103 -44l-100 -241q-45 21 -84 37t-76 27t-72.5 16.5t-71.5 5.5q-78 0 -119.5 -41.5t-41.5 -110.5q0 -37 12.5 -65.5t40 -53.5t71 -51t105.5 -59q75 -40 138 -81.5t108.5 -92t70.5 -114.5t25 -150q0 -98 -33.5 -176.5t-98 -134t-158 -85.5t-214.5 -30 q-106 0 -204.5 22t-182.5 66zM138 1880v27h203q51 -34 103 -77.5t106 -98.5q52 55 107 98.5t106 77.5h203v-27q-25 -29 -57.5 -67t-65 -78.5t-62.5 -80.5t-51 -75h-356q-22 35 -52 75t-62.5 80.5t-64 78.5t-57.5 67z" />
<glyph unicode="&#x161;" horiz-adv-x="985" d="M98 827q0 78 30 136.5t85 97.5t132.5 58.5t172.5 19.5q100 0 190 -23t185 -69l-92 -216q-76 36 -145 59t-138 23q-62 0 -89.5 -22t-27.5 -60q0 -20 7 -35.5t28 -32t59 -36t99 -47.5q71 -31 128 -61.5t98 -69.5t63 -91t22 -126q0 -88 -32 -154t-91 -110t-143 -66t-188 -22 q-55 0 -102 3.5t-89 11.5t-81 20t-79 30v252q42 -21 88.5 -38t92.5 -29.5t89.5 -19.5t80.5 -7q41 0 70 7.5t47.5 21t27 32t8.5 39.5t-6.5 37.5t-29.5 35t-67.5 42t-119.5 57.5q-73 33 -126.5 65.5t-88 72.5t-51.5 91.5t-17 122.5zM93 1542v27h203q51 -34 103 -77.5 t106 -98.5q52 55 107 98.5t106 77.5h203v-27q-25 -29 -57.5 -67t-65 -78.5t-62.5 -80.5t-51 -75h-356q-22 35 -52 75t-62.5 80.5t-64 78.5t-57.5 67z" />
<glyph unicode="&#x162;" horiz-adv-x="1124" d="M41 1204v258h1042v-258h-366v-1204h-309v1204h-367zM368 -426q9 30 18 68.5t17.5 79t15.5 80.5t11 73h282v-20q-31 -69 -72 -147.5t-94 -160.5h-178v27z" />
<glyph unicode="&#x163;" horiz-adv-x="848" d="M47 889v129l168 102l88 236h195v-238h272v-229h-272v-539q0 -65 32 -96t84 -31q45 0 85.5 10t82.5 25v-227q-43 -22 -106.5 -36.5t-138.5 -14.5q-73 0 -136 17t-109 59.5t-72.5 114t-26.5 179.5v539h-146zM257 -426q9 30 18 68.5t17.5 79t15.5 80.5t11 73h282v-20 q-31 -69 -72 -147.5t-94 -160.5h-178v27z" />
<glyph unicode="&#x164;" horiz-adv-x="1124" d="M41 1204v258h1042v-258h-366v-1204h-309v1204h-367zM150 1880v27h203q51 -34 103 -77.5t106 -98.5q52 55 107 98.5t106 77.5h203v-27q-25 -29 -57.5 -67t-65 -78.5t-62.5 -80.5t-51 -75h-356q-22 35 -52 75t-62.5 80.5t-64 78.5t-57.5 67z" />
<glyph unicode="&#x165;" horiz-adv-x="848" d="M47 889v129l168 102l88 236h195v-238h272v-229h-272v-539q0 -65 32 -96t84 -31q45 0 85.5 10t82.5 25v-227q-43 -22 -106.5 -36.5t-138.5 -14.5q-73 0 -136 17t-109 59.5t-72.5 114t-26.5 179.5v539h-146zM620 1249v26q9 30 18 68.5t17.5 79t15.5 80.5t11 73h282v-20 q-31 -68 -72 -147t-94 -160h-178z" />
<glyph unicode="&#x166;" horiz-adv-x="1124" d="M41 1204v258h1042v-258h-366v-354h237v-254h-237v-596h-309v596h-238v254h238v354h-367z" />
<glyph unicode="&#x167;" horiz-adv-x="848" d="M47 885v133l168 102l88 236h195v-238h272v-233h-272v-189h237v-198h-237v-148q0 -65 32 -96t84 -31q45 0 85.5 10t82.5 25v-227q-43 -22 -106.5 -36.5t-138.5 -14.5q-73 0 -136 17t-109 59.5t-72.5 114t-26.5 179.5v148h-127v198h127v189h-146z" />
<glyph unicode="&#x168;" horiz-adv-x="1466" d="M174 520v942h309v-919q0 -81 16 -138.5t47.5 -94t78.5 -53.5t110 -17q131 0 189.5 76t58.5 229v917h309v-946q0 -114 -34.5 -212t-105 -170t-176.5 -113t-249 -41q-135 0 -238.5 38.5t-173 109.5t-105.5 170.5t-36 221.5zM334 1577q6 80 26 138t52.5 96t76.5 56.5 t97 18.5q41 0 80 -16t77.5 -35.5t76 -36t73.5 -16.5q31 0 49 26t31 80h149q-6 -79 -26.5 -137t-53.5 -96.5t-76.5 -57t-95.5 -18.5q-40 0 -80 16.5t-78 36t-75.5 36t-73.5 16.5q-31 0 -49.5 -26.5t-30.5 -80.5h-149z" />
<glyph unicode="&#x169;" horiz-adv-x="1284" d="M154 389v729h305v-653q0 -121 36.5 -181.5t116.5 -60.5q60 0 100 24t63.5 71t33.5 116t10 158v526h305v-1118h-233l-41 143h-16q-25 -43 -59.5 -73.5t-75.5 -50.5t-87 -29.5t-94 -9.5q-82 0 -149 23.5t-115 73.5t-74 127t-26 185zM246 1239q6 80 26 138t52.5 96 t76.5 56.5t97 18.5q41 0 80 -16t77.5 -35.5t76 -36t73.5 -16.5q31 0 49 26t31 80h149q-6 -79 -26.5 -137t-53.5 -96.5t-76.5 -57t-95.5 -18.5q-40 0 -80 16.5t-78 36t-75.5 36t-73.5 16.5q-31 0 -49.5 -26.5t-30.5 -80.5h-149z" />
<glyph unicode="&#x16a;" horiz-adv-x="1466" d="M174 520v942h309v-919q0 -81 16 -138.5t47.5 -94t78.5 -53.5t110 -17q131 0 189.5 76t58.5 229v917h309v-946q0 -114 -34.5 -212t-105 -170t-176.5 -113t-249 -41q-135 0 -238.5 38.5t-173 109.5t-105.5 170.5t-36 221.5zM422 1579v211h617v-211h-617z" />
<glyph unicode="&#x16b;" horiz-adv-x="1284" d="M154 389v729h305v-653q0 -121 36.5 -181.5t116.5 -60.5q60 0 100 24t63.5 71t33.5 116t10 158v526h305v-1118h-233l-41 143h-16q-25 -43 -59.5 -73.5t-75.5 -50.5t-87 -29.5t-94 -9.5q-82 0 -149 23.5t-115 73.5t-74 127t-26 185zM330 1241v211h617v-211h-617z" />
<glyph unicode="&#x16c;" horiz-adv-x="1466" d="M174 520v942h309v-919q0 -81 16 -138.5t47.5 -94t78.5 -53.5t110 -17q131 0 189.5 76t58.5 229v917h309v-946q0 -114 -34.5 -212t-105 -170t-176.5 -113t-249 -41q-135 0 -238.5 38.5t-173 109.5t-105.5 170.5t-36 221.5zM366 1917h170q4 -43 18 -68t38 -37.5t57.5 -16 t77.5 -3.5q36 0 68.5 4.5t58 18t42.5 38t21 64.5h174q-5 -75 -31 -137t-72 -106.5t-112 -69.5t-151 -25q-88 0 -154 24t-110 68t-67.5 106.5t-27.5 139.5z" />
<glyph unicode="&#x16d;" horiz-adv-x="1284" d="M154 389v729h305v-653q0 -121 36.5 -181.5t116.5 -60.5q60 0 100 24t63.5 71t33.5 116t10 158v526h305v-1118h-233l-41 143h-16q-25 -43 -59.5 -73.5t-75.5 -50.5t-87 -29.5t-94 -9.5q-82 0 -149 23.5t-115 73.5t-74 127t-26 185zM274 1579h170q4 -43 18 -68t38 -37.5 t57.5 -16t77.5 -3.5q36 0 68.5 4.5t58 18t42.5 38t21 64.5h174q-5 -75 -31 -137t-72 -106.5t-112 -69.5t-151 -25q-88 0 -154 24t-110 68t-67.5 106.5t-27.5 139.5z" />
<glyph unicode="&#x16e;" horiz-adv-x="1466" d="M174 520v942h309v-919q0 -81 16 -138.5t47.5 -94t78.5 -53.5t110 -17q131 0 189.5 76t58.5 229v917h309v-946q0 -114 -34.5 -212t-105 -170t-176.5 -113t-249 -41q-135 0 -238.5 38.5t-173 109.5t-105.5 170.5t-36 221.5zM487 1815q0 55 18 99t50.5 74.5t78.5 47 t101 16.5q53 0 99 -16.5t80.5 -47t54.5 -74t20 -97.5q0 -56 -19.5 -100.5t-54 -75.5t-80.5 -47.5t-100 -16.5q-55 0 -101 16.5t-78.5 47t-50.5 75t-18 99.5zM639 1815q0 -45 24 -71t72 -26q42 0 69 26t27 71t-27 70.5t-69 25.5t-69 -25.5t-27 -70.5z" />
<glyph unicode="&#x16f;" horiz-adv-x="1284" d="M154 389v729h305v-653q0 -121 36.5 -181.5t116.5 -60.5q60 0 100 24t63.5 71t33.5 116t10 158v526h305v-1118h-233l-41 143h-16q-25 -43 -59.5 -73.5t-75.5 -50.5t-87 -29.5t-94 -9.5q-82 0 -149 23.5t-115 73.5t-74 127t-26 185zM389 1477q0 55 18 99t50.5 74.5t78.5 47 t101 16.5q53 0 99 -16.5t80.5 -47t54.5 -74t20 -97.5q0 -56 -19.5 -100.5t-54 -75.5t-80.5 -47.5t-100 -16.5q-55 0 -101 16.5t-78.5 47t-50.5 75t-18 99.5zM541 1477q0 -45 24 -71t72 -26q42 0 69 26t27 71t-27 70.5t-69 25.5t-69 -25.5t-27 -70.5z" />
<glyph unicode="&#x170;" horiz-adv-x="1466" d="M174 520v942h309v-919q0 -81 16 -138.5t47.5 -94t78.5 -53.5t110 -17q131 0 189.5 76t58.5 229v917h309v-946q0 -114 -34.5 -212t-105 -170t-176.5 -113t-249 -41q-135 0 -238.5 38.5t-173 109.5t-105.5 170.5t-36 221.5zM400 1579v27q21 29 45 67t47.5 78.5t44.5 81 t37 74.5h301v-21q-11 -18 -32 -42.5t-48 -52.5t-58.5 -57.5t-62.5 -57.5t-60.5 -53t-52.5 -44h-161zM797 1579v27q21 29 45 67t47.5 78.5t44.5 81t37 74.5h301v-21q-11 -18 -32 -42.5t-48 -52.5t-58 -57.5t-62.5 -57.5t-60.5 -53t-52 -44h-162z" />
<glyph unicode="&#x171;" horiz-adv-x="1284" d="M154 389v729h305v-653q0 -121 36.5 -181.5t116.5 -60.5q60 0 100 24t63.5 71t33.5 116t10 158v526h305v-1118h-233l-41 143h-16q-25 -43 -59.5 -73.5t-75.5 -50.5t-87 -29.5t-94 -9.5q-82 0 -149 23.5t-115 73.5t-74 127t-26 185zM314 1241v27q21 29 45 67t47.5 78.5 t44.5 81t37 74.5h301v-21q-11 -18 -32 -42.5t-48 -52.5t-58.5 -57.5t-62.5 -57.5t-60.5 -53t-52.5 -44h-161zM711 1241v27q21 29 45 67t47.5 78.5t44.5 81t37 74.5h301v-21q-11 -18 -32 -42.5t-48 -52.5t-58 -57.5t-62.5 -57.5t-60.5 -53t-52 -44h-162z" />
<glyph unicode="&#x172;" horiz-adv-x="1466" d="M174 520v942h309v-919q0 -81 16 -138.5t47.5 -94t78.5 -53.5t110 -17q131 0 189.5 76t58.5 229v917h309v-946q0 -114 -34.5 -212t-105 -170t-176.5 -113t-249 -41q-135 0 -238.5 38.5t-173 109.5t-105.5 170.5t-36 221.5zM547 -262q0 43 14 79t38.5 67.5t57.5 59.5t70 56 h179q-70 -66 -109 -120.5t-39 -106.5q0 -42 22.5 -62t57.5 -20q32 0 63.5 6t51.5 12v-178q-32 -9 -69 -16t-87 -7q-58 0 -104 17t-78.5 47.5t-50 72.5t-17.5 93z" />
<glyph unicode="&#x173;" horiz-adv-x="1284" d="M154 389v729h305v-653q0 -121 36.5 -181.5t116.5 -60.5q60 0 100 24t63.5 71t33.5 116t10 158v526h305v-1118h-233l-41 143h-16q-25 -43 -59.5 -73.5t-75.5 -50.5t-87 -29.5t-94 -9.5q-82 0 -149 23.5t-115 73.5t-74 127t-26 185zM710 -262q0 43 14 79t38.5 67.5 t57.5 59.5t70 56h179q-70 -66 -109 -120.5t-39 -106.5q0 -42 22.5 -62t57.5 -20q32 0 63.5 6t51.5 12v-178q-32 -9 -69 -16t-87 -7q-58 0 -104 17t-78.5 47.5t-50 72.5t-17.5 93z" />
<glyph unicode="&#x174;" horiz-adv-x="1898" d="M0 1462h305l166 -798q3 -16 8.5 -46.5t12.5 -68.5t14.5 -80t14.5 -82t13 -74.5t9 -56.5q3 22 8.5 56t11.5 72.5t13.5 79.5t13.5 76.5t11.5 63t8.5 39.5l203 819h272l203 -819q3 -12 8.5 -39.5t12 -63t13.5 -76.5t13.5 -79.5t12 -72.5t8.5 -56q3 22 8.5 56.5t12.5 74.5 t14.5 82t14.5 80t12.5 68.5t8.5 46.5l166 798h305l-352 -1462h-352l-180 721q-4 15 -9.5 42t-12.5 61t-14 71t-13 72t-10.5 64.5t-6.5 47.5q-2 -18 -6.5 -47.5t-10.5 -64t-12.5 -71.5t-13 -71t-12.5 -62t-10 -44l-178 -719h-353zM532 1579v27q26 29 57.5 67t64 78.5t62.5 81 t52 74.5h356q21 -34 51 -74.5t62.5 -81t65 -78.5t57.5 -67v-27h-203q-51 34 -106 77t-107 99q-54 -56 -106 -99t-103 -77h-203z" />
<glyph unicode="&#x175;" horiz-adv-x="1651" d="M0 1118h303l113 -495q9 -39 18.5 -93.5t18 -110t15.5 -105t11 -78.5h6q1 19 4.5 49.5t8.5 65.5t10.5 71.5t11 68.5t10 56.5t7.5 34.5l122 536h336l117 -536q5 -22 13 -68t16.5 -98.5t14.5 -102t7 -77.5h6q3 25 10.5 74t16.5 105.5t19.5 112.5t19.5 95l117 495h299 l-305 -1118h-332l-86 391q-4 17 -10.5 48.5t-14.5 71t-16.5 84t-17.5 88.5q-20 103 -44 222h-6q-23 -119 -42 -223q-8 -44 -16.5 -89t-16.5 -84.5t-14.5 -71.5t-10.5 -50l-90 -387h-328zM409 1241v27q26 29 57.5 67t64 78.5t62.5 81t52 74.5h356q21 -34 51 -74.5t62.5 -81 t65 -78.5t57.5 -67v-27h-203q-51 34 -106 77t-107 99q-54 -56 -106 -99t-103 -77h-203z" />
<glyph unicode="&#x176;" horiz-adv-x="1196" d="M0 1462h336l262 -602l264 602h334l-444 -893v-569h-308v559zM182 1579v27q26 29 57.5 67t64 78.5t62.5 81t52 74.5h356q21 -34 51 -74.5t62.5 -81t65 -78.5t57.5 -67v-27h-203q-51 34 -106 77t-107 99q-54 -56 -106 -99t-103 -77h-203z" />
<glyph unicode="&#x177;" horiz-adv-x="1104" d="M0 1118h334l180 -629q16 -52 23.5 -111t9.5 -106h6q2 23 5.5 51t8.5 57t11.5 57.5t13.5 51.5l176 629h336l-442 -1261q-62 -177 -169 -263t-268 -86q-52 0 -90 5.5t-65 11.5v242q21 -5 53 -9t67 -4q48 0 82 13t58.5 36.5t42 56.5t30.5 74l19 56zM140 1241v27 q26 29 57.5 67t64 78.5t62.5 81t52 74.5h356q21 -34 51 -74.5t62.5 -81t65 -78.5t57.5 -67v-27h-203q-51 34 -106 77t-107 99q-54 -56 -106 -99t-103 -77h-203z" />
<glyph unicode="&#x178;" horiz-adv-x="1196" d="M0 1462h336l262 -602l264 602h334l-444 -893v-569h-308v559zM256 1743q0 35 11 60.5t29.5 42t44 24.5t54.5 8t54.5 -8t44.5 -24.5t30.5 -42t11.5 -60.5q0 -34 -11.5 -59t-30.5 -41.5t-44.5 -24.5t-54.5 -8t-54.5 8t-44 24.5t-29.5 41.5t-11 59zM659 1743q0 35 11 60.5 t30 42t45 24.5t56 8q28 0 53.5 -8t45 -24.5t31 -42t11.5 -60.5q0 -34 -11.5 -59t-31 -41.5t-45 -24.5t-53.5 -8q-60 0 -101 33t-41 100z" />
<glyph unicode="&#x179;" horiz-adv-x="1104" d="M49 0v201l619 1005h-600v256h968v-200l-618 -1006h637v-256h-1006zM389 1579v27q21 29 45 67t47.5 78.5t44.5 81t37 74.5h342v-21q-11 -18 -32 -42.5t-48 -52.5t-58 -57.5t-62.5 -57.5t-60.5 -53t-52 -44h-203z" />
<glyph unicode="&#x17a;" horiz-adv-x="936" d="M55 0v180l457 705h-426v233h772v-198l-442 -687h461v-233h-822zM313 1241v27q21 29 45 67t47.5 78.5t44.5 81t37 74.5h342v-21q-11 -18 -32 -42.5t-48 -52.5t-58 -57.5t-62.5 -57.5t-60.5 -53t-52 -44h-203z" />
<glyph unicode="&#x17b;" horiz-adv-x="1104" d="M49 0v201l619 1005h-600v256h968v-200l-618 -1006h637v-256h-1006zM405 1745q0 43 13 71.5t35.5 46t53 24.5t64.5 7t64 -7t52.5 -24.5t36 -46t13.5 -71.5q0 -42 -13.5 -71t-36 -46.5t-52.5 -25t-64 -7.5t-64.5 7.5t-53 25t-35.5 46.5t-13 71z" />
<glyph unicode="&#x17c;" horiz-adv-x="936" d="M55 0v180l457 705h-426v233h772v-198l-442 -687h461v-233h-822zM315 1407q0 43 13 71.5t35.5 46t53 24.5t64.5 7t64 -7t52.5 -24.5t36 -46t13.5 -71.5q0 -42 -13.5 -71t-36 -46.5t-52.5 -25t-64 -7.5t-64.5 7.5t-53 25t-35.5 46.5t-13 71z" />
<glyph unicode="&#x17d;" horiz-adv-x="1104" d="M49 0v201l619 1005h-600v256h968v-200l-618 -1006h637v-256h-1006zM122 1880v27h203q51 -34 103 -77.5t106 -98.5q52 55 107 98.5t106 77.5h203v-27q-25 -29 -57.5 -67t-65 -78.5t-62.5 -80.5t-51 -75h-356q-22 35 -52 75t-62.5 80.5t-64 78.5t-57.5 67z" />
<glyph unicode="&#x17e;" horiz-adv-x="936" d="M55 0v180l457 705h-426v233h772v-198l-442 -687h461v-233h-822zM73 1542v27h203q51 -34 103 -77.5t106 -98.5q52 55 107 98.5t106 77.5h203v-27q-25 -29 -57.5 -67t-65 -78.5t-62.5 -80.5t-51 -75h-356q-22 35 -52 75t-62.5 80.5t-64 78.5t-57.5 67z" />
<glyph unicode="&#x17f;" horiz-adv-x="743" d="M160 0v1200q0 107 26 177.5t74 112.5t116 59.5t152 17.5q93 0 156 -14.5t107 -32.5l-72 -224q-31 11 -65 20t-81 9q-59 0 -83.5 -38.5t-24.5 -98.5v-1188h-305z" />
<glyph unicode="&#x192;" d="M176 -227q31 -10 58 -14.5t61 -4.5q25 0 47.5 7.5t40 27t27.5 52t10 83.5v881h-168v147l168 82v82q0 107 26 177.5t74 112.5t116 59.5t152 17.5q93 0 156 -14.5t107 -32.5l-72 -224q-31 11 -65 20t-80 9q-60 0 -84.5 -38.5t-24.5 -98.5v-70h227v-229h-227l-2 -926 q0 -77 -19.5 -144.5t-63 -118t-112.5 -79.5t-168 -29q-48 0 -99 7t-85 18v240z" />
<glyph unicode="&#x1fa;" horiz-adv-x="1331" d="M0 0l459 1315q-43 58 -43 145q0 56 18 100t50.5 74.5t78.5 47t101 16.5q53 0 99 -16.5t80.5 -47t54.5 -74t20 -98.5q0 -45 -13 -81.5t-35 -65.5l461 -1315h-313l-105 330h-497l-103 -330h-313zM489 590h357l-94 289q-6 15 -18 52.5t-25.5 82t-25.5 89t-17 75.5 q-4 -19 -10.5 -46.5t-15 -57t-17.5 -60.5t-17 -57.5t-14.5 -47t-9.5 -30.5zM543 1753v16q21 20 45 44t47.5 50t44.5 51.5t37 47.5h342v-12q-16 -18 -54 -44t-84 -54.5t-93.5 -54.5t-82.5 -44h-202zM567 1460q0 -43 21.5 -68.5t64.5 -27.5h19q38 2 63 27.5t25 68.5 q0 45 -27 70.5t-69 25.5t-69.5 -25.5t-27.5 -70.5z" />
<glyph unicode="&#x1fb;" horiz-adv-x="1176" d="M86 334q0 178 114 262.5t341 93.5l178 6v84q0 69 -40 102t-112 33t-140.5 -21t-137.5 -56l-99 202q84 47 186 74t214 27q209 0 320.5 -98t111.5 -298v-745h-213l-59 152h-9q-33 -45 -66 -77.5t-72 -53.5t-87.5 -31t-112.5 -10q-68 0 -126 21.5t-100.5 65t-66.5 110 t-24 157.5zM340 1436q0 55 18 99t50.5 74.5t78.5 47t101 16.5q53 0 99 -16.5t80.5 -47t54.5 -74t20 -97.5q0 -56 -19.5 -100.5t-54 -75.5t-80.5 -47.5t-100 -16.5q-55 0 -101 16.5t-78.5 47t-50.5 75t-18 99.5zM399 332q0 -70 34 -99.5t89 -29.5q42 0 78 14.5t62.5 43 t41.5 70t15 95.5v92l-101 -4q-61 -2 -103 -16t-67.5 -37.5t-37 -56t-11.5 -72.5zM451 1753v16q21 20 45 44t47.5 50t44.5 51.5t37 47.5h342v-12q-16 -18 -54 -44t-84.5 -54.5t-93.5 -54.5t-82 -44h-202zM492 1436q0 -45 24 -71t72 -26q42 0 69 26t27 71t-27 70.5t-69 25.5 t-69 -25.5t-27 -70.5z" />
<glyph unicode="&#x1fc;" horiz-adv-x="1888" d="M0 0l655 1462h1112v-254h-532v-321h496v-254h-496v-377h532v-256h-841v348h-461l-150 -348h-315zM578 608h348v590h-97zM983 1579v27q21 29 45 67t47.5 78.5t44.5 81t37 74.5h342v-21q-11 -18 -32 -42.5t-48 -52.5t-58 -57.5t-62.5 -57.5t-60.5 -53t-52 -44h-203z" />
<glyph unicode="&#x1fd;" horiz-adv-x="1806" d="M86 334q0 178 114 262.5t341 93.5l178 6v84q0 69 -40 102t-112 33t-140.5 -21t-137.5 -56l-99 202q84 47 186 74t214 27q214 0 323 -131q126 129 314 129q111 0 200.5 -33.5t151.5 -98.5t95.5 -159.5t33.5 -216.5v-148h-682q2 -64 20.5 -115.5t52 -87t81 -54.5t108.5 -19 q94 0 181.5 21.5t175.5 66.5v-236q-40 -21 -80.5 -35.5t-85.5 -24.5t-97 -14.5t-114 -4.5q-131 0 -238 50.5t-176 155.5q-43 -54 -85 -92.5t-91 -64t-110.5 -37.5t-143.5 -12q-68 0 -129.5 21.5t-108 65t-73.5 110t-27 157.5zM399 332q0 -70 34 -99.5t89 -29.5q42 0 78 14.5 t62.5 43t41.5 70t15 95.5v92l-101 -4q-61 -2 -103 -16t-67.5 -37.5t-37 -56t-11.5 -72.5zM1032 686h389q-1 51 -13 94t-35.5 74.5t-59.5 49.5t-84 18q-82 0 -135.5 -57t-61.5 -179zM756 1241v27q21 29 45 67t47.5 78.5t44.5 81t37 74.5h342v-21q-11 -18 -32 -42.5t-48 -52.5 t-58 -57.5t-62.5 -57.5t-60.5 -53t-52 -44h-203z" />
<glyph unicode="&#x1fe;" horiz-adv-x="1548" d="M119 735q0 170 39.5 308.5t120.5 236.5t204.5 151.5t292.5 53.5q91 0 168.5 -16.5t142.5 -47.5l70 111l166 -96l-80 -129q94 -99 140.5 -244.5t46.5 -329.5q0 -169 -39.5 -308t-120.5 -238t-204.5 -153t-291.5 -54q-179 0 -307 61l-72 -117l-168 94l82 134 q-97 100 -143.5 248t-46.5 335zM438 733q0 -180 47 -295l457 746q-69 43 -166 43q-87 0 -151 -34t-105.5 -98t-61.5 -155.5t-20 -206.5zM612 279q34 -19 74 -29t88 -10q89 0 152.5 34t104 97.5t60 155t19.5 206.5q0 171 -43 287zM590 1579v27q21 29 45 67t47.5 78.5t44.5 81 t37 74.5h342v-21q-11 -18 -32 -42.5t-48 -52.5t-58 -57.5t-62.5 -57.5t-60.5 -53t-52 -44h-203z" />
<glyph unicode="&#x1ff;" horiz-adv-x="1227" d="M102 561q0 139 35.5 247t102 181.5t161.5 111.5t215 38q62 0 119.5 -13t108.5 -36l49 79l160 -96l-62 -98q63 -72 98 -176.5t35 -237.5q0 -140 -35.5 -248t-102 -182t-162 -112.5t-214.5 -38.5q-57 0 -109 10t-100 28l-57 -94l-162 90l68 111q-69 74 -108.5 183.5 t-39.5 252.5zM414 561q0 -86 12 -151l283 458q-40 25 -97 25q-105 0 -151.5 -82.5t-46.5 -249.5zM539 240q17 -8 35.5 -11.5t39.5 -3.5q105 0 152 85t47 251q0 64 -6 113zM434 1241v27q21 29 45 67t47.5 78.5t44.5 81t37 74.5h342v-21q-11 -18 -32 -42.5t-48 -52.5 t-58 -57.5t-62.5 -57.5t-60.5 -53t-52 -44h-203z" />
<glyph unicode="&#x218;" horiz-adv-x="1073" d="M94 68v288q48 -23 97 -44.5t99.5 -38.5t101 -27t100.5 -10q51 0 87.5 11.5t59 32t33 49t10.5 62.5q0 41 -17.5 72.5t-49 59t-76 53.5t-99.5 55q-46 24 -103 58t-107.5 84.5t-84.5 122t-34 171.5q0 98 32.5 175.5t92.5 131t145.5 81.5t191.5 28q53 0 103.5 -7t100 -20 t99.5 -32t103 -44l-100 -241q-45 21 -84 37t-76 27t-72.5 16.5t-71.5 5.5q-78 0 -119.5 -41.5t-41.5 -110.5q0 -37 12.5 -65.5t40 -53.5t71 -51t105.5 -59q75 -40 138 -81.5t108.5 -92t70.5 -114.5t25 -150q0 -98 -33.5 -176.5t-98 -134t-158 -85.5t-214.5 -30 q-106 0 -204.5 22t-182.5 66zM350 -426q9 30 18 68.5t17.5 79t15.5 80.5t11 73h282v-20q-31 -69 -72 -147.5t-94 -160.5h-178v27z" />
<glyph unicode="&#x219;" horiz-adv-x="985" d="M98 827q0 78 30 136.5t85 97.5t132.5 58.5t172.5 19.5q100 0 190 -23t185 -69l-92 -216q-76 36 -145 59t-138 23q-62 0 -89.5 -22t-27.5 -60q0 -20 7 -35.5t28 -32t59 -36t99 -47.5q71 -31 128 -61.5t98 -69.5t63 -91t22 -126q0 -88 -32 -154t-91 -110t-143 -66t-188 -22 q-55 0 -102 3.5t-89 11.5t-81 20t-79 30v252q42 -21 88.5 -38t92.5 -29.5t89.5 -19.5t80.5 -7q41 0 70 7.5t47.5 21t27 32t8.5 39.5t-6.5 37.5t-29.5 35t-67.5 42t-119.5 57.5q-73 33 -126.5 65.5t-88 72.5t-51.5 91.5t-17 122.5zM320 -426q9 30 18 68.5t17.5 79t15.5 80.5 t11 73h282v-20q-31 -69 -72 -147.5t-94 -160.5h-178v27z" />
<glyph unicode="&#x2c6;" horiz-adv-x="1182" d="M176 1241v27q26 29 57.5 67t64 78.5t62.5 81t52 74.5h356q21 -34 51 -74.5t62.5 -81t65 -78.5t57.5 -67v-27h-203q-51 34 -106 77t-107 99q-54 -56 -106 -99t-103 -77h-203z" />
<glyph unicode="&#x2c7;" horiz-adv-x="1182" d="M176 1542v27h203q51 -34 103 -77.5t106 -98.5q52 55 107 98.5t106 77.5h203v-27q-25 -29 -57.5 -67t-65 -78.5t-62.5 -80.5t-51 -75h-356q-22 35 -52 75t-62.5 80.5t-64 78.5t-57.5 67z" />
<glyph unicode="&#x2c9;" horiz-adv-x="1141" d="M262 1241v211h617v-211h-617z" />
<glyph unicode="&#x2d8;" horiz-adv-x="1182" d="M227 1579h170q4 -43 18 -68t38 -37.5t57.5 -16t77.5 -3.5q36 0 68.5 4.5t58 18t42.5 38t21 64.5h174q-5 -75 -31 -137t-72 -106.5t-112 -69.5t-151 -25q-88 0 -154 24t-110 68t-67.5 106.5t-27.5 139.5z" />
<glyph unicode="&#x2d9;" horiz-adv-x="625" d="M147 1407q0 43 13 71.5t35.5 46t53 24.5t64.5 7t64 -7t52.5 -24.5t36 -46t13.5 -71.5q0 -42 -13.5 -71t-36 -46.5t-52.5 -25t-64 -7.5t-64.5 7.5t-53 25t-35.5 46.5t-13 71z" />
<glyph unicode="&#x2da;" horiz-adv-x="1182" d="M340 1477q0 55 18 99t50.5 74.5t78.5 47t101 16.5q53 0 99 -16.5t80.5 -47t54.5 -74t20 -97.5q0 -56 -19.5 -100.5t-54 -75.5t-80.5 -47.5t-100 -16.5q-55 0 -101 16.5t-78.5 47t-50.5 75t-18 99.5zM492 1477q0 -45 24 -71t72 -26q42 0 69 26t27 71t-27 70.5t-69 25.5 t-69 -25.5t-27 -70.5z" />
<glyph unicode="&#x2db;" horiz-adv-x="422" d="M10 -262q0 43 14 79t38.5 67.5t57.5 59.5t70 56h179q-70 -66 -109 -120.5t-39 -106.5q0 -42 22.5 -62t57.5 -20q32 0 63.5 6t51.5 12v-178q-32 -9 -69 -16t-87 -7q-58 0 -104 17t-78.5 47.5t-50 72.5t-17.5 93z" />
<glyph unicode="&#x2dc;" horiz-adv-x="1182" d="M197 1239q6 80 26 138t52.5 96t76.5 56.5t97 18.5q41 0 80 -16t77.5 -35.5t76 -36t73.5 -16.5q31 0 49 26t31 80h149q-6 -79 -26.5 -137t-53.5 -96.5t-76.5 -57t-95.5 -18.5q-40 0 -80 16.5t-78 36t-75.5 36t-73.5 16.5q-31 0 -49.5 -26.5t-30.5 -80.5h-149z" />
<glyph unicode="&#x2dd;" horiz-adv-x="1182" d="M156 1241v27q21 29 45 67t47.5 78.5t44.5 81t37 74.5h301v-21q-11 -18 -32 -42.5t-48 -52.5t-58.5 -57.5t-62.5 -57.5t-60.5 -53t-52.5 -44h-161zM553 1241v27q21 29 45 67t47.5 78.5t44.5 81t37 74.5h301v-21q-11 -18 -32 -42.5t-48 -52.5t-58 -57.5t-62.5 -57.5 t-60.5 -53t-52 -44h-162z" />
<glyph unicode="&#x384;" horiz-adv-x="1182" d="M471 1241v27q9 30 18 68.5t17.5 79t15 80.5t10.5 73h283v-21q-31 -68 -72 -146.5t-94 -160.5h-178z" />
<glyph unicode="&#x385;" horiz-adv-x="1182" d="M186 1405q0 71 35.5 103t93.5 32q57 0 94 -32t37 -103q0 -68 -37 -100.5t-94 -32.5q-58 0 -93.5 32.5t-35.5 100.5zM487 1389v26q9 30 18 68.5t17.5 79t15.5 80.5t11 73h262v-20q-31 -68 -80 -147.5t-106 -159.5h-138zM733 1405q0 71 35.5 103t95.5 32q57 0 94 -32 t37 -103q0 -68 -37 -100.5t-94 -32.5q-60 0 -95.5 32.5t-35.5 100.5z" />
<glyph unicode="&#x386;" horiz-adv-x="1331" d="M0 0l475 1468h379l477 -1468h-313l-100 348h-504l-101 -348h-313zM489 608h357l-94 320q-6 18 -18 59t-25.5 90.5t-25.5 99.5t-17 85q-4 -22 -10.5 -52t-15 -63.5t-17.5 -67.5t-17 -64t-14.5 -53t-9.5 -34zM-56 1136v27q9 30 18 68.5t17.5 79t15 80.5t10.5 73h283v-21 q-31 -68 -72 -146.5t-94 -160.5h-178z" />
<glyph unicode="&#x387;" horiz-adv-x="584" d="M117 721q0 47 13.5 79.5t37.5 52.5t56 29t69 9q35 0 66.5 -9t55.5 -29t38 -52.5t14 -79.5q0 -45 -14 -77t-38 -53t-55.5 -30.5t-66.5 -9.5q-37 0 -69 9.5t-56 30.5t-37.5 53t-13.5 77z" />
<glyph unicode="&#x388;" horiz-adv-x="1290" d="M327 0v1462h842v-254h-532v-321h495v-254h-495v-377h532v-256h-842zM-58 1136v27q9 30 18 68.5t17.5 79t15 80.5t10.5 73h283v-21q-31 -68 -72 -146.5t-94 -160.5h-178z" />
<glyph unicode="&#x389;" horiz-adv-x="1608" d="M307 0v1462h310v-573h497v573h309v-1462h-309v631h-497v-631h-310zM-58 1136v27q9 30 18 68.5t17.5 79t15 80.5t10.5 73h283v-21q-31 -68 -72 -146.5t-94 -160.5h-178z" />
<glyph unicode="&#x38a;" horiz-adv-x="1049" d="M318 0v176l178 82v946l-178 82v176h665v-176l-178 -82v-946l178 -82v-176h-665zM-58 1136v27q9 30 18 68.5t17.5 79t15 80.5t10.5 73h283v-21q-31 -68 -72 -146.5t-94 -160.5h-178z" />
<glyph unicode="&#x38c;" horiz-adv-x="1630" d="M201 735q0 170 39.5 308.5t120.5 236.5t204.5 151.5t292.5 53.5q168 0 291 -53.5t203.5 -152t120 -237t39.5 -309.5q0 -169 -39.5 -308t-120.5 -238t-204.5 -153t-291.5 -54t-291.5 54t-204 153t-120 238.5t-39.5 309.5zM520 733q0 -115 20 -206.5t61.5 -155t104.5 -97.5 t150 -34q89 0 152.5 34t104 97.5t60 155t19.5 206.5t-19.5 206.5t-60 155.5t-103.5 98t-151 34q-87 0 -151 -34t-105.5 -98t-61.5 -155.5t-20 -206.5zM-58 1136v27q9 30 18 68.5t17.5 79t15 80.5t10.5 73h283v-21q-31 -68 -72 -146.5t-94 -160.5h-178z" />
<glyph unicode="&#x38e;" horiz-adv-x="1481" d="M285 1462h336l262 -602l264 602h334l-444 -893v-569h-308v559zM-58 1136v27q9 30 18 68.5t17.5 79t15 80.5t10.5 73h283v-21q-31 -68 -72 -146.5t-94 -160.5h-178z" />
<glyph unicode="&#x38f;" horiz-adv-x="1610" d="M145 0v260h371q-72 44 -131 106.5t-100 140.5t-63.5 170t-22.5 195q0 139 42 252t125 193.5t205.5 124t282.5 43.5q161 0 283 -43.5t205 -124t125 -194t42 -253.5q0 -103 -22.5 -194.5t-64.5 -169t-101 -139.5t-133 -107h375v-260h-644v279q77 40 129 95t83.5 122.5 t45 146t13.5 166.5q0 204 -80.5 311t-255.5 107t-255.5 -107t-80.5 -313q0 -88 13 -166.5t44 -145t82 -121t127 -95.5v-279h-639zM-58 1136v27q9 30 18 68.5t17.5 79t15 80.5t10.5 73h283v-21q-31 -68 -72 -146.5t-94 -160.5h-178z" />
<glyph unicode="&#x390;" horiz-adv-x="793" d="M160 350v768h305v-768q0 -65 32 -96t85 -31q45 0 85.5 10t82.5 25v-227q-44 -22 -107.5 -36.5t-138.5 -14.5q-73 0 -136 17t-109 59.5t-72.5 114t-26.5 179.5zM-57 1405q0 71 35.5 103t93.5 32q57 0 94 -32t37 -103q0 -68 -37 -100.5t-94 -32.5q-58 0 -93.5 32.5 t-35.5 100.5zM244 1389v26q9 30 18 68.5t17.5 79t15.5 80.5t11 73h262v-20q-31 -68 -80 -147.5t-106 -159.5h-138zM490 1405q0 71 35.5 103t95.5 32q57 0 94 -32t37 -103q0 -68 -37 -100.5t-94 -32.5q-60 0 -95.5 32.5t-35.5 100.5z" />
<glyph unicode="&#x391;" horiz-adv-x="1331" d="M0 0l475 1468h379l477 -1468h-313l-100 348h-504l-101 -348h-313zM489 608h357l-94 320q-6 18 -18 59t-25.5 90.5t-25.5 99.5t-17 85q-4 -22 -10.5 -52t-15 -63.5t-17.5 -67.5t-17 -64t-14.5 -53t-9.5 -34z" />
<glyph unicode="&#x392;" horiz-adv-x="1315" d="M184 0v1462h428q138 0 242 -19.5t174 -63t105.5 -114t35.5 -173.5q0 -62 -15 -116t-44 -95t-70.5 -68.5t-95.5 -36.5v-10q55 -12 102.5 -34.5t83 -62t56 -99.5t20.5 -146q0 -100 -35 -178.5t-100.5 -133t-159 -83.5t-211.5 -29h-516zM494 256h182q61 0 102.5 14t67 40 t36.5 63t11 82q0 41 -11 74.5t-37.5 57.5t-69.5 37t-107 13h-174v-381zM494 883h161q58 0 97 10.5t63 31.5t34.5 52.5t10.5 73.5q0 84 -52.5 120.5t-166.5 36.5h-147v-325z" />
<glyph unicode="&#x393;" horiz-adv-x="1067" d="M184 0v1462h842v-256h-532v-1206h-310z" />
<glyph unicode="&#x394;" horiz-adv-x="1266" d="M57 0v178l402 1290h350l399 -1292v-176h-1151zM373 258h520l-219 776q-3 11 -9.5 37t-13 55t-12 54t-6.5 34q-1 -9 -6 -34t-11.5 -54t-12.5 -55.5t-9 -38.5z" />
<glyph unicode="&#x395;" horiz-adv-x="1147" d="M184 0v1462h842v-254h-532v-321h495v-254h-495v-377h532v-256h-842z" />
<glyph unicode="&#x396;" horiz-adv-x="1104" d="M49 0v201l619 1005h-600v256h968v-200l-618 -1006h637v-256h-1006z" />
<glyph unicode="&#x397;" horiz-adv-x="1485" d="M184 0v1462h310v-573h497v573h309v-1462h-309v631h-497v-631h-310z" />
<glyph unicode="&#x398;" horiz-adv-x="1548" d="M119 735q0 170 39.5 308.5t120.5 236.5t204.5 151.5t292.5 53.5q168 0 291 -53.5t203.5 -152t120 -237t39.5 -309.5q0 -169 -39.5 -308t-120.5 -238t-204.5 -153t-291.5 -54t-291.5 54t-204 153t-120 238.5t-39.5 309.5zM438 733q0 -115 20 -206.5t61.5 -155t104.5 -97.5 t150 -34q89 0 152.5 34t104 97.5t60 155t19.5 206.5t-19.5 206.5t-60 155.5t-103.5 98t-151 34q-87 0 -151 -34t-105.5 -98t-61.5 -155.5t-20 -206.5zM555 616v254h438v-254h-438z" />
<glyph unicode="&#x399;" horiz-adv-x="797" d="M66 0v176l178 82v946l-178 82v176h665v-176l-178 -82v-946l178 -82v-176h-665z" />
<glyph unicode="&#x39a;" horiz-adv-x="1298" d="M184 0v1462h310v-704l122 207l334 497h344l-467 -659l471 -803h-352l-336 608l-116 -86v-522h-310z" />
<glyph unicode="&#x39b;" horiz-adv-x="1249" d="M0 0l455 1462h338l456 -1462h-313l-244 881q-5 18 -14.5 58t-19.5 87.5t-19 95t-14 80.5q-5 -33 -14 -81t-18.5 -95.5t-18 -87.5t-13.5 -57l-248 -881h-313z" />
<glyph unicode="&#x39c;" horiz-adv-x="1870" d="M184 0v1462h422l316 -1118h6l336 1118h422v-1462h-289v692q0 26 0.5 59t1.5 70t2.5 75t2.5 74q4 84 7 175h-8l-346 -1145h-285l-321 1147h-9q6 -92 10 -178q2 -37 3.5 -76t3 -77t2 -73t0.5 -63v-680h-277z" />
<glyph unicode="&#x39d;" horiz-adv-x="1604" d="M184 0v1462h391l574 -1095h6q-3 76 -7 150q-1 32 -2.5 65.5t-2.5 67t-1.5 64.5t-0.5 56v692h278v-1462h-393l-575 1106h-9q6 -77 10 -153q4 -65 6.5 -136.5t2.5 -128.5v-688h-277z" />
<glyph unicode="&#x39e;" horiz-adv-x="1087" d="M82 0v256h924v-256h-924zM123 1208v254h842v-254h-842zM205 633v254h678v-254h-678z" />
<glyph unicode="&#x39f;" horiz-adv-x="1548" d="M119 735q0 170 39.5 308.5t120.5 236.5t204.5 151.5t292.5 53.5q168 0 291 -53.5t203.5 -152t120 -237t39.5 -309.5q0 -169 -39.5 -308t-120.5 -238t-204.5 -153t-291.5 -54t-291.5 54t-204 153t-120 238.5t-39.5 309.5zM438 733q0 -115 20 -206.5t61.5 -155t104.5 -97.5 t150 -34q89 0 152.5 34t104 97.5t60 155t19.5 206.5t-19.5 206.5t-60 155.5t-103.5 98t-151 34q-87 0 -151 -34t-105.5 -98t-61.5 -155.5t-20 -206.5z" />
<glyph unicode="&#x3a0;" horiz-adv-x="1444" d="M184 0v1462h1076v-1462h-310v1204h-456v-1204h-310z" />
<glyph unicode="&#x3a1;" horiz-adv-x="1225" d="M184 0v1462h406q141 0 243.5 -31.5t169 -90t98.5 -143t32 -191.5q0 -96 -29 -184t-95.5 -155t-175 -107t-268.5 -40h-71v-520h-310zM494 774h61q131 0 197.5 52t66.5 169q0 109 -59.5 161t-186.5 52h-79v-434z" />
<glyph unicode="&#x3a3;" horiz-adv-x="1133" d="M78 0v244l434 522l-422 459v237h914v-254h-390q-18 0 -51.5 2t-65.5 4q-38 3 -81 5l418 -451l-441 -524q54 3 103 6q21 1 43 2t42 2t37 1.5t29 0.5h416v-256h-985z" />
<glyph unicode="&#x3a4;" horiz-adv-x="1124" d="M41 1204v258h1042v-258h-366v-1204h-309v1204h-367z" />
<glyph unicode="&#x3a5;" horiz-adv-x="1196" d="M0 1462h336l262 -602l264 602h334l-444 -893v-569h-308v559z" />
<glyph unicode="&#x3a6;" horiz-adv-x="1679" d="M92 758q0 102 33 200t101.5 174.5t174 123.5t250.5 47h49v180h279v-180h49q145 0 250.5 -47t174 -123.5t101.5 -174.5t33 -200q0 -61 -13 -125.5t-41.5 -126t-74 -116.5t-111 -96t-152 -65t-196.5 -24h-20v-225h-279v225h-20q-110 0 -196.5 24t-151.5 65t-111 96 t-74.5 116.5t-41.5 126t-13 125.5zM383 760q0 -67 19 -125t57 -100.5t95 -66.5t134 -24h12v617h-36q-72 0 -125 -24.5t-87.5 -66t-51.5 -96t-17 -114.5zM979 444h12q77 0 134 24t95 66.5t57 100.5t19 125q0 60 -16.5 114.5t-51 96t-87.5 66t-125 24.5h-37v-617z" />
<glyph unicode="&#x3a7;" horiz-adv-x="1284" d="M0 0l444 754l-413 708h342l274 -526l268 526h334l-418 -725l453 -737h-354l-299 553l-299 -553h-332z" />
<glyph unicode="&#x3a8;" horiz-adv-x="1712" d="M109 979v483h290v-479q0 -88 19.5 -145.5t56.5 -91t91 -47t124 -13.5h27v776h278v-776h27q62 0 115.5 12.5t92.5 45.5t61 90t22 145v483h291v-479q0 -130 -30.5 -231.5t-98 -171.5t-174.5 -107t-259 -37h-47v-436h-278v436h-47q-152 0 -259 36t-174 105.5t-97.5 170.5 t-30.5 231z" />
<glyph unicode="&#x3a9;" horiz-adv-x="1520" d="M55 0v260h371q-72 44 -131 106.5t-100 140.5t-63.5 170t-22.5 195q0 139 42 252t125 193.5t205.5 124t282.5 43.5q161 0 283 -43.5t205 -124t125 -194t42 -253.5q0 -103 -22.5 -194.5t-64.5 -169t-101 -139.5t-133 -107h375v-260h-644v279q77 40 129 95t83.5 122.5 t45 146t13.5 166.5q0 204 -80.5 311t-255.5 107t-255.5 -107t-80.5 -313q0 -88 13 -166.5t44 -145t82 -121t127 -95.5v-279h-639z" />
<glyph unicode="&#x3aa;" horiz-adv-x="797" d="M66 0v176l178 82v946l-178 82v176h665v-176l-178 -82v-946l178 -82v-176h-665zM54 1743q0 35 11 60.5t29.5 42t44 24.5t54.5 8t54.5 -8t44.5 -24.5t30.5 -42t11.5 -60.5q0 -34 -11.5 -59t-30.5 -41.5t-44.5 -24.5t-54.5 -8t-54.5 8t-44 24.5t-29.5 41.5t-11 59zM457 1743 q0 35 11 60.5t30 42t45 24.5t56 8q28 0 53.5 -8t45 -24.5t31 -42t11.5 -60.5q0 -34 -11.5 -59t-31 -41.5t-45 -24.5t-53.5 -8q-60 0 -101 33t-41 100z" />
<glyph unicode="&#x3ab;" horiz-adv-x="1196" d="M0 1462h336l262 -602l264 602h334l-444 -893v-569h-308v559zM256 1743q0 35 11 60.5t29.5 42t44 24.5t54.5 8t54.5 -8t44.5 -24.5t30.5 -42t11.5 -60.5q0 -34 -11.5 -59t-30.5 -41.5t-44.5 -24.5t-54.5 -8t-54.5 8t-44 24.5t-29.5 41.5t-11 59zM659 1743q0 35 11 60.5 t30 42t45 24.5t56 8q28 0 53.5 -8t45 -24.5t31 -42t11.5 -60.5q0 -34 -11.5 -59t-31 -41.5t-45 -24.5t-53.5 -8q-60 0 -101 33t-41 100z" />
<glyph unicode="&#x3ac;" horiz-adv-x="1274" d="M102 555q0 143 29.5 251.5t85 182t134.5 111t177 37.5q55 0 99.5 -10.5t80.5 -31.5t64.5 -52.5t52.5 -73.5h13q9 35 25.5 76.5t41.5 72.5h252q-12 -33 -24.5 -82t-23 -108.5t-17.5 -126.5t-7 -135v-312q0 -34 7 -57t18.5 -36.5t26.5 -19t32 -5.5q14 0 33 3.5t27 6.5v-240 q-8 -4 -24 -9t-35.5 -8.5t-40 -6t-37.5 -2.5q-52 0 -93 8t-73.5 27.5t-56.5 51.5t-42 80h-18q-21 -34 -49.5 -64.5t-65 -53.5t-83 -36t-105.5 -13q-91 0 -165.5 37t-127.5 109.5t-82 180t-29 248.5zM414 553q0 -165 45.5 -247.5t142.5 -82.5q55 0 92.5 19t60.5 58.5t34 100 t12 144.5v12q0 81 -9.5 144t-33 105.5t-62 64.5t-96.5 22q-96 0 -141 -86.5t-45 -253.5zM541 1241v27q9 30 18 68.5t17.5 79t15 80.5t10.5 73h283v-21q-31 -68 -72 -146.5t-94 -160.5h-178z" />
<glyph unicode="&#x3ad;" horiz-adv-x="1075" d="M78 309q0 62 19.5 107t55 77.5t86 52.5t111.5 32v10q-108 25 -160.5 91.5t-52.5 166.5q0 80 36.5 135.5t99 90.5t146 51t177.5 16q54 0 109 -6t107 -17t99.5 -26.5t87.5 -34.5l-86 -221q-66 30 -140.5 54.5t-160.5 24.5q-46 0 -83.5 -5.5t-63.5 -18t-40.5 -32 t-14.5 -48.5q0 -66 57 -93.5t180 -27.5h131v-211h-145q-136 0 -195 -36.5t-59 -104.5q0 -28 13 -50t42.5 -38t76 -24.5t112.5 -8.5q57 0 110 7.5t101 19.5t89.5 27.5t73.5 31.5v-244q-72 -35 -174.5 -56t-232.5 -21q-135 0 -232 23.5t-159.5 66t-91.5 103.5t-29 136z M477 1241v27q9 30 18 68.5t17.5 79t15 80.5t10.5 73h283v-21q-31 -68 -72 -146.5t-94 -160.5h-178z" />
<glyph unicode="&#x3ae;" horiz-adv-x="1284" d="M160 0v1118h233l41 -143h17q24 42 57.5 73t73.5 51t85 30t93 10q186 0 278 -103.5t92 -316.5v-1211h-305v1139q0 124 -37.5 186t-117.5 62q-58 0 -97.5 -24t-63.5 -71t-34 -116t-10 -158v-526h-305zM539 1241v27q9 30 18 68.5t17.5 79t15 80.5t10.5 73h283v-21 q-31 -68 -72 -146.5t-94 -160.5h-178z" />
<glyph unicode="&#x3af;" horiz-adv-x="793" d="M160 350v768h305v-768q0 -65 32 -96t85 -31q45 0 85.5 10t82.5 25v-227q-44 -22 -107.5 -36.5t-138.5 -14.5q-73 0 -136 17t-109 59.5t-72.5 114t-26.5 179.5zM206 1241v27q9 30 18 68.5t17.5 79t15 80.5t10.5 73h283v-21q-31 -68 -72 -146.5t-94 -160.5h-178z" />
<glyph unicode="&#x3b0;" horiz-adv-x="1270" d="M143 510v608h306v-618q0 -146 46 -210.5t144 -64.5q51 0 90 21t65 67t39 120.5t13 180.5q0 66 -5 128t-14.5 123t-23 123.5t-29.5 129.5h307q17 -67 30 -128.5t22 -123t13.5 -125t4.5 -135.5q0 -161 -33.5 -279t-99.5 -194.5t-163.5 -113.5t-225.5 -37q-142 0 -236 40.5 t-149.5 112t-78 168t-22.5 207.5zM223 1405q0 71 35.5 103t93.5 32q57 0 94 -32t37 -103q0 -68 -37 -100.5t-94 -32.5q-58 0 -93.5 32.5t-35.5 100.5zM524 1389v26q9 30 18 68.5t17.5 79t15.5 80.5t11 73h262v-20q-31 -68 -80 -147.5t-106 -159.5h-138zM770 1405 q0 71 35.5 103t95.5 32q57 0 94 -32t37 -103q0 -68 -37 -100.5t-94 -32.5q-60 0 -95.5 32.5t-35.5 100.5z" />
<glyph unicode="&#x3b1;" horiz-adv-x="1274" d="M102 555q0 143 29.5 251.5t85 182t134.5 111t177 37.5q55 0 99.5 -10.5t80.5 -31.5t64.5 -52.5t52.5 -73.5h13q9 35 25.5 76.5t41.5 72.5h252q-12 -33 -24.5 -82t-23 -108.5t-17.5 -126.5t-7 -135v-312q0 -34 7 -57t18.5 -36.5t26.5 -19t32 -5.5q14 0 33 3.5t27 6.5v-240 q-8 -4 -24 -9t-35.5 -8.5t-40 -6t-37.5 -2.5q-52 0 -93 8t-73.5 27.5t-56.5 51.5t-42 80h-18q-21 -34 -49.5 -64.5t-65 -53.5t-83 -36t-105.5 -13q-91 0 -165.5 37t-127.5 109.5t-82 180t-29 248.5zM414 553q0 -165 45.5 -247.5t142.5 -82.5q55 0 92.5 19t60.5 58.5t34 100 t12 144.5v12q0 81 -9.5 144t-33 105.5t-62 64.5t-96.5 22q-96 0 -141 -86.5t-45 -253.5z" />
<glyph unicode="&#x3b2;" horiz-adv-x="1290" d="M160 -492v1588q0 123 38.5 212t106 146.5t159.5 85t200 27.5q103 0 190 -24.5t150.5 -73.5t99 -123t35.5 -172q0 -149 -76.5 -235.5t-216.5 -109.5v-6q87 -10 156 -38t117 -75t74 -116t26 -162q0 -108 -32 -192t-91.5 -141.5t-143 -88t-186.5 -30.5q-91 0 -167.5 16 t-133.5 47v-535h-305zM465 293q22 -16 49.5 -29t56.5 -22t57.5 -14t53.5 -5q112 0 166.5 62t54.5 174q0 63 -20.5 106t-56 69.5t-82.5 38t-101 11.5h-72v242h54q54 0 93 15.5t65 43t38.5 66.5t12.5 86q0 97 -49 144.5t-130 47.5q-39 0 -73.5 -12t-60.5 -41.5t-41 -80 t-15 -128.5v-774z" />
<glyph unicode="&#x3b3;" horiz-adv-x="1102" d="M2 1118h317l146 -493q12 -41 26 -95t26.5 -108t22 -100.5t13.5 -73.5h6q2 32 9 73.5t18 89t24.5 98.5t28.5 101l145 508h318l-389 -1100q-22 -62 -39.5 -130t-29 -135t-17.5 -130t-6 -115h-324q0 42 7.5 102.5t21 129t32 139t39.5 133.5z" />
<glyph unicode="&#x3b4;" horiz-adv-x="1227" d="M102 438q0 106 28 185.5t76.5 137t115 95.5t143.5 62q-41 30 -78.5 65.5t-66 78t-45.5 92t-17 106.5q0 74 30.5 131.5t86 96.5t133.5 59t174 20q65 0 121.5 -8t108 -22t100.5 -34.5t100 -46.5l-108 -215q-84 45 -161.5 72.5t-156.5 27.5q-37 0 -62 -8t-41 -22t-23 -32 t-7 -38q0 -27 15.5 -53t47 -53.5t78.5 -57.5t109 -65q166 -94 243.5 -217t77.5 -283q0 -138 -36.5 -238t-104 -165.5t-163 -97t-212.5 -31.5q-110 0 -202.5 30.5t-160 89t-105.5 143.5t-38 195zM416 451q0 -48 13 -89.5t38 -72t61 -47.5t82 -17q97 0 150 68t53 199 q0 53 -12.5 97.5t-35.5 81.5t-55 67t-71 55q-36 -12 -75.5 -36.5t-72 -65.5t-54 -100t-21.5 -140z" />
<glyph unicode="&#x3b5;" horiz-adv-x="1075" d="M78 309q0 62 19.5 107t55 77.5t86 52.5t111.5 32v10q-108 25 -160.5 91.5t-52.5 166.5q0 80 36.5 135.5t99 90.5t146 51t177.5 16q54 0 109 -6t107 -17t99.5 -26.5t87.5 -34.5l-86 -221q-66 30 -140.5 54.5t-160.5 24.5q-46 0 -83.5 -5.5t-63.5 -18t-40.5 -32 t-14.5 -48.5q0 -66 57 -93.5t180 -27.5h131v-211h-145q-136 0 -195 -36.5t-59 -104.5q0 -28 13 -50t42.5 -38t76 -24.5t112.5 -8.5q57 0 110 7.5t101 19.5t89.5 27.5t73.5 31.5v-244q-72 -35 -174.5 -56t-232.5 -21q-135 0 -232 23.5t-159.5 66t-91.5 103.5t-29 136z" />
<glyph unicode="&#x3b6;" horiz-adv-x="969" d="M102 467q0 131 41 250t111 228.5t162 210t194 194.5q-16 -5 -42 -8t-54 -5t-54.5 -3t-43.5 -1h-256v223h792v-182q-121 -112 -208 -209t-146.5 -181.5t-95.5 -157t-55 -134.5t-25 -114.5t-6 -96.5q0 -74 17.5 -119t50.5 -71.5t79.5 -40.5t104.5 -27q82 -18 137.5 -44 t89.5 -58.5t48.5 -72t14.5 -85.5q0 -45 -12 -90.5t-31 -90t-43.5 -85.5t-50.5 -76h-307q29 39 56 80.5t47.5 80.5t32.5 73.5t12 60.5q0 13 -6 25t-23 23.5t-49 22t-84 21.5q-93 18 -167 54t-125 92.5t-78.5 134t-27.5 178.5z" />
<glyph unicode="&#x3b7;" horiz-adv-x="1284" d="M160 0v1118h233l41 -143h17q24 42 57.5 73t73.5 51t85 30t93 10q186 0 278 -103.5t92 -316.5v-1211h-305v1139q0 124 -37.5 186t-117.5 62q-58 0 -97.5 -24t-63.5 -71t-34 -116t-10 -158v-526h-305z" />
<glyph unicode="&#x3b8;" horiz-adv-x="1225" d="M102 780q0 188 28 336.5t89 251.5t157.5 157t233.5 54q129 0 225 -53.5t160 -156t95.5 -251t31.5 -338.5q0 -188 -28 -336.5t-89.5 -251.5t-159 -157.5t-235.5 -54.5q-129 0 -224.5 54.5t-158.5 157.5t-94 251.5t-31 336.5zM414 672q3 -235 48 -353t148 -118 q102 0 148 116.5t51 354.5h-395zM416 899h393q-6 230 -52 344.5t-145 114.5q-100 0 -145 -114.5t-51 -344.5z" />
<glyph unicode="&#x3b9;" horiz-adv-x="793" d="M160 350v768h305v-768q0 -65 32 -96t85 -31q45 0 85.5 10t82.5 25v-227q-44 -22 -107.5 -36.5t-138.5 -14.5q-73 0 -136 17t-109 59.5t-72.5 114t-26.5 179.5z" />
<glyph unicode="&#x3ba;" horiz-adv-x="1208" d="M160 0v1118h305v-293q0 -40 -2.5 -85.5t-5.5 -84.5q-4 -46 -8 -90h4l127 195l276 358h326l-404 -497l430 -621h-344l-280 418l-119 -82v-336h-305z" />
<glyph unicode="&#x3bb;" horiz-adv-x="1198" d="M8 0l443 1057l-33 92q-19 53 -39.5 85t-44.5 49.5t-53 23.5t-66 6q-26 0 -51 -4t-43 -9v252q13 3 32.5 6.5t41.5 5.5t44 3.5t40 1.5q92 0 158 -24t114.5 -70t83 -112.5t63.5 -152.5l265 -772q21 -64 41 -103.5t39.5 -61.5t38.5 -29.5t40 -7.5q14 0 31.5 2.5t34.5 7.5 v-236q-12 -6 -32.5 -11.5t-44.5 -9.5t-48.5 -6.5t-42.5 -2.5q-59 0 -103 16t-76.5 46t-56 72t-41.5 93l-92 272q-23 66 -41.5 125.5t-27.5 110.5h-7q-7 -27 -15 -57t-16.5 -60t-17.5 -59t-18 -54l-184 -485h-316z" />
<glyph unicode="&#x3bc;" horiz-adv-x="1290" d="M160 -492v1610h305v-653q0 -121 37.5 -181.5t118.5 -60.5q58 0 97 24t63 71t34 116t10 158v526h305v-1118h-233l-43 150h-12q-35 -85 -87.5 -127.5t-127.5 -42.5q-54 0 -99 23t-73 67q2 -42 5 -85q2 -37 3.5 -79t1.5 -78v-320h-305z" />
<glyph unicode="&#x3bd;" horiz-adv-x="1157" d="M6 1118h313l191 -620q7 -23 15.5 -54t16.5 -62.5t16 -61t13 -50.5h9q51 77 87.5 164.5t59 190.5t33 225t10.5 268h307q0 -166 -18.5 -313t-65 -283t-125 -264.5t-198.5 -257.5h-275z" />
<glyph unicode="&#x3be;" horiz-adv-x="969" d="M102 438q0 68 20.5 125t58 103.5t89.5 82t115 60.5v10q-105 25 -162 88t-57 166q0 55 17 97.5t52 75.5t90 57.5t130 42.5q-64 -3 -119 -6q-23 -1 -46.5 -2.5t-44.5 -2.5t-37.5 -1.5t-25.5 -0.5h-22v223h743v-210h-65q-73 0 -140 -16t-118 -47.5t-81 -79t-30 -111.5 q0 -43 11 -76t38.5 -55.5t73.5 -34t115 -11.5h143v-210h-148q-151 0 -218.5 -61.5t-67.5 -184.5q0 -66 17.5 -106t50.5 -64.5t79.5 -38.5t104.5 -27q82 -18 137.5 -44t89.5 -58.5t48.5 -72t14.5 -85.5q0 -45 -12 -90.5t-31 -90t-43.5 -85.5t-50.5 -76h-307q29 39 56 80.5 t47.5 80.5t32.5 73.5t12 60.5q0 13 -6 25t-23 23.5t-49 22t-84 21.5q-93 18 -167 53t-125 88.5t-78.5 125t-27.5 163.5z" />
<glyph unicode="&#x3bf;" horiz-adv-x="1227" d="M102 561q0 139 35.5 247t102 181.5t161.5 111.5t215 38q111 0 204 -38t160.5 -111.5t105.5 -181.5t38 -247q0 -140 -35.5 -248t-102 -182t-162 -112.5t-214.5 -38.5q-111 0 -204 38.5t-160.5 112.5t-105.5 182t-38 248zM414 561q0 -167 47 -251.5t153 -84.5q105 0 152 85 t47 251q0 167 -47 249.5t-154 82.5q-105 0 -151.5 -82.5t-46.5 -249.5z" />
<glyph unicode="&#x3c0;" horiz-adv-x="1452" d="M25 885v131l178 102h1177v-233h-235v-566q0 -51 27 -75.5t67 -24.5q35 0 67.5 9.5t61.5 25.5v-219q-18 -11 -42.5 -21t-54 -17.5t-61 -12t-63.5 -4.5q-71 0 -128 19t-96.5 58.5t-61 101.5t-21.5 148v578h-277v-885h-305v885h-233z" />
<glyph unicode="&#x3c1;" horiz-adv-x="1214" d="M121 -492v1053q0 138 35.5 245.5t101 181.5t158 112.5t207.5 38.5q106 0 195.5 -38.5t155 -113t102 -182.5t36.5 -246q0 -139 -29.5 -247t-85 -181.5t-134.5 -112t-177 -38.5q-72 0 -139.5 21.5t-118.5 55.5h-16q4 -43 8 -89q3 -39 5.5 -86.5t2.5 -92.5v-281h-307z M428 311q37 -43 86.5 -64.5t101.5 -21.5q48 0 83 19t57 59.5t32.5 103.5t10.5 152t-10.5 152.5t-32.5 104t-57 59t-83 18.5t-83 -18t-58.5 -56.5t-35 -98.5t-11.5 -145v-264z" />
<glyph unicode="&#x3c2;" horiz-adv-x="969" d="M102 494q0 184 37.5 308t106 199t165 106.5t214.5 31.5q86 0 171 -21t160 -59l-88 -232q-66 29 -127 47.5t-116 18.5q-111 0 -161 -98t-50 -293q0 -69 18 -112.5t51 -70t80 -42t105 -29.5q82 -19 137.5 -46t89.5 -61t48.5 -75t14.5 -89q0 -46 -12 -93.5t-31 -93.5 t-43.5 -89t-50.5 -80h-307q29 42 56 85.5t47.5 85t32.5 77.5t12 63q0 14 -6 27t-23 25t-49 23.5t-84 23.5q-93 20 -167 58t-125 95.5t-78.5 134.5t-27.5 175z" />
<glyph unicode="&#x3c3;" horiz-adv-x="1286" d="M102 545q0 154 41.5 263t119 178.5t188 101.5t249.5 32h545v-223h-284q37 -39 69.5 -83.5t57 -96.5t39 -112t14.5 -130q0 -105 -34 -195.5t-100 -157t-163.5 -104.5t-225.5 -38q-116 0 -211 36t-163 107.5t-105 177t-37 244.5zM416 545q0 -72 12 -131t37 -101t64 -65 t94 -23q54 0 92.5 21.5t63 60.5t36.5 93.5t12 121.5q0 123 -28.5 211.5t-81.5 163.5h-43q-67 0 -116 -18t-80.5 -59t-46.5 -108.5t-15 -166.5z" />
<glyph unicode="&#x3c4;" horiz-adv-x="1061" d="M41 889v127l168 102h774v-229h-356v-539q0 -65 32 -96t84 -31q45 0 85.5 10t82.5 25v-227q-43 -22 -106.5 -36.5t-138.5 -14.5q-73 0 -136 17t-109 59.5t-72.5 114t-26.5 179.5v539h-281z" />
<glyph unicode="&#x3c5;" horiz-adv-x="1270" d="M143 510v608h306v-618q0 -146 46 -210.5t144 -64.5q51 0 90 21t65 67t39 120.5t13 180.5q0 66 -5 128t-14.5 123t-23 123.5t-29.5 129.5h307q17 -67 30 -128.5t22 -123t13.5 -125t4.5 -135.5q0 -161 -33.5 -279t-99.5 -194.5t-163.5 -113.5t-225.5 -37q-142 0 -236 40.5 t-149.5 112t-78 168t-22.5 207.5z" />
<glyph unicode="&#x3c6;" horiz-adv-x="1581" d="M102 555q0 87 16.5 166.5t47 152t73 139.5t93.5 130l221 -144q-39 -53 -69.5 -104.5t-51.5 -106t-32 -113t-11 -126.5q0 -79 18.5 -136.5t51 -97t76 -62.5t94.5 -34v516q0 98 29 173t80 125.5t121.5 76t154.5 25.5q107 0 193 -37.5t146.5 -108t93 -171t32.5 -226.5 q0 -144 -46.5 -252t-125 -182.5t-181.5 -116.5t-215 -53v-480h-282v480q-112 13 -208.5 51t-167 106.5t-111 169.5t-40.5 240zM911 219q63 6 114 36t86.5 79t55 114t19.5 142q0 66 -8.5 124.5t-28 103t-51.5 70t-78 25.5q-51 0 -80 -39.5t-29 -136.5v-518z" />
<glyph unicode="&#x3c7;" horiz-adv-x="1151" d="M-49 -492l471 885l-123 352q-13 39 -28.5 64.5t-33 40.5t-37 21t-40.5 6q-19 0 -47.5 -4t-59.5 -15v244q42 12 83.5 21.5t92.5 9.5q69 0 117.5 -16.5t83 -51.5t60 -89.5t49.5 -129.5l69 -221l248 493h307l-424 -762l183 -475q13 -34 27.5 -56.5t32.5 -36t39.5 -19 t47.5 -5.5q20 0 41.5 2.5t52.5 10.5v-238q-21 -8 -40.5 -13.5t-41.5 -9.5t-46.5 -6t-55.5 -2q-64 0 -114 18.5t-88 55t-66.5 91.5t-51.5 128l-100 326l-283 -619h-325z" />
<glyph unicode="&#x3c8;" horiz-adv-x="1663" d="M143 555v563h291v-571q0 -87 13.5 -147.5t44 -99.5t80 -59t122.5 -26v1339h283v-1337q74 8 128 29.5t89.5 63t52.5 107t17 161.5q0 135 -22.5 266.5t-57.5 273.5h282q41 -144 59.5 -275.5t18.5 -267.5q0 -157 -44 -267t-120.5 -180t-180 -104.5t-222.5 -41.5v-474h-283 v474q-120 4 -221.5 36.5t-174.5 100.5t-114 175t-41 261z" />
<glyph unicode="&#x3c9;" horiz-adv-x="1726" d="M119 543q0 82 6.5 154.5t20.5 141.5t35 137.5t50 141.5h293q-65 -136 -95 -274t-30 -291q0 -75 10.5 -136.5t32 -106t55.5 -69t81 -24.5q42 0 70 16.5t44.5 48.5t23.5 78.5t7 106.5v295h281v-295q0 -60 7 -106.5t23.5 -78.5t44.5 -48.5t70 -16.5q47 0 80.5 24.5 t55.5 68.5t32 105t10 134q0 152 -30 292.5t-95 276.5h293q29 -73 50.5 -141.5t35.5 -137.5t20.5 -141.5t6.5 -154.5q0 -124 -27.5 -227.5t-81.5 -178t-135 -116t-188 -41.5q-63 0 -112 14.5t-86.5 42t-64 66.5t-45.5 87h-10q-18 -48 -45 -87t-64 -66.5t-86 -42t-112 -14.5 q-108 0 -189 41.5t-135 116t-81 178t-27 227.5z" />
<glyph unicode="&#x3ca;" horiz-adv-x="793" d="M160 350v768h305v-768q0 -65 32 -96t85 -31q45 0 85.5 10t82.5 25v-227q-44 -22 -107.5 -36.5t-138.5 -14.5q-73 0 -136 17t-109 59.5t-72.5 114t-26.5 179.5zM3 1405q0 35 11 60.5t29.5 42t44 24.5t54.5 8t54.5 -8t44.5 -24.5t30.5 -42t11.5 -60.5q0 -34 -11.5 -59 t-30.5 -41.5t-44.5 -24.5t-54.5 -8t-54.5 8t-44 24.5t-29.5 41.5t-11 59zM406 1405q0 35 11 60.5t30 42t45 24.5t56 8q28 0 53.5 -8t45 -24.5t31 -42t11.5 -60.5q0 -34 -11.5 -59t-31 -41.5t-45 -24.5t-53.5 -8q-60 0 -101 33t-41 100z" />
<glyph unicode="&#x3cb;" horiz-adv-x="1270" d="M143 510v608h306v-618q0 -146 46 -210.5t144 -64.5q51 0 90 21t65 67t39 120.5t13 180.5q0 66 -5 128t-14.5 123t-23 123.5t-29.5 129.5h307q17 -67 30 -128.5t22 -123t13.5 -125t4.5 -135.5q0 -161 -33.5 -279t-99.5 -194.5t-163.5 -113.5t-225.5 -37q-142 0 -236 40.5 t-149.5 112t-78 168t-22.5 207.5zM293 1405q0 35 11 60.5t29.5 42t44 24.5t54.5 8t54.5 -8t44.5 -24.5t30.5 -42t11.5 -60.5q0 -34 -11.5 -59t-30.5 -41.5t-44.5 -24.5t-54.5 -8t-54.5 8t-44 24.5t-29.5 41.5t-11 59zM696 1405q0 35 11 60.5t30 42t45 24.5t56 8 q28 0 53.5 -8t45 -24.5t31 -42t11.5 -60.5q0 -34 -11.5 -59t-31 -41.5t-45 -24.5t-53.5 -8q-60 0 -101 33t-41 100z" />
<glyph unicode="&#x3cc;" horiz-adv-x="1227" d="M102 561q0 139 35.5 247t102 181.5t161.5 111.5t215 38q111 0 204 -38t160.5 -111.5t105.5 -181.5t38 -247q0 -140 -35.5 -248t-102 -182t-162 -112.5t-214.5 -38.5q-111 0 -204 38.5t-160.5 112.5t-105.5 182t-38 248zM414 561q0 -167 47 -251.5t153 -84.5q105 0 152 85 t47 251q0 167 -47 249.5t-154 82.5q-105 0 -151.5 -82.5t-46.5 -249.5zM506 1241v27q9 30 18 68.5t17.5 79t15 80.5t10.5 73h283v-21q-31 -68 -72 -146.5t-94 -160.5h-178z" />
<glyph unicode="&#x3cd;" horiz-adv-x="1270" d="M143 510v608h306v-618q0 -146 46 -210.5t144 -64.5q51 0 90 21t65 67t39 120.5t13 180.5q0 66 -5 128t-14.5 123t-23 123.5t-29.5 129.5h307q17 -67 30 -128.5t22 -123t13.5 -125t4.5 -135.5q0 -161 -33.5 -279t-99.5 -194.5t-163.5 -113.5t-225.5 -37q-142 0 -236 40.5 t-149.5 112t-78 168t-22.5 207.5zM522 1241v27q9 30 18 68.5t17.5 79t15 80.5t10.5 73h283v-21q-31 -68 -72 -146.5t-94 -160.5h-178z" />
<glyph unicode="&#x3ce;" horiz-adv-x="1726" d="M119 543q0 82 6.5 154.5t20.5 141.5t35 137.5t50 141.5h293q-65 -136 -95 -274t-30 -291q0 -75 10.5 -136.5t32 -106t55.5 -69t81 -24.5q42 0 70 16.5t44.5 48.5t23.5 78.5t7 106.5v295h281v-295q0 -60 7 -106.5t23.5 -78.5t44.5 -48.5t70 -16.5q47 0 80.5 24.5 t55.5 68.5t32 105t10 134q0 152 -30 292.5t-95 276.5h293q29 -73 50.5 -141.5t35.5 -137.5t20.5 -141.5t6.5 -154.5q0 -124 -27.5 -227.5t-81.5 -178t-135 -116t-188 -41.5q-63 0 -112 14.5t-86.5 42t-64 66.5t-45.5 87h-10q-18 -48 -45 -87t-64 -66.5t-86 -42t-112 -14.5 q-108 0 -189 41.5t-135 116t-81 178t-27 227.5zM768 1241v27q9 30 18 68.5t17.5 79t15 80.5t10.5 73h283v-21q-31 -68 -72 -146.5t-94 -160.5h-178z" />
<glyph unicode="&#x401;" horiz-adv-x="1147" d="M184 0v1462h842v-254h-532v-321h495v-254h-495v-377h532v-256h-842zM273 1743q0 35 11 60.5t29.5 42t44 24.5t54.5 8t54.5 -8t44.5 -24.5t30.5 -42t11.5 -60.5q0 -34 -11.5 -59t-30.5 -41.5t-44.5 -24.5t-54.5 -8t-54.5 8t-44 24.5t-29.5 41.5t-11 59zM676 1743 q0 35 11 60.5t30 42t45 24.5t56 8q28 0 53.5 -8t45 -24.5t31 -42t11.5 -60.5q0 -34 -11.5 -59t-31 -41.5t-45 -24.5t-53.5 -8q-60 0 -101 33t-41 100z" />
<glyph unicode="&#x402;" horiz-adv-x="1567" d="M41 1204v258h1032v-258h-356v-272h303q104 0 185 -26.5t137.5 -77.5t86 -124.5t29.5 -166.5v-129q0 -209 -102.5 -317.5t-304.5 -108.5q-53 0 -105 9t-98 29v256q46 -20 90.5 -31.5t81.5 -11.5q25 0 48.5 4t41.5 20t28.5 46.5t10.5 83.5v127q0 89 -35 124.5t-115 35.5 h-282v-674h-309v1204h-367z" />
<glyph unicode="&#x403;" horiz-adv-x="1067" d="M184 0v1462h842v-256h-532v-1206h-310zM424 1579v27q21 29 45 67t47.5 78.5t44.5 81t37 74.5h342v-21q-11 -18 -32 -42.5t-48 -52.5t-58 -57.5t-62.5 -57.5t-60.5 -53t-52 -44h-203z" />
<glyph unicode="&#x404;" horiz-adv-x="1305" d="M119 729q0 166 45 304.5t132 238.5t215 155.5t294 55.5q109 0 218.5 -27.5t209.5 -75.5l-100 -252q-82 39 -165 68t-163 29q-75 0 -137 -24.5t-108.5 -70.5t-75.5 -113t-38 -153h551v-254h-553q11 -179 102 -275.5t259 -96.5q89 0 178.5 20t194.5 57v-260 q-48 -20 -95 -34t-96 -23t-100.5 -13.5t-110.5 -4.5q-169 0 -293 54t-205 152t-120 236t-39 307z" />
<glyph unicode="&#x405;" horiz-adv-x="1073" d="M94 68v288q48 -23 97 -44.5t99.5 -38.5t101 -27t100.5 -10q51 0 87.5 11.5t59 32t33 49t10.5 62.5q0 41 -17.5 72.5t-49 59t-76 53.5t-99.5 55q-46 24 -103 58t-107.5 84.5t-84.5 122t-34 171.5q0 98 32.5 175.5t92.5 131t145.5 81.5t191.5 28q53 0 103.5 -7t100 -20 t99.5 -32t103 -44l-100 -241q-45 21 -84 37t-76 27t-72.5 16.5t-71.5 5.5q-78 0 -119.5 -41.5t-41.5 -110.5q0 -37 12.5 -65.5t40 -53.5t71 -51t105.5 -59q75 -40 138 -81.5t108.5 -92t70.5 -114.5t25 -150q0 -98 -33.5 -176.5t-98 -134t-158 -85.5t-214.5 -30 q-106 0 -204.5 22t-182.5 66z" />
<glyph unicode="&#x406;" horiz-adv-x="797" d="M66 0v176l178 82v946l-178 82v176h665v-176l-178 -82v-946l178 -82v-176h-665z" />
<glyph unicode="&#x407;" horiz-adv-x="797" d="M66 0v176l178 82v946l-178 82v176h665v-176l-178 -82v-946l178 -82v-176h-665zM54 1743q0 35 11 60.5t29.5 42t44 24.5t54.5 8t54.5 -8t44.5 -24.5t30.5 -42t11.5 -60.5q0 -34 -11.5 -59t-30.5 -41.5t-44.5 -24.5t-54.5 -8t-54.5 8t-44 24.5t-29.5 41.5t-11 59zM457 1743 q0 35 11 60.5t30 42t45 24.5t56 8q28 0 53.5 -8t45 -24.5t31 -42t11.5 -60.5q0 -34 -11.5 -59t-31 -41.5t-45 -24.5t-53.5 -8q-60 0 -101 33t-41 100z" />
<glyph unicode="&#x408;" horiz-adv-x="678" d="M-199 -150q37 -8 77.5 -14t88.5 -6q46 0 85.5 10t69 34.5t46 65.5t16.5 103v1419h310v-1409q0 -126 -36.5 -217t-102 -150.5t-156.5 -87.5t-201 -28q-65 0 -114 6.5t-83 15.5v258z" />
<glyph unicode="&#x409;" horiz-adv-x="1964" d="M16 2v254q26 -9 52 -14.5t57 -5.5q30 0 52 14t40 48t33 91t31 143q9 50 24.5 142t34 214.5t39 269t39.5 304.5h815v-561h108q137 0 237 -33t165.5 -92t97 -140.5t31.5 -178.5q0 -108 -32.5 -193t-101 -143.5t-173.5 -89.5t-250 -31h-391v1204h-250q-12 -94 -26 -206 t-29 -223.5t-31.5 -214t-32.5 -179.5q-20 -96 -49 -170.5t-74 -126t-110.5 -78t-157.5 -26.5q-42 0 -79 5.5t-69 16.5zM1233 254h84q56 0 100.5 10.5t76 34.5t48.5 63t17 95q0 58 -18.5 95t-52.5 58t-82.5 29t-109.5 8h-63v-393z" />
<glyph unicode="&#x40a;" horiz-adv-x="1970" d="M184 0v1462h310v-573h436v573h309v-561h109q137 0 236.5 -33t165 -92t97 -140.5t31.5 -178.5q0 -108 -32.5 -193t-101 -143.5t-173.5 -89.5t-250 -31h-391v631h-436v-631h-310zM1239 254h84q56 0 101 10.5t76.5 34.5t48 63t16.5 95q0 58 -18.5 95t-52.5 58t-82.5 29 t-108.5 8h-64v-393z" />
<glyph unicode="&#x40b;" horiz-adv-x="1567" d="M41 1204v258h1032v-258h-356v-272h303q104 0 185 -26.5t137.5 -77.5t86 -124.5t29.5 -166.5v-537h-309v514q0 89 -35 124.5t-115 35.5h-282v-674h-309v1204h-367z" />
<glyph unicode="&#x40c;" horiz-adv-x="1294" d="M184 0v1462h310v-708l442 708h330l-451 -702l479 -760h-352l-448 741v-741h-310zM498 1579v27q21 29 45 67t47.5 78.5t44.5 81t37 74.5h342v-21q-11 -18 -32 -42.5t-48 -52.5t-58 -57.5t-62.5 -57.5t-60.5 -53t-52 -44h-203z" />
<glyph unicode="&#x40e;" horiz-adv-x="1255" d="M0 1462h328l276 -631q7 -15 16 -36.5t17 -43t14.5 -39.5t7.5 -26h11q2 9 6 27.5t10 39.5t12.5 41.5t12.5 34.5l225 633h319l-424 -1034q-43 -105 -88 -188.5t-106.5 -141t-145.5 -88t-204 -30.5q-51 0 -109.5 7.5t-109.5 22.5v266q49 -20 107.5 -28t111.5 -8 q51 0 86.5 13t60.5 36.5t42 55t30 67.5zM139 1937h273q5 -57 18.5 -93t38.5 -56.5t63 -28.5t91 -8q44 0 80.5 9t63.5 31t44 57.5t23 88.5h276q-8 -80 -36.5 -146t-86 -113t-148 -73t-222.5 -26q-136 0 -225.5 25t-143.5 71.5t-78.5 112.5t-30.5 149z" />
<glyph unicode="&#x40f;" horiz-adv-x="1444" d="M184 0v1462h310v-1204h456v1204h310v-1462h-388v-426h-299v426h-389z" />
<glyph unicode="&#x410;" horiz-adv-x="1331" d="M0 0l475 1468h379l477 -1468h-313l-100 348h-504l-101 -348h-313zM489 608h357l-94 320q-6 18 -18 59t-25.5 90.5t-25.5 99.5t-17 85q-4 -22 -10.5 -52t-15 -63.5t-17.5 -67.5t-17 -64t-14.5 -53t-9.5 -34z" />
<glyph unicode="&#x411;" horiz-adv-x="1225" d="M184 0v1462h842v-256h-532v-305h108q137 0 237 -33t165.5 -92t97 -140.5t31.5 -178.5q0 -108 -32.5 -193t-101 -143.5t-173.5 -89.5t-251 -31h-391zM494 254h84q56 0 100.5 10.5t76 34.5t48 63t16.5 95q0 58 -18 95t-52 58t-82.5 29t-109.5 8h-63v-393z" />
<glyph unicode="&#x412;" horiz-adv-x="1315" d="M184 0v1462h428q138 0 242 -19.5t174 -63t105.5 -114t35.5 -173.5q0 -62 -15 -116t-44 -95t-70.5 -68.5t-95.5 -36.5v-10q55 -12 102.5 -34.5t83 -62t56 -99.5t20.5 -146q0 -100 -35 -178.5t-100.5 -133t-159 -83.5t-211.5 -29h-516zM494 256h182q61 0 102.5 14t67 40 t36.5 63t11 82q0 41 -11 74.5t-37.5 57.5t-69.5 37t-107 13h-174v-381zM494 883h161q58 0 97 10.5t63 31.5t34.5 52.5t10.5 73.5q0 84 -52.5 120.5t-166.5 36.5h-147v-325z" />
<glyph unicode="&#x413;" horiz-adv-x="1067" d="M184 0v1462h842v-256h-532v-1206h-310z" />
<glyph unicode="&#x414;" horiz-adv-x="1483" d="M10 258h113q57 114 110.5 240.5t99 273t82.5 317.5t62 373h770v-1204h195v-684h-299v426h-834v-426h-299v684zM449 258h489v946h-215q-15 -106 -41 -226.5t-61.5 -244t-79 -245t-92.5 -230.5z" />
<glyph unicode="&#x415;" horiz-adv-x="1147" d="M184 0v1462h842v-254h-532v-321h495v-254h-495v-377h532v-256h-842z" />
<glyph unicode="&#x416;" horiz-adv-x="1849" d="M0 0l479 760l-450 702h319l432 -708v708h289v-708l432 708h320l-451 -702l479 -760h-331l-449 741v-741h-289v741l-448 -741h-332z" />
<glyph unicode="&#x417;" horiz-adv-x="1245" d="M94 1323q52 37 107.5 66.5t119.5 50.5t139.5 32t166.5 11q114 0 204.5 -27t152.5 -75.5t95 -115t33 -145.5q0 -73 -25.5 -133t-71 -104t-108 -72.5t-137.5 -40.5v-6q92 -10 164 -38.5t121.5 -73t75.5 -104t26 -132.5q0 -96 -37 -176t-110 -138t-179.5 -90t-246.5 -32 q-155 0 -273 20.5t-205 58.5v260q43 -23 95.5 -41t107 -30t108.5 -18.5t101 -6.5q174 0 253 56t79 159q0 53 -28.5 90.5t-81.5 62.5t-128 36.5t-168 11.5h-118v242h104q112 0 185.5 13t117 37.5t61 59.5t17.5 80q0 75 -59 119.5t-174 44.5q-101 0 -187 -32.5t-162 -86.5z " />
<glyph unicode="&#x418;" horiz-adv-x="1604" d="M184 0v1462h279v-692q0 -25 -0.5 -56t-1.5 -64l-2 -68q-1 -33 -3 -65q-4 -74 -7 -150h6l594 1095h370v-1462h-276v688q0 57 2.5 128.5t6.5 136.5q4 76 9 153h-8l-596 -1106h-373z" />
<glyph unicode="&#x419;" horiz-adv-x="1604" d="M184 0v1462h279v-692q0 -25 -0.5 -56t-1.5 -64l-2 -68q-1 -33 -3 -65q-4 -74 -7 -150h6l594 1095h370v-1462h-276v688q0 57 2.5 128.5t6.5 136.5q4 76 9 153h-8l-596 -1106h-373zM303 1937h273q5 -57 18.5 -93t38.5 -56.5t63 -28.5t91 -8q44 0 80.5 9t63.5 31t44 57.5 t23 88.5h276q-8 -80 -36.5 -146t-86 -113t-148 -73t-222.5 -26q-136 0 -225.5 25t-143.5 71.5t-78.5 112.5t-30.5 149z" />
<glyph unicode="&#x41a;" horiz-adv-x="1294" d="M184 0v1462h310v-708l442 708h330l-451 -702l479 -760h-352l-448 741v-741h-310z" />
<glyph unicode="&#x41b;" horiz-adv-x="1444" d="M16 2v254q26 -9 52 -14.5t57 -5.5q30 0 52 14t40 48t33 91t31 143q9 50 24.5 142t34 214.5t39 269t39.5 304.5h842v-1462h-310v1204h-276q-12 -94 -26 -206t-29 -223.5t-31.5 -214t-32.5 -179.5q-20 -96 -49 -170.5t-74 -126t-110.5 -78t-157.5 -26.5q-42 0 -79 5.5 t-69 16.5z" />
<glyph unicode="&#x41c;" horiz-adv-x="1870" d="M184 0v1462h422l316 -1118h6l336 1118h422v-1462h-289v692q0 26 0.5 59t1.5 70t2.5 75t2.5 74q4 84 7 175h-8l-346 -1145h-285l-321 1147h-9q6 -92 10 -178q2 -37 3.5 -76t3 -77t2 -73t0.5 -63v-680h-277z" />
<glyph unicode="&#x41d;" horiz-adv-x="1485" d="M184 0v1462h310v-573h497v573h309v-1462h-309v631h-497v-631h-310z" />
<glyph unicode="&#x41e;" horiz-adv-x="1548" d="M119 735q0 170 39.5 308.5t120.5 236.5t204.5 151.5t292.5 53.5q168 0 291 -53.5t203.5 -152t120 -237t39.5 -309.5q0 -169 -39.5 -308t-120.5 -238t-204.5 -153t-291.5 -54t-291.5 54t-204 153t-120 238.5t-39.5 309.5zM438 733q0 -115 20 -206.5t61.5 -155t104.5 -97.5 t150 -34q89 0 152.5 34t104 97.5t60 155t19.5 206.5t-19.5 206.5t-60 155.5t-103.5 98t-151 34q-87 0 -151 -34t-105.5 -98t-61.5 -155.5t-20 -206.5z" />
<glyph unicode="&#x41f;" horiz-adv-x="1444" d="M184 0v1462h1076v-1462h-310v1204h-456v-1204h-310z" />
<glyph unicode="&#x420;" horiz-adv-x="1225" d="M184 0v1462h406q141 0 243.5 -31.5t169 -90t98.5 -143t32 -191.5q0 -96 -29 -184t-95.5 -155t-175 -107t-268.5 -40h-71v-520h-310zM494 774h61q131 0 197.5 52t66.5 169q0 109 -59.5 161t-186.5 52h-79v-434z" />
<glyph unicode="&#x421;" horiz-adv-x="1305" d="M119 729q0 166 45 304.5t132 238.5t215 155.5t294 55.5q109 0 218.5 -27.5t209.5 -75.5l-100 -252q-82 39 -165 68t-163 29q-89 0 -157.5 -34.5t-115 -99t-70.5 -157t-24 -207.5q0 -117 21.5 -208t66 -153.5t114 -95t165.5 -32.5q89 0 178.5 20t194.5 57v-260 q-48 -20 -95 -34t-96 -23t-100.5 -13.5t-110.5 -4.5q-169 0 -293 54t-205 152t-120 236t-39 307z" />
<glyph unicode="&#x422;" horiz-adv-x="1124" d="M41 1204v258h1042v-258h-366v-1204h-309v1204h-367z" />
<glyph unicode="&#x423;" horiz-adv-x="1255" d="M0 1462h328l276 -631q7 -15 16 -36.5t17 -43t14.5 -39.5t7.5 -26h11q2 9 6 27.5t10 39.5t12.5 41.5t12.5 34.5l225 633h319l-424 -1034q-43 -105 -88 -188.5t-106.5 -141t-145.5 -88t-204 -30.5q-51 0 -109.5 7.5t-109.5 22.5v266q49 -20 107.5 -28t111.5 -8 q51 0 86.5 13t60.5 36.5t42 55t30 67.5z" />
<glyph unicode="&#x424;" horiz-adv-x="1679" d="M92 758q0 102 33 200t101.5 174.5t174 123.5t250.5 47h49v180h279v-180h49q145 0 250.5 -47t174 -123.5t101.5 -174.5t33 -200q0 -61 -13 -125.5t-41.5 -126t-74 -116.5t-111 -96t-152 -65t-196.5 -24h-20v-225h-279v225h-20q-110 0 -196.5 24t-151.5 65t-111 96 t-74.5 116.5t-41.5 126t-13 125.5zM383 760q0 -67 19 -125t57 -100.5t95 -66.5t134 -24h12v617h-36q-72 0 -125 -24.5t-87.5 -66t-51.5 -96t-17 -114.5zM979 444h12q77 0 134 24t95 66.5t57 100.5t19 125q0 60 -16.5 114.5t-51 96t-87.5 66t-125 24.5h-37v-617z" />
<glyph unicode="&#x425;" horiz-adv-x="1284" d="M0 0l444 754l-413 708h342l274 -526l268 526h334l-418 -725l453 -737h-354l-299 553l-299 -553h-332z" />
<glyph unicode="&#x426;" horiz-adv-x="1518" d="M184 0v1462h310v-1204h456v1204h310v-1216l217 -29v-643h-299v426h-994z" />
<glyph unicode="&#x427;" horiz-adv-x="1409" d="M109 858v604h309v-516q0 -106 42 -159.5t142 -53.5q74 0 148.5 18.5t164.5 55.5v655h310v-1462h-310v565q-58 -22 -111 -39t-103 -28t-98.5 -17t-98.5 -6q-93 0 -166.5 25.5t-124 74t-77.5 120t-27 163.5z" />
<glyph unicode="&#x428;" horiz-adv-x="2126" d="M184 0v1462h310v-1204h413v1204h312v-1204h413v1204h310v-1462h-1758z" />
<glyph unicode="&#x429;" horiz-adv-x="2200" d="M184 0v1462h310v-1204h413v1204h312v-1204h413v1204h310v-1216l217 -29v-643h-299v426h-1676z" />
<glyph unicode="&#x42a;" horiz-adv-x="1448" d="M41 1204v258h676v-561h108q137 0 237 -33t165.5 -92t97 -140.5t31.5 -178.5q0 -108 -32.5 -193t-101 -143.5t-173.5 -89.5t-250 -31h-391v1204h-367zM717 254h84q56 0 100.5 10.5t76 34.5t48 63t16.5 95q0 58 -18 95t-52 58t-82.5 29t-109.5 8h-63v-393z" />
<glyph unicode="&#x42b;" horiz-adv-x="1774" d="M184 0v1462h310v-561h108q137 0 237 -33t165.5 -92t97 -140.5t31.5 -178.5q0 -108 -32.5 -193t-101 -143.5t-173.5 -89.5t-251 -31h-391zM494 254h84q56 0 100.5 10.5t76 34.5t48 63t16.5 95q0 58 -18 95t-52 58t-82.5 29t-109.5 8h-63v-393zM1280 0v1462h309v-1462h-309 z" />
<glyph unicode="&#x42c;" horiz-adv-x="1225" d="M184 0v1462h310v-561h108q137 0 237 -33t165.5 -92t97 -140.5t31.5 -178.5q0 -108 -32.5 -193t-101 -143.5t-173.5 -89.5t-251 -31h-391zM494 254h84q56 0 100.5 10.5t76 34.5t48 63t16.5 95q0 58 -18 95t-52 58t-82.5 29t-109.5 8h-63v-393z" />
<glyph unicode="&#x42d;" horiz-adv-x="1276" d="M72 1380q100 48 212 75.5t240 27.5q151 0 268.5 -50.5t198.5 -147.5t123.5 -237t42.5 -319q0 -169 -39 -307t-120 -236t-204.5 -152t-293.5 -54q-58 0 -110 4.5t-101 13.5t-96 23t-95 34v260q105 -37 194.5 -57t178.5 -20q168 0 260 92.5t100 279.5h-552v254h550 q-3 86 -26.5 153t-64.5 113t-99 70.5t-129 24.5q-88 0 -173 -28t-167 -67z" />
<glyph unicode="&#x42e;" horiz-adv-x="2109" d="M184 0v1462h310v-573h276q15 137 60 247t120 187.5t182 119.5t246 42q157 0 272.5 -53.5t191 -152t112.5 -237t37 -309.5q0 -169 -37 -308t-113 -238t-191.5 -153t-273.5 -54q-145 0 -254.5 46t-185.5 131t-118.5 205.5t-53.5 268.5h-270v-631h-310zM1081 733 q0 -115 17.5 -206.5t54 -155t92 -97.5t131.5 -34q78 0 133.5 34t91.5 97.5t53 155t17 206.5t-17 206.5t-52.5 155.5t-91 98t-132.5 34q-76 0 -132 -34t-93 -98t-54.5 -155.5t-17.5 -206.5z" />
<glyph unicode="&#x42f;" horiz-adv-x="1280" d="M-10 0l409 655q-44 19 -88.5 50t-80 79t-58 114.5t-22.5 156.5q0 204 137 305.5t407 101.5h402v-1462h-310v561h-122l-330 -561h-344zM463 1022q0 -97 50.5 -153t156.5 -56h116v395h-122q-96 0 -148.5 -43t-52.5 -143z" />
<glyph unicode="&#x430;" horiz-adv-x="1176" d="M86 334q0 178 114 262.5t341 93.5l178 6v84q0 69 -40 102t-112 33t-140.5 -21t-137.5 -56l-99 202q84 47 186 74t214 27q209 0 320.5 -98t111.5 -298v-745h-213l-59 152h-9q-33 -45 -66 -77.5t-72 -53.5t-87.5 -31t-112.5 -10q-68 0 -126 21.5t-100.5 65t-66.5 110 t-24 157.5zM399 332q0 -70 34 -99.5t89 -29.5q42 0 78 14.5t62.5 43t41.5 70t15 95.5v92l-101 -4q-61 -2 -103 -16t-67.5 -37.5t-37 -56t-11.5 -72.5z" />
<glyph unicode="&#x431;" horiz-adv-x="1255" d="M102 670q0 185 31.5 328.5t100.5 247t177 168.5t261 93q102 19 206.5 34.5t217.5 31.5l34 -266q-49 -6 -105.5 -14.5t-113.5 -17t-110 -17t-96 -15.5q-71 -12 -123.5 -32.5t-88.5 -61t-55 -107t-24 -170.5h12q17 29 44 59t65 54.5t86.5 40.5t107.5 16q92 0 166.5 -31 t126.5 -92t80 -152.5t28 -213.5q0 -143 -37.5 -250.5t-105.5 -179t-163 -107.5t-210 -36q-117 0 -211.5 45t-161 133t-103 216.5t-36.5 295.5zM414 645q0 -79 10.5 -154.5t35 -134t66.5 -94t105 -35.5q42 0 76.5 15.5t59.5 50.5t38.5 92t13.5 141q0 67 -9.5 121t-29.5 91.5 t-52.5 58t-78.5 20.5q-43 0 -81.5 -19t-69.5 -46t-53 -56.5t-31 -50.5z" />
<glyph unicode="&#x432;" horiz-adv-x="1257" d="M160 0v1118h538q93 0 172 -15t137 -49.5t90.5 -90.5t32.5 -138q0 -90 -56 -153.5t-167 -81.5v-8q59 -7 106.5 -27.5t81 -53t52 -74.5t18.5 -93q0 -72 -26 -133.5t-82 -106t-144 -69.5t-213 -25h-540zM465 211h213q38 0 69.5 7.5t54 24.5t35.5 43.5t13 63.5q0 66 -44 95.5 t-132 29.5h-209v-264zM465 682h188q84 0 126 28t42 91q0 102 -137 102h-219v-221z" />
<glyph unicode="&#x433;" horiz-adv-x="918" d="M160 0v1118h710v-229h-405v-889h-305z" />
<glyph unicode="&#x434;" horiz-adv-x="1296" d="M29 223h94q55 85 97.5 188.5t73 218.5t50.5 239t31 249h729v-895h164v-624h-275v401h-690v-401h-274v624zM442 223h357v666h-168q-25 -186 -68.5 -353t-120.5 -313z" />
<glyph unicode="&#x435;" horiz-adv-x="1190" d="M102 551q0 147 37 257t103.5 183.5t160 110.5t207.5 37q111 0 200.5 -33.5t152 -98.5t96 -159.5t33.5 -216.5v-148h-682q2 -64 20.5 -115.5t52 -87t81 -54.5t108.5 -19q51 0 96.5 5.5t88.5 16.5t85 27.5t86 38.5v-236q-40 -21 -80.5 -35.5t-85.5 -24.5t-97 -14.5 t-114 -4.5q-120 0 -221 35t-174 105.5t-113.5 178t-40.5 252.5zM416 686h389q-1 51 -13 94t-36 74.5t-60 49.5t-84 18q-81 0 -134.5 -57t-61.5 -179z" />
<glyph unicode="&#x436;" horiz-adv-x="1726" d="M0 0l420 582l-381 536h315l367 -543v543h285v-543l366 543h316l-381 -536l419 -582h-325l-395 567v-567h-285v567l-395 -567h-326z" />
<glyph unicode="&#x437;" horiz-adv-x="1075" d="M78 49v252q32 -16 71 -31.5t84 -27.5t95 -19.5t102 -7.5q57 0 106.5 6.5t85.5 22t57 40t21 60.5q0 68 -66.5 100.5t-205.5 32.5h-102v211h96q131 0 201.5 25t70.5 92q0 54 -47 81t-155 27q-36 0 -76.5 -5t-81.5 -14t-81 -22t-77 -30l-90 213q45 18 93.5 33.5t103.5 27 t117.5 17.5t136.5 6q84 0 162 -17.5t137.5 -54t95 -92.5t35.5 -133q0 -101 -57 -160.5t-152 -85.5v-10q50 -13 93.5 -32t76 -49t51 -73.5t18.5 -105.5q0 -69 -31 -132t-95 -110.5t-161.5 -75.5t-230.5 -28q-127 0 -229.5 17.5t-171.5 51.5z" />
<glyph unicode="&#x438;" horiz-adv-x="1413" d="M160 0v1118h295v-434q0 -35 -3 -92t-8 -113q-5 -65 -12 -137l455 776h366v-1118h-295v438q0 42 3.5 99t7.5 110q4 62 10 127l-453 -774h-366z" />
<glyph unicode="&#x439;" horiz-adv-x="1413" d="M160 0v1118h295v-434q0 -35 -3 -92t-8 -113q-5 -65 -12 -137l455 776h366v-1118h-295v438q0 42 3.5 99t7.5 110q4 62 10 127l-453 -774h-366zM217 1599h273q5 -57 18.5 -93t38.5 -56.5t63 -28.5t91 -8q44 0 80.5 9t63.5 31t44 57.5t23 88.5h276q-8 -80 -36.5 -146 t-86 -113t-148 -73t-222.5 -26q-136 0 -225.5 25t-143.5 71.5t-78.5 112.5t-30.5 149z" />
<glyph unicode="&#x43a;" horiz-adv-x="1206" d="M160 0v1118h305v-543l366 543h336l-381 -536l420 -582h-346l-395 567v-567h-305z" />
<glyph unicode="&#x43b;" horiz-adv-x="1260" d="M0 12v244q22 -9 47 -14.5t51 -5.5q24 0 46 15t42.5 53t38 102t34 162t30.5 233.5t26 316.5h785v-1118h-305v889h-220q-21 -246 -49.5 -419t-74 -281.5t-112.5 -158.5t-165 -50q-106 0 -174 32z" />
<glyph unicode="&#x43c;" horiz-adv-x="1688" d="M160 0v1118h426l174 -477q20 -54 34.5 -109.5t24 -103t15.5 -83.5t8 -52q4 18 10.5 53.5t17 82t25 99.5t33.5 105l178 485h422v-1118h-285v881q-5 -21 -14.5 -62.5t-23 -94t-30.5 -111t-38 -113.5l-185 -500h-217l-186 504q-20 54 -36 109.5t-29 106.5t-23 93t-17 68 v-881h-284z" />
<glyph unicode="&#x43d;" horiz-adv-x="1294" d="M160 0v1118h305v-430h364v430h306v-1118h-306v461h-364v-461h-305z" />
<glyph unicode="&#x43e;" horiz-adv-x="1227" d="M102 561q0 139 35.5 247t102 181.5t161.5 111.5t215 38q111 0 204 -38t160.5 -111.5t105.5 -181.5t38 -247q0 -140 -35.5 -248t-102 -182t-162 -112.5t-214.5 -38.5q-111 0 -204 38.5t-160.5 112.5t-105.5 182t-38 248zM414 561q0 -167 47 -251.5t153 -84.5q105 0 152 85 t47 251q0 167 -47 249.5t-154 82.5q-105 0 -151.5 -82.5t-46.5 -249.5z" />
<glyph unicode="&#x43f;" horiz-adv-x="1274" d="M160 0v1118h954v-1118h-305v889h-344v-889h-305z" />
<glyph unicode="&#x440;" horiz-adv-x="1245" d="M160 -492v1610h248l43 -145h14q21 34 48 64t62.5 52.5t80.5 36t100 13.5q87 0 158 -37t122 -110t79 -181t28 -250q0 -143 -29 -251.5t-81.5 -182t-125 -110.5t-159.5 -37q-55 0 -98.5 12t-77.5 32t-60 45.5t-47 53.5h-16q4 -35 8 -66q3 -26 5.5 -53.5t2.5 -42.5v-453 h-305zM465 563q0 -81 9.5 -144t31.5 -105.5t58.5 -64.5t90.5 -22q91 0 133.5 86.5t42.5 251.5t-42.5 247.5t-135.5 82.5q-51 0 -86.5 -18.5t-57.5 -55.5t-32 -93.5t-12 -131.5v-33z" />
<glyph unicode="&#x441;" horiz-adv-x="1022" d="M102 553q0 167 37.5 279.5t106 180.5t165 97t214.5 29q86 0 171 -21t160 -59l-88 -232q-66 29 -127 47.5t-116 18.5q-111 0 -161 -84.5t-50 -253.5q0 -168 50 -248t157 -80q87 0 158 22.5t145 57.5v-254q-37 -18 -72 -32t-70.5 -23t-74 -13.5t-82.5 -4.5 q-120 0 -216.5 33t-165 102.5t-105 178t-36.5 259.5z" />
<glyph unicode="&#x442;" horiz-adv-x="1071" d="M47 889v229h977v-229h-336v-889h-305v889h-336z" />
<glyph unicode="&#x443;" horiz-adv-x="1104" d="M0 1118h334l180 -629q16 -52 23.5 -111t9.5 -106h6q2 23 5.5 51t8.5 57t11.5 57.5t13.5 51.5l176 629h336l-442 -1261q-62 -177 -169 -263t-268 -86q-52 0 -90 5.5t-65 11.5v242q21 -5 53 -9t67 -4q48 0 82 13t58.5 36.5t42 56.5t30.5 74l19 56z" />
<glyph unicode="&#x444;" horiz-adv-x="1626" d="M102 559q0 120 34.5 219.5t105 173t178 118t254.5 54.5v432h282v-432q138 -12 244 -58t178 -119.5t109 -172t37 -215.5t-35.5 -216t-106.5 -172.5t-177.5 -120t-248.5 -58.5v-484h-282v484q-137 13 -243.5 59.5t-179.5 120.5t-111 172t-38 215zM416 559q0 -68 17.5 -126 t50.5 -101.5t81 -71.5t109 -37v672q-60 -9 -108 -38t-81 -73t-51 -101t-18 -124zM956 223q61 9 108 37t79.5 71.5t49.5 101.5t17 126q0 67 -17.5 124t-50.5 100.5t-80 71t-106 36.5v-668z" />
<glyph unicode="&#x445;" horiz-adv-x="1122" d="M10 0l379 571l-360 547h346l186 -336l189 336h346l-365 -547l381 -571h-346l-205 362l-205 -362h-346z" />
<glyph unicode="&#x446;" horiz-adv-x="1348" d="M160 0v1118h305v-889h385v889h305v-895h164v-624h-275v401h-884z" />
<glyph unicode="&#x447;" horiz-adv-x="1282" d="M123 702v416h305v-420q0 -72 32 -103.5t85 -31.5q75 0 140.5 20t131.5 52v483h305v-1118h-305v444q-33 -19 -70.5 -37.5t-80 -32.5t-90 -23t-101.5 -9q-81 0 -146 22.5t-110.5 67.5t-70.5 112.5t-25 157.5z" />
<glyph unicode="&#x448;" horiz-adv-x="1923" d="M160 0v1118h305v-889h344v889h305v-889h344v889h305v-1118h-1603z" />
<glyph unicode="&#x449;" horiz-adv-x="1956" d="M160 0v1118h305v-889h344v889h305v-889h344v889h305v-895h164v-624h-274v401h-1493z" />
<glyph unicode="&#x44a;" horiz-adv-x="1450" d="M47 889v229h662v-432h196q237 0 350 -81.5t113 -248.5q0 -81 -26 -147t-82 -112.5t-144 -71.5t-213 -25h-500v889h-356zM709 211h182q38 0 69.5 7.5t54 24.5t35.5 44t13 65q0 65 -44 94t-132 29h-178v-264z" />
<glyph unicode="&#x44b;" horiz-adv-x="1679" d="M160 0v1118h305v-432h135q236 0 349.5 -81.5t113.5 -248.5q0 -81 -26 -147t-82 -112.5t-144 -71.5t-213 -25h-438zM465 211h121q38 0 69.5 7.5t54 24.5t35.5 44t13 65q0 65 -44 94t-132 29h-117v-264zM1214 0v1118h306v-1118h-306z" />
<glyph unicode="&#x44c;" horiz-adv-x="1206" d="M160 0v1118h305v-432h197q236 0 349 -81.5t113 -248.5q0 -81 -26 -147t-82 -112.5t-144 -71.5t-213 -25h-499zM465 211h182q76 0 124 32.5t48 108.5q0 65 -44 94t-132 29h-178v-264z" />
<glyph unicode="&#x44d;" horiz-adv-x="997" d="M74 49v238q66 -34 139 -57t154 -23q92 0 148.5 60t64.5 196h-361v203h361q-13 247 -187 247q-63 0 -121 -19t-106 -44l-86 209q30 15 67 29t80 25.5t90 18.5t97 7q102 0 190 -27.5t152.5 -93t101.5 -174.5t37 -273q0 -151 -33.5 -262.5t-97.5 -184.5t-157.5 -108.5 t-213.5 -35.5q-99 0 -175 16t-144 53z" />
<glyph unicode="&#x44e;" horiz-adv-x="1745" d="M160 0v1118h305v-430h205q15 109 55.5 193t103 141.5t145 87t181.5 29.5q106 0 195.5 -38t154 -111.5t101 -181.5t36.5 -247q0 -140 -34 -248t-98 -182t-155.5 -112.5t-205.5 -38.5q-97 0 -180 29t-145.5 88.5t-103 150t-54.5 213.5h-201v-461h-305zM973 561 q0 -167 42 -251.5t138 -84.5q94 0 136 84.5t42 251.5t-42 249.5t-138 82.5q-94 0 -136 -82.5t-42 -249.5z" />
<glyph unicode="&#x44f;" horiz-adv-x="1153" d="M0 0l289 449q-43 18 -81 47t-66 69.5t-44 92t-16 114.5q0 84 31 148.5t87 108.5t134 66.5t172 22.5h487v-1118h-305v416h-119l-239 -416h-330zM381 770q0 -71 46 -110t120 -39h141v282h-174q-34 0 -59 -10.5t-41.5 -29t-24.5 -42.5t-8 -51z" />
<glyph unicode="&#x451;" horiz-adv-x="1190" d="M102 551q0 147 37 257t103.5 183.5t160 110.5t207.5 37q111 0 200.5 -33.5t152 -98.5t96 -159.5t33.5 -216.5v-148h-682q2 -64 20.5 -115.5t52 -87t81 -54.5t108.5 -19q51 0 96.5 5.5t88.5 16.5t85 27.5t86 38.5v-236q-40 -21 -80.5 -35.5t-85.5 -24.5t-97 -14.5 t-114 -4.5q-120 0 -221 35t-174 105.5t-113.5 178t-40.5 252.5zM416 686h389q-1 51 -13 94t-36 74.5t-60 49.5t-84 18q-81 0 -134.5 -57t-61.5 -179zM266 1405q0 35 11 60.5t29.5 42t44 24.5t54.5 8t54.5 -8t44.5 -24.5t30.5 -42t11.5 -60.5q0 -34 -11.5 -59t-30.5 -41.5 t-44.5 -24.5t-54.5 -8t-54.5 8t-44 24.5t-29.5 41.5t-11 59zM669 1405q0 35 11 60.5t30 42t45 24.5t56 8q28 0 53.5 -8t45 -24.5t31 -42t11.5 -60.5q0 -34 -11.5 -59t-31 -41.5t-45 -24.5t-53.5 -8q-60 0 -101 33t-41 100z" />
<glyph unicode="&#x452;" horiz-adv-x="1284" d="M4 1196v199h156v161h305v-161h315v-199h-315v-18q0 -42 -2 -88.5t-5 -85.5l-7 -91h16q49 87 125 125.5t172 38.5q83 0 150.5 -23.5t115.5 -73.5t74 -127.5t26 -184.5v-789q0 -77 -19.5 -144.5t-63 -118t-112.5 -79.5t-167 -29q-48 0 -99 7t-85 18v240q31 -10 57.5 -14.5 t60.5 -4.5q26 0 48 7.5t39 27t26.5 52t9.5 83.5v690q0 110 -39.5 165t-113.5 55q-59 0 -99 -24.5t-64 -71.5t-34 -115.5t-10 -157.5v-465h-305v1196h-156z" />
<glyph unicode="&#x453;" horiz-adv-x="918" d="M160 0v1118h710v-229h-405v-889h-305zM340 1241v27q21 29 45 67t47.5 78.5t44.5 81t37 74.5h342v-21q-11 -18 -32 -42.5t-48 -52.5t-58 -57.5t-62.5 -57.5t-60.5 -53t-52 -44h-203z" />
<glyph unicode="&#x454;" horiz-adv-x="1022" d="M102 553q0 167 37.5 279.5t106 180.5t165 97t214.5 29q86 0 171 -19.5t160 -54.5l-88 -217q-66 29 -127 47t-116 18q-93 0 -143 -61t-64 -186h360v-203h-360q12 -131 61 -193.5t142 -62.5q87 0 158 22.5t145 57.5v-234q-68 -37 -139 -55t-160 -18q-120 0 -216.5 33 t-165 102.5t-105 178t-36.5 259.5z" />
<glyph unicode="&#x455;" horiz-adv-x="985" d="M98 827q0 78 30 136.5t85 97.5t132.5 58.5t172.5 19.5q100 0 190 -23t185 -69l-92 -216q-76 36 -145 59t-138 23q-62 0 -89.5 -22t-27.5 -60q0 -20 7 -35.5t28 -32t59 -36t99 -47.5q71 -31 128 -61.5t98 -69.5t63 -91t22 -126q0 -88 -32 -154t-91 -110t-143 -66t-188 -22 q-55 0 -102 3.5t-89 11.5t-81 20t-79 30v252q42 -21 88.5 -38t92.5 -29.5t89.5 -19.5t80.5 -7q41 0 70 7.5t47.5 21t27 32t8.5 39.5t-6.5 37.5t-29.5 35t-67.5 42t-119.5 57.5q-73 33 -126.5 65.5t-88 72.5t-51.5 91.5t-17 122.5z" />
<glyph unicode="&#x456;" horiz-adv-x="625" d="M147 1407q0 43 13 71.5t35.5 46t53 24.5t64.5 7t64 -7t52.5 -24.5t36 -46t13.5 -71.5q0 -42 -13.5 -71t-36 -46.5t-52.5 -25t-64 -7.5t-64.5 7.5t-53 25t-35.5 46.5t-13 71zM160 0v1118h305v-1118h-305z" />
<glyph unicode="&#x457;" horiz-adv-x="625" d="M160 0v1118h305v-1118h-305zM-32 1405q0 35 11 60.5t29.5 42t44 24.5t54.5 8t54.5 -8t44.5 -24.5t30.5 -42t11.5 -60.5q0 -34 -11.5 -59t-30.5 -41.5t-44.5 -24.5t-54.5 -8t-54.5 8t-44 24.5t-29.5 41.5t-11 59zM371 1405q0 35 11 60.5t30 42t45 24.5t56 8q28 0 53.5 -8 t45 -24.5t31 -42t11.5 -60.5q0 -34 -11.5 -59t-31 -41.5t-45 -24.5t-53.5 -8q-60 0 -101 33t-41 100z" />
<glyph unicode="&#x458;" horiz-adv-x="625" d="M-82 -227q31 -10 58 -14.5t61 -4.5q25 0 47.5 7.5t39 27t26.5 52t10 83.5v1194h305v-1239q0 -77 -19.5 -144.5t-63 -118t-112.5 -79.5t-168 -29q-48 0 -99 7t-85 18v240zM147 1407q0 43 13 71.5t35.5 46t53 24.5t64.5 7t64 -7t52.5 -24.5t36 -46t13.5 -71.5 q0 -42 -13.5 -71t-36 -46.5t-52.5 -25t-64 -7.5t-64.5 7.5t-53 25t-35.5 46.5t-13 71z" />
<glyph unicode="&#x459;" horiz-adv-x="1767" d="M0 12v244q22 -9 47 -14.5t51 -5.5q24 0 46 15t42.5 53t38 102t34 162t30.5 233.5t26 316.5h772v-432h136q236 0 349.5 -81.5t113.5 -248.5q0 -81 -26 -147t-82.5 -112.5t-144.5 -71.5t-212 -25h-439v889h-207q-21 -246 -49.5 -419t-74 -281.5t-112.5 -158.5t-165 -50 q-106 0 -174 32zM1087 211h121q76 0 124 32.5t48 108.5q0 65 -44 94t-132 29h-117v-264z" />
<glyph unicode="&#x45a;" horiz-adv-x="1767" d="M160 0v1118h305v-430h317v430h305v-432h136q236 0 349.5 -81.5t113.5 -248.5q0 -81 -26 -147t-82.5 -112.5t-144.5 -71.5t-212 -25h-439v461h-317v-461h-305zM1087 211h121q76 0 124 32.5t48 108.5q0 65 -44 94t-132 29h-117v-264z" />
<glyph unicode="&#x45b;" horiz-adv-x="1284" d="M4 1196v199h156v161h305v-161h315v-199h-315v-18q0 -42 -2 -88.5t-5 -85.5l-7 -91h16q49 87 125 125.5t172 38.5q83 0 150.5 -23.5t115.5 -73.5t74 -127.5t26 -184.5v-668h-305v592q0 121 -37.5 181.5t-115.5 60.5q-59 0 -99 -24.5t-64 -71.5t-34 -115.5t-10 -157.5v-465 h-305v1196h-156z" />
<glyph unicode="&#x45c;" horiz-adv-x="1206" d="M160 0v1118h305v-543l366 543h336l-381 -536l420 -582h-346l-395 567v-567h-305zM486 1241v27q21 29 45 67t47.5 78.5t44.5 81t37 74.5h342v-21q-11 -18 -32 -42.5t-48 -52.5t-58 -57.5t-62.5 -57.5t-60.5 -53t-52 -44h-203z" />
<glyph unicode="&#x45e;" horiz-adv-x="1104" d="M0 1118h334l180 -629q16 -52 23.5 -111t9.5 -106h6q2 23 5.5 51t8.5 57t11.5 57.5t13.5 51.5l176 629h336l-442 -1261q-62 -177 -169 -263t-268 -86q-52 0 -90 5.5t-65 11.5v242q21 -5 53 -9t67 -4q48 0 82 13t58.5 36.5t42 56.5t30.5 74l19 56zM64 1599h273 q5 -57 18.5 -93t38.5 -56.5t63 -28.5t91 -8q44 0 80.5 9t63.5 31t44 57.5t23 88.5h276q-8 -80 -36.5 -146t-86 -113t-148 -73t-222.5 -26q-136 0 -225.5 25t-143.5 71.5t-78.5 112.5t-30.5 149z" />
<glyph unicode="&#x45f;" horiz-adv-x="1315" d="M160 0v1118h305v-889h385v889h305v-1118h-360v-401h-275v401h-360z" />
<glyph unicode="&#x490;" horiz-adv-x="1108" d="M184 0v1462h615v310h268v-566h-573v-1206h-310z" />
<glyph unicode="&#x491;" horiz-adv-x="987" d="M160 0v1118h479v305h274v-534h-448v-889h-305z" />
<glyph unicode="&#x1e80;" horiz-adv-x="1898" d="M0 1462h305l166 -798q3 -16 8.5 -46.5t12.5 -68.5t14.5 -80t14.5 -82t13 -74.5t9 -56.5q3 22 8.5 56t11.5 72.5t13.5 79.5t13.5 76.5t11.5 63t8.5 39.5l203 819h272l203 -819q3 -12 8.5 -39.5t12 -63t13.5 -76.5t13.5 -79.5t12 -72.5t8.5 -56q3 22 8.5 56.5t12.5 74.5 t14.5 82t14.5 80t12.5 68.5t8.5 46.5l166 798h305l-352 -1462h-352l-180 721q-4 15 -9.5 42t-12.5 61t-14 71t-13 72t-10.5 64.5t-6.5 47.5q-2 -18 -6.5 -47.5t-10.5 -64t-12.5 -71.5t-13 -71t-12.5 -62t-10 -44l-178 -719h-353zM563 1886v21h342q16 -34 37.5 -74.5 t44.5 -81t47 -78.5t45 -67v-27h-203q-34 28 -81.5 69.5t-93.5 85.5t-84 84.5t-54 67.5z" />
<glyph unicode="&#x1e81;" horiz-adv-x="1651" d="M0 1118h303l113 -495q9 -39 18.5 -93.5t18 -110t15.5 -105t11 -78.5h6q1 19 4.5 49.5t8.5 65.5t10.5 71.5t11 68.5t10 56.5t7.5 34.5l122 536h336l117 -536q5 -22 13 -68t16.5 -98.5t14.5 -102t7 -77.5h6q3 25 10.5 74t16.5 105.5t19.5 112.5t19.5 95l117 495h299 l-305 -1118h-332l-86 391q-4 17 -10.5 48.5t-14.5 71t-16.5 84t-17.5 88.5q-20 103 -44 222h-6q-23 -119 -42 -223q-8 -44 -16.5 -89t-16.5 -84.5t-14.5 -71.5t-10.5 -50l-90 -387h-328zM467 1548v21h342q16 -34 37.5 -74.5t44.5 -81t47 -78.5t45 -67v-27h-203 q-34 28 -81.5 69.5t-93.5 85.5t-84 84.5t-54 67.5z" />
<glyph unicode="&#x1e82;" horiz-adv-x="1898" d="M0 1462h305l166 -798q3 -16 8.5 -46.5t12.5 -68.5t14.5 -80t14.5 -82t13 -74.5t9 -56.5q3 22 8.5 56t11.5 72.5t13.5 79.5t13.5 76.5t11.5 63t8.5 39.5l203 819h272l203 -819q3 -12 8.5 -39.5t12 -63t13.5 -76.5t13.5 -79.5t12 -72.5t8.5 -56q3 22 8.5 56.5t12.5 74.5 t14.5 82t14.5 80t12.5 68.5t8.5 46.5l166 798h305l-352 -1462h-352l-180 721q-4 15 -9.5 42t-12.5 61t-14 71t-13 72t-10.5 64.5t-6.5 47.5q-2 -18 -6.5 -47.5t-10.5 -64t-12.5 -71.5t-13 -71t-12.5 -62t-10 -44l-178 -719h-353zM815 1579v27q21 29 45 67t47.5 78.5t44.5 81 t37 74.5h342v-21q-11 -18 -32 -42.5t-48 -52.5t-58 -57.5t-62.5 -57.5t-60.5 -53t-52 -44h-203z" />
<glyph unicode="&#x1e83;" horiz-adv-x="1651" d="M0 1118h303l113 -495q9 -39 18.5 -93.5t18 -110t15.5 -105t11 -78.5h6q1 19 4.5 49.5t8.5 65.5t10.5 71.5t11 68.5t10 56.5t7.5 34.5l122 536h336l117 -536q5 -22 13 -68t16.5 -98.5t14.5 -102t7 -77.5h6q3 25 10.5 74t16.5 105.5t19.5 112.5t19.5 95l117 495h299 l-305 -1118h-332l-86 391q-4 17 -10.5 48.5t-14.5 71t-16.5 84t-17.5 88.5q-20 103 -44 222h-6q-23 -119 -42 -223q-8 -44 -16.5 -89t-16.5 -84.5t-14.5 -71.5t-10.5 -50l-90 -387h-328zM668 1241v27q21 29 45 67t47.5 78.5t44.5 81t37 74.5h342v-21q-11 -18 -32 -42.5 t-48 -52.5t-58 -57.5t-62.5 -57.5t-60.5 -53t-52 -44h-203z" />
<glyph unicode="&#x1e84;" horiz-adv-x="1898" d="M0 1462h305l166 -798q3 -16 8.5 -46.5t12.5 -68.5t14.5 -80t14.5 -82t13 -74.5t9 -56.5q3 22 8.5 56t11.5 72.5t13.5 79.5t13.5 76.5t11.5 63t8.5 39.5l203 819h272l203 -819q3 -12 8.5 -39.5t12 -63t13.5 -76.5t13.5 -79.5t12 -72.5t8.5 -56q3 22 8.5 56.5t12.5 74.5 t14.5 82t14.5 80t12.5 68.5t8.5 46.5l166 798h305l-352 -1462h-352l-180 721q-4 15 -9.5 42t-12.5 61t-14 71t-13 72t-10.5 64.5t-6.5 47.5q-2 -18 -6.5 -47.5t-10.5 -64t-12.5 -71.5t-13 -71t-12.5 -62t-10 -44l-178 -719h-353zM604 1743q0 35 11 60.5t29.5 42t44 24.5 t54.5 8t54.5 -8t44.5 -24.5t30.5 -42t11.5 -60.5q0 -34 -11.5 -59t-30.5 -41.5t-44.5 -24.5t-54.5 -8t-54.5 8t-44 24.5t-29.5 41.5t-11 59zM1007 1743q0 35 11 60.5t30 42t45 24.5t56 8q28 0 53.5 -8t45 -24.5t31 -42t11.5 -60.5q0 -34 -11.5 -59t-31 -41.5t-45 -24.5 t-53.5 -8q-60 0 -101 33t-41 100z" />
<glyph unicode="&#x1e85;" horiz-adv-x="1651" d="M0 1118h303l113 -495q9 -39 18.5 -93.5t18 -110t15.5 -105t11 -78.5h6q1 19 4.5 49.5t8.5 65.5t10.5 71.5t11 68.5t10 56.5t7.5 34.5l122 536h336l117 -536q5 -22 13 -68t16.5 -98.5t14.5 -102t7 -77.5h6q3 25 10.5 74t16.5 105.5t19.5 112.5t19.5 95l117 495h299 l-305 -1118h-332l-86 391q-4 17 -10.5 48.5t-14.5 71t-16.5 84t-17.5 88.5q-20 103 -44 222h-6q-23 -119 -42 -223q-8 -44 -16.5 -89t-16.5 -84.5t-14.5 -71.5t-10.5 -50l-90 -387h-328zM481 1405q0 35 11 60.5t29.5 42t44 24.5t54.5 8t54.5 -8t44.5 -24.5t30.5 -42 t11.5 -60.5q0 -34 -11.5 -59t-30.5 -41.5t-44.5 -24.5t-54.5 -8t-54.5 8t-44 24.5t-29.5 41.5t-11 59zM884 1405q0 35 11 60.5t30 42t45 24.5t56 8q28 0 53.5 -8t45 -24.5t31 -42t11.5 -60.5q0 -34 -11.5 -59t-31 -41.5t-45 -24.5t-53.5 -8q-60 0 -101 33t-41 100z" />
<glyph unicode="&#x1ef2;" horiz-adv-x="1196" d="M0 1462h336l262 -602l264 602h334l-444 -893v-569h-308v559zM220 1886v21h342q16 -34 37.5 -74.5t44.5 -81t47 -78.5t45 -67v-27h-203q-34 28 -81.5 69.5t-93.5 85.5t-84 84.5t-54 67.5z" />
<glyph unicode="&#x1ef3;" horiz-adv-x="1104" d="M0 1118h334l180 -629q16 -52 23.5 -111t9.5 -106h6q2 23 5.5 51t8.5 57t11.5 57.5t13.5 51.5l176 629h336l-442 -1261q-62 -177 -169 -263t-268 -86q-52 0 -90 5.5t-65 11.5v242q21 -5 53 -9t67 -4q48 0 82 13t58.5 36.5t42 56.5t30.5 74l19 56zM165 1548v21h342 q16 -34 37.5 -74.5t44.5 -81t47 -78.5t45 -67v-27h-203q-34 28 -81.5 69.5t-93.5 85.5t-84 84.5t-54 67.5z" />
<glyph unicode="&#x2000;" horiz-adv-x="1024" />
<glyph unicode="&#x2001;" horiz-adv-x="2048" />
<glyph unicode="&#x2002;" horiz-adv-x="1024" />
<glyph unicode="&#x2003;" horiz-adv-x="2048" />
<glyph unicode="&#x2004;" horiz-adv-x="683" />
<glyph unicode="&#x2005;" horiz-adv-x="512" />
<glyph unicode="&#x2006;" horiz-adv-x="341" />
<glyph unicode="&#x2007;" />
<glyph unicode="&#x2008;" horiz-adv-x="549" />
<glyph unicode="&#x2009;" horiz-adv-x="410" />
<glyph unicode="&#x200a;" horiz-adv-x="205" />
<glyph unicode="&#x200b;" horiz-adv-x="0" />
<glyph unicode="&#x2010;" horiz-adv-x="659" d="M61 424v250h537v-250h-537z" />
<glyph unicode="&#x2011;" horiz-adv-x="659" d="M61 424v250h537v-250h-537z" />
<glyph unicode="&#x2012;" horiz-adv-x="659" d="M61 424v250h537v-250h-537z" />
<glyph unicode="&#x2013;" horiz-adv-x="1024" d="M82 436v230h860v-230h-860z" />
<glyph unicode="&#x2014;" horiz-adv-x="2048" d="M82 436v230h1884v-230h-1884z" />
<glyph unicode="&#x2015;" horiz-adv-x="2048" d="M82 436v230h1884v-230h-1884z" />
<glyph unicode="&#x2017;" horiz-adv-x="842" d="M-4 -45h850v-139h-850v139zM-4 -324h850v-139h-850v139z" />
<glyph unicode="&#x2018;" horiz-adv-x="440" d="M23 983q14 54 33.5 115t42.5 123t49 123.5t51 117.5h219q-15 -61 -29.5 -127t-28 -131.5t-24.5 -127.5t-19 -115h-280z" />
<glyph unicode="&#x2019;" horiz-adv-x="440" d="M23 961q14 60 28.5 126t28 132t24.5 128t19 115h280l15 -22q-14 -55 -33.5 -115.5t-43 -123t-49 -123.5t-50.5 -117h-219z" />
<glyph unicode="&#x201a;" horiz-adv-x="594" d="M63 -264q15 61 29.5 127t28 131.5t24.5 128t19 115.5h280l15 -23q-14 -54 -33.5 -115t-43 -123t-49 -123.5t-50.5 -117.5h-220z" />
<glyph unicode="&#x201b;" horiz-adv-x="440" d="M23 1440l14 22h280q8 -53 19 -115t24.5 -128t28 -132t29.5 -126h-219q-25 56 -51 117t-49 123.5t-42.5 123t-33.5 115.5z" />
<glyph unicode="&#x201c;" horiz-adv-x="907" d="M23 983q14 54 33.5 115t42.5 123t49 123.5t51 117.5h219q-15 -61 -29.5 -127t-28 -131.5t-24.5 -127.5t-19 -115h-280zM489 983q14 54 34 115t43 123t49 123.5t51 117.5h219q-15 -61 -29.5 -127t-28 -131.5t-24.5 -127.5t-19 -115h-280z" />
<glyph unicode="&#x201d;" horiz-adv-x="907" d="M23 961q14 60 28.5 126t28 132t24.5 128t19 115h280l15 -22q-14 -55 -33.5 -115.5t-43 -123t-49 -123.5t-50.5 -117h-219zM489 961q15 60 29.5 126t28 132t24.5 128t19 115h280l15 -22q-14 -55 -33.5 -115.5t-43 -123t-49 -123.5t-50.5 -117h-220z" />
<glyph unicode="&#x201e;" horiz-adv-x="1061" d="M63 -264q15 61 29.5 127t28 131.5t24.5 128t19 115.5h280l15 -23q-14 -54 -33.5 -115t-43 -123t-49 -123.5t-50.5 -117.5h-220zM530 -264q15 61 29.5 127t28 131.5t24.5 128t19 115.5h280l15 -23q-14 -54 -33.5 -115t-43 -123t-49 -123.5t-50.5 -117.5h-220z" />
<glyph unicode="&#x2020;" horiz-adv-x="1057" d="M123 928v241l311 -30l-55 417h278l-55 -417l332 30v-241l-332 30l55 -958h-278l55 958z" />
<glyph unicode="&#x2021;" horiz-adv-x="1077" d="M123 346v242l332 -31l-47 229l47 213l-332 -30v241l332 -30l-56 376h279l-55 -376l331 30v-241l-331 30l47 -213l-47 -229l331 31v-242l-331 31l55 -377h-279l56 377z" />
<glyph unicode="&#x2022;" horiz-adv-x="770" d="M98 748q0 86 22 146t60.5 98t91 55.5t113.5 17.5q59 0 111.5 -17.5t91.5 -55.5t61.5 -98t22.5 -146q0 -85 -22.5 -145t-61.5 -98.5t-91.5 -56.5t-111.5 -18q-61 0 -113.5 18t-91 56.5t-60.5 98.5t-22 145z" />
<glyph unicode="&#x2026;" horiz-adv-x="1751" d="M117 143q0 47 13.5 79.5t37.5 52.5t56 29t69 9q35 0 66.5 -9t55.5 -29t38 -52.5t14 -79.5q0 -45 -14 -77t-38 -53t-55.5 -30.5t-66.5 -9.5q-37 0 -69 9.5t-56 30.5t-37.5 53t-13.5 77zM700 143q0 47 13.5 79.5t37.5 52.5t56.5 29t69.5 9q35 0 66.5 -9t55.5 -29t38 -52.5 t14 -79.5q0 -45 -14 -77t-38 -53t-55.5 -30.5t-66.5 -9.5q-37 0 -69.5 9.5t-56.5 30.5t-37.5 53t-13.5 77zM1284 143q0 47 13.5 79.5t37.5 52.5t56 29t69 9q35 0 66.5 -9t55.5 -29t38 -52.5t14 -79.5q0 -45 -14 -77t-38 -53t-55.5 -30.5t-66.5 -9.5q-37 0 -69 9.5t-56 30.5 t-37.5 53t-13.5 77z" />
<glyph unicode="&#x202f;" horiz-adv-x="410" />
<glyph unicode="&#x2030;" horiz-adv-x="2562" d="M63 1026q0 108 20 193t62.5 143.5t107.5 89.5t155 31q86 0 151.5 -31t109.5 -89.5t66.5 -143.5t22.5 -193t-20.5 -194t-63.5 -145t-109 -90.5t-157 -31.5q-85 0 -149.5 31.5t-108 90.5t-65.5 145t-22 194zM315 1024q0 -127 22.5 -189.5t72.5 -62.5q49 0 72.5 62t23.5 190 q0 250 -96 250q-50 0 -72.5 -61.5t-22.5 -188.5zM375 0l811 1462h239l-811 -1462h-239zM1047 442q0 108 20 193t62 143.5t107 89.5t155 31q86 0 151.5 -31t109.5 -89.5t66.5 -143.5t22.5 -193t-20.5 -193.5t-63.5 -144.5t-109 -90.5t-157 -31.5q-85 0 -149 31.5t-107.5 90.5 t-65.5 144.5t-22 193.5zM1298 440q0 -127 22.5 -189.5t72.5 -62.5q49 0 72.5 62t23.5 190q0 250 -96 250q-50 0 -72.5 -61.5t-22.5 -188.5zM1804 442q0 108 20 193t62 143.5t107 89.5t155 31q86 0 152 -31t110 -89.5t66.5 -143.5t22.5 -193t-20.5 -193.5t-63.5 -144.5 t-109 -90.5t-158 -31.5q-84 0 -148.5 31.5t-108 90.5t-65.5 144.5t-22 193.5zM2056 440q0 -127 22.5 -189.5t71.5 -62.5q50 0 73.5 62t23.5 190q0 250 -97 250q-49 0 -71.5 -61.5t-22.5 -188.5z" />
<glyph unicode="&#x2032;" horiz-adv-x="545" d="M133 1462h279l-41 -528h-197z" />
<glyph unicode="&#x2033;" horiz-adv-x="967" d="M133 1462h279l-41 -528h-197zM555 1462h279l-41 -528h-197z" />
<glyph unicode="&#x2039;" horiz-adv-x="692" d="M82 547v26l309 455l219 -119l-217 -348l217 -348l-219 -119z" />
<glyph unicode="&#x203a;" horiz-adv-x="692" d="M82 213l217 348l-217 348l219 119l309 -455v-26l-309 -453z" />
<glyph unicode="&#x203c;" horiz-adv-x="1167" d="M117 143q0 47 13.5 79.5t37.5 52.5t56 29t69 9q35 0 66.5 -9t55.5 -29t38 -52.5t14 -79.5q0 -45 -14 -77t-38 -53t-55.5 -30.5t-66.5 -9.5q-37 0 -69 9.5t-56 30.5t-37.5 53t-13.5 77zM121 1462h346l-51 -977h-244zM701 143q0 47 13.5 79.5t37.5 52.5t56 29t69 9 q35 0 66.5 -9t55.5 -29t38 -52.5t14 -79.5q0 -45 -14 -77t-38 -53t-55.5 -30.5t-66.5 -9.5q-37 0 -69 9.5t-56 30.5t-37.5 53t-13.5 77zM705 1462h346l-51 -977h-244z" />
<glyph unicode="&#x2044;" horiz-adv-x="266" d="M-393 0l811 1462h239l-811 -1462h-239z" />
<glyph unicode="&#x205f;" horiz-adv-x="513" />
<glyph unicode="&#x207f;" horiz-adv-x="825" d="M102 764v698h162l27 -84h12q34 51 82.5 76t116.5 25q235 0 235 -250v-465h-198v401q0 76 -25.5 108t-75.5 32q-35 0 -61 -10t-43 -34t-25 -64.5t-8 -100.5v-332h-199z" />
<glyph unicode="&#x20a3;" d="M35 262v178h149v1022h838v-254h-533v-336h496v-254h-496v-178h275v-178h-275v-262h-305v262h-149z" />
<glyph unicode="&#x20a4;" d="M82 0v248q40 17 72 36t55 46t36.5 63.5t16.5 87.5h-178v178h178v115h-178v176h178v115q0 113 31.5 192.5t87 129.5t132 73t167.5 23q110 0 199.5 -24t169.5 -58l-93 -230q-71 29 -129.5 46.5t-121.5 17.5q-67 0 -104.5 -38.5t-37.5 -133.5v-113h318v-176h-318v-115h318 v-178h-320q-3 -48 -17 -83.5t-35 -61.5t-46.5 -44.5t-50.5 -31.5h678v-260h-1008z" />
<glyph unicode="&#x20a7;" horiz-adv-x="1786" d="M184 0v1462h365q141 0 243.5 -31.5t169 -90t98.5 -143t32 -191.5q0 -96 -29 -184t-95.5 -155t-175 -107t-268.5 -40h-51v-520h-289zM473 774h62q131 0 197.5 52t66.5 169q0 109 -59.5 161t-186.5 52h-80v-434zM1055 637v108l168 103l88 235h153v-237h252v-209h-252v-307 q0 -30 9 -53.5t25 -40t36.5 -25t44.5 -8.5q43 0 78.5 9.5t71.5 25.5v-207q-41 -22 -100 -36.5t-128 -14.5q-68 0 -123.5 16.5t-95 56t-61 104.5t-21.5 162v318h-145z" />
<glyph unicode="&#x20ac;" d="M66 481v178h118q-3 17 -3.5 34t-0.5 28q0 15 1 29.5t1 23.5h-116v176h133q19 123 64.5 220t116 164.5t166.5 103t216 35.5q102 0 187 -21t165 -61l-98 -232q-69 31 -129 48.5t-125 17.5q-105 0 -172 -70.5t-90 -204.5h362v-176h-377q0 -8 -1 -17q-1 -8 -1 -17v-19v-29 q0 -11 2 -33h314v-178h-297q26 -125 96 -184t184 -59q79 0 147 15.5t128 41.5v-256q-57 -29 -128 -44t-165 -15q-240 0 -379 130t-182 371h-137z" />
<glyph unicode="&#x2105;" horiz-adv-x="1567" d="M63 1110q0 98 25 167t70 112.5t106.5 63.5t134.5 20q53 0 106 -12.5t99 -37.5l-55 -155q-40 18 -78 29.5t-72 11.5q-69 0 -100 -53.5t-31 -143.5t30.5 -140t96.5 -50q56 0 103 11.5t86 31.5v-164q-34 -20 -82.5 -32.5t-102.5 -12.5q-74 0 -136 22t-106.5 66t-69 110.5 t-24.5 155.5zM229 0l811 1462h240l-811 -1462h-240zM864 344q0 87 22.5 154.5t64 114t101 70.5t134.5 24q68 0 125.5 -24t100.5 -70.5t67 -114t24 -154.5t-22.5 -154.5t-64.5 -114t-101 -71t-133 -24.5q-69 0 -127.5 24.5t-101 71t-66 114t-23.5 154.5zM1067 344 q0 -100 27.5 -150.5t89.5 -50.5q60 0 87 50.5t27 150.5t-27 149.5t-87 49.5q-62 0 -89.5 -49.5t-27.5 -149.5z" />
<glyph unicode="&#x2113;" horiz-adv-x="1024" d="M41 463v196q49 13 94.5 26.5t87.5 27.5v411q0 95 23.5 163t69 111t114 63t158.5 20q77 0 138.5 -22.5t104.5 -64.5t66 -102t23 -135q0 -99 -26.5 -175t-77.5 -137.5t-126.5 -112.5t-173.5 -101v-256q0 -41 6 -75t18.5 -58.5t33 -38t49.5 -13.5q51 0 83 49.5t37 151.5h207 q-4 -97 -24.5 -173t-62.5 -128.5t-108.5 -80t-164.5 -27.5q-84 0 -152 25.5t-116 75.5t-73.5 126t-25.5 176v127q-38 -11 -84.5 -23t-97.5 -26zM516 846q75 42 108 119t33 186q0 65 -16 102t-53 37q-42 0 -57 -38t-15 -101v-305z" />
<glyph unicode="&#x2116;" horiz-adv-x="2023" d="M135 0v1462h330l467 -1040h16q-7 68 -12 138q-5 60 -8.5 130.5t-3.5 134.5v637h266v-1462h-328l-469 1047h-14q7 -75 12 -150q5 -64 8.5 -136t3.5 -132v-629h-268zM1309 639q0 87 22.5 154t64 113.5t101 70.5t133.5 24q68 0 126 -24t100.5 -70.5t67 -113.5t24.5 -154 t-22.5 -154.5t-64.5 -114.5t-101.5 -71.5t-133.5 -24.5q-69 0 -127 24.5t-100.5 71.5t-66 114.5t-23.5 154.5zM1329 0v188h598v-188h-598zM1511 639q0 -100 27.5 -150.5t89.5 -50.5q60 0 87.5 50.5t27.5 150.5t-27.5 149.5t-87.5 49.5q-62 0 -89.5 -49.5t-27.5 -149.5z" />
<glyph unicode="&#x2122;" horiz-adv-x="1534" d="M16 1313v149h564v-149h-199v-572h-168v572h-197zM625 741v721h247l160 -510l170 510h240v-721h-168v408q0 8 0.5 23.5t1.5 33.5v34q1 18 2 30h-6l-174 -529h-142l-165 529h-7q1 -16 1.5 -33t1 -32t1 -27.5t0.5 -18.5v-418h-163z" />
<glyph unicode="&#x2126;" horiz-adv-x="1520" d="M55 0v260h371q-72 44 -131 106.5t-100 140.5t-63.5 170t-22.5 195q0 139 42 252t125 193.5t205.5 124t282.5 43.5q161 0 283 -43.5t205 -124t125 -194t42 -253.5q0 -103 -22.5 -194.5t-64.5 -169t-101 -139.5t-133 -107h375v-260h-644v279q77 40 129 95t83.5 122.5 t45 146t13.5 166.5q0 204 -80.5 311t-255.5 107t-255.5 -107t-80.5 -313q0 -88 13 -166.5t44 -145t82 -121t127 -95.5v-279h-639z" />
<glyph unicode="&#x212e;" horiz-adv-x="1268" d="M102 530q0 99 22 179t60 143t89 109t110 76t123 44.5t127 14.5q113 0 210 -39.5t168 -113t111.5 -178t40.5 -235.5h-827v-356q22 -24 54 -46t70.5 -39t82.5 -27.5t90 -10.5q74 0 132 16t105 46t85.5 73.5t72.5 98.5l72 -41q-36 -57 -77.5 -107.5t-96.5 -89t-126.5 -60.5 t-166.5 -22q-130 0 -229 47t-166 125.5t-101.5 180.5t-34.5 212zM336 616h596v277q-19 20 -48.5 41t-68 38.5t-85 28.5t-99.5 11q-51 0 -94.5 -9.5t-80 -26t-66.5 -37.5t-54 -44v-279z" />
<glyph unicode="&#x215b;" horiz-adv-x="1804" d="M58 1227l301 235h191v-876h-238v446q0 20 0.5 50.5t2 61.5t3 57t2.5 38q-6 -8 -15.5 -18.5t-20 -21.5t-21 -21t-18.5 -17l-78 -61zM297 0l811 1462h239l-811 -1462h-239zM1024 236q0 42 13 75t34.5 59t50.5 46t60 37q-27 20 -50 41.5t-40.5 48t-27 57.5t-9.5 68 q0 56 24.5 98t67.5 70.5t100 43t121 14.5q65 0 121 -14t98 -42.5t66 -71t24 -98.5q0 -37 -11 -68t-30.5 -56t-45.5 -45t-56 -37q34 -19 65.5 -39.5t56 -46.5t39.5 -59t15 -75q0 -57 -24.5 -106t-69.5 -84.5t-108 -55.5t-140 -20q-84 0 -148 19t-107.5 53.5t-66 82.5 t-22.5 105zM1249 236q0 -45 29 -73.5t86 -28.5q59 0 89 28.5t30 73.5q0 42 -32 71.5t-89 49.5l-12 4q-48 -21 -74.5 -50.5t-26.5 -74.5zM1278 660q0 -41 26 -66t64 -46q19 10 35 20.5t28 24t18.5 30t6.5 37.5q0 29 -21 52.5t-69 23.5q-43 0 -65.5 -23.5t-22.5 -52.5z" />
<glyph unicode="&#x215c;" horiz-adv-x="1804" d="M59 639v190q66 -40 132 -65t139 -25q74 0 108.5 27t34.5 80q0 21 -8 40t-27 33.5t-51 23.5t-80 9h-112v160h92q52 0 84 9t50 24.5t24 35t6 40.5q0 38 -25 63t-76 25q-47 0 -89 -19t-99 -59l-101 141q62 47 137.5 78t178.5 31q62 0 115 -16.5t91.5 -46.5t60.5 -73t22 -96 q0 -69 -40.5 -119t-129.5 -79v-13q51 -10 88 -31t61.5 -48.5t36.5 -60.5t12 -69q0 -121 -88 -190.5t-274 -69.5q-76 0 -142 17.5t-131 52.5zM367 0l811 1462h239l-811 -1462h-239zM1059 236q0 42 13 75t34.5 59t50.5 46t60 37q-27 20 -50 41.5t-40.5 48t-27 57.5t-9.5 68 q0 56 24.5 98t67.5 70.5t100 43t121 14.5q65 0 121 -14t98 -42.5t66 -71t24 -98.5q0 -37 -11 -68t-30.5 -56t-45.5 -45t-56 -37q34 -19 65.5 -39.5t56 -46.5t39.5 -59t15 -75q0 -57 -24.5 -106t-69.5 -84.5t-108 -55.5t-140 -20q-84 0 -148 19t-107.5 53.5t-66 82.5 t-22.5 105zM1284 236q0 -45 29 -73.5t86 -28.5q59 0 89 28.5t30 73.5q0 42 -32 71.5t-89 49.5l-12 4q-48 -21 -74.5 -50.5t-26.5 -74.5zM1313 660q0 -41 26 -66t64 -46q19 10 35 20.5t28 24t18.5 30t6.5 37.5q0 29 -21 52.5t-69 23.5q-43 0 -65.5 -23.5t-22.5 -52.5z" />
</font>
</defs>
</svg>
