<?xml version="1.0" encoding="UTF-8"?>
<!DOCTYPE svg PUBLIC "-//W3C//DTD SVG 1.1//EN" "http://www.w3.org/Graphics/SVG/1.1/DTD/svg11.dtd">
<!-- Creator: CorelDRAW 2018 (64-Bit) -->
<svg xmlns="http://www.w3.org/2000/svg" xml:space="preserve" width="454.267mm" height="179.809mm" version="1.1" style="shape-rendering:geometricPrecision; text-rendering:geometricPrecision; image-rendering:optimizeQuality; fill-rule:evenodd; clip-rule:evenodd"
viewBox="0 0 45441.89 17986.86"
 xmlns:xlink="http://www.w3.org/1999/xlink">
 <defs>
  <style type="text/css">
   <![CDATA[
    .fil1 {fill:none}
    .fil0 {fill:#75C8EC}
    .fil2 {fill:#21A8DE}
    .fil3 {fill:#1C93C2}
    .fil4 {fill:#1C81A8}
    .fil5 {fill:#115B7A}
   ]]>
  </style>
 </defs>
 <g id="Слой_x0020_1">
  <metadata id="CorelCorpID_0Corel-Layer"/>
  <g id="_2729533594400">
   <path class="fil0" d="M12.58 1311.14c206.85,-28.75 473.62,-89.32 766.24,-214.18 663.49,-283.09 1526.02,-1096.96 1526.02,-1096.96l2288.96 728.83 1246.74 776.28 2678.86 653.42c0,0 619.26,-471.82 1238.5,-731.32 619.24,-259.49 2112.09,-664.44 2112.09,-664.44 1267.05,0 2453.11,474.64 3538.54,1035.99 1459.64,754.9 2134.18,336.18 3063.05,713.63 928.86,377.44 3007.77,334.85 3007.77,334.85l2653.91 1693.91 3139.39 707.74 3185.78 600.84 2255.83 -600.84c0,0 2609.67,-94.37 3051.99,-94.37 442.33,0 2698.15,-754.91 3715.49,-613.36 1017.33,141.55 1548.12,-330.26 2300.06,-330.26 903.94,0 2173.36,307.69 3063.59,271.37 192.73,-7.86 379.59,-21.41 562.08,-39.28l0 2.4 -24.56 0 0 6688.37 -45370.34 -705.98 0 -9116.62z"/>
   <path class="fil1" d="M12.58 6211.72c668.76,120.56 1240.83,272.52 1473.93,452.57 641.36,495.4 2720.26,1439.01 3162.58,1674.92 442.33,235.9 6413.62,1651.32 6546.32,1651.32 132.7,0 6369.39,306.68 6369.39,306.68l-17552.22 -324.34 0 -3761.16z"/>
   <path class="fil2" d="M12.58 2527.83c368.49,91.87 668.03,171.55 810.45,196.87 398.08,70.77 1548.13,471.8 2056.79,589.76 508.66,117.95 3228.92,165.14 3715.47,94.36 486.57,-70.77 1216.39,-306.69 1791.4,-353.87 575.01,-47.17 2012.56,-47.18 2388.53,70.78 375.97,117.96 5573.23,1250.29 6303.05,1533.37 729.82,283.08 2875.06,589.77 2875.06,589.77l2123.15 0 3029.9 0c0,0 3007.78,896.43 3405.86,990.78 398.09,94.36 2388.53,0 2388.53,0l8580.99 4576.53 -39469.17 -894.94 0 -7393.41z"/>
   <path class="fil3" d="M45382.93 7850.8c-1183.11,-47.35 -3645.36,-368.65 -3645.36,-368.65l-2255.81 -62.97 -2344.3 -298.7 -1592.35 -633.12 -1503.87 0c0,0 -530.79,-483.61 -1946.2,271.28 -1415.43,754.9 -4739.17,1981.6 -4739.17,1981.6l-4485.08 1699.32 5111.45 423.42 17400.7 261.3 0 -3273.47z"/>
   <path class="fil4" d="M12.58 5363.02c1568.76,281.86 4836.36,846.24 5366.36,805.86 619.25,-47.19 2698.15,-731.3 3052,-872.84 353.86,-141.54 1061.58,-754.9 1813.52,-754.9 751.94,0 3892.4,1065.98 3892.4,1065.98 0,0 1194.27,514.59 2609.68,880.24 1415.43,365.65 2609.69,365.65 3228.93,554.37 619.26,188.73 1725.06,519 2211.61,613.35 486.55,94.35 5661.07,3205.81 5661.07,3205.81l-8051.71 -125.29 -19783.85 -175.32 0 -5197.25z"/>
  </g>
  <path class="fil5" d="M16532.27 7527.59c-107.77,-69.09 -94.59,-43.65 -270.25,-43.65 -15.38,140.49 -27.73,90.8 -211.88,90.8l0 -101.96 -810.2 0c-4.09,230.32 -7.09,464.49 -7.09,707.36 -90.61,37.44 -589.47,39.59 -696.19,90.82l0 -272.43 -97.29 -84.32c-217.94,-6.48 -359.74,8.91 -538.37,23.78 28.79,135.91 35.6,90.82 -181.61,90.82 -5.08,227.68 -60.55,17.34 -60.55,302.67 -288.78,-193.36 -215.45,92.73 -242.16,-151.34l-302.68 0c-12.62,-115.4 -61.75,-82.99 -71.57,-85.23 -5.1,-1.16 -14.54,-0.73 -20.15,-1.35l-168.88 2.15c-428.21,10.31 -298.17,40.1 -431.53,60.22 -3.87,0.58 -12.83,2.47 -16.79,2.67l-71.97 -13.04c-95.45,-15.9 -47.81,-10.24 -128.1,30.43 -66.52,33.69 50.53,-7.58 -65.88,30.76l-160.17 11.1c-4.99,-1.52 -13.02,-5.32 -17.86,-7.38 -88.74,-37.94 -90.15,-95.63 -269.69,-95.09 -202.77,0.63 -104.47,27.96 -242.24,64.76 -36.5,-136.72 -105.15,-104.19 -216.02,-95.91 -172.86,12.88 -219.52,-18.05 -328.82,5.1l0 -514.58c-184.16,0 -196.53,49.69 -211.9,-90.8l-302.69 0c-12.59,144.14 41.78,64.83 -151.35,60.53l0 665.93 -393.51 -60.54c-23.34,-50.49 -31.86,-298.93 -30.34,-453.94 2.92,-295.05 77.17,-370.66 -209.28,-365.86 -259.63,4.35 -181.74,21.97 -356.53,-36.96 -67.8,-22.87 -38.23,-18.86 -128.41,-23.54 -344.58,-17.86 -196.96,41.88 -508.21,73.36 -510.62,51.66 -375.59,-97.57 -609.79,-38.85 -447.13,112.13 -367.1,-356.46 -367.1,936.6l-134.82 12.69 0 292.32 -2288.98 0 0 -964.61c-3.76,-76.69 -11.55,-144.14 -27.59,-194.81 -41.4,-130.85 -30.7,-157.93 -30.7,-326.11l-817.28 0c-2.93,131.7 -30.27,165.12 -30.27,332.97 -185.39,-67.11 -9.46,-118.58 -394.2,-121.2 -80.95,-0.55 -177.19,-13.61 -211.2,-13.61 -38.78,0 -154.27,13.74 -242.15,13.74l-30.27 151.33c-27.93,-104.59 -52.6,-110.35 -181.61,-121.07 -40.39,84.15 -30.28,58.62 -30.28,181.62 -92.25,-38.11 -7.07,-12.01 -151.34,0l-60.53 817.27 0 -1241.05c-201.97,0 -424.2,-96.9 -602.75,-56.62 -257.16,58.04 158.22,56.62 -547.5,56.62l0 3450.73 32691.14 30.27c3652.76,0 7230.51,-30.27 10897.06,-30.27l0 -3178.3c-265.7,61.89 -368.09,-5.7 -504.18,-39.54 -135.03,-33.56 -9.56,-18.08 -104.86,3.8 -133.94,30.79 -100.04,33.56 -211.37,19.27 -276.87,-35.59 -178.5,159.63 -178.5,924.56 -191.29,0 -192.8,28.22 -238.85,29.47 -3.12,0.09 -11.25,-1.05 -14.4,-1.21 -3.4,-0.18 -11.78,-2.65 -15.33,-2.95 -3.89,-0.34 -12.58,-3.04 -16.75,-3.37 -68.98,-5 -9.73,-14.6 -108.17,8.34 -21.03,-252.74 -31.38,-1372.23 -29.57,-1816.89l-15.84 -398.05 -903.75 0c-3.8,752.34 10.79,1959.37 10.79,2305.74l-30.28 0c0,-420.01 38.39,-882.07 -18.09,-1285.58 -4.49,-32.14 -6.26,-61.73 -6.82,-89.69l0 0.04 -882.14 0c-34.22,405.38 -1.02,994.83 -1.02,1314.69l-121.08 0c-51.47,-220.92 -18.03,-440.4 -32.1,-697.13 -4.07,-74.07 -7.84,-88.7 -11.17,-129.5 -3.09,-37.82 4.03,-5.83 -3.08,-43.01 -41.63,-217.49 -44.44,-32.03 -44.44,-371.4l-817.28 0c-2.93,131.7 -30.27,165.12 -30.27,332.97 -62.69,-22.71 -28.62,-13.68 -74.83,-46.25 -136.3,-96.05 -292.83,-88.57 -530.57,-88.57 -38.79,0 -154.28,13.74 -242.16,13.74 -60.36,146.16 17.35,-23.46 -23.92,132.26 -0.96,3.61 -2.81,13.38 -6.34,19.07 -27.93,-104.59 -52.6,-110.35 -181.61,-121.07 -40.39,84.15 -30.28,58.62 -30.28,181.62 -92.25,-38.11 -7.07,-12.01 -151.33,0l-27.19 366.91 0 736.16 -35.94 0 0 -1222.45 2.58 0 0 -304.4c-250.76,0 -480.41,-124.62 -666.12,-30.24 -198.51,100.89 -292.26,-17.03 -479.68,36.94 -137.52,39.6 -75.28,142.11 -64.99,265.73 -55.2,27.37 -37.87,23.35 -121.07,30.27l0 787c-93.28,-44.76 -110.99,-30.26 -242.15,-30.26l0 -321.87 -1302.84 0 -37.62 3.98 -7.11 391.23 -347.32 20.38c-104.23,-125.51 -97.49,-88.02 -302.89,-84.27 -94.19,-4.53 -140.05,15.73 -207.29,51.08l-343.98 117.75 -31.3 -269.08c-20.42,-21.63 -2.97,-12.94 -44.6,-40.25 -15.38,-10.07 -63.47,-34.01 -80.39,-38.65l-476.12 -14.85c-152.28,3.31 -122.19,-22.77 -174.44,63.48l-130.05 80.08 -7.28 -578.44 -593.15 18.89c-160.62,-9.97 -221.9,43.93 -363.23,55.7l0 938.37c-146.4,0 -85.97,10.34 -110.23,30.26l-12.93 481.01c-168.45,10.93 -462.97,31.45 -614.93,-14.31l-1.56 -570.03 -307.75 -1.89 -30.97 -138.48 -841.04 0.92 -58.04 -1331.23c31.96,-251.23 -50.63,-1236.39 -50.63,-1604.3 -592.15,-49.28 -829.39,-151.4 -1260.79,101 -98.14,57.44 -28.14,12.84 -64.2,50.35l0.05 3089.03 -212.54 2.98 -18.23 558.14c-153.23,-1.29 -91.59,-188.81 -91.83,-350.77l-2.15 -1464.76c-578.38,-0.13 -222.6,-131.07 -771.87,-50.85 -267.58,7.3 -307.57,75.73 -514.58,92.94l0 575.12c-118.11,2.62 -251.12,51.55 -332.96,90.8l0 -847.54 -909.04 -0.76c-136.81,7.44 -179.86,55.04 -257.5,40.88 -104.89,-19.11 30.39,-9.56 -107.93,-34.72l-481.18 -5.42c-323.5,-0.42 -322.89,-26.62 -544.84,90.83l0 1271.32 -233.54 30.04c-5.04,1.09 -13.1,3.64 -18.19,4.39l-113.29 -2.76c-285.21,11.68 81.79,23.46 -331.19,119.68 0,-210.04 6.83,-429.78 2.53,-638.19 -4.01,-193.26 -3.78,-121.77 -96.83,-236.15 -60.13,-73.89 -73.3,-130.47 -147.86,-185.11 -110.73,29.58 -63.43,31.95 -151.35,90.82 -140.36,-102.83 33.39,-90.82 -211.88,-90.82l0 -1029.15c-608.26,0 -298.44,-60.55 -544.84,-60.55 0,-159.67 14.2,-171.56 -181.63,-302.68 -58.94,39.48 -130.76,80.22 -184.28,118.41 -113.87,81.22 -88.15,67.76 -88.15,244.82 -628.14,0 -559.79,-257.63 -546.06,879.03 1.92,157.33 28.58,170.9 31.48,301.47l-74.15 -107.44c-34.86,-55.35 -35.07,-54.05 -67.17,-114.45 -42.51,-80.03 -112.01,-190.88 -131.08,-262.42l-90.8 0c-18.93,81.18 -55.52,148.87 -86.57,216.13 -186.61,404.12 -216.14,120.28 -216.14,782.75 -92.22,2.05 -110.37,13.67 -181.62,30.28 -119.21,-87.33 -2.22,-70.5 -130,-114.05 -74.59,-25.42 -191.61,-7.86 -238.42,17.56 -149.75,81.37 -60.48,187.31 -327.78,187.31 0,-863.5 30.28,-1625 30.28,-2482.12 -110.89,-151.33 -79.31,53.74 -156.74,-206.49 -30.49,-102.46 -51.43,-170.76 -89.07,-274.18 -31.01,-85.28 -56.37,-177.57 -91.17,-272.06 -16.35,-44.39 -33.36,-83.74 -54.88,-126.74 -41.64,-83.26 -52.62,-62.17 -62.19,-149.68l-302.69 0c-8.8,105.77 -250.32,637.89 -302.28,787.42 -45.7,131.5 -34.48,199.18 -182.04,211.46l0 1816.18c-234.82,19.55 -55.02,192.77 -151.35,393.5 -35.86,35.86 -67.67,28.27 -123.24,26.62l0 179.93 -3813.97 0 0 -828.82zm26523.67 -591.64c0.43,-30.23 1.19,-59.03 0,-87.72l0 87.72z"/>
  <path class="fil5" d="M29338.47 7300.19c549.26,-80.23 193.48,50.72 771.87,50.85l2.15 1464.76c0.24,161.95 -61.4,349.48 91.83,350.77l18.23 -558.14 212.54 -2.98 -0.05 -3089.03c-87.04,111.87 -37.13,1373.96 -37.13,1513.49 0,514.57 0,1029.15 0,1543.75l-211.89 0 -27.62 -1152.89c-13,-177.1 -76.19,-107.26 -245.35,-117.87 -149.1,-9.37 -94.5,-55.47 -270.53,-62.71 -33.97,-1.39 -152.73,-2.03 -182.72,1.96 -88.25,11.76 -73.96,19.32 -121.32,58.06z"/>
  <path class="fil5" d="M33677.88 8543.37c-81.41,94.4 -41.13,331.65 -41.13,454.04l-575.11 0c61.27,-127.7 30.27,-396.23 30.27,-575.13l-332.97 0 0 -151.33 -847.55 0 -63.24 -1239.02c-21.27,-81.09 12.9,-12.4 -37.48,-62.57l58.04 1331.23 841.04 -0.92 30.97 138.48 307.75 1.89 1.56 570.03c151.95,45.77 446.48,25.25 614.93,14.31l12.93 -481.01z"/>
  <path class="fil5" d="M36239.94 8129.05c205.4,-3.75 198.66,-41.24 302.89,84.27l347.32 -20.38 7.11 -391.23 37.62 -3.98 -59.29 0 0 382.4 -332.96 0c-14.76,-61.65 -6.97,-107.57 -183.93,-93.83 -162.12,12.57 -74.52,-1.18 -118.76,42.75z"/>
  <path class="fil5" d="M34881.82 7998.52c-62.64,15.49 -49,4.51 -94.83,30.28l0 -544.86 -573.07 2.37c-70.15,16.05 -21.87,2.78 -62.58,32.73l593.15 -18.89 7.28 578.44 130.05 -80.08z"/>
  <path class="fil5" d="M36032.65 8180.13c-156.91,12.27 -150.02,60.54 -337.56,60.54l30.26 -181.62 -67.98 -30.25 31.3 269.08 343.98 -117.75z"/>
  <path class="fil5" d="M31361.51 4001.53c95.11,-81.84 112.66,6.84 130.08,-142.6 -107.11,-91.74 -77.85,-15.03 -191.2,-71.19l7.67 -348.24c237.61,-13.04 199.45,13.91 236.24,-75.52 -60.28,-90.5 -102.18,-40.36 -246.87,-57.24 14.09,-390.64 13.26,-316.15 -95.18,-324.16 -48.85,76.92 -27.93,229.54 -25.79,334.2 -124.79,-0.95 -195.62,-35.23 -246.75,47.2 49.22,71.52 -117.09,72.48 241.12,71.65l-2.63 352.12c-131.7,59.66 -101.69,-34.2 -186.8,90.81 27.18,72.77 106.76,110.63 106.85,110.42 2.53,-5.33 13.17,5.96 18.54,10.66 -105.65,261.27 -110.42,308.46 -280.35,471.76 -302.15,290.29 -626.84,361.42 -710.02,804.53 -64.66,344.41 70.21,431.23 155.87,570.14 -51.23,111.99 -88.97,178.01 -71.5,331.91 7.37,65.03 18.26,91.22 47.58,137.63 116.84,185.18 74.17,125.08 64.03,603.96 -171.08,75.15 -223.63,133.65 -332.59,244.98l-118.97 90.94c0.01,-420.38 77.31,-189.1 187.83,-446.03 74.01,-172.08 13.08,-351.53 -74.94,-461.23 -290.04,-361.56 -439,-141.8 -440.38,-744.3 39.73,-26.96 12.17,-2.98 73.77,-24.18 166.74,-57.41 94.79,63.57 113.35,-93.25 -34.92,0.12 -85.74,4.5 -118.23,-5.55 -162.38,-50.3 1.5,-99.72 -95.08,-265.63 -76.24,32.37 -42.39,-46.49 -59.08,113.03 -3.02,28.9 2.17,121.33 1.84,157.9l-187.45 26.87c64.65,130.61 -13.78,3.75 94.11,55.6 136.6,65.6 84.97,17.41 94.29,65.47 0,246.14 11.46,306.38 -133.51,445.77 -82.42,79.25 -234.5,186.09 -291.62,254.52 -83,99.48 -149.99,255.76 -103.02,428.25 49.9,183.24 127.36,183.1 246.86,294.13 25.55,461.6 0.84,339.7 -179.94,632.16 -54.07,87.43 -100.04,183.92 -126.26,301.53 -36.06,161.72 3.66,145.96 119.96,216.54l0.73 332.98c0.63,564.61 36.84,394.71 -96.38,514.56 -6.67,191.19 -3.63,383.85 -2.13,575.43 2.02,260.13 -67.74,307.01 -48.35,526.51 387.21,0.05 4623.16,40.87 4802.71,-27.93 18.26,-233.3 -40.58,-144.75 -52.53,-345.74l-62.52 -784.83c-78.88,-93.66 -40.55,-504.76 -37.13,-642.55 8.1,-326.24 212.06,-82.24 106.72,-419.72 -174.67,-559.64 -314.3,-204.66 -291.14,-878.94 237.98,-202.17 420.46,-445.47 125.76,-743.41 -263.21,-266.06 -404.29,-183.2 -405.1,-709.53l111.23 -39.68c78.48,-35.32 32.14,25.01 74.39,-51.13 -82.21,-38.75 -76.56,-24.67 -185.81,-33.47l-6.96 -202.97c-14.75,-71.83 1.51,-23.09 -28.67,-64.42 -84.35,50.74 -49.42,117.19 -50.1,240.3l-123.52 40.64c-76.34,35.17 -29.74,-30.53 -62.1,50.19 78.13,44.23 61.97,8.5 111.55,31.28 84.73,38.92 32.65,-31.2 75.56,59.52 86.25,384.05 -333.7,603.39 -440.07,722.25 -242.65,271.13 -53.22,537.34 116.46,669.79l-2.34 234.12c-61.31,-32.06 -168.12,-146.81 -216.13,-188.53 -85.78,-74.5 -135.21,-85.88 -233.23,-166.17l-13.6 -514.73c29.8,-86.7 236.22,-91.08 48.58,-544.85 589.88,-708.26 -399.06,-1209.66 -577.65,-1388.38 -161.46,-161.59 -145.99,-245.66 -260.04,-456.16z"/>
  <path class="fil5" d="M15091.73 6472.13l-5.29 116.12c-154.31,105.34 -152.42,149.55 -257.45,347.18 -198.78,0.67 -331.53,45.41 -451.61,138.3 -66.9,51.79 -216.56,237.2 -216.63,375.68l117.19 100.21c-1.39,72.36 -14.74,407.13 -28.91,459.94 -11,41.07 -104.54,151.23 -42.03,275.72 21.05,41.98 -1.08,-0.67 28.82,39.72 48.41,65.36 9.99,543.03 7.6,659.06 -111.52,21.69 -185.45,43.84 -176.54,184.23 20.84,327.61 711.59,124.08 841.27,171.66 67.89,60.34 33.08,83.49 121.17,116.37 156.39,58.42 822.59,40.37 1011.58,25.29 157.62,-12.58 200.39,-24.42 272.92,-139.71 205.14,-3.36 505.55,23.14 697.95,-0.64 182.56,-22.57 262.9,-320.91 -18.86,-351.15l-18.13 -639.64c127.33,-115.69 73.76,-189.2 19.47,-313.24 -29.41,-67.15 -17.03,-172.67 -22.36,-252.04 -25.09,-374.18 36.43,-160.53 108.08,-384.63 -0.81,-88.56 -208.11,-468.01 -669.53,-464.3 -40.31,-61.64 -62.93,-144.17 -109.62,-203.16 -132.78,-167.79 -145.14,-70.43 -153.01,-260.96l-1056.08 0z"/>
  <path class="fil5" d="M15468.66 5766.94c-65.95,94.48 -169.29,179.74 -330.57,253.14 -597.16,271.89 -587.91,747.94 -190.52,932.34 -209.38,158.96 -271.39,168.12 -27.76,310.43l-32.93 528.61c-30.79,15.34 -57.01,29.38 -79.83,42.79l1606.86 0c-91.34,-53.11 -60.02,-24.73 -93.71,-568.14 123.05,-91.42 259.78,-138.51 -21.31,-295.99 93.3,-76.09 139.62,-73.27 211.66,-177.34 60.25,-87.06 85.45,-191.05 70.36,-298.64 -28.01,-199.97 -189.9,-324.75 -340.41,-416.43 -217.61,-132.56 -364.47,-198.51 -453.58,-310.78l-318.26 0z"/>
  <polygon class="fil5" points="10238.37,7312.11 14209.03,7312.11 14209.03,7633.43 10238.37,7633.43 "/>
  <polygon class="fil5" points="10728.07,7312.11 10914.82,7312.11 10914.82,8356.41 10728.07,8356.41 "/>
  <polygon class="fil5" points="11386.9,7312.11 11573.67,7312.11 11573.67,8356.41 11386.9,8356.41 "/>
  <polygon class="fil5" points="12045.74,7312.11 12232.51,7312.11 12232.51,8356.41 12045.74,8356.41 "/>
  <polygon class="fil5" points="12704.59,7312.11 12891.34,7312.11 12891.34,8356.41 12704.59,8356.41 "/>
  <polygon class="fil5" points="13363.43,7312.11 13550.18,7312.11 13550.18,8356.41 13363.43,8356.41 "/>
  <polygon class="fil5" points="14022.26,7312.11 14209.03,7312.11 14209.03,8356.41 14022.26,8356.41 "/>
  <polygon class="fil5" points="16947.03,7312.11 20701.9,7312.11 20701.9,7633.43 16947.03,7633.43 "/>
  <polygon class="fil5" points="16947.03,7312.11 17148.49,7312.11 17148.49,8356.41 16947.03,8356.41 "/>
  <polygon class="fil5" points="17657.72,7312.11 17859.17,7312.11 17859.17,8356.41 17657.72,8356.41 "/>
  <polygon class="fil5" points="18368.39,7312.11 18569.86,7312.11 18569.86,8356.41 18368.39,8356.41 "/>
  <polygon class="fil5" points="19079.09,7312.11 19280.53,7312.11 19280.53,8356.41 19079.09,8356.41 "/>
  <polygon class="fil5" points="19789.76,7312.11 19991.22,7312.11 19991.22,8356.41 19789.76,8356.41 "/>
  <polygon class="fil5" points="20500.43,7312.11 20701.9,7312.11 20701.9,8356.41 20500.43,8356.41 "/>
  <path class="fil5" d="M6293.35 8307.05l184.06 70.95c41.15,15.99 45.27,14.24 55.07,35.74l-237.81 0.07 -1.32 -106.77zm-83.54 -0.32l1.1 106.98 -239.43 0.26c8.65,-18.67 12.16,-19.12 48.99,-33.58 21.57,-8.47 40.4,-15.77 62.18,-24.6 42.09,-17.02 84.36,-39.14 127.16,-49.06zm144.33 -61.65c53.63,-23.53 268.05,-118.68 317.53,-121.81l22.82 261.96c-30.04,-4.16 -306.53,-104.2 -340.34,-140.15zm-543.2 140.29l23.77 -261.87c45.86,2.82 263.19,98.29 315.2,121.5 -9.85,10.57 -3.18,5.38 -16.78,14.52l-61.15 27.18c-68.9,27.49 -204.45,90.38 -261.04,98.66zm481.8 -195.3l0.17 -85.46 198.44 -1.35c-27.35,34.17 -174.91,83.8 -198.61,86.81zm-279.99 -86.02l198.96 -0.69 -0.26 86.81c-31.89,-4.22 -173.04,-55.63 -198.7,-86.12zm280.13 -216.45c44.11,13.24 140.65,72.33 192.2,100.14 8.88,4.8 25.56,12.53 33.67,18.49 31.77,23.24 11.93,5.37 25.6,27.05l-251.32 -0.91 -0.15 -144.77zm-333.13 145.66c23.56,-37.32 221.46,-136.72 251.5,-145.73l-0.05 145.55 -251.45 0.18zm663.29 -373.86l32.8 339.74c-38.69,-10.47 -222.52,-116.08 -282.63,-149.93l-38.63 -28.17 288.47 -161.64zm-741.66 0.04c22.75,6.64 259.35,127.35 288.07,161.6 -1.7,1.74 -4.07,3.86 -5.37,4.95l-72.56 44.38c-57.95,31.66 -197.81,116.56 -244.52,128.71l34.39 -339.65zm411.73 -25.82l205.93 1.42 -26.89 24.44c-7.59,5.27 -12.08,7.03 -21.92,12.47 -42.73,23.6 -120.62,72.45 -156.99,81.25l-0.13 -119.58zm-82.74 119.58c-41.11,-10.14 -67.14,-32.11 -105.89,-53.47l-78.03 -44.05c-20.81,-15.84 -8.64,-5.04 -21.33,-21.71l206.56 0.19 -1.32 119.04zm82.77 -328.82c34.3,7.42 160.27,85.89 197.36,113.64l20.08 18.41c0.87,-1.59 3.36,3.53 4.88,6.97l-222.47 -0.52 0.16 -138.5zm-304.48 137.56c8.04,-10.16 3.95,-5.93 14.72,-15.61l36.71 -24.94c51.16,-31 125.77,-87.22 172.05,-97.23l-0.7 139.78 -222.78 -2zm338.48 -211.14c22.74,-30.82 228.78,-150.23 249.6,-158.2l29.79 329.06c-49.13,-12.49 -159.02,-90.2 -216.28,-125.11l-63.11 -45.75zm-429.56 170.86c2.48,-71.64 16.46,-270.97 36.04,-328.94l234.09 147.74c1.13,1.03 3.95,6.63 4.73,5.09 0.81,-1.57 3.19,3.43 4.7,5.25l-68.55 48.79c-55.96,35.08 -160.93,109.34 -211.01,122.07zm395.12 -356.87l173.31 -0.64c-19.44,34.51 -40.06,37.56 -83.99,65.02 -31.74,19.85 -50.73,37.66 -89.26,47.54l-0.06 -111.92zm-80.62 112.24c-35.2,-9.25 -154.18,-77.64 -173.98,-112.64 81.81,0.07 93.94,-4.62 173.11,6.63l0.87 106.01zm80.35 -278.02c39.94,8.3 137.32,62.19 162.74,95.37l-161.7 -0.61 -1.04 -94.76zm-329.27 -183.4c54.1,4.11 64.02,32.41 105.65,48.02 32.07,12.01 75.21,-7.52 111.28,10.88 34.44,17.59 44.54,52.91 45.62,101.42 2.37,106.36 8.89,146.87 -43.49,132.22 -80.79,-22.56 -55.73,-5.83 -138.99,-9.99 0.88,-45.96 -4.75,-57.11 0.61,-86.6 -20.45,7.64 -28.6,12.75 -46.94,23.69 -33.84,20.2 -12.6,15.77 -54.81,22.72l21.08 -242.36zm329.72 -34.03l128.74 0.07c-11.44,17.32 -0.59,5.36 -14.79,18.63l-43.52 26.52c-25.07,14.52 -37.47,24.48 -70.39,31.95l-0.03 -77.17zm-81.44 77.36c-33.87,-7.78 -44.98,-17.33 -70.53,-32.19l-48.82 -31.89 119.41 -12.58 -0.06 76.67zm-127.94 -409.11c33.9,-34.18 147.61,-137.45 177.25,-148.03 27.34,16.85 169.65,143.82 186.76,182.77l-390.24 -0.98 26.23 -33.76zm234.04 -196.25c12.97,-33.88 44.14,-53.55 68.91,-74.71 27.9,-23.86 43.96,-46.55 74.6,-60.64 7.57,11.81 1.78,-2.98 9.56,22.79l26.47 279.17c-34.25,-18.95 -153,-130.38 -179.55,-166.61zm-283.7 -157.63c32.28,10.03 156.79,124.82 167.16,157.63 -32.33,32.5 -62.62,59.61 -95.77,88.24 -33.71,29.12 -60.5,62.99 -100.89,79.65l29.51 -325.52zm213.19 101.22c-43.28,-57.99 -102.53,-81.49 -118.9,-128.29l265.56 0.03c-11.24,33.51 -110.7,119.57 -146.66,128.26zm-151.81 -196.32c11.14,-35.08 138.31,-157.79 156.85,-168.88 19.19,11.48 145.62,133.48 156.77,169.77l-313.62 -0.89zm208.03 -226.23c27.12,-37.53 82.88,-101.73 120.97,-117.91l24.58 263.7 -145.55 -145.79zm-222.56 -117.83c35.51,15.3 98.22,87.55 120.02,117.83l-115.71 129.61c-16.28,11.93 -4.67,6.19 -31.09,16.04l26.78 -263.48zm171.39 61.86c-30.31,-16.43 -98.34,-88.57 -106.88,-119.24l213.64 0.13c-8.48,30.77 -75.75,102.32 -106.77,119.11zm-82.91 -185.72c11.16,-34.22 -4.51,-7.17 18.8,-32.29l64.11 -45.19c37.62,14.51 72.44,41.42 83.49,77.02l-166.4 0.46zm235.36 -57.19c-37.7,-13.41 -37.46,-11.86 -50.48,-42.63 59.28,-1.33 47.11,-12.11 50.48,42.63zm-304.85 0.45c2.48,-55.89 -8,-43.93 50.98,-43.4 -12.77,31.5 -12.45,29.91 -50.98,43.4zm8.23 -280.89c4.98,-21.71 120.13,-289.32 152.85,-320.4l39.61 77.86c11.46,26.15 21.79,49.74 34.58,78.41 23.58,52.81 52.37,105.79 67.83,163.67l-294.88 0.46zm-78.01 -0.35c-56.58,-0.25 -62.28,-9.35 -94.38,22.34l-1.01 195.14c10.93,26.85 70.8,19.6 94.83,20.62l-101.07 1048.66c-83.34,9.19 -128.12,-11.11 -166.99,20.32l-1.22 261.77c34.49,27.79 79.94,17.09 137.95,17.79l-161.22 1631.31 -246.2 3.66c-23.93,52.14 -17.55,296.55 -8.82,367.29 11.26,19.93 54.04,17.15 73.64,17.73l1449.37 -1.47c36.69,-15.67 20.24,-165.8 20.24,-204.03 0,-53.84 14.17,-142.12 -15.34,-178.63l-243.81 -3.94c-28.32,-374.08 -79.21,-853.68 -119.07,-1241.85 -0.25,-2.38 -0.61,-4.47 -0.91,-6.85 -0.39,-2.99 -2.02,-11.48 -2.52,-14.62 -10.32,-64.42 -30.33,-229.48 -22.31,-270.88l-54.23 -0.31c-0.07,-4.58 0.59,-33.35 0.45,-34.14 -7.2,-42.72 8.21,-14.55 -19.15,-26.06 -15.5,36.97 11.21,184.84 13.13,240.82 -46.37,-9.82 -161.99,-91.08 -232.46,-125.08l168.46 -106.07c27.39,-15.6 33.27,-23.78 67.61,-25.44 44.87,68.09 -8.89,41.95 35.5,61.12 1.17,-1.68 3.27,-6.09 3.54,-4.98 0.26,1.09 2.64,-4.02 2.94,-5.43 3.95,-19.3 2.28,5.53 2.38,-22.9 0.07,-13.59 -2.49,-34.44 -3.13,-49.25 34.97,-0.42 74.57,-4.7 106.24,5.59 -7.68,-35.31 -0.68,-2.2 -7.43,-19.65 -12.94,-33.43 -10.86,-64.92 10.6,-103.12 13.82,-24.62 9.11,-14.03 35.92,-26.94 -33.01,-127.82 50.5,-152.67 -107.52,-152.67l-70.34 -2.37 -101.77 -1049.89 81.94 -0.87c27.18,-43.95 15.25,-158.91 16.28,-214.34 -69.24,-59.7 -69.79,25.74 -109.4,-70.92l-133.51 -301.06c-78.88,-176.85 -80.04,-113.83 -187.35,110.5 -35.54,74.28 -86.15,168.44 -109.86,239.13z"/>
  <path class="fil5" d="M6209.23 6993.75c1.95,-85.42 -25.79,-133.47 -105.02,-114.18l14.51 11.93c23.64,16.59 37.61,16.09 55.31,42.47l-114.54 68.48 -0.7 70.65c26.38,-7.04 132.24,-68.52 150.43,-79.37z"/>
  <rect class="fil5" x="4335.81" y="7060.16" width="906.18" height="1871.87"/>
  <rect class="fil5" x="7624.98" y="7245.69" width="2211.6" height="1282.73"/>
  <rect class="fil5" x="26190.43" y="7135.1" width="2312" height="1835.64"/>
  <rect class="fil5" x="23337.47" y="6587.73" width="1551.37" height="1835.64"/>
  <rect class="fil5" x="33791.99" y="7428.14" width="1002.41" height="1835.64"/>
  <rect class="fil5" x="34731.93" y="7925.76" width="1002.41" height="1835.64"/>
  <rect class="fil5" x="33615.06" y="8345.96" width="1002.41" height="1835.64"/>
  <rect class="fil5" x="32553.31" y="7996.55" width="1002.41" height="1835.64"/>
  <rect class="fil5" x="41058.32" y="7007.94" width="1002.41" height="1835.64"/>
  <rect class="fil5" x="42141.99" y="6761.41" width="1002.41" height="1835.64"/>
  <rect class="fil5" x="40240.02" y="7253.5" width="1002.41" height="1835.64"/>
  <rect class="fil5" x="39975.04" y="7007.94" width="320.68" height="1835.64"/>
  <rect class="fil5" x="39845.11" y="7364.56" width="320.68" height="1835.64"/>
  <rect class="fil5" x="38551.32" y="6963.7" width="1257.84" height="1835.64"/>
  <rect class="fil5" x="38390.97" y="7323.08" width="1257.84" height="1835.64"/>
  <ellipse class="fil5" cx="15626.71" cy="5878.7" rx="204.57" ry="187.98"/>
  <ellipse class="fil5" cx="21258.38" cy="5037.12" rx="177.72" ry="187.98"/>
  <ellipse class="fil5" cx="24113.16" cy="6696.88" rx="535.52" ry="451.95"/>
  <ellipse class="fil5" cx="31240.65" cy="3889.66" rx="266.77" ry="117.48"/>
  <rect class="fil5" x="31159.08" y="2945.59" width="152.05" height="881.87" rx="76.03" ry="76.03"/>
  <rect class="fil5" x="30908.22" y="3303.59" width="641.37" height="136.85" rx="68.43" ry="68.43"/>
  <rect class="fil5" x="29424.78" y="5143.4" width="137.61" height="798.11" rx="68.81" ry="68.81"/>
  <rect class="fil5" x="29197.74" y="5467.4" width="580.45" height="123.86" rx="61.93" ry="61.93"/>
  <rect class="fil5" x="32909.34" y="5143.4" width="137.61" height="798.11" rx="68.81" ry="68.81"/>
  <rect class="fil5" x="32682.3" y="5467.4" width="580.45" height="123.86" rx="61.93" ry="61.93"/>
  <rect class="fil5" x="37359.58" y="7067.72" width="366.11" height="299.95" rx="73.45" ry="51.89"/>
  <ellipse class="fil5" transform="matrix(0.459008 0.666625 -2.01545 1.38775 37384.9 7571.62)" rx="425.96" ry="152.18"/>
  <ellipse class="fil5" transform="matrix(-0.459008 0.666625 2.01545 1.38775 37701 7571.62)" rx="425.96" ry="152.18"/>
  <rect class="fil5" x="36847.55" y="7782.53" width="1390.18" height="707.82"/>
  <rect class="fil5" x="36326.01" y="8183.39" width="1390.18" height="707.82"/>
  <rect class="fil5" x="36016.49" y="8056.83" width="519.63" height="707.82"/>
  <rect class="fil5" x="35666.07" y="7782.53" width="435.02" height="707.82"/>
  <rect class="fil5" x="37456.93" y="7023.13" width="171.42" height="299.95" rx="34.39" ry="51.89"/>
  <rect class="fil5" y="7887.05" width="2211.59" height="3698.07"/>
  <rect class="fil5" x="12.59" y="8921.74" width="45429.3" height="9065.12"/>
 </g>
</svg>
