<?xml version="1.0" encoding="UTF-8"?>
<!DOCTYPE svg PUBLIC "-//W3C//DTD SVG 1.1//EN" "http://www.w3.org/Graphics/SVG/1.1/DTD/svg11.dtd">
<!-- Creator: CorelDRAW 2018 (64-Bit) -->
<svg xmlns="http://www.w3.org/2000/svg" xml:space="preserve" width="454.267mm" height="179.809mm" version="1.1" style="shape-rendering:geometricPrecision; text-rendering:geometricPrecision; image-rendering:optimizeQuality; fill-rule:evenodd; clip-rule:evenodd"
viewBox="0 0 45373.16 17959.66"
 xmlns:xlink="http://www.w3.org/1999/xlink">
 <defs>
  <style type="text/css">
   <![CDATA[
    .fil0 {fill:#92C02D}
    .fil2 {fill:#7BA12B}
    .fil3 {fill:#7BA12B}
    .fil4 {fill:#668428}
    .fil1 {fill:#556D26}
   ]]>
  </style>
 </defs>
 <g id="Слой_x0020_1">
  <metadata id="CorelCorpID_0Corel-Layer"/>
  <path class="fil0" d="M12.57 1309.15c206.54,-28.71 472.9,-89.18 765.08,-213.86 662.49,-282.67 1523.71,-1095.3 1523.71,-1095.3l2285.5 727.73 1244.85 775.1 2674.81 652.43c0,0 618.32,-471.1 1236.63,-730.22 618.3,-259.09 2108.9,-663.44 2108.9,-663.44 1265.14,0 2449.4,473.92 3533.19,1034.42 1457.43,753.76 2130.95,335.67 3058.42,712.55 927.46,376.87 3003.22,334.35 3003.22,334.35l2649.89 1691.34 3134.64 706.67 3180.96 599.93 2252.42 -599.93c0,0 2605.72,-94.23 3047.37,-94.23 441.66,0 2694.07,-753.77 3709.87,-612.44 1015.79,141.33 1545.78,-329.76 2296.58,-329.76 902.57,0 2170.07,307.23 3058.96,270.96 192.44,-7.85 379.01,-21.37 561.23,-39.22l0 2.4 -24.52 0 0 6678.26 -45301.72 -704.91 0 -9102.83z"/>
  <path class="fil1" d="M12.57 6202.33c667.75,120.38 1238.96,272.11 1471.7,451.89 640.39,494.65 2716.14,1436.83 3157.79,1672.39 441.66,235.54 6403.92,1648.82 6536.42,1648.82 132.5,0 6359.75,306.22 6359.75,306.22l-17525.67 -323.85 0 -3755.47z"/>
  <path class="fil2" d="M12.57 2524.01c367.94,91.73 667.02,171.29 809.22,196.57 397.48,70.67 1545.79,471.08 2053.68,588.86 507.89,117.77 3224.03,164.89 3709.85,94.22 485.84,-70.67 1214.55,-306.23 1788.69,-353.33 574.14,-47.09 2009.52,-47.1 2384.91,70.68 375.4,117.78 5564.8,1248.4 6293.52,1531.05 728.72,282.66 2870.71,588.87 2870.71,588.87l2119.94 0 3025.32 0c0,0 3003.23,895.07 3400.71,989.28 397.49,94.22 2384.91,0 2384.91,0l8568.01 4569.61 -39409.47 -893.59 0 -7382.22z"/>
  <path class="fil3" d="M45314.28 7838.93c-1181.33,-47.27 -3639.84,-368.1 -3639.84,-368.1l-2252.4 -62.88 -2340.76 -298.25 -1589.94 -632.16 -1501.6 0c0,0 -529.98,-482.88 -1943.26,270.87 -1413.29,753.76 -4732,1978.6 -4732,1978.6l-4478.29 1696.75 5103.71 422.78 17374.38 260.9 0 -3268.52z"/>
  <path class="fil4" d="M12.57 5354.91c1566.39,281.44 4829.05,844.96 5358.24,804.64 618.31,-47.11 2694.07,-730.2 3047.38,-871.52 353.32,-141.32 1059.98,-753.76 1810.77,-753.76 750.8,0 3886.51,1064.36 3886.51,1064.36 0,0 1192.46,513.81 2605.73,878.91 1413.29,365.1 2605.74,365.1 3224.04,553.53 618.32,188.45 1722.45,518.22 2208.26,612.43 485.82,94.21 5652.51,3200.96 5652.51,3200.96l-8039.53 -125.1 -19753.93 -175.05 0 -5189.39z"/>
  <path class="fil1" d="M16507.26 7516.21c-107.6,-68.99 -94.45,-43.59 -269.84,-43.59 -15.35,140.27 -27.69,90.66 -211.56,90.66l0 -101.81 -808.97 0c-4.09,229.97 -7.08,463.78 -7.08,706.29 -90.47,37.39 -588.58,39.53 -695.14,90.68l0 -272.02 -97.15 -84.19c-217.61,-6.47 -359.2,8.9 -537.56,23.74 28.75,135.7 35.55,90.68 -181.34,90.68 -5.07,227.33 -60.46,17.31 -60.46,302.21 -288.34,-193.07 -215.13,92.59 -241.79,-151.11l-302.22 0c-12.61,-115.22 -61.66,-82.86 -71.47,-85.1 -5.09,-1.16 -14.52,-0.73 -20.12,-1.35l-168.62 2.15c-427.57,10.3 -297.72,40.04 -430.88,60.13 -3.87,0.58 -12.81,2.47 -16.76,2.67l-71.87 -13.02c-95.31,-15.87 -47.73,-10.23 -127.91,30.38 -66.42,33.64 50.45,-7.57 -65.78,30.71l-159.93 11.09c-4.98,-1.52 -13,-5.31 -17.83,-7.37 -88.61,-37.89 -90.01,-95.49 -269.28,-94.95 -202.46,0.63 -104.32,27.92 -241.87,64.66 -36.45,-136.51 -104.99,-104.04 -215.7,-95.77 -172.6,12.86 -219.19,-18.02 -328.32,5.09l0 -513.8c-183.88,0 -196.23,49.61 -211.58,-90.66l-302.23 0c-12.58,143.92 41.72,64.73 -151.12,60.44l0 664.93 -392.92 -60.45c-23.3,-50.41 -31.81,-298.48 -30.29,-453.25 2.92,-294.6 77.05,-370.1 -208.96,-365.31 -259.23,4.34 -181.47,21.93 -355.99,-36.91 -67.7,-22.83 -38.17,-18.83 -128.22,-23.5 -344.06,-17.83 -196.66,41.82 -507.44,73.25 -509.85,51.58 -375.02,-97.42 -608.87,-38.79 -446.45,111.96 -366.55,-355.92 -366.55,935.19l-134.62 12.68 0 291.88 -2285.52 0 0 -963.15c-3.76,-76.57 -11.54,-143.92 -27.55,-194.51 -41.34,-130.66 -30.65,-157.69 -30.65,-325.62l-816.05 0c-2.93,131.5 -30.22,164.87 -30.22,332.47 -185.11,-67.01 -9.45,-118.4 -393.61,-121.02 -80.82,-0.55 -176.92,-13.59 -210.88,-13.59 -38.72,0 -154.04,13.72 -241.78,13.72l-30.22 151.1c-27.89,-104.44 -52.52,-110.18 -181.34,-120.89 -40.33,84.02 -30.23,58.53 -30.23,181.35 -92.11,-38.06 -7.06,-12 -151.11,0l-60.44 816.04 0 -1239.18c-201.66,0 -423.56,-96.76 -601.84,-56.53 -256.77,57.95 157.98,56.53 -546.67,56.53l0 3445.51 32641.69 30.22c3647.23,0 7219.58,-30.22 10880.57,-30.22l0 -3173.49c-265.3,61.8 -367.54,-5.69 -503.42,-39.48 -134.82,-33.51 -9.55,-18.05 -104.71,3.8 -133.74,30.74 -99.89,33.51 -211.05,19.24 -276.45,-35.54 -178.23,159.39 -178.23,923.16 -191,0 -192.51,28.18 -238.49,29.43 -3.12,0.09 -11.24,-1.05 -14.38,-1.21 -3.4,-0.18 -11.77,-2.65 -15.3,-2.95 -3.89,-0.34 -12.57,-3.04 -16.72,-3.37 -68.88,-4.99 -9.72,-14.58 -108,8.33 -21,-252.36 -31.33,-1370.15 -29.53,-1814.14l-15.81 -397.45 -902.38 0c-3.8,751.2 10.78,1956.41 10.78,2302.25l-30.23 0c0,-419.37 38.33,-880.74 -18.06,-1283.63 -4.48,-32.09 -6.25,-61.64 -6.81,-89.55l0 0.04 -880.81 0c-34.17,404.76 -1.02,993.33 -1.02,1312.7l-120.9 0c-51.39,-220.59 -18,-439.73 -32.05,-696.08 -4.07,-73.96 -7.83,-88.57 -11.16,-129.31 -3.09,-37.77 4.03,-5.82 -3.08,-42.95 -41.57,-217.16 -44.38,-31.98 -44.38,-370.84l-816.05 0c-2.93,131.5 -30.22,164.87 -30.22,332.47 -62.6,-22.67 -28.58,-13.66 -74.72,-46.18 -136.09,-95.91 -292.38,-88.44 -529.76,-88.44 -38.73,0 -154.05,13.72 -241.79,13.72 -60.27,145.94 17.32,-23.42 -23.88,132.06 -0.96,3.61 -2.81,13.36 -6.33,19.04 -27.89,-104.44 -52.52,-110.18 -181.34,-120.89 -40.33,84.02 -30.23,58.53 -30.23,181.35 -92.11,-38.06 -7.06,-12 -151.1,0l-27.15 366.36 0 735.04 -35.89 0 0 -1220.6 2.58 0 0 -303.94c-250.38,0 -479.68,-124.43 -665.11,-30.19 -198.21,100.74 -291.82,-17 -478.95,36.89 -137.31,39.54 -75.16,141.89 -64.89,265.33 -55.11,27.33 -37.82,23.31 -120.89,30.22l0 785.81c-93.14,-44.7 -110.82,-30.21 -241.78,-30.21l0 -321.38 -1300.87 0 -37.57 3.98 -7.1 390.64 -346.79 20.35c-104.08,-125.32 -97.35,-87.89 -302.43,-84.14 -94.05,-4.52 -139.83,15.7 -206.98,51l-343.46 117.57 -31.25 -268.67c-20.39,-21.59 -2.97,-12.92 -44.54,-40.19 -15.35,-10.06 -63.38,-33.96 -80.27,-38.59l-475.4 -14.83c-152.05,3.31 -122.01,-22.73 -174.17,63.39l-129.86 79.96 -7.27 -577.57 -592.25 18.86c-160.38,-9.96 -221.57,43.87 -362.68,55.61l0 936.95c-146.18,0 -85.84,10.33 -110.06,30.21l-12.91 480.28c-168.19,10.92 -462.27,31.4 -614,-14.29l-1.56 -569.17 -307.29 -1.89 -30.92 -138.27 -839.77 0.92 -57.95 -1329.22c31.91,-250.85 -50.55,-1234.52 -50.55,-1601.87 -591.25,-49.2 -828.13,-151.17 -1258.88,100.85 -97.99,57.35 -28.1,12.82 -64.1,50.27l0.05 3084.36 -212.22 2.98 -18.2 557.29c-153,-1.29 -91.45,-188.53 -91.69,-350.24l-2.15 -1462.54c-577.51,-0.13 -222.27,-130.88 -770.7,-50.77 -267.17,7.29 -307.11,75.61 -513.8,92.8l0 574.25c-117.93,2.62 -250.74,51.47 -332.46,90.66l0 -846.26 -907.67 -0.76c-136.6,7.43 -179.59,54.96 -257.11,40.82 -104.73,-19.08 30.34,-9.55 -107.76,-34.67l-480.45 -5.41c-323.01,-0.42 -322.4,-26.58 -544.02,90.69l0 1269.4 -233.18 29.99c-5.03,1.09 -13.08,3.64 -18.16,4.38l-113.12 -2.76c-284.77,11.67 81.66,23.42 -330.69,119.5 0,-209.72 6.82,-429.13 2.53,-637.23 -4.01,-192.97 -3.78,-121.59 -96.69,-235.79 -60.04,-73.78 -73.19,-130.28 -147.64,-184.83 -110.56,29.54 -63.34,31.9 -151.12,90.68 -140.14,-102.68 33.34,-90.68 -211.56,-90.68l0 -1027.6c-607.34,0 -297.99,-60.46 -544.02,-60.46 0,-159.43 14.18,-171.3 -181.36,-302.22 -58.85,39.42 -130.57,80.1 -184,118.23 -113.7,81.09 -88.02,67.66 -88.02,244.45 -627.19,0 -558.94,-257.24 -545.24,877.7 1.92,157.09 28.54,170.64 31.43,301.01l-74.04 -107.27c-34.81,-55.26 -35.02,-53.97 -67.07,-114.28 -42.45,-79.91 -111.84,-190.59 -130.89,-262.02l-90.66 0c-18.9,81.05 -55.43,148.64 -86.44,215.81 -186.33,403.51 -215.82,120.1 -215.82,781.57 -92.08,2.05 -110.2,13.65 -181.35,30.23 -119.03,-87.2 -2.22,-70.4 -129.81,-113.88 -74.48,-25.38 -191.32,-7.85 -238.06,17.53 -149.52,81.24 -60.39,187.03 -327.28,187.03 0,-862.19 30.23,-1622.54 30.23,-2478.36 -110.72,-151.1 -79.19,53.66 -156.51,-206.18 -30.44,-102.31 -51.35,-170.5 -88.94,-273.77 -30.96,-85.15 -56.28,-177.3 -91.03,-271.65 -16.32,-44.33 -33.31,-83.61 -54.8,-126.55 -41.58,-83.13 -52.54,-62.08 -62.1,-149.45l-302.23 0c-8.79,105.61 -249.94,636.93 -301.82,786.23 -45.63,131.3 -34.43,198.88 -181.77,211.14l0 1813.43c-234.46,19.52 -54.94,192.48 -151.12,392.91 -35.81,35.81 -67.57,28.23 -123.05,26.58l0 179.66 -3808.2 0 0 -827.56zm26483.55 -590.74c0.43,-30.18 1.19,-58.94 0,-87.59l0 87.59z"/>
  <path class="fil1" d="M29294.1 7289.14c548.43,-80.11 193.19,50.64 770.7,50.77l2.15 1462.54c0.24,161.71 -61.31,348.95 91.69,350.24l18.2 -557.29 212.22 -2.98 -0.05 -3084.36c-86.91,111.7 -37.08,1371.88 -37.08,1511.2 0,513.79 0,1027.6 0,1541.41l-211.57 0 -27.58 -1151.15c-12.98,-176.83 -76.07,-107.09 -244.98,-117.69 -148.87,-9.36 -94.36,-55.38 -270.12,-62.62 -33.92,-1.39 -152.5,-2.03 -182.44,1.96 -88.12,11.75 -73.85,19.29 -121.14,57.97z"/>
  <path class="fil1" d="M33626.94 8530.45c-81.28,94.26 -41.07,331.15 -41.07,453.35l-574.24 0c61.18,-127.51 30.22,-395.63 30.22,-574.26l-332.47 0 0 -151.1 -846.27 0 -63.15 -1237.15c-21.23,-80.96 12.88,-12.39 -37.43,-62.48l57.95 1329.22 839.77 -0.92 30.92 138.27 307.29 1.89 1.56 569.17c151.72,45.7 445.8,25.21 614,14.29l12.91 -480.28z"/>
  <path class="fil1" d="M36185.13 8116.76c205.09,-3.75 198.36,-41.18 302.43,84.14l346.79 -20.35 7.1 -390.64 37.57 -3.98 -59.2 0 0 381.82 -332.46 0c-14.74,-61.56 -6.96,-107.4 -183.65,-93.69 -161.88,12.56 -74.41,-1.18 -118.58,42.69z"/>
  <path class="fil1" d="M34829.06 7986.42c-62.55,15.46 -48.92,4.5 -94.69,30.23l0 -544.04 -572.2 2.37c-70.05,16.02 -21.83,2.78 -62.49,32.68l592.25 -18.86 7.27 577.57 129.86 -79.96z"/>
  <path class="fil1" d="M35978.15 8167.76c-156.68,12.26 -149.79,60.45 -337.05,60.45l30.21 -181.35 -67.88 -30.2 31.25 268.67 343.46 -117.57z"/>
  <path class="fil1" d="M31314.07 3995.47c94.97,-81.71 112.49,6.83 129.89,-142.38 -106.94,-91.6 -77.73,-15 -190.91,-71.09l7.66 -347.71c237.25,-13.02 199.14,13.89 235.88,-75.4 -60.19,-90.36 -102.03,-40.3 -246.5,-57.15 14.07,-390.05 13.24,-315.67 -95.04,-323.67 -48.77,76.8 -27.89,229.19 -25.75,333.7 -124.6,-0.95 -195.32,-35.18 -246.38,47.12 49.14,71.42 -116.91,72.37 240.76,71.55l-2.63 351.58c-131.5,59.57 -101.54,-34.15 -186.52,90.67 27.14,72.66 106.59,110.46 106.68,110.25 2.53,-5.32 13.15,5.95 18.51,10.65 -105.49,260.87 -110.25,308 -279.93,471.04 -301.69,289.85 -625.89,360.87 -708.94,803.31 -64.56,343.89 70.11,430.58 155.64,569.28 -51.15,111.82 -88.84,177.74 -71.4,331.41 7.36,64.93 18.23,91.08 47.5,137.42 116.66,184.9 74.06,124.89 63.93,603.05 -170.82,75.03 -223.3,133.45 -332.09,244.61l-118.79 90.8c0.01,-419.74 77.19,-188.82 187.55,-445.35 73.9,-171.82 13.06,-351 -74.82,-460.54 -289.6,-361.01 -438.33,-141.58 -439.71,-743.17 39.67,-26.92 12.16,-2.98 73.66,-24.14 166.48,-57.32 94.65,63.48 113.18,-93.11 -34.87,0.12 -85.61,4.49 -118.05,-5.54 -162.14,-50.22 1.5,-99.57 -94.94,-265.23 -76.12,32.32 -42.33,-46.42 -58.99,112.86 -3.02,28.86 2.17,121.15 1.84,157.66l-187.17 26.83c64.55,130.42 -13.76,3.75 93.97,55.51 136.39,65.5 84.84,17.38 94.15,65.37 0,245.77 11.45,305.92 -133.31,445.09 -82.29,79.13 -234.14,185.81 -291.18,254.14 -82.87,99.33 -149.76,255.37 -102.87,427.61 49.82,182.96 127.17,182.82 246.49,293.68 25.51,460.91 0.84,339.19 -179.67,631.2 -53.99,87.3 -99.89,183.64 -126.07,301.07 -36.01,161.48 3.66,145.74 119.78,216.21l0.73 332.48c0.63,563.75 36.79,394.11 -96.24,513.78 -6.66,190.9 -3.63,383.27 -2.13,574.56 2.02,259.73 -67.64,306.55 -48.27,525.71 386.62,0.05 4616.17,40.81 4795.45,-27.89 18.23,-232.94 -40.52,-144.53 -52.45,-345.21l-62.43 -783.64c-78.76,-93.52 -40.49,-503.99 -37.08,-641.58 8.09,-325.75 211.74,-82.11 106.55,-419.09 -174.4,-558.79 -313.83,-204.35 -290.7,-877.61 237.62,-201.86 419.82,-444.79 125.57,-742.28 -262.81,-265.66 -403.68,-182.92 -404.48,-708.45l111.06 -39.62c78.36,-35.27 32.09,24.97 74.28,-51.05 -82.08,-38.69 -76.44,-24.63 -185.53,-33.42l-6.95 -202.66c-14.73,-71.73 1.51,-23.05 -28.63,-64.32 -84.22,50.66 -49.34,117.01 -50.02,239.94l-123.33 40.58c-76.22,35.12 -29.69,-30.48 -62.01,50.11 78.01,44.17 61.88,8.49 111.38,31.23 84.6,38.86 32.6,-31.15 75.44,59.43 86.12,383.47 -333.2,602.48 -439.4,721.16 -242.28,270.72 -53.14,536.53 116.28,668.78l-2.34 233.76c-61.22,-32.01 -167.86,-146.59 -215.81,-188.25 -85.65,-74.39 -135,-85.75 -232.88,-165.91l-13.58 -513.95c29.75,-86.57 235.86,-90.94 48.5,-544.03 588.98,-707.19 -398.46,-1207.83 -576.78,-1386.28 -161.22,-161.35 -145.77,-245.29 -259.64,-455.47z"/>
  <path class="fil1" d="M15068.9 6462.34l-5.28 115.94c-154.08,105.18 -152.19,149.32 -257.06,346.65 -198.48,0.67 -331.03,45.34 -450.93,138.09 -66.8,51.71 -216.23,236.84 -216.3,375.11l117.01 100.06c-1.39,72.25 -14.72,406.51 -28.87,459.25 -10.99,41.01 -104.39,151 -41.97,275.3 21.02,41.92 -1.08,-0.67 28.78,39.66 48.33,65.26 9.98,542.21 7.59,658.06 -111.35,21.65 -185.17,43.78 -176.27,183.95 20.81,327.11 710.51,123.89 840,171.4 67.79,60.25 33.03,83.36 120.99,116.19 156.16,58.33 821.35,40.31 1010.05,25.25 157.38,-12.57 200.08,-24.38 272.51,-139.5 204.83,-3.36 504.78,23.1 696.9,-0.64 182.28,-22.53 262.5,-320.42 -18.83,-350.62l-18.1 -638.68c127.14,-115.51 73.65,-188.92 19.44,-312.77 -29.37,-67.05 -17,-172.41 -22.32,-251.66 -25.05,-373.62 36.38,-160.29 107.91,-384.05 -0.81,-88.43 -207.79,-467.3 -668.52,-463.6 -40.25,-61.55 -62.84,-143.95 -109.45,-202.85 -132.58,-167.53 -144.92,-70.33 -152.78,-260.56l-1054.49 0z"/>
  <path class="fil1" d="M15445.27 5758.22c-65.85,94.34 -169.03,179.47 -330.07,252.76 -596.26,271.48 -587.02,746.81 -190.24,930.93 -209.06,158.72 -270.98,167.86 -27.72,309.96l-32.88 527.81c-30.74,15.31 -56.92,29.34 -79.71,42.73l1604.43 0c-91.2,-53.03 -59.93,-24.69 -93.57,-567.28 122.86,-91.28 259.38,-138.3 -21.27,-295.54 93.16,-75.97 139.41,-73.16 211.34,-177.07 60.16,-86.93 85.32,-190.76 70.26,-298.19 -27.97,-199.66 -189.62,-324.26 -339.9,-415.8 -217.28,-132.36 -363.92,-198.21 -452.9,-310.31l-317.77 0z"/>
  <polygon class="fil1" points="10222.88,7301.05 14187.54,7301.05 14187.54,7621.88 10222.88,7621.88 "/>
  <polygon class="fil1" points="10711.84,7301.05 10898.31,7301.05 10898.31,8343.77 10711.84,8343.77 "/>
  <polygon class="fil1" points="11369.68,7301.05 11556.17,7301.05 11556.17,8343.77 11369.68,8343.77 "/>
  <polygon class="fil1" points="12027.52,7301.05 12214.01,7301.05 12214.01,8343.77 12027.52,8343.77 "/>
  <polygon class="fil1" points="12685.37,7301.05 12871.84,7301.05 12871.84,8343.77 12685.37,8343.77 "/>
  <polygon class="fil1" points="13343.22,7301.05 13529.69,7301.05 13529.69,8343.77 13343.22,8343.77 "/>
  <polygon class="fil1" points="14001.05,7301.05 14187.54,7301.05 14187.54,8343.77 14001.05,8343.77 "/>
  <polygon class="fil1" points="16921.39,7301.05 20670.59,7301.05 20670.59,7621.88 16921.39,7621.88 "/>
  <polygon class="fil1" points="16921.39,7301.05 17122.56,7301.05 17122.56,8343.77 16921.39,8343.77 "/>
  <polygon class="fil1" points="17631.02,7301.05 17832.16,7301.05 17832.16,8343.77 17631.02,8343.77 "/>
  <polygon class="fil1" points="18340.61,7301.05 18541.77,7301.05 18541.77,8343.77 18340.61,8343.77 "/>
  <polygon class="fil1" points="19050.23,7301.05 19251.37,7301.05 19251.37,8343.77 19050.23,8343.77 "/>
  <polygon class="fil1" points="19759.83,7301.05 19960.98,7301.05 19960.98,8343.77 19759.83,8343.77 "/>
  <polygon class="fil1" points="20469.42,7301.05 20670.59,7301.05 20670.59,8343.77 20469.42,8343.77 "/>
  <path class="fil1" d="M6283.83 8294.49l183.78 70.85c41.09,15.96 45.2,14.22 54.99,35.69l-237.45 0.07 -1.32 -106.6zm-83.41 -0.32l1.1 106.81 -239.07 0.26c8.64,-18.64 12.15,-19.09 48.91,-33.53 21.53,-8.46 40.34,-15.74 62.09,-24.56 42.03,-16.99 84.23,-39.08 126.97,-48.98zm144.11 -61.56c53.55,-23.49 267.64,-118.5 317.05,-121.63l22.78 261.56c-29.99,-4.16 -306.07,-104.05 -339.83,-139.93zm-542.38 140.07l23.73 -261.47c45.79,2.82 262.79,98.14 314.72,121.32 -9.84,10.56 -3.18,5.37 -16.75,14.5l-61.06 27.14c-68.8,27.45 -204.14,90.24 -260.64,98.51zm481.07 -195l0.17 -85.33 198.14 -1.35c-27.31,34.12 -174.64,83.67 -198.31,86.68zm-279.57 -85.89l198.66 -0.69 -0.26 86.68c-31.84,-4.22 -172.78,-55.54 -198.4,-85.99zm279.71 -216.12c44.05,13.22 140.43,72.22 191.91,99.99 8.87,4.79 25.52,12.52 33.62,18.46 31.72,23.2 11.92,5.36 25.56,27.01l-250.94 -0.91 -0.15 -144.55zm-332.63 145.44c23.52,-37.27 221.13,-136.51 251.12,-145.51l-0.05 145.33 -251.07 0.18zm662.29 -373.3l32.75 339.23c-38.63,-10.46 -222.19,-115.9 -282.21,-149.7l-38.57 -28.13 288.03 -161.4zm-740.54 0.04c22.71,6.63 258.95,127.16 287.63,161.36 -1.7,1.74 -4.07,3.86 -5.36,4.94l-72.45 44.32c-57.86,31.61 -197.51,116.38 -244.15,128.52l34.34 -339.14zm411.1 -25.78l205.62 1.42 -26.85 24.4c-7.58,5.26 -12.07,7.02 -21.88,12.46 -42.67,23.56 -120.44,72.34 -156.75,81.12l-0.13 -119.4zm-82.61 119.4c-41.05,-10.13 -67.04,-32.06 -105.73,-53.39l-77.91 -43.99c-20.78,-15.81 -8.63,-5.03 -21.29,-21.67l206.25 0.19 -1.32 118.86zm82.64 -328.32c34.25,7.41 160.03,85.76 197.06,113.47l20.05 18.38c0.87,-1.59 3.36,3.53 4.87,6.96l-222.14 -0.52 0.16 -138.29zm-304.02 137.35c8.03,-10.15 3.95,-5.92 14.7,-15.58l36.66 -24.9c51.08,-30.95 125.58,-87.09 171.79,-97.09l-0.7 139.57 -222.45 -2zm337.97 -210.82c22.7,-30.77 228.43,-150 249.23,-157.96l29.74 328.56c-49.05,-12.48 -158.78,-90.06 -215.96,-124.92l-63.02 -45.68zm-428.91 170.6c2.48,-71.54 16.43,-270.56 35.99,-328.44l233.73 147.52c1.13,1.03 3.95,6.62 4.72,5.08 0.81,-1.57 3.19,3.43 4.69,5.24l-68.45 48.71c-55.87,35.03 -160.69,109.17 -210.69,121.89zm394.52 -356.33l173.05 -0.64c-19.41,34.46 -40,37.51 -83.86,64.92 -31.69,19.82 -50.65,37.61 -89.12,47.46l-0.06 -111.75zm-80.49 112.07c-35.15,-9.24 -153.95,-77.52 -173.71,-112.47 81.68,0.07 93.8,-4.61 172.85,6.62l0.87 105.85zm80.23 -277.6c39.88,8.29 137.11,62.1 162.5,95.23l-161.46 -0.61 -1.04 -94.62zm-328.77 -183.12c54.02,4.11 63.92,32.36 105.49,47.94 32.02,12 75.09,-7.51 111.11,10.87 34.39,17.56 44.48,52.83 45.55,101.27 2.37,106.19 8.88,146.65 -43.43,132.02 -80.66,-22.52 -55.64,-5.82 -138.78,-9.98 0.88,-45.89 -4.74,-57.02 0.61,-86.47 -20.42,7.63 -28.56,12.73 -46.86,23.65 -33.79,20.17 -12.59,15.74 -54.73,22.68l21.05 -241.99zm329.22 -33.98l128.55 0.07c-11.43,17.29 -0.59,5.35 -14.77,18.6l-43.46 26.48c-25.03,14.5 -37.42,24.44 -70.29,31.9l-0.03 -77.05zm-81.31 77.24c-33.82,-7.77 -44.91,-17.3 -70.43,-32.14l-48.74 -31.84 119.23 -12.57 -0.06 76.55zm-127.75 -408.49c33.85,-34.13 147.39,-137.24 176.98,-147.81 27.3,16.82 169.39,143.6 186.48,182.49l-389.65 -0.98 26.19 -33.71zm233.68 -195.95c12.95,-33.83 44.08,-53.47 68.81,-74.6 27.86,-23.82 43.9,-46.48 74.49,-60.55 7.56,11.8 1.78,-2.98 9.55,22.75l26.43 278.75c-34.2,-18.92 -152.77,-130.19 -179.28,-166.35zm-283.28 -157.39c32.23,10.02 156.56,124.63 166.9,157.39 -32.28,32.45 -62.53,59.52 -95.63,88.11 -33.66,29.08 -60.41,62.9 -100.74,79.53l29.47 -325.03zm212.87 101.07c-43.22,-57.9 -102.38,-81.36 -118.72,-128.1l265.16 0.03c-11.23,33.46 -110.53,119.39 -146.44,128.07zm-151.58 -196.02c11.13,-35.03 138.1,-157.55 156.62,-168.62 19.16,11.47 145.4,133.28 156.54,169.51l-313.15 -0.89zm207.71 -225.88c27.08,-37.48 82.75,-101.58 120.79,-117.73l24.54 263.3 -145.33 -145.57zm-222.23 -117.65c35.46,15.27 98.07,87.42 119.84,117.65l-115.53 129.42c-16.25,11.92 -4.66,6.18 -31.04,16.01l26.74 -263.08zm171.13 61.77c-30.26,-16.4 -98.19,-88.44 -106.71,-119.06l213.32 0.13c-8.47,30.72 -75.63,102.17 -106.6,118.93zm-82.78 -185.44c11.15,-34.17 -4.5,-7.16 18.77,-32.24l64.01 -45.12c37.57,14.49 72.33,41.36 83.36,76.9l-166.14 0.46zm235 -57.1c-37.65,-13.39 -37.41,-11.85 -50.4,-42.57 59.19,-1.33 47.03,-12.1 50.4,42.57zm-304.39 0.45c2.48,-55.8 -7.99,-43.87 50.9,-43.34 -12.75,31.45 -12.44,29.86 -50.9,43.34zm8.22 -280.47c4.97,-21.67 119.95,-288.88 152.62,-319.91l39.55 77.74c11.45,26.11 21.75,49.66 34.53,78.29 23.54,52.73 52.29,105.63 67.73,163.43l-294.43 0.46zm-77.89 -0.35c-56.49,-0.25 -62.19,-9.34 -94.24,22.3l-1.01 194.84c10.92,26.81 70.7,19.57 94.69,20.59l-100.92 1047.07c-83.21,9.18 -127.93,-11.1 -166.73,20.29l-1.22 261.37c34.44,27.75 79.82,17.06 137.74,17.76l-160.98 1628.85 -245.83 3.66c-23.89,52.06 -17.52,296.1 -8.81,366.74 11.25,19.9 53.96,17.12 73.53,17.7l1447.18 -1.47c36.64,-15.64 20.21,-165.54 20.21,-203.72 0,-53.76 14.15,-141.9 -15.31,-178.36l-243.44 -3.94c-28.28,-373.52 -79.09,-852.39 -118.89,-1239.98 -0.25,-2.38 -0.61,-4.46 -0.91,-6.84 -0.39,-2.99 -2.02,-11.47 -2.52,-14.6 -10.31,-64.32 -24.09,-226.27 -26.66,-270.5l-49.76 -0.28c-0.07,-4.57 0.59,-33.3 0.45,-34.09 -7.19,-42.66 9.02,-60.87 -18.3,-72.34 -15.47,36.92 10.38,230.89 12.3,286.78 -46.3,-9.81 -161.75,-90.94 -232.11,-124.89l168.2 -105.9c27.35,-15.57 33.22,-23.74 67.51,-25.4 44.81,67.99 -4.76,74.1 39.57,93.24 1.17,-1.68 -0.86,-38.29 -0.59,-37.19 0.26,1.09 2.64,-4.02 2.94,-5.42 3.95,-19.27 2.28,5.52 2.38,-22.86 0.07,-13.57 -2.49,-34.39 -3.13,-49.17 34.92,-0.42 74.46,-4.69 106.07,5.58 -7.67,-35.26 -0.68,-2.2 -7.42,-19.62 -12.92,-33.38 -10.85,-64.82 10.59,-102.97 13.8,-24.58 9.1,-14.01 35.87,-26.9 -32.96,-127.63 50.42,-152.44 -107.35,-152.44l-70.24 -2.37 -101.62 -1048.3 81.81 -0.87c27.14,-43.89 15.22,-158.67 16.25,-214.02 -69.14,-59.61 -69.69,25.7 -109.23,-70.82l-133.31 -300.61c-78.76,-176.58 -79.92,-113.66 -187.07,110.33 -35.49,74.17 -86.02,168.18 -109.69,238.77z"/>
  <path class="fil1" d="M6229.58 6963.68c1.96,-85.29 -100.83,-146.82 -179.94,-127.55l59.84 44.96c23.6,16.56 37.56,16.06 55.22,42.41l-154.1 87.97 5.17 68.3c26.34,-7.03 195.63,-105.26 213.8,-116.08z"/>
  <rect class="fil1" x="4329.25" y="7049.48" width="904.81" height="1869.04"/>
  <rect class="fil1" x="7613.44" y="7234.73" width="2208.25" height="1280.79"/>
  <rect class="fil1" x="26150.82" y="7124.31" width="2308.51" height="1832.86"/>
  <rect class="fil1" x="23302.17" y="6577.77" width="1549.03" height="1832.86"/>
  <rect class="fil1" x="33740.88" y="7416.91" width="1000.9" height="1832.86"/>
  <rect class="fil1" x="34679.39" y="7913.77" width="1000.9" height="1832.86"/>
  <rect class="fil1" x="33564.22" y="8333.34" width="1000.9" height="1832.86"/>
  <rect class="fil1" x="32504.07" y="7984.45" width="1000.9" height="1832.86"/>
  <rect class="fil1" x="40996.21" y="6997.34" width="1000.9" height="1832.86"/>
  <rect class="fil1" x="42078.25" y="6751.19" width="1000.9" height="1832.86"/>
  <rect class="fil1" x="40179.16" y="7242.53" width="1000.9" height="1832.86"/>
  <rect class="fil1" x="39914.58" y="6997.34" width="320.19" height="1832.86"/>
  <rect class="fil1" x="39784.84" y="7353.42" width="320.19" height="1832.86"/>
  <rect class="fil1" x="38493.01" y="6953.17" width="1255.94" height="1832.86"/>
  <rect class="fil1" x="38332.9" y="7312.01" width="1255.94" height="1832.86"/>
  <ellipse class="fil1" cx="15603.07" cy="5869.81" rx="204.26" ry="187.7"/>
  <ellipse class="fil1" cx="21226.23" cy="5029.51" rx="177.45" ry="187.7"/>
  <ellipse class="fil1" cx="24076.69" cy="6686.75" rx="534.71" ry="451.26"/>
  <ellipse class="fil1" cx="31193.4" cy="3883.77" rx="266.37" ry="117.31"/>
  <rect class="fil1" x="31111.95" y="2941.13" width="151.82" height="880.54" rx="75.92" ry="75.92"/>
  <rect class="fil1" x="30861.47" y="3298.59" width="640.4" height="136.65" rx="68.33" ry="68.33"/>
  <rect class="fil1" x="29380.27" y="5135.62" width="137.4" height="796.9" rx="68.71" ry="68.71"/>
  <rect class="fil1" x="29153.58" y="5459.13" width="579.57" height="123.67" rx="61.84" ry="61.84"/>
  <rect class="fil1" x="32859.56" y="5135.62" width="137.4" height="796.9" rx="68.71" ry="68.71"/>
  <rect class="fil1" x="32632.87" y="5459.13" width="579.57" height="123.67" rx="61.84" ry="61.84"/>
  <rect class="fil1" x="37303.08" y="7057.03" width="365.55" height="299.49" rx="73.34" ry="51.81"/>
  <ellipse class="fil1" transform="matrix(0.459008 0.666625 -2.01545 1.38775 37328.3 7560.17)" rx="425.32" ry="151.95"/>
  <ellipse class="fil1" transform="matrix(-0.459008 0.666625 2.01545 1.38775 37643.9 7560.17)" rx="425.32" ry="151.95"/>
  <rect class="fil1" x="36791.81" y="7770.76" width="1388.08" height="706.75"/>
  <rect class="fil1" x="36271.07" y="8171.01" width="1388.08" height="706.75"/>
  <rect class="fil1" x="35962.02" y="8044.64" width="518.85" height="706.75"/>
  <rect class="fil1" x="35612.13" y="7770.76" width="434.37" height="706.75"/>
  <rect class="fil1" x="37400.27" y="7012.5" width="171.16" height="299.49" rx="34.34" ry="51.81"/>
  <rect class="fil1" y="7875.12" width="2208.25" height="3692.48"/>
  <rect class="fil1" x="12.57" y="8908.25" width="45360.59" height="9051.41"/>
  <path class="fil1" d="M6528.12 6734.5l64.63 0c2.08,0 3.89,1.69 4.05,3.77l12.15 160.98c0.15,2.08 -1.41,3.77 -3.49,3.77l-64.63 0c-2.07,0 -1.93,-1.7 -2.1,-3.78l-14.09 -160.97c-0.17,-2.08 1.41,-3.77 3.49,-3.77z"/>
  <rect class="fil1" x="5739.58" y="6474.58" width="1019.1" height="307.22"/>
 </g>
</svg>
