<?xml version="1.0" encoding="UTF-8"?>
<!DOCTYPE svg PUBLIC "-//W3C//DTD SVG 1.1//EN" "http://www.w3.org/Graphics/SVG/1.1/DTD/svg11.dtd">
<!-- Creator: CorelDRAW 2018 (64-Bit) -->
<svg xmlns="http://www.w3.org/2000/svg" xml:space="preserve" width="454.148mm" height="157.903mm" version="1.1" style="shape-rendering:geometricPrecision; text-rendering:geometricPrecision; image-rendering:optimizeQuality; fill-rule:evenodd; clip-rule:evenodd"
viewBox="0 0 45424.82 15793.77"
 xmlns:xlink="http://www.w3.org/1999/xlink">
 <defs>
  <style type="text/css">
   <![CDATA[
    .str0 {stroke:#E31E24;stroke-width:20;stroke-miterlimit:22.9256}
    .str1 {stroke:#E31E24;stroke-width:158.36;stroke-linecap:round;stroke-linejoin:round;stroke-miterlimit:22.9256}
    .str3 {stroke:#E31E24;stroke-width:158.36;stroke-linecap:round;stroke-linejoin:round;stroke-miterlimit:22.9256}
    .str5 {stroke:#E31E24;stroke-width:158.36;stroke-linecap:round;stroke-linejoin:round;stroke-miterlimit:22.9256}
    .str7 {stroke:#E31E24;stroke-width:158.36;stroke-linecap:round;stroke-linejoin:round;stroke-miterlimit:22.9256}
    .str9 {stroke:#E31E24;stroke-width:158.36;stroke-linecap:round;stroke-linejoin:round;stroke-miterlimit:22.9256}
    .str11 {stroke:#E31E24;stroke-width:158.36;stroke-linecap:round;stroke-linejoin:round;stroke-miterlimit:22.9256}
    .str13 {stroke:#E31E24;stroke-width:158.36;stroke-linecap:round;stroke-linejoin:round;stroke-miterlimit:22.9256}
    .str12 {stroke:#E31E24;stroke-width:158.36;stroke-linecap:round;stroke-linejoin:round;stroke-miterlimit:22.9256}
    .str10 {stroke:#E31E24;stroke-width:158.36;stroke-linecap:round;stroke-linejoin:round;stroke-miterlimit:22.9256}
    .str6 {stroke:#E31E24;stroke-width:158.36;stroke-linecap:round;stroke-linejoin:round;stroke-miterlimit:22.9256}
    .str4 {stroke:#E31E24;stroke-width:158.36;stroke-linecap:round;stroke-linejoin:round;stroke-miterlimit:22.9256}
    .str2 {stroke:#E31E24;stroke-width:158.36;stroke-linecap:round;stroke-linejoin:round;stroke-miterlimit:22.9256}
    .str8 {stroke:#E31E24;stroke-width:158.36;stroke-linecap:round;stroke-linejoin:round;stroke-miterlimit:22.9256}
    .fil2 {fill:none}
    .fil0 {fill:#EE7779}
    .fil1 {fill:#E31E24}
    .fil3 {fill:#E31E24;fill-rule:nonzero}
   ]]>
  </style>
 </defs>
 <g id="Слой_x0020_1">
  <metadata id="CorelCorpID_0Corel-Layer"/>
  <path class="fil0" d="M-0 9979.67l45319.92 0 94.9 -5531.58c-6010.75,-997.58 -8473.02,-2385.25 -13947.23,-2538.44 -1991.3,-55.73 -6563.91,515.89 -8760.18,672.04l-6290.45 0c-3219.91,0 -7185.5,-810.47 -10397.19,-570.47 -1825.85,136.42 -3966.42,89.48 -6019.78,464.65l0 7503.79z"/>
  <path class="fil1" d="M-0 2517.18l755.73 0 0 248.98 383.26 0 0 -193.03 261.57 -261.57 376.84 0 140.29 140.29 583.71 0 0 2082.37 173.45 0 0 -2140.13 531.54 0 0 -456.01 156.66 0 0 -330.11 97.91 0 0 -511.95 41.96 0 0 506.36 131.48 0 0 290.94 204.23 0 0 663.03 204.2 0 0 2752.8 84.42 0 0 383.26 -4127.26 0 0 -3175.23zm32871.81 1123.22l46.3 0 0 -1969.48 168.16 -45.06 0 -268.26c0,0 -11.5,-5.58 17.86,-83.92 29.38,-78.33 33.58,-82.53 33.58,-82.53l0 -162.26 59.52 15.94 0 130.93c0,0 32.8,76.93 43.99,100.7 11.18,23.78 9.78,39.17 12.58,83.93 2.8,44.76 0,197.93 0,197.93l86.73 0 0 -260.18 145.75 -84.15 0 -429.91 166.87 -409.84 0 -85.33 50.36 0 0 62.94 183.24 458.8 0 430.83 119.93 69.26 0 269.25 130.45 0 0 -254.58 73.74 -275.17 78.25 292.05 0 269.86 191.73 110.7 0 527.15 526.34 0 0 446.21 379.05 0 0 2996.18 -2514.42 0 0 -2052.01z"/>
  <rect class="fil1 str0" x="26643.15" y="4509.14" width="18771.66" height="550.08"/>
  <rect class="fil1 str0" x="26643.15" y="2581.69" width="18771.66" height="181.56"/>
  <g id="_7511975312">
   <rect class="fil1" x="29397.58" y="1078.58" width="83.8" height="1662.13"/>
   <rect class="fil1" x="29254.4" y="1132.71" width="497.58" height="11.35"/>
   <rect class="fil1" x="29678.41" y="1139.69" width="73.57" height="37.83"/>
   <rect class="fil1" x="29706.59" y="1148.86" width="17.21" height="37.83"/>
   <rect class="fil1" x="29266.06" y="1078.54" width="346.84" height="11.35"/>
  </g>
  <g id="_7511968208">
   <rect class="fil1" x="31467.6" y="1078.58" width="83.8" height="1662.13"/>
   <rect class="fil1" x="31324.41" y="1132.71" width="497.58" height="11.35"/>
   <rect class="fil1" x="31748.43" y="1139.69" width="73.57" height="37.83"/>
   <rect class="fil1" x="31776.6" y="1148.86" width="17.21" height="37.83"/>
   <rect class="fil1" x="31336.07" y="1078.54" width="346.84" height="11.35"/>
  </g>
  <g id="_7511975280">
   <rect class="fil1" x="33537.61" y="1078.58" width="83.8" height="1662.13"/>
   <rect class="fil1" x="33394.42" y="1132.71" width="497.58" height="11.35"/>
   <rect class="fil1" x="33818.44" y="1139.69" width="73.57" height="37.83"/>
   <rect class="fil1" x="33846.62" y="1148.86" width="17.21" height="37.83"/>
   <rect class="fil1" x="33406.08" y="1078.54" width="346.84" height="11.35"/>
  </g>
  <g id="_7511978768">
   <rect class="fil1" x="35607.62" y="1078.58" width="83.8" height="1662.13"/>
   <rect class="fil1" x="35464.44" y="1132.71" width="497.58" height="11.35"/>
   <rect class="fil1" x="35888.45" y="1139.69" width="73.57" height="37.83"/>
   <rect class="fil1" x="35916.63" y="1148.86" width="17.21" height="37.83"/>
   <rect class="fil1" x="35476.09" y="1078.54" width="346.84" height="11.35"/>
  </g>
  <g id="_7511976624">
   <rect class="fil1" x="37677.63" y="1078.58" width="83.8" height="1662.13"/>
   <rect class="fil1" x="37534.45" y="1132.71" width="497.58" height="11.35"/>
   <rect class="fil1" x="37958.46" y="1139.69" width="73.57" height="37.83"/>
   <rect class="fil1" x="37986.64" y="1148.86" width="17.21" height="37.83"/>
   <rect class="fil1" x="37546.11" y="1078.54" width="346.84" height="11.35"/>
  </g>
  <g id="_7511983984">
   <rect class="fil1" x="39747.65" y="1078.58" width="83.8" height="1662.13"/>
   <rect class="fil1" x="39604.46" y="1132.71" width="497.58" height="11.35"/>
   <rect class="fil1" x="40028.48" y="1139.69" width="73.57" height="37.83"/>
   <rect class="fil1" x="40056.65" y="1148.86" width="17.21" height="37.83"/>
   <rect class="fil1" x="39616.12" y="1078.54" width="346.84" height="11.35"/>
  </g>
  <g id="_7511988272">
   <rect class="fil1" x="41817.66" y="1078.58" width="83.8" height="1662.13"/>
   <rect class="fil1" x="41674.47" y="1132.71" width="497.58" height="11.35"/>
   <rect class="fil1" x="42098.49" y="1139.69" width="73.57" height="37.83"/>
   <rect class="fil1" x="42126.67" y="1148.86" width="17.21" height="37.83"/>
   <rect class="fil1" x="41686.13" y="1078.54" width="346.84" height="11.35"/>
  </g>
  <g>
   <line class="fil2 str1" x1="29942.28" y1="2688.02" x2="28783.88" y2= "4694.44" />
  </g>
  <g>
   <line class="fil2 str2" x1="30152.4" y1="2688.02" x2="31310.8" y2= "4694.44" />
  </g>
  <g>
   <path class="fil3" d="M29946.88 4817.98l158.37 0c0,40.23 -35.46,72.85 -79.19,72.85 -43.73,0 -79.19,-32.62 -79.19,-72.85zm0 -2131.53l158.37 0 0 2131.53 -158.37 0 0 -2131.53zm158.37 0l-158.37 0c0,-40.23 35.46,-72.85 79.19,-72.85 43.73,0 79.19,32.62 79.19,72.85z"/>
  </g>
  <g>
   <path class="fil3" d="M31249.32 4694.45l158.37 0c0,37.9 -35.46,68.63 -79.19,68.63 -43.73,0 -79.19,-30.73 -79.19,-68.63zm0 -2008l158.37 0 0 2008 -158.37 0 0 -2008zm158.37 0l-158.37 0c0,-37.9 35.46,-68.63 79.19,-68.63 43.73,0 79.19,30.73 79.19,68.63z"/>
  </g>
  <g>
   <path class="fil3" d="M28700.34 4608.95l158.37 0c0,36.28 -35.46,65.7 -79.19,65.7 -43.73,0 -79.19,-29.43 -79.19,-65.7zm0.01 -1922.5l158.37 0 -0.01 1922.5 -158.37 0 0.01 -1922.5zm158.37 0l-158.37 0c0,-36.28 35.46,-65.7 79.19,-65.7 43.73,0 79.19,29.43 79.19,65.7z"/>
  </g>
  <g>
   <line class="fil2 str3" x1="32491.25" y1="2688.02" x2="31332.85" y2= "4694.44" />
  </g>
  <g>
   <line class="fil2 str4" x1="32701.38" y1="2688.02" x2="33859.79" y2= "4694.44" />
  </g>
  <g>
   <path class="fil3" d="M32495.86 4817.98l158.37 0c0,40.23 -35.46,72.85 -79.19,72.85 -43.73,0 -79.19,-32.62 -79.19,-72.85zm0.01 -2131.53l158.37 0 -0.01 2131.53 -158.37 0 0.01 -2131.53zm158.37 0l-158.37 0c0,-40.23 35.46,-72.85 79.19,-72.85 43.73,0 79.19,32.62 79.19,72.85z"/>
  </g>
  <g>
   <path class="fil3" d="M33798.29 4694.45l158.37 0c0,37.9 -35.46,68.63 -79.19,68.63 -43.73,0 -79.19,-30.73 -79.19,-68.63zm0 -2008l158.37 0 0 2008 -158.37 0 0 -2008zm158.37 0l-158.37 0c0,-37.9 35.46,-68.63 79.19,-68.63 43.73,0 79.19,30.73 79.19,68.63z"/>
  </g>
  <g>
   <path class="fil3" d="M31249.32 4608.95l158.37 0c0,36.28 -35.46,65.7 -79.19,65.7 -43.73,0 -79.19,-29.43 -79.19,-65.7zm0 -1922.5l158.37 0 0 1922.5 -158.37 0 0 -1922.5zm158.37 0l-158.37 0c0,-36.28 35.46,-65.7 79.19,-65.7 43.73,0 79.19,29.43 79.19,65.7z"/>
  </g>
  <g>
   <line class="fil2 str5" x1="35040.24" y1="2688.02" x2="33881.83" y2= "4694.44" />
  </g>
  <g>
   <line class="fil2 str6" x1="35250.35" y1="2688.02" x2="36408.76" y2= "4694.44" />
  </g>
  <g>
   <path class="fil3" d="M35044.84 4790.04l158.37 0c0,39.7 -35.46,71.9 -79.19,71.9 -43.73,0 -79.19,-32.2 -79.19,-71.9zm0 -2103.59l158.37 0 0 2103.59 -158.37 0 0 -2103.59zm158.37 0l-158.37 0c0,-39.7 35.46,-71.9 79.19,-71.9 43.73,0 79.19,32.2 79.19,71.9z"/>
  </g>
  <g>
   <path class="fil3" d="M36347.26 4817.98l158.37 0c0,40.23 -35.46,72.85 -79.19,72.85 -43.73,0 -79.19,-32.62 -79.19,-72.85zm0.01 -2131.53l158.37 0 -0.01 2131.53 -158.37 0 0.01 -2131.53zm158.37 0l-158.37 0c0,-40.23 35.46,-72.85 79.19,-72.85 43.73,0 79.19,32.62 79.19,72.85z"/>
  </g>
  <g>
   <path class="fil3" d="M33798.29 4608.95l158.37 0c0,36.28 -35.46,65.7 -79.19,65.7 -43.73,0 -79.19,-29.43 -79.19,-65.7zm0 -1922.5l158.37 0 0 1922.5 -158.37 0 0 -1922.5zm158.37 0l-158.37 0c0,-36.28 35.46,-65.7 79.19,-65.7 43.73,0 79.19,29.43 79.19,65.7z"/>
  </g>
  <g>
   <line class="fil2 str7" x1="37589.21" y1="2688.02" x2="36430.8" y2= "4694.44" />
  </g>
  <g>
   <line class="fil2 str8" x1="37799.32" y1="2688.02" x2="38957.73" y2= "4694.44" />
  </g>
  <g>
   <path class="fil3" d="M37593.81 4776.07l158.37 0c0,39.44 -35.46,71.42 -79.19,71.42 -43.73,0 -79.19,-31.98 -79.19,-71.42zm0 -2089.62l158.37 0 0 2089.62 -158.37 0 0 -2089.62zm158.37 0l-158.37 0c0,-39.44 35.46,-71.42 79.19,-71.42 43.73,0 79.19,31.98 79.19,71.42z"/>
  </g>
  <g>
   <path class="fil3" d="M38896.24 4694.45l158.37 0c0,37.9 -35.46,68.63 -79.19,68.63 -43.73,0 -79.19,-30.73 -79.19,-68.63zm0 -2008l158.37 0 0 2008 -158.37 0 0 -2008zm158.37 0l-158.37 0c0,-37.9 35.46,-68.63 79.19,-68.63 43.73,0 79.19,30.73 79.19,68.63z"/>
  </g>
  <g>
   <path class="fil3" d="M36347.26 4817.98l158.37 0c0,40.23 -35.46,72.85 -79.19,72.85 -43.73,0 -79.19,-32.62 -79.19,-72.85zm0.01 -2131.53l158.37 0 -0.01 2131.53 -158.37 0 0.01 -2131.53zm158.37 0l-158.37 0c0,-40.23 35.46,-72.85 79.19,-72.85 43.73,0 79.19,32.62 79.19,72.85z"/>
  </g>
  <g>
   <line class="fil2 str9" x1="40138.18" y1="2688.02" x2="38979.77" y2= "4694.44" />
  </g>
  <g>
   <line class="fil2 str10" x1="40348.3" y1="2688.02" x2="41506.71" y2= "4694.44" />
  </g>
  <g>
   <path class="fil3" d="M40142.78 4817.98l158.37 0c0,40.23 -35.46,72.85 -79.19,72.85 -43.73,0 -79.19,-32.62 -79.19,-72.85zm0.01 -2131.53l158.37 0 -0.01 2131.53 -158.37 0 0.01 -2131.53zm158.37 0l-158.37 0c0,-40.23 35.46,-72.85 79.19,-72.85 43.73,0 79.19,32.62 79.19,72.85z"/>
  </g>
  <g>
   <path class="fil3" d="M41445.22 4694.45l158.37 0c0,37.9 -35.46,68.63 -79.19,68.63 -43.73,0 -79.19,-30.73 -79.19,-68.63zm0 -2008l158.37 0 0 2008 -158.37 0 0 -2008zm158.37 0l-158.37 0c0,-37.9 35.46,-68.63 79.19,-68.63 43.73,0 79.19,30.73 79.19,68.63z"/>
  </g>
  <g>
   <path class="fil3" d="M38896.24 4608.95l158.37 0c0,36.28 -35.46,65.7 -79.19,65.7 -43.73,0 -79.19,-29.43 -79.19,-65.7zm0 -1922.5l158.37 0 0 1922.5 -158.37 0 0 -1922.5zm158.37 0l-158.37 0c0,-36.28 35.46,-65.7 79.19,-65.7 43.73,0 79.19,29.43 79.19,65.7z"/>
  </g>
  <g>
   <line class="fil2 str11" x1="42687.16" y1="2688.02" x2="41528.75" y2= "4694.44" />
  </g>
  <g>
   <line class="fil2 str12" x1="42897.28" y1="2688.02" x2="44055.68" y2= "4694.44" />
  </g>
  <g>
   <path class="fil3" d="M42691.76 4817.98l158.37 0c0,40.23 -35.46,72.85 -79.19,72.85 -43.73,0 -79.19,-32.62 -79.19,-72.85zm0 -2131.53l158.37 0 0 2131.53 -158.37 0 0 -2131.53zm158.37 0l-158.37 0c0,-40.23 35.46,-72.85 79.19,-72.85 43.73,0 79.19,32.62 79.19,72.85z"/>
  </g>
  <g>
   <path class="fil3" d="M43994.19 4694.45l158.37 0c0,37.9 -35.46,68.63 -79.19,68.63 -43.73,0 -79.19,-30.73 -79.19,-68.63zm0.01 -2008l158.37 0 -0.01 2008 -158.37 0 0.01 -2008zm158.37 0l-158.37 0c0,-37.9 35.46,-68.63 79.19,-68.63 43.73,0 79.19,30.73 79.19,68.63z"/>
  </g>
  <g>
   <path class="fil3" d="M41445.22 4608.95l158.37 0c0,36.28 -35.46,65.7 -79.19,65.7 -43.73,0 -79.19,-29.43 -79.19,-65.7zm0 -1922.5l158.37 0 0 1922.5 -158.37 0 0 -1922.5zm158.37 0l-158.37 0c0,-36.28 35.46,-65.7 79.19,-65.7 43.73,0 79.19,29.43 79.19,65.7z"/>
  </g>
  <g>
   <line class="fil2 str13" x1="45236.13" y1="2688.02" x2="44077.73" y2= "4694.44" />
  </g>
  <g>
   <path class="fil3" d="M45240.73 4817.98l158.37 0c0,40.23 -35.46,72.85 -79.19,72.85 -43.73,0 -79.19,-32.62 -79.19,-72.85zm0 -2131.53l158.37 0 0 2131.53 -158.37 0 0 -2131.53zm158.37 0l-158.37 0c0,-40.23 35.46,-72.85 79.19,-72.85 43.73,0 79.19,32.62 79.19,72.85z"/>
  </g>
  <g>
   <path class="fil3" d="M43994.19 4608.95l158.37 0c0,36.28 -35.46,65.7 -79.19,65.7 -43.73,0 -79.19,-29.43 -79.19,-65.7zm0.01 -1922.5l158.37 0 -0.01 1922.5 -158.37 0 0.01 -1922.5zm158.37 0l-158.37 0c0,-36.28 35.46,-65.7 79.19,-65.7 43.73,0 79.19,29.43 79.19,65.7z"/>
  </g>
  <rect class="fil1 str0" x="26643.15" y="4317.07" width="18771.66" height="90.79"/>
  <rect class="fil1" x="28699.27" y="4976.27" width="1298.94" height="712.32"/>
  <rect class="fil1" x="31932.62" y="4976.27" width="1298.94" height="712.32"/>
  <rect class="fil1" x="35165.96" y="4976.27" width="1298.94" height="712.32"/>
  <rect class="fil1" x="38399.31" y="4976.27" width="1298.94" height="712.32"/>
  <rect class="fil1" x="41632.66" y="4976.27" width="1298.94" height="712.32"/>
  <path class="fil1" d="M15407.9 5693.5l0 -1716.46 -214.71 0 0 -263.51 858.83 0 0 -132.91c705.74,-491.95 1876.26,-813.76 3201.12,-813.76 1349.5,0 2539.02,333.84 3240.15,841.33l0 105.34 858.84 0 0 263.51 -223.22 0 0 1716.46c-2551.62,0 -5145.73,0 -7721.02,0zm4775.37 -1150.4c-243.09,-303.34 -564.72,-487.98 -917.47,-487.98 -352.73,0 -674.32,184.65 -917.39,487.98l1834.86 0z"/>
  <g>
   <path class="fil1" d="M8286.47 3470.96c420.42,-61.41 148.1,38.82 590.81,38.92l1.65 1121.18c0.18,123.97 -47,267.51 70.3,268.5l13.95 -427.22 162.68 -2.28 -0.03 -2364.46c-66.62,85.62 -28.43,1051.67 -28.43,1158.48 0,393.88 0,787.75 0,1181.64l-162.19 0 -21.14 -882.46c-9.95,-135.56 -58.31,-82.1 -187.8,-90.23 -114.13,-7.16 -72.34,-42.46 -207.08,-47.99 -26,-1.07 -116.91,-1.56 -139.86,1.49 -67.54,9 -56.61,14.79 -92.86,44.45z"/>
   <path class="fil1" d="M9834.99 946.04c72.8,-62.64 86.23,5.24 99.56,-109.15 -81.98,-70.23 -59.58,-11.49 -146.35,-54.49l5.87 -266.55c181.88,-9.98 152.66,10.65 180.83,-57.8 -46.14,-69.28 -78.22,-30.9 -188.96,-43.82 10.78,-299.01 10.15,-241.99 -72.86,-248.12 -37.39,58.88 -21.38,175.7 -19.74,255.82 -95.52,-0.73 -149.73,-26.97 -188.87,36.13 37.67,54.75 -89.63,55.48 184.56,54.84l-2.01 269.53c-100.81,45.66 -77.85,-26.18 -142.99,69.51 20.8,55.71 81.72,84.69 81.79,84.52 1.94,-4.08 10.09,4.56 14.18,8.16 -80.87,199.98 -84.51,236.11 -214.59,361.1 -231.28,222.2 -479.81,276.65 -543.47,615.82 -49.5,263.64 53.74,330.08 119.31,436.42 -39.21,85.71 -68.1,136.25 -54.73,254.06 5.64,49.77 13.97,69.82 36.41,105.34 89.44,141.75 56.78,95.74 49.02,462.29 -130.95,57.51 -171.18,102.3 -254.58,187.52l-91.07 69.61c0.01,-321.77 59.17,-144.74 143.77,-341.41 56.65,-131.72 10.02,-269.07 -57.35,-353.05 -222.01,-276.75 -336.02,-108.53 -337.08,-569.72 30.42,-20.63 9.32,-2.28 56.47,-18.5 127.63,-43.95 72.56,48.66 86.76,-71.38 -26.73,0.09 -65.62,3.45 -90.5,-4.25 -124.3,-38.51 1.15,-76.34 -72.78,-203.32 -58.35,24.78 -32.45,-35.58 -45.22,86.52 -2.31,22.12 1.66,92.87 1.41,120.87l-143.49 20.56c49.49,99.97 -10.54,2.87 72.04,42.56 104.56,50.21 65.04,13.31 72.19,50.11 0,188.4 8.77,234.52 -102.2,341.22 -63.08,60.65 -179.5,142.44 -223.21,194.82 -63.53,76.14 -114.82,195.76 -78.87,327.8 38.19,140.25 97.49,140.14 188.96,225.13 19.55,353.33 0.65,260.03 -137.74,483.88 -41.38,66.92 -76.58,140.78 -96.64,230.8 -27.6,123.8 2.8,111.72 91.83,165.76l0.55 254.88c0.48,432.17 28.2,302.13 -73.77,393.87 -5.11,146.35 -2.79,293.8 -1.64,440.46 1.55,199.11 -51.85,234.99 -37,403 296.38,0.04 3538.74,31.29 3676.18,-21.36 13.97,-178.58 -31.07,-110.8 -40.21,-264.65l-47.86 -600.73c-60.37,-71.7 -31.04,-386.37 -28.42,-491.84 6.2,-249.72 162.32,-62.95 81.68,-321.27 -133.69,-428.36 -240.58,-156.65 -222.84,-672.78 182.15,-154.74 321.83,-340.99 96.26,-569.04 -201.46,-203.64 -309.47,-140.23 -310.08,-543.1l85.14 -30.38c60.06,-27.04 24.61,19.14 56.94,-39.13 -62.92,-29.67 -58.59,-18.88 -142.23,-25.63l-5.32 -155.35c-11.29,-54.98 1.15,-17.67 -21.95,-49.31 -64.55,38.84 -37.82,89.7 -38.34,183.94l-94.55 31.1c-58.42,26.93 -22.77,-23.37 -47.53,38.42 59.79,33.87 47.44,6.51 85.38,23.95 64.85,29.8 25,-23.89 57.83,45.56 66.02,293.96 -255.43,461.86 -336.83,552.84 -185.74,207.53 -40.75,411.29 89.14,512.68l-1.8 179.21c-46.93,-24.55 -128.68,-112.37 -165.44,-144.32 -65.65,-57.02 -103.48,-65.72 -178.52,-127.19l-10.41 -394c22.82,-66.36 180.81,-69.72 37.18,-417.04 451.52,-542.13 -305.46,-925.93 -442.15,-1062.72 -123.6,-123.7 -111.75,-188.04 -199.04,-349.17z"/>
   <rect class="fil1" x="10747.23" y="4003.98" width="767.29" height="1405.07"/>
   <ellipse class="fil1" cx="9742.47" cy="860.41" rx="204.2" ry="89.93"/>
   <rect class="fil1" x="9680.04" y="137.78" width="116.39" height="675.02" rx="58.2" ry="58.2"/>
   <rect class="fil1" x="9488.02" y="411.81" width="490.93" height="104.75" rx="52.38" ry="52.38"/>
   <rect class="fil1" x="8352.53" y="1820.07" width="105.33" height="610.9" rx="52.67" ry="52.67"/>
   <rect class="fil1" x="8178.75" y="2068.07" width="444.3" height="94.8" rx="47.41" ry="47.41"/>
   <rect class="fil1" x="11019.75" y="1820.07" width="105.33" height="610.9" rx="52.67" ry="52.67"/>
   <rect class="fil1" x="10845.97" y="2068.07" width="444.3" height="94.8" rx="47.41" ry="47.41"/>
  </g>
  <g>
   <path class="fil1" d="M4822.69 311.68c-13.21,-6.02 -23.55,-6.94 -46.95,-1.71 10.33,-7.45 31.25,-32.96 35.44,-49.17 -23.54,-1.7 -38.72,6.28 -51.79,11.11 40.41,-31.65 42.11,-50.88 37.93,-78.61 -20.79,21.05 -85.01,71.81 -84.62,71.81 -0.39,0 32.31,-34 56.11,-61.99 23.93,-28.51 13.07,-55.84 -1.71,-76.38 -3,14.38 -41.72,74.16 -72.85,101.09l-2.09 -5.49c-1.05,7.59 -22.49,36.76 -35.18,47.35l-2.23 -5.23c-6.54,10.33 -45.38,43.55 -61.72,60.29 -16.09,16.87 -9.94,33.35 -0.4,42.25 10.07,8.89 14.38,18.3 2.88,33.87 -10.99,15.95 -41.59,13.73 -55.45,-4.19 28.78,-11.37 25.76,-29.29 19.08,-43.29 -17.25,24.86 -27.72,14.39 -42.63,0.92 15.69,-0.39 24.59,-8.24 30.61,-19.74 -29.43,3.66 -38.59,-7.84 -42.9,-25.9 -4.58,-17.79 13.86,-38.59 35.18,-52.84 0.53,0 5.36,2.75 8.89,2.22 3.66,-0.13 8.11,-5.75 12.95,-8.1 21.45,-3.41 32.31,5.88 30.22,28.25 7.71,-3.92 9.01,-16.74 6.27,-24.59 -2.74,-7.72 -9.68,-8.89 -8.76,-10.07 1.04,-1.18 9.81,4.58 17.52,11.77 7.33,7.45 24.6,7.45 31.92,4.31 7.19,-3.53 11.11,-14.25 13.2,-24.59 -5.09,9.29 -18.43,13.86 -26.29,13.21 -7.58,-0.79 -22.62,-12.17 -36.1,-15.04 11.24,-9.68 26.82,-3.01 36.62,4.83 20.53,-27.99 5.24,-39.88 -5.36,-44.99 -10.59,-5.36 -13.59,-1.17 -15.95,-2.61 -2.35,-1.04 -5.36,-5.36 -10.85,-7.06l0 -3.27c21.31,-0.39 32.04,-9.42 41.85,-17.65 10.07,-8.11 6.54,-29.3 3,-39.89 -3.52,-10.86 3.8,-12.29 7.33,-10.2 3.4,2.09 22.62,8.75 22.62,8.75 0,0 1.84,1.45 3.79,8.11 1.84,6.67 0.79,10.2 -1.95,14.39 -3.01,4.05 -10.6,13.07 -11.12,24.73 -0.65,12.01 8.11,18.3 8.89,26.28 1.04,8.5 -8.89,13.21 -8.89,13.21 0,0 3.4,2.74 8.89,2.22 5.75,-0.39 16.48,-7.32 19.88,-16.34 3.13,-8.63 -7.59,-19.75 -7.59,-19.75 0,0 6.93,3.93 12.29,4.19 5.5,0.78 4.97,-1.96 9.81,-0.66 4.7,1.44 5.23,8.37 5.23,8.37 0,0 4.45,-3.13 6.15,-8.5 1.56,-5.49 3.14,-17.38 -11.51,-18.44 -15.04,-1.17 -11.9,-6.27 -3.92,-15.69 8.36,-9.67 8.5,-25.63 -7.45,-29.16 -15.83,-3.54 -23.29,-11.38 -29.05,-21.31 -6.01,-10.21 -21.18,-11.38 -41.07,-5.5 -19.35,6.02 -9.54,32.05 -3.52,47.09 6.4,14.77 6.14,19.61 2.22,26.94 -3.93,7.06 -19.22,11.51 -28.78,11.37l0 -6.53c7.85,-12.16 12.03,-29.96 9.16,-37.15 -2.49,-7.19 -15.18,-10.85 -22.63,-10.72 -7.84,0.26 -7.71,0.26 -7.71,0.26 5.23,-3 6.14,-10.07 0.52,-13.07l0 -5.89 4.84 0 0 -10.07 -4.58 0 0 -5.1 -11.25 0 0 4.97 -4.7 0 0 10.2 4.7 0 0 5.88c-4.83,3.14 -3.91,9.94 0.53,13.08 0,0 0.13,0 -7.45,-0.26 -7.59,-0.13 -20.27,3.53 -23.03,10.72 -2.48,7.19 1.57,24.99 9.03,37.02l-0.53 8.49c-26.94,-4.96 -34.53,-8.36 -64.21,-38.97l0.39 -5.36c17.79,-40.94 19.48,-39.63 20.01,-49.96 0.26,-10.46 0,-33.35 -39.63,-36.76 -0.14,4.58 -6.15,9.55 -10.33,-2.09 6.27,-4.83 6.93,-16.21 0.39,-17.52l-1.7 -7.06 7.06 2.49 0 -13.47 -7.58 2.48 2.87 -8.24 -15.16 0 2.35 8.11 -7.19 -2.88 0 13.47 6.93 -2.09 -2.09 6.67c-6.41,1.96 -6.67,13.07 -0.13,17.52 -4.45,11.64 -10.33,6.54 -10.33,1.96 -39.37,2.74 -40.68,25.25 -40.68,35.58 0.52,10.46 1.96,9.15 18.83,50.61l0.13 5.63c-30.48,29.56 -36.36,32.82 -63.56,37.01l0 -8.5c7.45,-11.64 12.16,-29.56 9.68,-36.88 -2.35,-6.93 -15.17,-11.12 -22.77,-11.12 -7.58,0.13 -7.45,0.13 -7.45,0.13 4.19,-3.01 5.36,-8.89 0.26,-13.2l0 -6.15 5.1 0 0 -10.2 -4.7 0 0 -4.97 -10.46 0 0 4.97 -4.85 0 0 10.2 4.58 0 0 5.76c-6.14,3.92 -5.49,10.58 0,13.46 -0.04,-0.01 -0.68,-0.08 -7.32,-0.52 -7.84,-0.52 -20.53,2.88 -23.16,9.81 -2.74,7.32 0.79,25.24 8.37,37.54l-0.26 6.4c-9.68,0 -24.59,-4.84 -28.51,-12.03 -3.66,-7.19 -3.66,-12.16 2.87,-27.08 6.67,-14.64 17.13,-40.54 -2.35,-46.82 -19.22,-6.41 -34.79,-5.88 -40.94,4.19 -6.01,10.06 -13.47,17.25 -29.82,20.65 -15.82,3.27 -16.22,18.97 -8.24,28.91 8.11,9.68 10.86,14.77 -3.92,15.44 -14.91,0.64 -13.73,12.68 -12.16,18.17 1.57,5.75 5.75,8.76 5.75,8.76 0,0 0.65,-6.93 5.76,-8.24 4.96,-1.31 4.18,1.57 9.8,1.18 5.49,-0.26 12.16,-4.06 12.16,-4.06 0,0 -11.24,10.73 -7.84,19.62 3,8.76 13.46,16.08 19.22,16.47 5.62,0.79 9.02,-1.82 9.02,-1.82 0,0 -9.67,-4.85 -8.89,-13.21 1.57,-7.98 10.2,-14 10.07,-26.16 -0.53,-11.91 -7.85,-20.67 -10.59,-24.86 -2.62,-4.31 -3.66,-7.84 -1.44,-14.38 1.96,-6.8 3.92,-7.98 3.92,-7.98 0,0 19.22,-6.4 22.76,-8.37 3.53,-1.83 10.86,-0.52 7.19,10.2 -4.05,10.86 -7.84,31.66 1.83,40.42 9.68,8.1 20.01,17.26 41.08,18.43l0 3.4c-5.37,1.31 -8.38,5.63 -10.86,6.67 -2.35,1.31 -5.23,-2.88 -15.82,1.96 -10.85,5.23 -26.42,16.22 -6.93,43.3 10.59,-7.59 25.9,-13.86 36.88,-4.06 -13.34,2.62 -28.65,13.47 -36.62,14.25 -7.72,0.66 -20.92,-4.57 -25.64,-13.72 1.83,9.15 5.75,21.05 12.68,24.72 7.07,3.53 24.21,3.92 31.92,-3.53 7.72,-7.07 16.48,-12.17 17.52,-11.38 0.79,1.18 -6.01,2.36 -8.63,10.07 -3.14,7.58 -2.09,20.79 5.36,24.46 -1.57,-22.1 9.42,-31.39 31.13,-27.34 4.58,2.36 9.15,8.24 12.69,8.63 3.4,0.4 8.36,-2.09 8.76,-2.09 20.92,15.04 37.27,35.84 32.17,53.89 -4.7,18.04 -12.42,29.03 -41.72,24.59 5.49,11.76 14.12,19.74 29.69,20.53 -15.03,12.81 -26.02,23.15 -42.24,-2.23 -7.06,14.13 -10.46,31.79 17.91,44.08 -14.38,17.52 -45.12,18.7 -55.45,2.48 -10.98,-15.69 -6.53,-24.85 3.53,-33.61 9.81,-8.64 16.35,-25.12 0.79,-42.38 -15.83,-17.12 -53.76,-51.13 -60.42,-61.73l-1.84 5.24c-12.28,-11.25 -33.35,-40.81 -33.87,-48.26l-2.49 5.49c-30.34,-26.17 -67.22,-86.85 -70.1,-101.1 -15.17,20.01 -26.68,47.08 -3.67,76.12 23.03,26.81 54.67,61.86 54.67,61.6 0,0.26 -62.51,-51.92 -82.79,-72.2 -4.97,26.03 -3.79,45.12 35.58,77.96 -12.68,-5.5 -27.86,-13.86 -51.27,-12.82 4.05,16.34 23.94,42.5 34.14,50.22 -23.02,-5.88 -33.35,-5.36 -46.56,0.52 5.62,11.64 25.12,33.36 38.71,39.5 -16.21,1.83 -35.7,10.72 -38.19,13.2 6.93,10.73 18.44,20.15 33.36,25.52 -17.27,8.1 -22.23,13.47 -24.73,17.39 7.85,11.9 17.13,19.88 30.35,22.36 -2.09,1.7 -3.92,3.79 -6.15,5.88 2.49,3.4 12.16,7.72 12.69,10.07 0.52,1.95 4.05,-2.23 4.97,-5.23 -0.26,1.83 10.06,6.02 6.4,11.25 1.83,10.85 9.81,-1.44 12.69,-7.07 19.48,19.49 1.43,42.51 1.83,43.42 0.13,0.79 4.96,4.84 6.67,8.37 10.46,-5.49 34.66,-21.45 34.66,-21.45 0,0 -26.04,19.23 -32.18,27.22 -5.63,8.76 -2.48,24.07 -1.3,25.38 1.17,2.22 18.04,6.53 23.8,0.78 6.41,-6.14 35.31,-40.94 34.92,-40.03 0,1.18 -15.82,22.36 -21.18,34.14 -5.23,11.64 2.36,29.3 4.84,31 3.66,1.7 23.54,0 26.68,-6.14 2.88,-6.02 23.68,-46.68 23.42,-46.68 0.26,0 -14.51,30.99 -15.56,41.45 -0.78,10.46 9.54,24.59 12.55,25.11 3.27,0.79 21.18,-4.05 23.16,-11.37 2.35,-7.06 12.03,-46.69 11.9,-46.69 0.13,0 -4.97,27.21 -3.41,35.32 0.53,9.28 13.47,15.42 16.22,18.69 2.23,5.23 4.31,3.39 7.19,0.13 2.49,-2.75 16.87,-5.11 16.22,-21.44 -0.53,-16.34 0.12,-28.78 0,-28.78 0.12,0 9.8,0.52 14.51,-3.92 4.71,-4.18 7.45,-5.76 7.32,-5.76 0.13,0 3.92,8.77 9.81,9.16 5.89,0.52 10.98,2.22 10.98,2.22l0.79 53.23c-13.21,10.07 -23.94,16.47 -41.59,11.37l3.79 4.19c-26.81,1.96 -43.55,11.76 -40.29,44.72 3.54,32.18 -13.07,22.9 -13.46,22.77 0.39,0.13 8.36,21.97 33.22,4.96 3.66,9.55 0.39,22.5 -1.83,26.17 6.8,-2.75 12.68,-8.11 14.9,-10.99 1.84,-2.48 1.96,4.84 0.79,8.37 -0.79,3.53 7.84,-9.14 8.63,-12.15 1.18,-3.02 10.85,6.66 0.92,15.03 -10.2,8.5 -43.43,19.35 -57.29,21.31 -17.78,2.88 -35.71,5.5 -35.71,-12.03 0,-16.99 -19.74,-18.69 -27.86,-10.07 -4.96,-4.57 -8.49,-12.68 -8.49,-12.68 -0.14,1.45 -14,6.4 -14.78,5.36 -0.66,1.18 4.05,13.74 1.57,16.75 -2.49,3.52 -15.56,9.53 -14.38,15.29 -0.92,8.76 8.49,11.64 9.93,12.16 -2.88,8.37 6.02,16.61 11.77,14.64 -0.66,15.83 -4.31,11.38 13.6,20.93 3.27,1.82 7.71,0.91 9.41,2.48 1.7,1.7 13.34,9.94 17.92,-15.16 6.8,-6.28 22.62,-17.01 39.37,-20.01 18.69,-3.28 86.32,-18.31 101.62,-19.62 0.91,-11.24 -4.32,-21.96 -4.32,-21.96 0,-0.01 17.66,-3.67 24.07,-17.13 -10.85,2.35 -21.71,0.53 -22.36,-12.03 -0.52,-12.69 9.02,-23.42 22.76,-21.84 16.22,1.31 32.31,14.78 31.26,29.69 -0.65,14.52 -11.5,21.05 -19.47,26.16 -7.59,5.75 -6.81,17.27 -7.07,17.13 0.26,0.14 -0.65,-3.92 5.36,-6.4 6.15,-2.49 17.52,-2.88 17.52,-3.14 0,0.26 0.14,3.53 -6.14,7.45 -6.15,4.71 -27.86,13.6 -36.89,17.79 -10.85,4.44 -27.21,18.83 -33.22,18.43 -6.01,0.4 -11.51,-1.31 -12.03,-6.27 -0.39,-4.72 2.62,-10.86 2.62,-10.86 0,0 -13.6,2.49 -18.18,9.94 -4.58,7.72 -6.93,23.93 2.75,29.56 -8.9,10.2 -12.16,29.95 -7.33,40.42 4.58,10.72 3.66,20.01 3.66,19.87 0,0.14 9.81,-3.14 10.47,-10.07 0.65,-6.41 7.71,-15.17 7.45,-15.17 0.26,0 0,18.57 11.11,26.43 10.86,7.72 22.36,12.29 38.85,-2.75 15.82,18.05 25.77,29.3 52.44,20.14 3.8,6.14 14.65,17.13 20.8,19.09 6.01,-1.43 17.65,-10.46 21.83,-16.35 26.29,9.81 36.36,-0.91 52.84,-18.83 17.91,15.56 29.43,10.99 40.41,3.54 10.99,-7.19 11.51,-25.9 11.51,-25.9 0,0 6.54,8.63 7.32,15.29 0.52,6.93 10.33,10.6 10.33,10.46 0,0.14 -0.91,-9.28 4.19,-19.74 5.09,-10.33 2.22,-30.22 -6.28,-40.67 9.8,-5.24 7.84,-21.71 3.27,-29.44 -4.44,-7.59 -17.78,-10.2 -17.78,-10.32 0,0.12 3,6.01 2.35,10.85 -0.66,5.1 -6.14,6.53 -12.16,6.01 -6.02,0 -22.1,-14.91 -32.83,-19.48 -10.33,-4.45 -31.91,-13.6 -38.06,-18.04 -6.14,-4.58 -5.76,-8.12 -5.76,-8.12 0,0 11.12,1.05 17.39,3.54 6.02,2.74 4.84,6.4 5.1,6.4 -0.26,0 0.92,-11.11 -6.8,-16.86 -7.84,-5.76 -18.17,-12.56 -18.56,-27.08 -0.79,-14.78 15.95,-27.86 31.91,-28.78 15.57,-0.91 24.73,9.68 23.68,22.36 -0.79,12.43 -13.33,14.12 -23.81,11.64 5.76,13.47 24.86,17.78 24.86,17.78 0,0 -5.36,10.59 -4.71,21.58 15.17,1.96 82.79,17.78 104.49,23.02 8.5,4.84 28.52,17.13 37.02,17.65 8.24,0.53 15.95,-5.35 22.23,-7.32 6.01,-1.31 12.68,-0.66 17.65,-2.48 4.71,-1.57 9.41,-8.24 19.09,-10.99 9.16,-2.75 9.29,-10.72 7.98,-15.04 4.05,-2.87 12.16,-15.16 13.86,-17.52 1.18,-2.09 1.31,0 6.28,-0.52 5.09,-0.65 8.1,-20.39 2.74,-23.16 -5.75,-2.87 -1.7,-2.21 -4.84,-4.57 -3.26,-15.04 -14.51,-37.93 -37.53,-42.77l-4.06 -7.19 10.99 4.32 0 -24.21 -10.85 5.37 4.58 -10.86 -24.87 0 3.28 10.86 -11.51 -5.37 0 24.21 12.03 -4.45 -4.05 7.71c-23.03,4.85 -35.45,23.15 -38.85,38.19 -0.13,1.05 -3.01,1.57 -6.02,4.06 -3.26,2.88 -3.13,23.15 0,24.33 2.88,1.57 7.85,0.52 8.64,2.22 0.91,2.1 4.05,8.5 4.05,8.5 0,0 -12.03,10.98 -27.34,10.46 -15.04,-0.13 -48,-13.33 -57.8,-22.48 -10.21,-8.64 0,-17.92 1.04,-15.04 0.78,3 9.02,16.08 8.63,12.55 -0.92,-3.66 -0.79,-10.85 1.17,-8.37 1.84,2.61 7.59,8.37 14.39,11.38 -2.22,-3.54 -5.36,-16.74 -1.57,-26.43 24.73,17.92 33.49,-3.92 33.49,-4.18 0,0.26 -17.26,9.15 -12.69,-23.03 4.19,-32.56 -12.29,-43.29 -39.11,-45.77l3.8 -3.92c-17.66,4.57 -28.52,-2.23 -41.2,-12.29l1.83 -53.5c0,0 5.36,-1.56 11.24,-1.69 6.02,-0.53 9.94,-9.02 9.94,-9.02 0,0 2.75,1.57 7.33,6.01 4.57,4.32 14.24,4.18 14.38,4.18 -0.14,0 0.26,12.69 -0.66,28.65 -1.04,16.48 13.21,19.09 15.7,22.1 2.87,3.27 4.96,4.97 7.05,0 1.97,-4.71 15.3,-10.07 17,-18.04 1.44,-8.38 -2.87,-35.58 -2.74,-35.71 -0.13,0.13 8.5,39.89 10.72,47.21 1.96,7.06 19.74,12.42 23.02,11.64 3.01,-0.4 13.87,-13.99 13.08,-24.59 -0.65,-10.33 -14.52,-41.98 -14.25,-41.98 -0.27,0 19.22,41.45 22.1,47.6 3.01,5.88 22.62,8.24 26.29,6.67 3.01,-1.45 10.72,-18.83 5.75,-30.87 -5.1,-11.63 -20.14,-33.35 -20.4,-34.53 -0.13,-1.18 27.86,34.53 33.75,40.68 6.01,6.01 22.62,1.69 24.33,0 1.18,-1.44 4.58,-16.48 -0.79,-25.25 -6.01,-8.5 -31.52,-28.51 -31.52,-28.51 0,0 11.9,7.19 29.17,19.86 16.48,12.69 21.97,7.46 35.71,4.71 1.7,-5.23 0.13,-19.48 -7.98,-31.77 21.32,0.78 26.69,-3.8 35.05,-9.82 -0.51,-4.44 -7.19,-18.3 -16.73,-26.16 13.08,-2.49 22.76,-9.94 30.61,-21.44 -2.35,-4.19 -7.19,-9.68 -23.94,-18.05 14.91,-5.1 26.55,-13.86 33.87,-24.72 -2.48,-2.35 -21.7,-12.03 -38.06,-14.12 13.86,-5.88 34.15,-27.08 40.29,-38.58z"/>
   <rect class="fil1" x="4261.61" y="555.71" width="345.76" height="3513.69"/>
   <rect class="fil1" x="3965.33" y="565.2" width="938.38" height="149.8"/>
   <rect class="fil1" x="4130.08" y="702.44" width="608.87" height="94.09"/>
   <rect class="fil1" x="4242.73" y="786.4" width="383.58" height="94.09"/>
   <rect class="fil1" x="4242.73" y="3863.76" width="383.58" height="94.09"/>
   <rect class="fil1" x="4216.17" y="3946.04" width="436.7" height="94.09"/>
   <rect class="fil1" x="4187.91" y="4026.05" width="493.21" height="94.09"/>
   <rect class="fil1" x="4229.68" y="4106.9" width="409.67" height="273.05"/>
   <rect class="fil1" x="4184.51" y="4336.9" width="500.01" height="122.65"/>
   <rect class="fil1" x="4149.89" y="4444.15" width="569.26" height="122.65"/>
   <rect class="fil1" x="4113.06" y="4548.45" width="642.92" height="122.65"/>
   <rect class="fil1" x="4157.83" y="4548.44" width="553.37" height="1112.47"/>
  </g>
  <rect class="fil1" x="398.06" y="5321.41" width="26474.45" height="372.1"/>
  <rect class="fil1" x="13457.21" y="2011.21" width="1564.31" height="3505.73"/>
  <rect class="fil1" x="12018.61" y="1564.27" width="1564.31" height="3952.67"/>
  <rect class="fil1" x="11641.51" y="3352.05" width="1564.31" height="2164.88"/>
  <rect class="fil1" x="6243.25" y="2974.94" width="1564.31" height="2542"/>
  <rect class="fil1" x="4888.46" y="3785.03" width="1131.32" height="1731.9"/>
  <rect class="fil1" x="25308.19" y="2011.21" width="1564.31" height="3505.73"/>
  <rect class="fil1" x="23869.6" y="1564.27" width="1564.31" height="3952.67"/>
  <rect class="fil1" x="23492.49" y="3352.05" width="1564.31" height="2164.88"/>
  <rect class="fil1" y="5478.79" width="45414.82" height="1695.68"/>
  <rect class="fil1" y="6326.62" width="45414.82" height="9467.14"/>
 </g>
</svg>
