<?xml version="1.0" encoding="UTF-8"?>
<!DOCTYPE svg PUBLIC "-//W3C//DTD SVG 1.1//EN" "http://www.w3.org/Graphics/SVG/1.1/DTD/svg11.dtd">
<!-- Creator: CorelDRAW 2018 (64-Bit) -->
<svg xmlns="http://www.w3.org/2000/svg" xml:space="preserve" width="454.048mm" height="157.903mm" version="1.1" style="shape-rendering:geometricPrecision; text-rendering:geometricPrecision; image-rendering:optimizeQuality; fill-rule:evenodd; clip-rule:evenodd"
viewBox="0 0 45404.82 15790.29"
 xmlns:xlink="http://www.w3.org/1999/xlink">
 <defs>
  <style type="text/css">
   <![CDATA[
    .str0 {stroke:#115B7A;stroke-width:158.33;stroke-linecap:round;stroke-linejoin:round;stroke-miterlimit:22.9256}
    .str2 {stroke:#115B7A;stroke-width:158.33;stroke-linecap:round;stroke-linejoin:round;stroke-miterlimit:22.9256}
    .str4 {stroke:#115B7A;stroke-width:158.33;stroke-linecap:round;stroke-linejoin:round;stroke-miterlimit:22.9256}
    .str6 {stroke:#115B7A;stroke-width:158.33;stroke-linecap:round;stroke-linejoin:round;stroke-miterlimit:22.9256}
    .str8 {stroke:#115B7A;stroke-width:158.33;stroke-linecap:round;stroke-linejoin:round;stroke-miterlimit:22.9256}
    .str10 {stroke:#115B7A;stroke-width:158.33;stroke-linecap:round;stroke-linejoin:round;stroke-miterlimit:22.9256}
    .str12 {stroke:#115B7A;stroke-width:158.33;stroke-linecap:round;stroke-linejoin:round;stroke-miterlimit:22.9256}
    .str11 {stroke:#115B7A;stroke-width:158.33;stroke-linecap:round;stroke-linejoin:round;stroke-miterlimit:22.9256}
    .str9 {stroke:#115B7A;stroke-width:158.33;stroke-linecap:round;stroke-linejoin:round;stroke-miterlimit:22.9256}
    .str5 {stroke:#115B7A;stroke-width:158.33;stroke-linecap:round;stroke-linejoin:round;stroke-miterlimit:22.9256}
    .str3 {stroke:#115B7A;stroke-width:158.33;stroke-linecap:round;stroke-linejoin:round;stroke-miterlimit:22.9256}
    .str1 {stroke:#115B7A;stroke-width:158.33;stroke-linecap:round;stroke-linejoin:round;stroke-miterlimit:22.9256}
    .str7 {stroke:#115B7A;stroke-width:158.33;stroke-linecap:round;stroke-linejoin:round;stroke-miterlimit:22.9256}
    .fil2 {fill:none}
    .fil0 {fill:#21A8DE}
    .fil1 {fill:#115B7A}
    .fil3 {fill:#115B7A;fill-rule:nonzero}
   ]]>
  </style>
 </defs>
 <g id="Слой_x0020_1">
  <metadata id="CorelCorpID_0Corel-Layer"/>
  <polygon class="fil0" points="-0,9977.47 45309.94,9977.47 45404.82,4447.11 29651.04,2471.32 23054.9,2792.3 16228.14,2889.54 14297.47,1625.42 5909.73,1395.54 -0,2475.33 "/>
  <path class="fil1" d="M-0 2516.63l755.56 0 0 248.93 383.18 0 0 -192.99 261.51 -261.51 376.76 0 140.26 140.26 583.58 0 0 2081.91 173.41 0 0 -2139.66 531.42 0 0 -455.91 156.63 0 0 -330.04 97.89 0 0 -511.84 41.95 0 0 506.25 131.45 0 0 290.88 204.19 0 0 662.88 204.16 0 0 2752.19 84.4 0 0 383.18 -4126.35 0 0 -3174.53zm32864.57 1122.97l46.29 0 0 -1969.05 168.12 -45.05 0 -268.2c0,0 -11.5,-5.58 17.86,-83.9 29.37,-78.31 33.57,-82.51 33.57,-82.51l0 -162.22 59.51 15.94 0 130.9c0,0 32.79,76.91 43.98,100.68 11.18,23.77 9.78,39.16 12.58,83.91 2.8,44.75 0,197.89 0,197.89l86.71 0 0 -260.12 145.72 -84.13 0 -429.82 166.83 -409.75 0 -85.31 50.35 0 0 62.93 183.2 458.7 0 430.74 119.9 69.24 0 269.19 130.42 0 0 -254.52 73.72 -275.11 78.23 291.99 0 269.8 191.69 110.68 0 527.03 526.22 0 0 446.11 378.97 0 0 2995.52 -2513.87 0 0 -2051.56z"/>
  <rect class="fil1" x="26637.29" y="4508.15" width="18767.53" height="549.96"/>
  <rect class="fil1" x="26637.29" y="2581.12" width="18767.53" height="181.52"/>
  <g id="_2729547614320">
   <rect class="fil1" x="29391.11" y="1078.34" width="83.78" height="1661.76"/>
   <rect class="fil1" x="29247.96" y="1132.46" width="497.47" height="11.35"/>
   <rect class="fil1" x="29671.88" y="1139.44" width="73.55" height="37.82"/>
   <rect class="fil1" x="29700.05" y="1148.61" width="17.21" height="37.82"/>
   <rect class="fil1" x="29259.61" y="1078.3" width="346.77" height="11.35"/>
  </g>
  <g id="_2729547616944">
   <rect class="fil1" x="31460.67" y="1078.34" width="83.78" height="1661.76"/>
   <rect class="fil1" x="31317.51" y="1132.46" width="497.47" height="11.35"/>
   <rect class="fil1" x="31741.43" y="1139.44" width="73.55" height="37.82"/>
   <rect class="fil1" x="31769.61" y="1148.61" width="17.21" height="37.82"/>
   <rect class="fil1" x="31329.17" y="1078.3" width="346.77" height="11.35"/>
  </g>
  <g id="_2729547619504">
   <rect class="fil1" x="33530.22" y="1078.34" width="83.78" height="1661.76"/>
   <rect class="fil1" x="33387.07" y="1132.46" width="497.47" height="11.35"/>
   <rect class="fil1" x="33810.99" y="1139.44" width="73.55" height="37.82"/>
   <rect class="fil1" x="33839.16" y="1148.61" width="17.21" height="37.82"/>
   <rect class="fil1" x="33398.73" y="1078.3" width="346.77" height="11.35"/>
  </g>
  <g id="_2729547624592">
   <rect class="fil1" x="35599.78" y="1078.34" width="83.78" height="1661.76"/>
   <rect class="fil1" x="35456.63" y="1132.46" width="497.47" height="11.35"/>
   <rect class="fil1" x="35880.55" y="1139.44" width="73.55" height="37.82"/>
   <rect class="fil1" x="35908.72" y="1148.61" width="17.21" height="37.82"/>
   <rect class="fil1" x="35468.28" y="1078.3" width="346.77" height="11.35"/>
  </g>
  <g id="_2729547627216">
   <rect class="fil1" x="37669.34" y="1078.34" width="83.78" height="1661.76"/>
   <rect class="fil1" x="37526.18" y="1132.46" width="497.47" height="11.35"/>
   <rect class="fil1" x="37950.11" y="1139.44" width="73.55" height="37.82"/>
   <rect class="fil1" x="37978.28" y="1148.61" width="17.21" height="37.82"/>
   <rect class="fil1" x="37537.84" y="1078.3" width="346.77" height="11.35"/>
  </g>
  <g id="_2729547628944">
   <rect class="fil1" x="39738.89" y="1078.34" width="83.78" height="1661.76"/>
   <rect class="fil1" x="39595.74" y="1132.46" width="497.47" height="11.35"/>
   <rect class="fil1" x="40019.66" y="1139.44" width="73.55" height="37.82"/>
   <rect class="fil1" x="40047.83" y="1148.61" width="17.21" height="37.82"/>
   <rect class="fil1" x="39607.4" y="1078.3" width="346.77" height="11.35"/>
  </g>
  <g id="_2729547633136">
   <rect class="fil1" x="41808.45" y="1078.34" width="83.78" height="1661.76"/>
   <rect class="fil1" x="41665.3" y="1132.46" width="497.47" height="11.35"/>
   <rect class="fil1" x="42089.22" y="1139.44" width="73.55" height="37.82"/>
   <rect class="fil1" x="42117.39" y="1148.61" width="17.21" height="37.82"/>
   <rect class="fil1" x="41676.95" y="1078.3" width="346.77" height="11.35"/>
  </g>
  <g>
   <line class="fil2 str0" x1="29935.69" y1="2687.43" x2="28777.54" y2= "4693.41" />
  </g>
  <g>
   <line class="fil2 str1" x1="30145.76" y1="2687.43" x2="31303.91" y2= "4693.41" />
  </g>
  <g>
   <path class="fil3" d="M29940.29 4816.92l158.34 0c0,40.22 -35.45,72.83 -79.17,72.83 -43.72,0 -79.17,-32.61 -79.17,-72.83zm0 -2131.06l158.34 0 0 2131.06 -158.34 0 0 -2131.06zm158.34 0l-158.34 0c0,-40.22 35.45,-72.83 79.17,-72.83 43.72,0 79.17,32.61 79.17,72.83z"/>
  </g>
  <g>
   <path class="fil3" d="M31242.44 4693.42l158.34 0c0,37.89 -35.45,68.61 -79.17,68.61 -43.72,0 -79.17,-30.72 -79.17,-68.61zm0 -2007.56l158.34 0 0 2007.56 -158.34 0 0 -2007.56zm158.34 0l-158.34 0c0,-37.89 35.45,-68.61 79.17,-68.61 43.72,0 79.17,30.72 79.17,68.61z"/>
  </g>
  <g>
   <path class="fil3" d="M28694.02 4607.94l158.34 0c0,36.27 -35.45,65.69 -79.17,65.69 -43.72,0 -79.17,-29.42 -79.17,-65.69zm0.01 -1922.08l158.34 0 -0.01 1922.08 -158.34 0 0.01 -1922.08zm158.34 0l-158.34 0c0,-36.27 35.45,-65.69 79.17,-65.69 43.72,0 79.17,29.42 79.17,65.69z"/>
  </g>
  <g>
   <line class="fil2 str2" x1="32484.1" y1="2687.43" x2="31325.95" y2= "4693.41" />
  </g>
  <g>
   <line class="fil2 str3" x1="32694.18" y1="2687.43" x2="33852.33" y2= "4693.41" />
  </g>
  <g>
   <path class="fil3" d="M32488.7 4816.92l158.34 0c0,40.22 -35.45,72.83 -79.17,72.83 -43.72,0 -79.17,-32.61 -79.17,-72.83zm0.01 -2131.06l158.34 0 -0.01 2131.06 -158.34 0 0.01 -2131.06zm158.34 0l-158.34 0c0,-40.22 35.45,-72.83 79.17,-72.83 43.72,0 79.17,32.61 79.17,72.83z"/>
  </g>
  <g>
   <path class="fil3" d="M33790.85 4693.42l158.34 0c0,37.89 -35.45,68.61 -79.17,68.61 -43.72,0 -79.17,-30.72 -79.17,-68.61zm0 -2007.56l158.34 0 0 2007.56 -158.34 0 0 -2007.56zm158.34 0l-158.34 0c0,-37.89 35.45,-68.61 79.17,-68.61 43.72,0 79.17,30.72 79.17,68.61z"/>
  </g>
  <g>
   <path class="fil3" d="M31242.44 4607.94l158.34 0c0,36.27 -35.45,65.69 -79.17,65.69 -43.72,0 -79.17,-29.42 -79.17,-65.69zm0 -1922.08l158.34 0 0 1922.08 -158.34 0 0 -1922.08zm158.34 0l-158.34 0c0,-36.27 35.45,-65.69 79.17,-65.69 43.72,0 79.17,29.42 79.17,65.69z"/>
  </g>
  <g>
   <line class="fil2 str4" x1="35032.52" y1="2687.43" x2="33874.37" y2= "4693.41" />
  </g>
  <g>
   <line class="fil2 str5" x1="35242.59" y1="2687.43" x2="36400.74" y2= "4693.41" />
  </g>
  <g>
   <path class="fil3" d="M35037.12 4788.99l158.34 0c0,39.69 -35.45,71.88 -79.17,71.88 -43.72,0 -79.17,-32.19 -79.17,-71.88zm0 -2103.13l158.34 0 0 2103.13 -158.34 0 0 -2103.13zm158.34 0l-158.34 0c0,-39.69 35.45,-71.88 79.17,-71.88 43.72,0 79.17,32.19 79.17,71.88z"/>
  </g>
  <g>
   <path class="fil3" d="M36339.26 4816.92l158.34 0c0,40.22 -35.45,72.83 -79.17,72.83 -43.72,0 -79.17,-32.61 -79.17,-72.83zm0.01 -2131.06l158.34 0 -0.01 2131.06 -158.34 0 0.01 -2131.06zm158.34 0l-158.34 0c0,-40.22 35.45,-72.83 79.17,-72.83 43.72,0 79.17,32.61 79.17,72.83z"/>
  </g>
  <g>
   <path class="fil3" d="M33790.85 4607.94l158.34 0c0,36.27 -35.45,65.69 -79.17,65.69 -43.72,0 -79.17,-29.42 -79.17,-65.69zm0 -1922.08l158.34 0 0 1922.08 -158.34 0 0 -1922.08zm158.34 0l-158.34 0c0,-36.27 35.45,-65.69 79.17,-65.69 43.72,0 79.17,29.42 79.17,65.69z"/>
  </g>
  <g>
   <line class="fil2 str6" x1="37580.93" y1="2687.43" x2="36422.78" y2= "4693.41" />
  </g>
  <g>
   <line class="fil2 str7" x1="37791" y1="2687.43" x2="38949.15" y2= "4693.41" />
  </g>
  <g>
   <path class="fil3" d="M37585.53 4775.02l158.34 0c0,39.43 -35.45,71.4 -79.17,71.4 -43.72,0 -79.17,-31.97 -79.17,-71.4zm0 -2089.16l158.34 0 0 2089.16 -158.34 0 0 -2089.16zm158.34 0l-158.34 0c0,-39.43 35.45,-71.4 79.17,-71.4 43.72,0 79.17,31.97 79.17,71.4z"/>
  </g>
  <g>
   <path class="fil3" d="M38887.68 4693.42l158.34 0c0,37.89 -35.45,68.61 -79.17,68.61 -43.72,0 -79.17,-30.72 -79.17,-68.61zm0 -2007.56l158.34 0 0 2007.56 -158.34 0 0 -2007.56zm158.34 0l-158.34 0c0,-37.89 35.45,-68.61 79.17,-68.61 43.72,0 79.17,30.72 79.17,68.61z"/>
  </g>
  <g>
   <path class="fil3" d="M36339.26 4816.92l158.34 0c0,40.22 -35.45,72.83 -79.17,72.83 -43.72,0 -79.17,-32.61 -79.17,-72.83zm0.01 -2131.06l158.34 0 -0.01 2131.06 -158.34 0 0.01 -2131.06zm158.34 0l-158.34 0c0,-40.22 35.45,-72.83 79.17,-72.83 43.72,0 79.17,32.61 79.17,72.83z"/>
  </g>
  <g>
   <line class="fil2 str8" x1="40129.34" y1="2687.43" x2="38971.19" y2= "4693.41" />
  </g>
  <g>
   <line class="fil2 str9" x1="40339.42" y1="2687.43" x2="41497.57" y2= "4693.41" />
  </g>
  <g>
   <path class="fil3" d="M40133.94 4816.92l158.34 0c0,40.22 -35.45,72.83 -79.17,72.83 -43.72,0 -79.17,-32.61 -79.17,-72.83zm0.01 -2131.06l158.34 0 -0.01 2131.06 -158.34 0 0.01 -2131.06zm158.34 0l-158.34 0c0,-40.22 35.45,-72.83 79.17,-72.83 43.72,0 79.17,32.61 79.17,72.83z"/>
  </g>
  <g>
   <path class="fil3" d="M41436.09 4693.42l158.34 0c0,37.89 -35.45,68.61 -79.17,68.61 -43.72,0 -79.17,-30.72 -79.17,-68.61zm0 -2007.56l158.34 0 0 2007.56 -158.34 0 0 -2007.56zm158.34 0l-158.34 0c0,-37.89 35.45,-68.61 79.17,-68.61 43.72,0 79.17,30.72 79.17,68.61z"/>
  </g>
  <g>
   <path class="fil3" d="M38887.68 4607.94l158.34 0c0,36.27 -35.45,65.69 -79.17,65.69 -43.72,0 -79.17,-29.42 -79.17,-65.69zm0 -1922.08l158.34 0 0 1922.08 -158.34 0 0 -1922.08zm158.34 0l-158.34 0c0,-36.27 35.45,-65.69 79.17,-65.69 43.72,0 79.17,29.42 79.17,65.69z"/>
  </g>
  <g>
   <line class="fil2 str10" x1="42677.76" y1="2687.43" x2="41519.61" y2= "4693.41" />
  </g>
  <g>
   <line class="fil2 str11" x1="42887.83" y1="2687.43" x2="44045.98" y2= "4693.41" />
  </g>
  <g>
   <path class="fil3" d="M42682.36 4816.92l158.34 0c0,40.22 -35.45,72.83 -79.17,72.83 -43.72,0 -79.17,-32.61 -79.17,-72.83zm0 -2131.06l158.34 0 0 2131.06 -158.34 0 0 -2131.06zm158.34 0l-158.34 0c0,-40.22 35.45,-72.83 79.17,-72.83 43.72,0 79.17,32.61 79.17,72.83z"/>
  </g>
  <g>
   <path class="fil3" d="M43984.5 4693.42l158.34 0c0,37.89 -35.45,68.61 -79.17,68.61 -43.72,0 -79.17,-30.72 -79.17,-68.61zm0.01 -2007.56l158.34 0 -0.01 2007.56 -158.34 0 0.01 -2007.56zm158.34 0l-158.34 0c0,-37.89 35.45,-68.61 79.17,-68.61 43.72,0 79.17,30.72 79.17,68.61z"/>
  </g>
  <g>
   <path class="fil3" d="M41436.09 4607.94l158.34 0c0,36.27 -35.45,65.69 -79.17,65.69 -43.72,0 -79.17,-29.42 -79.17,-65.69zm0 -1922.08l158.34 0 0 1922.08 -158.34 0 0 -1922.08zm158.34 0l-158.34 0c0,-36.27 35.45,-65.69 79.17,-65.69 43.72,0 79.17,29.42 79.17,65.69z"/>
  </g>
  <g>
   <line class="fil2 str12" x1="45226.17" y1="2687.43" x2="44068.02" y2= "4693.41" />
  </g>
  <g>
   <path class="fil3" d="M45230.77 4816.92l158.34 0c0,40.22 -35.45,72.83 -79.17,72.83 -43.72,0 -79.17,-32.61 -79.17,-72.83zm0 -2131.06l158.34 0 0 2131.06 -158.34 0 0 -2131.06zm158.34 0l-158.34 0c0,-40.22 35.45,-72.83 79.17,-72.83 43.72,0 79.17,32.61 79.17,72.83z"/>
  </g>
  <g>
   <path class="fil3" d="M43984.5 4607.94l158.34 0c0,36.27 -35.45,65.69 -79.17,65.69 -43.72,0 -79.17,-29.42 -79.17,-65.69zm0.01 -1922.08l158.34 0 -0.01 1922.08 -158.34 0 0.01 -1922.08zm158.34 0l-158.34 0c0,-36.27 35.45,-65.69 79.17,-65.69 43.72,0 79.17,29.42 79.17,65.69z"/>
  </g>
  <rect class="fil1" x="26637.29" y="4316.12" width="18767.53" height="90.77"/>
  <rect class="fil1" x="28692.95" y="4975.17" width="1298.65" height="712.16"/>
  <rect class="fil1" x="31925.58" y="4975.17" width="1298.65" height="712.16"/>
  <rect class="fil1" x="35158.22" y="4975.17" width="1298.65" height="712.16"/>
  <rect class="fil1" x="38390.86" y="4975.17" width="1298.65" height="712.16"/>
  <rect class="fil1" x="41623.49" y="4975.17" width="1298.65" height="712.16"/>
  <path class="fil1" d="M15404.51 5692.25l0 -1716.08 -214.66 0 0 -263.45 858.64 0 0 -132.88c705.58,-491.84 1875.85,-813.58 3200.42,-813.58 1349.2,0 2538.46,333.77 3239.44,841.14l0 105.32 858.65 0 0 263.45 -223.17 0 0 1716.08c-2551.06,0 -5144.6,0 -7719.32,0zm4774.32 -1150.15c-243.04,-303.27 -564.6,-487.87 -917.27,-487.87 -352.65,0 -674.17,184.61 -917.19,487.87l1834.46 0z"/>
  <g>
   <path class="fil1" d="M8284.65 3470.2c420.33,-61.4 148.07,38.81 590.68,38.91l1.65 1120.93c0.18,123.94 -46.99,267.45 70.28,268.44l13.95 -427.13 162.64 -2.28 -0.03 -2363.94c-66.61,85.6 -28.42,1051.44 -28.42,1158.22 0,393.79 0,787.58 0,1181.38l-162.15 0 -21.14 -882.27c-9.95,-135.53 -58.3,-82.08 -187.76,-90.21 -114.1,-7.16 -72.32,-42.45 -207.03,-47.98 -25.99,-1.07 -116.88,-1.56 -139.83,1.49 -67.53,9 -56.6,14.79 -92.84,44.44z"/>
   <path class="fil1" d="M9832.82 945.83c72.78,-62.63 86.21,5.24 99.54,-109.13 -81.96,-70.21 -59.57,-11.49 -146.32,-54.48l5.87 -266.49c181.84,-9.98 152.63,10.65 180.79,-57.79 -46.13,-69.26 -78.2,-30.89 -188.92,-43.81 10.78,-298.94 10.15,-241.94 -72.84,-248.07 -37.38,58.87 -21.38,175.66 -19.74,255.76 -95.5,-0.73 -149.7,-26.96 -188.83,36.12 37.66,54.74 -89.61,55.47 184.52,54.83l-2.01 269.47c-100.79,45.65 -77.83,-26.17 -142.96,69.49 20.8,55.7 81.7,84.67 81.77,84.5 1.94,-4.08 10.09,4.56 14.18,8.16 -80.85,199.94 -84.49,236.06 -214.54,361.02 -231.23,222.15 -479.7,276.59 -543.35,615.68 -49.49,263.58 53.73,330.01 119.28,436.32 -39.2,85.69 -68.09,136.22 -54.72,254 5.64,49.76 13.97,69.8 36.4,105.32 89.42,141.72 56.77,95.72 49.01,462.19 -130.92,57.5 -171.14,102.28 -254.52,187.48l-91.05 69.59c0.01,-321.7 59.16,-144.71 143.74,-341.33 56.64,-131.69 10.02,-269.01 -57.34,-352.97 -221.96,-276.69 -335.95,-108.51 -337.01,-569.59 30.41,-20.63 9.32,-2.28 56.46,-18.5 127.6,-43.94 72.54,48.65 86.74,-71.36 -26.72,0.09 -65.61,3.45 -90.48,-4.25 -124.27,-38.5 1.15,-76.32 -72.76,-203.28 -58.34,24.77 -32.44,-35.57 -45.21,86.5 -2.31,22.12 1.66,92.85 1.41,120.84l-143.46 20.56c49.48,99.95 -10.54,2.87 72.02,42.55 104.54,50.2 65.03,13.31 72.17,50.1 0,188.36 8.77,234.47 -102.18,341.14 -63.07,60.64 -179.46,142.41 -223.16,194.78 -63.52,76.12 -114.79,195.72 -78.85,327.73 38.18,140.22 97.47,140.11 188.92,225.08 19.55,353.25 0.65,259.97 -137.71,483.77 -41.37,66.91 -76.56,140.75 -96.62,230.75 -27.59,123.77 2.8,111.7 91.81,165.72l0.55 254.82c0.48,432.07 28.19,302.06 -73.75,393.78 -5.11,146.32 -2.79,293.74 -1.64,440.36 1.55,199.07 -51.84,234.94 -36.99,402.91 296.31,0.04 3537.96,31.28 3675.37,-21.36 13.97,-178.54 -31.06,-110.78 -40.2,-264.59l-47.85 -600.6c-60.36,-71.68 -31.03,-386.28 -28.41,-491.73 6.2,-249.67 162.28,-62.94 81.66,-321.2 -133.66,-428.27 -240.53,-156.62 -222.79,-672.63 182.11,-154.71 321.76,-340.91 96.24,-568.91 -201.42,-203.6 -309.4,-140.2 -310.01,-542.98l85.12 -30.37c60.05,-27.03 24.6,19.14 56.93,-39.12 -62.91,-29.66 -58.58,-18.88 -142.2,-25.62l-5.32 -155.32c-11.29,-54.97 1.15,-17.67 -21.95,-49.3 -64.54,38.83 -37.81,89.68 -38.33,183.9l-94.53 31.09c-58.41,26.92 -22.76,-23.36 -47.52,38.41 59.78,33.86 47.43,6.51 85.36,23.94 64.84,29.79 24.99,-23.88 57.82,45.55 66.01,293.9 -255.37,461.76 -336.76,552.72 -185.7,207.48 -40.74,411.2 89.12,512.57l-1.8 179.17c-46.92,-24.54 -128.65,-112.35 -165.4,-144.29 -65.64,-57.01 -103.46,-65.71 -178.48,-127.16l-10.41 -393.91c22.81,-66.35 180.77,-69.7 37.17,-416.95 451.42,-542.01 -305.39,-925.73 -442.05,-1062.49 -123.57,-123.67 -111.73,-188 -199,-349.09z"/>
   <rect class="fil1" x="10744.87" y="4003.1" width="767.12" height="1404.76"/>
   <ellipse class="fil1" cx="9740.33" cy="860.22" rx="204.15" ry="89.91"/>
   <rect class="fil1" x="9677.91" y="137.75" width="116.36" height="674.87" rx="58.18" ry="58.18"/>
   <rect class="fil1" x="9485.93" y="411.72" width="490.82" height="104.73" rx="52.37" ry="52.37"/>
   <rect class="fil1" x="8350.69" y="1819.67" width="105.31" height="610.77" rx="52.66" ry="52.66"/>
   <rect class="fil1" x="8176.95" y="2067.62" width="444.2" height="94.78" rx="47.4" ry="47.4"/>
   <rect class="fil1" x="11017.32" y="1819.67" width="105.31" height="610.77" rx="52.66" ry="52.66"/>
   <rect class="fil1" x="10843.58" y="2067.62" width="444.2" height="94.78" rx="47.4" ry="47.4"/>
  </g>
  <g>
   <path class="fil1" d="M4821.63 311.61c-13.21,-6.02 -23.54,-6.94 -46.94,-1.71 10.33,-7.45 31.24,-32.95 35.43,-49.16 -23.53,-1.7 -38.71,6.28 -51.78,11.11 40.4,-31.64 42.1,-50.87 37.92,-78.59 -20.79,21.05 -84.99,71.79 -84.6,71.79 -0.39,0 32.3,-33.99 56.1,-61.98 23.92,-28.5 13.07,-55.83 -1.71,-76.36 -3,14.38 -41.71,74.14 -72.83,101.07l-2.09 -5.49c-1.05,7.59 -22.49,36.75 -35.17,47.34l-2.23 -5.23c-6.54,10.33 -45.37,43.54 -61.71,60.28 -16.09,16.87 -9.94,33.34 -0.4,42.24 10.07,8.89 14.38,18.3 2.88,33.86 -10.99,15.95 -41.58,13.73 -55.44,-4.19 28.77,-11.37 25.75,-29.28 19.08,-43.28 -17.25,24.85 -27.71,14.39 -42.62,0.92 15.69,-0.39 24.58,-8.24 30.6,-19.74 -29.42,3.66 -38.58,-7.84 -42.89,-25.89 -4.58,-17.79 13.86,-38.58 35.17,-52.83 0.53,0 5.36,2.75 8.89,2.22 3.66,-0.13 8.11,-5.75 12.95,-8.1 21.45,-3.41 32.3,5.88 30.21,28.24 7.71,-3.92 9.01,-16.74 6.27,-24.58 -2.74,-7.72 -9.68,-8.89 -8.76,-10.07 1.04,-1.18 9.81,4.58 17.52,11.77 7.33,7.45 24.59,7.45 31.91,4.31 7.19,-3.53 11.11,-14.25 13.2,-24.58 -5.09,9.29 -18.43,13.86 -26.28,13.21 -7.58,-0.79 -22.62,-12.17 -36.09,-15.04 11.24,-9.68 26.81,-3.01 36.61,4.83 20.53,-27.98 5.24,-39.87 -5.36,-44.98 -10.59,-5.36 -13.59,-1.17 -15.95,-2.61 -2.35,-1.04 -5.36,-5.36 -10.85,-7.06l0 -3.27c21.31,-0.39 32.03,-9.42 41.84,-17.65 10.07,-8.11 6.54,-29.29 3,-39.88 -3.52,-10.86 3.8,-12.29 7.33,-10.2 3.4,2.09 22.62,8.75 22.62,8.75 0,0 1.84,1.45 3.79,8.11 1.84,6.67 0.79,10.2 -1.95,14.39 -3.01,4.05 -10.6,13.07 -11.12,24.72 -0.65,12.01 8.11,18.3 8.89,26.27 1.04,8.5 -8.89,13.21 -8.89,13.21 0,0 3.4,2.74 8.89,2.22 5.75,-0.39 16.48,-7.32 19.88,-16.34 3.13,-8.63 -7.59,-19.75 -7.59,-19.75 0,0 6.93,3.93 12.29,4.19 5.5,0.78 4.97,-1.96 9.81,-0.66 4.7,1.44 5.23,8.37 5.23,8.37 0,0 4.45,-3.13 6.15,-8.5 1.56,-5.49 3.14,-17.38 -11.51,-18.44 -15.04,-1.17 -11.9,-6.27 -3.92,-15.69 8.36,-9.67 8.5,-25.62 -7.45,-29.15 -15.83,-3.54 -23.28,-11.38 -29.04,-21.31 -6.01,-10.21 -21.18,-11.38 -41.06,-5.5 -19.35,6.02 -9.54,32.04 -3.52,47.08 6.4,14.77 6.14,19.61 2.22,26.93 -3.93,7.06 -19.22,11.51 -28.77,11.37l0 -6.53c7.85,-12.16 12.03,-29.95 9.16,-37.14 -2.49,-7.19 -15.18,-10.85 -22.63,-10.72 -7.84,0.26 -7.71,0.26 -7.71,0.26 5.23,-3 6.14,-10.07 0.52,-13.07l0 -5.89 4.84 0 0 -10.07 -4.58 0 0 -5.1 -11.25 0 0 4.97 -4.7 0 0 10.2 4.7 0 0 5.88c-4.83,3.14 -3.91,9.94 0.53,13.08 0,0 0.13,0 -7.45,-0.26 -7.59,-0.13 -20.27,3.53 -23.02,10.72 -2.48,7.19 1.57,24.98 9.03,37.01l-0.53 8.49c-26.93,-4.96 -34.52,-8.36 -64.2,-38.96l0.39 -5.36c17.79,-40.93 19.48,-39.62 20.01,-49.95 0.26,-10.46 0,-33.34 -39.62,-36.75 -0.14,4.58 -6.15,9.55 -10.33,-2.09 6.27,-4.83 6.93,-16.21 0.39,-17.52l-1.7 -7.06 7.06 2.49 0 -13.47 -7.58 2.48 2.87 -8.24 -15.16 0 2.35 8.11 -7.19 -2.88 0 13.47 6.93 -2.09 -2.09 6.67c-6.41,1.96 -6.67,13.07 -0.13,17.52 -4.45,11.64 -10.33,6.54 -10.33,1.96 -39.36,2.74 -40.67,25.24 -40.67,35.57 0.52,10.46 1.96,9.15 18.83,50.6l0.13 5.63c-30.47,29.55 -36.35,32.81 -63.55,37l0 -8.5c7.45,-11.64 12.16,-29.55 9.68,-36.87 -2.35,-6.93 -15.17,-11.12 -22.76,-11.12 -7.58,0.13 -7.45,0.13 -7.45,0.13 4.19,-3.01 5.36,-8.89 0.26,-13.2l0 -6.15 5.1 0 0 -10.2 -4.7 0 0 -4.97 -10.46 0 0 4.97 -4.85 0 0 10.2 4.58 0 0 5.76c-6.14,3.92 -5.49,10.58 0,13.46 -0.04,-0.01 -0.68,-0.08 -7.32,-0.52 -7.84,-0.52 -20.53,2.88 -23.15,9.81 -2.74,7.32 0.79,25.23 8.37,37.53l-0.26 6.4c-9.68,0 -24.58,-4.84 -28.5,-12.03 -3.66,-7.19 -3.66,-12.16 2.87,-27.07 6.67,-14.64 17.13,-40.53 -2.35,-46.81 -19.22,-6.41 -34.78,-5.88 -40.93,4.19 -6.01,10.06 -13.47,17.25 -29.81,20.65 -15.82,3.27 -16.22,18.97 -8.24,28.9 8.11,9.68 10.86,14.77 -3.92,15.44 -14.91,0.64 -13.73,12.68 -12.16,18.17 1.57,5.75 5.75,8.76 5.75,8.76 0,0 0.65,-6.93 5.76,-8.24 4.96,-1.31 4.18,1.57 9.8,1.18 5.49,-0.26 12.16,-4.06 12.16,-4.06 0,0 -11.24,10.73 -7.84,19.62 3,8.76 13.46,16.08 19.22,16.47 5.62,0.79 9.02,-1.82 9.02,-1.82 0,0 -9.67,-4.85 -8.89,-13.21 1.57,-7.98 10.2,-14 10.07,-26.15 -0.53,-11.91 -7.85,-20.67 -10.59,-24.85 -2.62,-4.31 -3.66,-7.84 -1.44,-14.38 1.96,-6.8 3.92,-7.98 3.92,-7.98 0,0 19.22,-6.4 22.75,-8.37 3.53,-1.83 10.86,-0.52 7.19,10.2 -4.05,10.86 -7.84,31.65 1.83,40.41 9.68,8.1 20.01,17.26 41.07,18.43l0 3.4c-5.37,1.31 -8.38,5.63 -10.86,6.67 -2.35,1.31 -5.23,-2.88 -15.82,1.96 -10.85,5.23 -26.41,16.22 -6.93,43.29 10.59,-7.59 25.89,-13.86 36.87,-4.06 -13.34,2.62 -28.64,13.47 -36.61,14.25 -7.72,0.66 -20.92,-4.57 -25.63,-13.72 1.83,9.15 5.75,21.05 12.68,24.71 7.07,3.53 24.2,3.92 31.91,-3.53 7.72,-7.07 16.48,-12.17 17.52,-11.38 0.79,1.18 -6.01,2.36 -8.63,10.07 -3.14,7.58 -2.09,20.79 5.36,24.45 -1.57,-22.1 9.42,-31.38 31.12,-27.33 4.58,2.36 9.15,8.24 12.69,8.63 3.4,0.4 8.36,-2.09 8.76,-2.09 20.92,15.04 37.26,35.83 32.16,53.88 -4.7,18.04 -12.42,29.02 -41.71,24.58 5.49,11.76 14.12,19.74 29.68,20.53 -15.03,12.81 -26.01,23.14 -42.23,-2.23 -7.06,14.13 -10.46,31.78 17.91,44.07 -14.38,17.52 -45.11,18.7 -55.44,2.48 -10.98,-15.69 -6.53,-24.84 3.53,-33.6 9.81,-8.64 16.35,-25.11 0.79,-42.37 -15.83,-17.12 -53.75,-51.12 -60.41,-61.72l-1.84 5.24c-12.28,-11.25 -33.34,-40.8 -33.86,-48.25l-2.49 5.49c-30.33,-26.16 -67.21,-86.83 -70.08,-101.08 -15.17,20.01 -26.67,47.07 -3.67,76.1 23.02,26.8 54.66,61.85 54.66,61.59 0,0.26 -62.5,-51.91 -82.77,-72.18 -4.97,26.02 -3.79,45.11 35.57,77.94 -12.68,-5.5 -27.85,-13.86 -51.26,-12.82 4.05,16.34 23.93,42.49 34.13,50.21 -23.01,-5.88 -33.34,-5.36 -46.55,0.52 5.62,11.64 25.11,33.35 38.7,39.49 -16.21,1.83 -35.69,10.72 -38.18,13.2 6.93,10.73 18.44,20.15 33.35,25.51 -17.27,8.1 -22.23,13.47 -24.72,17.39 7.85,11.9 17.13,19.88 30.34,22.36 -2.09,1.7 -3.92,3.79 -6.15,5.88 2.49,3.4 12.16,7.72 12.69,10.07 0.52,1.95 4.05,-2.23 4.97,-5.23 -0.26,1.83 10.06,6.02 6.4,11.25 1.83,10.85 9.81,-1.44 12.69,-7.07 19.48,19.49 1.43,42.5 1.83,43.41 0.13,0.79 4.96,4.84 6.67,8.37 10.46,-5.49 34.65,-21.45 34.65,-21.45 0,0 -26.03,19.23 -32.17,27.21 -5.63,8.76 -2.48,24.06 -1.3,25.37 1.17,2.22 18.04,6.53 23.79,0.78 6.41,-6.14 35.3,-40.93 34.91,-40.02 0,1.18 -15.82,22.36 -21.18,34.13 -5.23,11.64 2.36,29.29 4.84,30.99 3.66,1.7 23.53,0 26.67,-6.14 2.88,-6.02 23.67,-46.67 23.41,-46.67 0.26,0 -14.51,30.98 -15.56,41.44 -0.78,10.46 9.54,24.58 12.55,25.1 3.27,0.79 21.18,-4.05 23.15,-11.37 2.35,-7.06 12.03,-46.68 11.9,-46.68 0.13,0 -4.97,27.2 -3.41,35.31 0.53,9.28 13.47,15.42 16.22,18.69 2.23,5.23 4.31,3.39 7.19,0.13 2.49,-2.75 16.87,-5.11 16.22,-21.44 -0.53,-16.34 0.12,-28.77 0,-28.77 0.12,0 9.8,0.52 14.51,-3.92 4.71,-4.18 7.45,-5.76 7.32,-5.76 0.13,0 3.92,8.77 9.81,9.16 5.89,0.52 10.98,2.22 10.98,2.22l0.79 53.22c-13.21,10.07 -23.93,16.47 -41.58,11.37l3.79 4.19c-26.8,1.96 -43.54,11.76 -40.28,44.71 3.54,32.17 -13.07,22.89 -13.46,22.76 0.39,0.13 8.36,21.97 33.21,4.96 3.66,9.55 0.39,22.5 -1.83,26.16 6.8,-2.75 12.68,-8.11 14.9,-10.99 1.84,-2.48 1.96,4.84 0.79,8.37 -0.79,3.53 7.84,-9.14 8.63,-12.15 1.18,-3.02 10.85,6.66 0.92,15.03 -10.2,8.5 -43.42,19.35 -57.28,21.31 -17.78,2.88 -35.7,5.5 -35.7,-12.03 0,-16.99 -19.74,-18.69 -27.85,-10.07 -4.96,-4.57 -8.49,-12.68 -8.49,-12.68 -0.14,1.45 -14,6.4 -14.78,5.36 -0.66,1.18 4.05,13.74 1.57,16.75 -2.49,3.52 -15.56,9.53 -14.38,15.29 -0.92,8.76 8.49,11.64 9.93,12.16 -2.88,8.37 6.02,16.61 11.77,14.64 -0.66,15.83 -4.31,11.38 13.6,20.93 3.27,1.82 7.71,0.91 9.41,2.48 1.7,1.7 13.34,9.94 17.92,-15.16 6.8,-6.28 22.62,-17.01 39.36,-20.01 18.69,-3.28 86.3,-18.31 101.6,-19.62 0.91,-11.24 -4.32,-21.96 -4.32,-21.96 0,-0.01 17.66,-3.67 24.06,-17.13 -10.85,2.35 -21.71,0.53 -22.36,-12.03 -0.52,-12.69 9.02,-23.41 22.75,-21.84 16.22,1.31 32.3,14.78 31.25,29.68 -0.65,14.52 -11.5,21.05 -19.47,26.15 -7.59,5.75 -6.81,17.27 -7.07,17.13 0.26,0.14 -0.65,-3.92 5.36,-6.4 6.15,-2.49 17.52,-2.88 17.52,-3.14 0,0.26 0.14,3.53 -6.14,7.45 -6.15,4.71 -27.85,13.6 -36.88,17.79 -10.85,4.44 -27.2,18.83 -33.21,18.43 -6.01,0.4 -11.51,-1.31 -12.03,-6.27 -0.39,-4.72 2.62,-10.86 2.62,-10.86 0,0 -13.6,2.49 -18.18,9.94 -4.58,7.72 -6.93,23.92 2.75,29.55 -8.9,10.2 -12.16,29.94 -7.33,40.41 4.58,10.72 3.66,20.01 3.66,19.87 0,0.14 9.81,-3.14 10.47,-10.07 0.65,-6.41 7.71,-15.17 7.45,-15.17 0.26,0 0,18.57 11.11,26.42 10.86,7.72 22.36,12.29 38.84,-2.75 15.82,18.05 25.76,29.29 52.43,20.14 3.8,6.14 14.65,17.13 20.8,19.09 6.01,-1.43 17.65,-10.46 21.83,-16.35 26.28,9.81 36.35,-0.91 52.83,-18.83 17.91,15.56 29.42,10.99 40.4,3.54 10.99,-7.19 11.51,-25.89 11.51,-25.89 0,0 6.54,8.63 7.32,15.29 0.52,6.93 10.33,10.6 10.33,10.46 0,0.14 -0.91,-9.28 4.19,-19.74 5.09,-10.33 2.22,-30.21 -6.28,-40.66 9.8,-5.24 7.84,-21.71 3.27,-29.43 -4.44,-7.59 -17.78,-10.2 -17.78,-10.32 0,0.12 3,6.01 2.35,10.85 -0.66,5.1 -6.14,6.53 -12.16,6.01 -6.02,0 -22.1,-14.91 -32.82,-19.48 -10.33,-4.45 -31.9,-13.6 -38.05,-18.04 -6.14,-4.58 -5.76,-8.12 -5.76,-8.12 0,0 11.12,1.05 17.39,3.54 6.02,2.74 4.84,6.4 5.1,6.4 -0.26,0 0.92,-11.11 -6.8,-16.86 -7.84,-5.76 -18.17,-12.56 -18.56,-27.07 -0.79,-14.78 15.95,-27.85 31.9,-28.77 15.57,-0.91 24.72,9.68 23.67,22.36 -0.79,12.43 -13.33,14.12 -23.8,11.64 5.76,13.47 24.85,17.78 24.85,17.78 0,0 -5.36,10.59 -4.71,21.58 15.17,1.96 82.77,17.78 104.47,23.01 8.5,4.84 28.51,17.13 37.01,17.65 8.24,0.53 15.95,-5.35 22.23,-7.32 6.01,-1.31 12.68,-0.66 17.65,-2.48 4.71,-1.57 9.41,-8.24 19.09,-10.99 9.16,-2.75 9.29,-10.72 7.98,-15.04 4.05,-2.87 12.16,-15.16 13.86,-17.52 1.18,-2.09 1.31,0 6.28,-0.52 5.09,-0.65 8.1,-20.39 2.74,-23.15 -5.75,-2.87 -1.7,-2.21 -4.84,-4.57 -3.26,-15.04 -14.51,-37.92 -37.52,-42.76l-4.06 -7.19 10.99 4.32 0 -24.2 -10.85 5.37 4.58 -10.86 -24.86 0 3.28 10.86 -11.51 -5.37 0 24.2 12.03 -4.45 -4.05 7.71c-23.02,4.85 -35.44,23.14 -38.84,38.18 -0.13,1.05 -3.01,1.57 -6.02,4.06 -3.26,2.88 -3.13,23.14 0,24.32 2.88,1.57 7.85,0.52 8.64,2.22 0.91,2.1 4.05,8.5 4.05,8.5 0,0 -12.03,10.98 -27.33,10.46 -15.04,-0.13 -47.99,-13.33 -57.79,-22.48 -10.21,-8.64 0,-17.92 1.04,-15.04 0.78,3 9.02,16.08 8.63,12.55 -0.92,-3.66 -0.79,-10.85 1.17,-8.37 1.84,2.61 7.59,8.37 14.39,11.38 -2.22,-3.54 -5.36,-16.74 -1.57,-26.42 24.72,17.92 33.48,-3.92 33.48,-4.18 0,0.26 -17.26,9.15 -12.69,-23.02 4.19,-32.55 -12.29,-43.28 -39.1,-45.76l3.8 -3.92c-17.66,4.57 -28.51,-2.23 -41.19,-12.29l1.83 -53.49c0,0 5.36,-1.56 11.24,-1.69 6.02,-0.53 9.94,-9.02 9.94,-9.02 0,0 2.75,1.57 7.33,6.01 4.57,4.32 14.24,4.18 14.38,4.18 -0.14,0 0.26,12.69 -0.66,28.64 -1.04,16.48 13.21,19.09 15.7,22.1 2.87,3.27 4.96,4.97 7.05,0 1.97,-4.71 15.3,-10.07 17,-18.04 1.44,-8.38 -2.87,-35.57 -2.74,-35.7 -0.13,0.13 8.5,39.88 10.72,47.2 1.96,7.06 19.74,12.42 23.01,11.64 3.01,-0.4 13.87,-13.99 13.08,-24.58 -0.65,-10.33 -14.52,-41.97 -14.25,-41.97 -0.27,0 19.22,41.44 22.1,47.59 3.01,5.88 22.62,8.24 26.28,6.67 3.01,-1.45 10.72,-18.83 5.75,-30.86 -5.1,-11.63 -20.14,-33.34 -20.4,-34.52 -0.13,-1.18 27.85,34.52 33.74,40.67 6.01,6.01 22.62,1.69 24.32,0 1.18,-1.44 4.58,-16.48 -0.79,-25.24 -6.01,-8.5 -31.51,-28.5 -31.51,-28.5 0,0 11.9,7.19 29.16,19.86 16.48,12.69 21.97,7.46 35.7,4.71 1.7,-5.23 0.13,-19.48 -7.98,-31.76 21.32,0.78 26.68,-3.8 35.04,-9.82 -0.51,-4.44 -7.19,-18.3 -16.73,-26.15 13.08,-2.49 22.75,-9.94 30.6,-21.44 -2.35,-4.19 -7.19,-9.68 -23.93,-18.05 14.91,-5.1 26.54,-13.86 33.86,-24.71 -2.48,-2.35 -21.7,-12.03 -38.05,-14.12 13.86,-5.88 34.14,-27.07 40.28,-38.57z"/>
   <rect class="fil1" x="4260.67" y="555.59" width="345.69" height="3512.91"/>
   <rect class="fil1" x="3964.45" y="565.08" width="938.17" height="149.76"/>
   <rect class="fil1" x="4129.17" y="702.29" width="608.74" height="94.07"/>
   <rect class="fil1" x="4241.79" y="786.23" width="383.5" height="94.07"/>
   <rect class="fil1" x="4241.79" y="3862.91" width="383.5" height="94.07"/>
   <rect class="fil1" x="4215.24" y="3945.17" width="436.61" height="94.07"/>
   <rect class="fil1" x="4186.99" y="4025.16" width="493.1" height="94.07"/>
   <rect class="fil1" x="4228.75" y="4106" width="409.58" height="272.99"/>
   <rect class="fil1" x="4183.59" y="4335.94" width="499.9" height="122.62"/>
   <rect class="fil1" x="4148.97" y="4443.18" width="569.13" height="122.62"/>
   <rect class="fil1" x="4112.15" y="4547.45" width="642.78" height="122.62"/>
   <rect class="fil1" x="4156.91" y="4547.44" width="553.25" height="1112.22"/>
  </g>
  <rect class="fil1" x="397.97" y="5320.24" width="26468.62" height="372.01"/>
  <rect class="fil1" x="13454.25" y="2010.77" width="1563.96" height="3504.96"/>
  <rect class="fil1" x="12015.97" y="1563.92" width="1563.96" height="3951.8"/>
  <rect class="fil1" x="11638.95" y="3351.31" width="1563.96" height="2164.41"/>
  <rect class="fil1" x="6241.87" y="2974.28" width="1563.96" height="2541.44"/>
  <rect class="fil1" x="4887.38" y="3784.2" width="1131.08" height="1731.52"/>
  <rect class="fil1" x="25302.62" y="2010.77" width="1563.96" height="3504.96"/>
  <rect class="fil1" x="23864.34" y="1563.92" width="1563.96" height="3951.8"/>
  <rect class="fil1" x="23487.32" y="3351.31" width="1563.96" height="2164.41"/>
  <rect class="fil1" y="5477.59" width="45404.82" height="1695.31"/>
  <rect class="fil1" y="6325.23" width="45404.82" height="9465.06"/>
 </g>
</svg>
